<?xml version="1.0" standalone="no"?>
<!DOCTYPE svg PUBLIC "-//W3C//DTD SVG 1.1//EN" "http://www.w3.org/Graphics/SVG/1.1/DTD/svg11.dtd" >
<svg>
<metadata>
Created by FontForge 20090914 at Wed Apr 22 16:08:12 2015
 By www-data
Copyright (c) 1989, 1990 Adobe Systems Incorporated.  All Rights Reserved.
</metadata>
<defs>
<font id="Bodoni-Book" horiz-adv-x="500" >
  <font-face 
    font-family="Bodoni-Book"
    font-weight="400"
    font-stretch="normal"
    units-per-em="1000"
    panose-1="2 2 5 0 0 0 0 0 0 0"
    ascent="800"
    descent="-200"
    x-height="396"
    cap-height="668"
    bbox="-36.002 -227.004 1000 886"
    underline-thickness="50"
    underline-position="-50"
    unicode-range="U+0020-U+2122"
  />
<missing-glyph horiz-adv-x="502" 
d="M-1 0h500v500h-500v-500zM9 10v480h480v-480h-480z" />
    <glyph glyph-name=".notdef" horiz-adv-x="502" 
d="M-1 0h500v500h-500v-500zM9 10v480h480v-480h-480z" />
    <glyph glyph-name="space" unicode=" " horiz-adv-x="250" 
 />
    <glyph glyph-name="exclam" unicode="!" horiz-adv-x="278" 
d="M150 200c2 64.667 6.50098 125.833 13.501 183.5s15.167 116.167 24.5 175.5c5.33301 32 8 50.333 8 55c0 18.667 -4.83301 34.667 -14.5 48s-23.834 20 -42.501 20c-18 0 -32 -6.66699 -42 -20s-15 -29.333 -15 -48c0 -4.66699 2.66699 -23 8 -55
c10 -62.667 18.333 -121.667 25 -177s11 -116 13 -182h22zM137.001 -11.001c16.667 0 31 5.33301 43 16s18 24.667 18 42c0 15.333 -6.33301 28.5 -19 39.5s-26.667 16.5 -42 16.5c-14.667 0 -27.834 -5.5 -39.501 -16.5s-17.5 -24.167 -17.5 -39.5
c0 -16.667 5.33301 -30.5 16 -41.5s24.334 -16.5 41.001 -16.5z" />
    <glyph glyph-name="quotedbl" unicode="&#x22;" horiz-adv-x="444" 
d="M329 387l18 124c4 27.333 6.83301 47.5 8.5 60.5s2.5 24.5 2.5 34.5c0 17.333 -3 31.833 -9 43.5s-17.667 17.5 -35 17.5s-29 -5.83301 -35 -17.5s-9 -26.167 -9 -43.5c0 -10 1 -22.333 3 -37l9 -64l18 -118h29zM145 387l18 124c4 27.333 6.83301 47.5 8.5 60.5
s2.5 24.5 2.5 34.5c0 17.333 -3 31.833 -9 43.5s-17.667 17.5 -35 17.5s-29 -5.83301 -35 -17.5s-9 -26.167 -9 -43.5c0 -10 1 -22.333 3 -37l9 -64l18 -118h29z" />
    <glyph glyph-name="numbersign" unicode="#" 
d="M465 244h-99l24 157h104v52h-96l29 192h-56l-29 -192h-135l29 192h-56l-29 -192h-116v-52h108l-24 -157h-113v-52h105l-29 -192h56l29 192h135l-29 -192h56l29 192h107v52zM334 401l-24 -157h-135l24 157h135z" />
    <glyph glyph-name="dollar" unicode="$" 
d="M176 20c-8 0 -17.6631 2.17285 -28.9961 6.50586s-22.166 9.83301 -32.499 16.5s-19 13.667 -26 21s-10.5 14.333 -10.5 21c0 6 6 11.333 18 16c11.333 4.66699 20.333 10.334 27 17.001s10 18 10 34c0 11.333 -3.83301 21.333 -11.5 30s-16.834 13 -27.501 13
c-40.667 0 -61 -20.667 -61 -62c0 -14.667 3.66699 -29.667 11 -45s17.666 -29.666 30.999 -42.999s28.666 -24.166 45.999 -32.499s35.666 -12.833 54.999 -13.5v-86h25v83l40 -3c16.667 1.33301 30.667 3.66602 42 6.99902v-87h25v91c20 5.33301 39 14.166 57 26.499
s34 27 48 44s24.833 35.667 32.5 56s11.5 41.166 11.5 62.499c0 46 -13.667 83.667 -41 113s-63.333 50.333 -108 63v254c21.333 -2.66699 41.5 -10.834 60.5 -24.501s28.5 -26.167 28.5 -37.5c0 -4 -5.66699 -8 -17 -12c-11.333 -4.66699 -20.5 -9.83398 -27.5 -15.501
s-10.5 -14.834 -10.5 -27.501c0 -31.333 15.333 -47 46 -47c16.667 0 29.667 5.83301 39 17.5s14 26.5 14 44.5c0 28 -12.5 54.833 -37.5 80.5s-56.833 40.5 -95.5 44.5v85h-25v-82c-11.333 0.666992 -25.333 1 -42 1c-6.66699 0 -16.334 -1.33301 -29.001 -4
c-4 -0.666992 -7.66699 -1.33398 -11 -2.00098v87h-25v-92c-34 -10.667 -62.333 -30.834 -85 -60.501s-34 -62.5 -34 -98.5c0 -42.667 9.83301 -77.334 29.5 -104.001s49.5 -47 89.5 -61v-295zM201.004 622.006c15.333 4.66699 28.667 7 40 7
c9.33301 0 23.333 -0.666992 42 -2v-252l-82 24v223zM176.005 408.006c-25.333 8.66699 -45 21.167 -59 37.5s-21 37.5 -21 63.5c0 22 8.16699 43.5 24.5 64.5s34.833 35.167 55.5 42.5v-208zM308.005 273.006c31.333 -9.33301 56.5 -22.501 75.5 -39.501
s28.5 -40.167 28.5 -69.5c0 -32 -9.66699 -60.667 -29 -86s-44.333 -42.666 -75 -51.999v247zM283.005 280.005l0.000976562 -260c-4 -0.666992 -9.66699 -1.66699 -17 -3c-10.667 -2.66699 -18.334 -4 -23.001 -4c-5.33301 0 -13.666 0.666992 -24.999 2
c-6.66699 0.666992 -12.334 1 -17.001 1v291z" />
    <glyph glyph-name="percent" unicode="%" horiz-adv-x="833" 
d="M640 672l-44 0.00488281c-21.333 -30.667 -49.5 -55 -84.5 -73s-68.5 -27 -100.5 -27c-18.667 0 -34.334 4.33301 -47.001 13c-7.33301 22 -19.5 38.167 -36.5 48.5s-37.5 15.5 -61.5 15.5c-26 0 -52.167 -8 -78.5 -24s-50.166 -37 -71.499 -63
s-38.166 -53.833 -50.499 -83.5s-18.5 -57.834 -18.5 -84.501c0 -36 11.167 -65.167 33.5 -87.5s50.833 -33.5 85.5 -33.5c29.333 0 56.666 8.16699 81.999 24.5s47 38.166 65 65.499s31.833 56.666 41.5 87.999s14.5 61.666 14.5 90.999v15
c2.66699 -0.666992 7 -1.33398 13 -2.00098c12 -2.66699 21 -4 27 -4c24.667 0 48.667 3.5 72 10.5s44.333 17.167 63 30.5l2 -2l-349 -617h51zM279 618.005c5.33301 -12 13.001 -21.668 23.001 -29.001s23 -15 39 -23c3.33301 -10.667 5 -23.667 5 -39
c0 -26 -5 -52.5 -15 -79.5s-23.167 -51.667 -39.5 -74s-33.833 -40 -52.5 -53s-36 -19.5 -52 -19.5c-42 0 -63 21 -63 63c0 20.667 4.66699 45.5 14 74.5s21.5 57.333 36.5 85s30.667 50.334 47 68.001s31.166 26.5 44.499 26.5h13zM763.001 254.004
c0 -19.333 -4.16699 -42.1689 -12.5 -68.502s-19.833 -52 -34.5 -77s-31.5 -45.333 -50.5 -61s-38.5 -23.5 -58.5 -23.5c-45.333 0 -68 21.667 -68 65c0 19.333 4.83301 43.333 14.5 72s22.334 56.834 38.001 84.501s33.167 50.5 52.5 68.5s38 27 56 27
c21.333 0 37.166 -7.66699 47.499 -23s15.5 -36.666 15.5 -63.999zM684.001 372.001c-27.333 0 -54.335 -7.83594 -81.002 -23.5029s-50.667 -36.5 -72 -62.5s-38.166 -54.167 -50.499 -84.5s-18.5 -59.5 -18.5 -87.5c0 -35.333 11 -63.833 33 -85.5s50 -32.5 84 -32.5
c36.667 0 68.334 10 95.001 30s48.167 44.833 64.5 74.5s28.333 59.334 36 89.001s11.5 53.5 11.5 71.5c0 20 -3.5 37.333 -10.5 52s-15.833 26.334 -26.5 35.001s-21.667 14.834 -33 18.501s-22 5.5 -32 5.5z" />
    <glyph glyph-name="ampersand" unicode="&#x26;" horiz-adv-x="722" 
d="M319 434c-1.33301 2.66699 -3.66992 6.33301 -7.00293 11c-19.333 29.333 -34.666 55.166 -45.999 77.499s-17 41.833 -17 58.5c0 24 8.33301 43.167 25 57.5s36.667 21.5 60 21.5c24.667 0 43.834 -8.33301 57.501 -25s20.5 -37.667 20.5 -63
c0 -38 -6.66699 -66.667 -20 -86s-37.666 -36.666 -72.999 -51.999zM331.996 414.999c32 12 58.1641 24.333 78.4971 37s35.833 25.167 46.5 37.5s17.834 24.166 21.501 35.499s5.5 22.333 5.5 33c0 38.667 -15.167 69.167 -45.5 91.5s-65.166 33.5 -104.499 33.5
c-42.667 0 -79.5 -11.5 -110.5 -34.5s-46.5 -55.5 -46.5 -97.5c0 -22 4.33301 -43.167 13 -63.5s21.334 -44.833 38.001 -73.5c2.66699 -4.66699 4.66699 -8 6 -10c-36.667 -14.667 -68 -31 -94 -49s-46.5 -36.333 -61.5 -55s-25.667 -37 -32 -55s-9.5 -35.333 -9.5 -52
c0 -24.667 3.83301 -49.167 11.5 -73.5s19.667 -46.666 36 -66.999s38.166 -36.666 65.499 -48.999s59.666 -18.5 96.999 -18.5c32 0 66.333 6.66699 103 20s67 30.666 91 51.999l34 -57h182v23h-87l-62 102c31.333 33.333 54.833 72 70.5 116s25.5 91.667 29.5 143h84v23
h-197v-23h89c-1.33301 -44.667 -9.16602 -86.167 -23.499 -124.5s-36.166 -75.833 -65.499 -112.5zM427.993 77.999c-24.667 -18.667 -47.667 -32.666 -69 -41.999s-44.666 -14 -69.999 -14c-22 0 -42.833 7.83301 -62.5 23.5s-36.834 35.667 -51.501 60
s-26.167 50 -34.5 77s-12.5 50.833 -12.5 71.5c0 33.333 10.5 59.666 31.5 78.999s49.5 36 85.5 50z" />
    <glyph glyph-name="quotesingle" unicode="'" horiz-adv-x="222" 
d="M126 387l18 124c4 27.333 6.83301 47.5 8.5 60.5s2.5 24.5 2.5 34.5c0 17.333 -3 31.833 -9 43.5s-17.667 17.5 -35 17.5s-29 -5.83301 -35 -17.5s-9 -26.167 -9 -43.5c0 -10 1 -22.333 3 -37l9 -64l18 -118h29z" />
    <glyph glyph-name="parenleft" unicode="(" horiz-adv-x="278" 
d="M268 -209l-11 13.002c-26.667 29.333 -47.167 54.166 -61.5 74.499s-26.833 45.166 -37.5 74.499s-18.834 66.5 -24.501 111.5s-8.5 101.833 -8.5 170.5s2.83301 125.5 8.5 170.5s13.834 82 24.501 111s23 53.333 37 73s34.667 44.834 62 75.501l11 13l-13 19
c-66.667 -60 -118 -129.833 -154 -209.5s-54 -163.834 -54 -252.501c0 -89.333 18 -173.833 54 -253.5s87.333 -149.167 154 -208.5z" />
    <glyph glyph-name="parenright" unicode=")" horiz-adv-x="278" 
d="M23 -227c66.667 59.333 118 128.833 154 208.5s54 164.167 54 253.5c0 88.667 -18 172.834 -54 252.501s-87.333 149.5 -154 209.5l-13 -19l11 -13c26.667 -30 47.167 -55 61.5 -75s26.833 -44.667 37.5 -74s18.834 -66.333 24.501 -111s8.5 -101.334 8.5 -170.001
s-2.83301 -125.5 -8.5 -170.5s-13.834 -82.167 -24.501 -111.5s-23.167 -54 -37.5 -74s-34.833 -45 -61.5 -75l-11 -13z" />
    <glyph glyph-name="asterisk" unicode="*" 
d="M233 462c-16 -10 -31.667 -17.667 -47 -23s-33.333 -10.333 -54 -15c-23.333 -4.66699 -39.833 -9.83398 -49.5 -15.501s-14.5 -15.5 -14.5 -29.5c0 -10.667 3.33301 -19.5 10 -26.5s15 -10.5 25 -10.5c9.33301 0 17.666 3 24.999 9s17 15.667 29 29
c13.333 15.333 26.166 28.5 38.499 39.5s27.166 20.5 44.499 28.5c0 -26.667 -1.5 -48 -4.5 -64s-7.16699 -32 -12.5 -48c-6 -17.333 -9 -31 -9 -41c0 -11.333 3.5 -20.5 10.5 -27.5s15.5 -10.5 25.5 -10.5s18.5 3.5 25.5 10.5s10.5 16.167 10.5 27.5c0 10 -3 23.667 -9 41
c-5.33301 16 -9.5 32 -12.5 48s-4.5 37.333 -4.5 64c17.333 -8 32 -17.333 44 -28s25 -24 39 -40c12 -13.333 21.667 -23 29 -29s15.666 -9 24.999 -9c10 0 18.333 3.5 25 10.5s10 15.833 10 26.5c0 14 -4.83301 23.667 -14.5 29s-26.167 10.666 -49.5 15.999
c-20.667 4.66699 -38.667 9.66699 -54 15s-31 13 -47 23c16 10 31.667 17.667 47 23s33.333 10.333 54 15c23.333 4.66699 39.833 9.83398 49.5 15.501s14.5 15.5 14.5 29.5c0 10.667 -3.33301 19.5 -10 26.5s-15 10.5 -25 10.5c-9.33301 0 -17.666 -3 -24.999 -9
s-17 -15.667 -29 -29c-13.333 -15.333 -26.166 -28.5 -38.499 -39.5s-27.166 -20.5 -44.499 -28.5c0 26.667 1.5 48 4.5 64s7.16699 32 12.5 48c6 17.333 9 31 9 41c0 11.333 -3.5 20.5 -10.5 27.5s-15.5 10.5 -25.5 10.5s-18.5 -3.5 -25.5 -10.5s-10.5 -16.167 -10.5 -27.5
c0 -10 3 -23.667 9 -41c5.33301 -16 9.5 -32 12.5 -48s4.5 -37.333 4.5 -64c-16.667 8 -31.167 17.333 -43.5 28s-25.5 24 -39.5 40c-12 13.333 -21.667 23 -29 29s-15.666 9 -24.999 9c-10 0 -18.333 -3.5 -25 -10.5s-10 -15.833 -10 -26.5c0 -14 4.83301 -23.667 14.5 -29
s26.167 -10.666 49.5 -15.999c20.667 -4.66699 38.667 -9.66699 54 -15s31 -13 47 -23z" />
    <glyph glyph-name="plus" unicode="+" horiz-adv-x="550" 
d="M246 272h-203v-58h203v-214h58v214h203v58h-203v214h-58v-214z" />
    <glyph glyph-name="comma" unicode="," horiz-adv-x="250" 
d="M86 -161c32 21.333 59.334 46.334 82.001 75.001s34 58.667 34 90s-7.66699 55.333 -23 72s-35.666 25 -60.999 25c-17.333 0 -32.666 -5.83301 -45.999 -17.5s-20 -25.834 -20 -42.501c0 -37.333 18 -56 54 -56c12 0 21.167 2 27.5 6s12.166 9.33301 17.499 16
c3.33301 4.66699 5.66602 7 6.99902 7c3.33301 0 6.16602 -1.66699 8.49902 -5s3.5 -11 3.5 -23c0 -19.333 -7 -39 -21 -59s-37.667 -43.667 -71 -71z" />
    <glyph glyph-name="hyphen" unicode="-" horiz-adv-x="333" 
d="M289 183v67h-245v-67h245z" />
    <glyph glyph-name="period" unicode="." horiz-adv-x="250" 
d="M123 -11c16.667 0 31 5.33301 43 16s18 24.334 18 41.001c0 14.667 -6.33301 27.5 -19 38.5s-26.667 16.5 -42 16.5c-14.667 0 -27.834 -5.5 -39.501 -16.5s-17.5 -23.833 -17.5 -38.5c0 -16.667 5.33301 -30.334 16 -41.001s24.334 -16 41.001 -16z" />
    <glyph glyph-name="slash" unicode="/" horiz-adv-x="278" 
d="M220 683l-224 -698h61l225 698h-62z" />
    <glyph glyph-name="zero" unicode="0" 
d="M250 635c20 0 37 -3.33301 51 -10s26.667 -20.667 38 -42s20 -53 26 -95s9 -97 9 -165s-3 -123.167 -9 -165.5s-14.667 -74 -26 -95s-24 -35 -38 -42s-31 -10.5 -51 -10.5s-37 3.5 -51 10.5s-26.667 21 -38 42s-20 52.667 -26 95s-9 97.5 -9 165.5s3 123 9 165
s14.667 73.667 26 95s24 35.333 38 42s31 10 51 10zM250 658c-35.333 0 -67.166 -9.66895 -95.499 -29.002s-52.333 -45.166 -72 -77.499s-34.5 -68.333 -44.5 -108s-15 -79.834 -15 -120.501s5 -81 15 -121s24.833 -76.167 44.5 -108.5s43.667 -58.166 72 -77.499
s60.166 -29 95.499 -29s67.166 9.66699 95.499 29s52.333 45.166 72 77.499s34.5 68.5 44.5 108.5s15 80.333 15 121s-5 80.834 -15 120.501s-24.833 75.834 -44.5 108.501s-43.667 58.5 -72 77.5s-60.166 28.5 -95.499 28.5z" />
    <glyph glyph-name="one" unicode="1" 
d="M418 0v22.999h-116v635c-32 -4 -63 -7.16699 -93 -9.5s-56 -3.5 -78 -3.5h-48v-23h49c30 0 50.667 -2.66699 62 -8s17 -16.666 17 -33.999v-557h-122v-23h329z" />
    <glyph glyph-name="two" unicode="2" 
d="M446 163l-28.0039 0.00195312c-2 -35.333 -6.16699 -57.833 -12.5 -67.5s-21.166 -14.5 -44.499 -14.5h-266l170 151c36 32 65.5 60 88.5 84s41.5 45.667 55.5 65s23.833 37.5 29.5 54.5s8.5 34.833 8.5 53.5c0 26.667 -6 50.667 -18 72s-28 39.166 -48 53.499
s-42.167 25.166 -66.5 32.499s-49.166 11 -74.499 11s-49.5 -3.33301 -72.5 -10s-43.833 -16.834 -62.5 -30.501s-33.334 -31 -44.001 -52s-16 -45.167 -16 -72.5c0 -22 6.5 -41 19.5 -57s29.5 -24 49.5 -24c14 0 25.833 5.33301 35.5 16s14.5 24.334 14.5 41.001
c0 13.333 -4.5 25.166 -13.5 35.499s-21.167 15.5 -36.5 15.5c-9.33301 0 -22.666 -4 -39.999 -12v7c-0.666992 3.33301 -1 6.33301 -1 9c0 23.333 11.333 46 34 68s53.667 33 93 33c20.667 0 39.834 -4.16699 57.501 -12.5s33 -20 46 -35s23 -32.167 30 -51.5
s10.5 -39.333 10.5 -60c0 -21.333 -4.33301 -43 -13 -65s-22.167 -45.667 -40.5 -71s-42.166 -53.666 -71.499 -84.999l-110 -112l-85 -84v-49h408z" />
    <glyph glyph-name="three" unicode="3" 
d="M413 511c0 22 -5.16504 42.001 -15.498 60.001s-24.333 33.5 -42 46.5s-37.334 23 -59.001 30s-43.834 10.5 -66.501 10.5c-32 0 -59.167 -3.83301 -81.5 -11.5s-39.5 -17.167 -51.5 -28.5s-20.667 -22.666 -26 -33.999s-8 -21.333 -8 -30c0 -39.333 18 -59 54 -59
c14.667 0 26.167 4.66699 34.5 14s12.5 21.666 12.5 36.999c0 10.667 -2.33301 18.5 -7 23.5s-11 9.16699 -19 12.5c-10 4 -15 9 -15 15c0 12.667 10 22.667 30 30c8 2.66699 16.167 4.66699 24.5 6s15.5 2 21.5 2c36 0 64.333 -9.33301 85 -28s31 -46.334 31 -83.001
c0 -11.333 -1 -27 -3 -47c-0.666992 -7.33301 -1.33398 -12.666 -2.00098 -15.999c-4 -33.333 -18.667 -59 -44 -77s-55 -27 -89 -27c-6 0 -14.333 1 -25 3c-10.667 1.33301 -18.667 2 -24 2c-6.66699 0 -12.334 -1.16699 -17.001 -3.5s-7 -6.5 -7 -12.5
s3.33301 -10.167 10 -12.5s13.334 -3.5 20.001 -3.5c2 0 6.66699 0.666992 14 2c14 2.66699 27.333 4 40 4c49.333 0 88 -12.5 116 -37.5s42 -59.167 42 -102.5c0 -65.333 -11.667 -113.166 -35 -143.499s-61.666 -45.5 -114.999 -45.5c-7.33301 0 -17.5 1.33301 -30.5 4
s-26.333 6.5 -40 11.5s-25 11 -34 18s-13.5 14.833 -13.5 23.5c0 5.33301 1.66699 9 5 11s9 4 17 6c12.667 2 22.5 6 29.5 12s10.5 18 10.5 36c0 12.667 -5.66699 23.334 -17 32.001s-23.333 13 -36 13c-17.333 0 -32 -6.33301 -44 -19s-18 -27.667 -18 -45
c0 -13.333 3.33301 -27.166 10 -41.499s17.334 -27.666 32.001 -39.999s33.667 -22.333 57 -30s50.666 -11.5 81.999 -11.5c40.667 0 76.5 6.16699 107.5 18.5s56.5 28.166 76.5 47.499s34.833 40 44.5 62s14.5 42.667 14.5 62c0 27.333 -4.83301 51.166 -14.5 71.499
s-22.834 37.166 -39.501 50.499s-35.667 24.166 -57 32.499s-44.666 15.166 -69.999 20.499v2c38.667 12 72.5 31.833 101.5 59.5s43.5 60.167 43.5 97.5z" />
    <glyph glyph-name="four" unicode="4" 
d="M271 573h2v-369h-235zM19 177h254v-154h-74v-23h232v23h-72v154h89v-73h23v178h-23v-78h-89v454h-63l-277 -429v-52z" />
    <glyph glyph-name="five" unicode="5" 
d="M149 645c-16 0 -27.498 -2.82812 -34.498 -8.49512s-10.5 -12.5 -10.5 -20.5c0 -6.66699 -0.5 -18.167 -1.5 -34.5l-4.5 -73.5c-2.66699 -32.667 -4.83398 -62.167 -6.50098 -88.5s-2.83398 -51.5 -3.50098 -75.5c40.667 17.333 77.334 26 110.001 26
c20.667 0 41 -3.33301 61 -10s38 -17.167 54 -31.5s28.833 -33.333 38.5 -57s14.5 -51.834 14.5 -84.501c0 -56.667 -14 -100.834 -42 -132.501s-67 -47.5 -117 -47.5c-8.66699 0 -19.667 1.83301 -33 5.5s-26.166 8.33398 -38.499 14.001s-22.666 11.834 -30.999 18.501
s-12.5 13 -12.5 19c0 4.66699 1.66699 8 5 10s9 4 17 6c11.333 2.66699 20.5 6.83398 27.5 12.501s10.5 15.5 10.5 29.5c0 16 -5 28.5 -15 37.5s-22 13.5 -36 13.5c-18 0 -32.333 -5.33301 -43 -16s-16 -25.334 -16 -44.001c0 -14 3.66699 -28.333 11 -43
s18.333 -28.334 33 -41.001s33.167 -22.834 55.5 -30.501s47.833 -11.5 76.5 -11.5c43.333 0 80.833 6.66699 112.5 20s57.5 31 77.5 53s34.5 45.5 43.5 70.5s13.5 49.167 13.5 72.5c0 26.667 -6.16699 52.167 -18.5 76.5s-28.833 45.666 -49.5 63.999
s-43.667 32.666 -69 42.999s-50.333 15.5 -75 15.5c-52.667 0 -98.334 -8.33301 -137.001 -25l11 194h185c37.333 0 63.166 9.16699 77.499 27.5s21.5 42.833 21.5 73.5h-19c-2.66699 -10.667 -8.83398 -17.834 -18.501 -21.501s-32.5 -5.5 -68.5 -5.5h-156z" />
    <glyph glyph-name="six" unicode="6" 
d="M127 321c18.667 22.667 39.334 41 62.001 55s46.667 21 72 21c23.333 0 42.666 -5 57.999 -15s27 -23.167 35 -39.5s13.5 -34 16.5 -53s4.5 -39.167 4.5 -60.5c0 -32 -1.16699 -60 -3.5 -84s-7.83301 -46.167 -16.5 -66.5s-21.667 -36.5 -39 -48.5s-40.333 -18 -69 -18
c-50 0 -82.833 16.833 -98.5 50.5s-23.5 89.5 -23.5 167.5c0 46 0.666992 76.333 2 91zM419 658c-59.333 -4 -113.665 -17.6689 -162.998 -41.002s-91.5 -53.666 -126.5 -90.999s-61.667 -78.666 -80 -123.999s-27.5 -91.666 -27.5 -138.999c0 -30 3.83301 -61 11.5 -93
s20.167 -61.833 37.5 -89.5s40.5 -50.167 69.5 -67.5s63.833 -26 104.5 -26c31.333 0 61 5 89 15s52.833 24.667 74.5 44s38.667 42.666 51 69.999s18.5 57.666 18.5 90.999c0 28 -5.16699 55 -15.5 81s-24.833 49 -43.5 69s-40.334 35.667 -65.001 47s-50.667 17 -78 17
c-29.333 0 -54.333 -5 -75 -15s-44.334 -26.667 -71.001 -50c12 84.667 42.333 149.334 91 194.001s114.667 73 198 85v23z" />
    <glyph glyph-name="seven" unicode="7" 
d="M93 645l-46 -152.004h24c9.33301 31.333 17.333 52.166 24 62.499s16 15.5 28 15.5h282l-183 -378c-16.667 -33.333 -27.5 -59.666 -32.5 -78.999s-7.83301 -37.666 -8.5 -54.999c0 -48 21.333 -72 64 -72c17.333 0 31.166 6.33301 41.499 19s15.5 28.334 15.5 47.001
c0 9.33301 -1 17.5 -3 24.5s-4.66699 15.5 -8 25.5c-5.33301 10.667 -9.16602 21 -11.499 31s-3.5 22.667 -3.5 38c0 20.667 4.16699 45.334 12.5 74.001s19.5 58 33.5 88l95 205c6 12.667 13.667 27.834 23 45.501s17 31.5 23 41.5v19h-370z" />
    <glyph glyph-name="eight" unicode="8" 
d="M250 349c-8.66699 0 -18.8281 1.66699 -30.4951 5s-23.834 9.83301 -36.501 19.5s-23.334 24.667 -32.001 45s-13 46.166 -13 77.499c0 92.667 37.333 139 112 139s112 -46.333 112 -139c0 -31.333 -4.33301 -57.166 -13 -77.499s-19.334 -35.333 -32.001 -45
s-24.834 -16.167 -36.501 -19.5s-21.834 -5 -30.501 -5zM250.006 -13c38 0 71.5 5 100.5 15s52.833 23.667 71.5 41s32.667 36.333 42 57s14 41.667 14 63c0 23.333 -5.5 45.166 -16.5 65.499s-26 38.333 -45 54s-40 28.334 -63 38.001s-46.5 15.834 -70.5 18.501v2
c14.667 1.33301 31.5 5.33301 50.5 12s37.667 16.334 56 29.001s33.5 28.834 45.5 48.501s18 42.5 18 68.5c0 22 -5 42.667 -15 62s-24.167 36.333 -42.5 51s-40 26 -65 34s-51.833 12 -80.5 12s-55.5 -4 -80.5 -12s-46.667 -19.333 -65 -34s-32.5 -31.667 -42.5 -51
s-15 -40 -15 -62c0 -26 6 -48.833 18 -68.5s27.167 -35.834 45.5 -48.501s36.833 -22.334 55.5 -29.001s35.667 -10.667 51 -12v-2c-24 -2.66699 -47.667 -8.83398 -71 -18.501s-44.333 -22.334 -63 -38.001s-33.5 -33.667 -44.5 -54s-16.5 -42.166 -16.5 -65.499
c0 -21.333 4.66699 -42.333 14 -63s23.333 -39.667 42 -57s42.5 -31 71.5 -41s62.5 -15 100.5 -15zM252.006 326c16 0 31.333 -2.66504 46 -7.99805s28 -14 40 -26s21.667 -28.167 29 -48.5s11 -44.5 11 -72.5c0 -34.667 -2.33301 -61.334 -7 -80.001
c-5.33301 -22.667 -18.166 -41.834 -38.499 -57.501s-47.166 -23.5 -80.499 -23.5c-35.333 0 -63.333 7.66699 -84 23s-33.667 34.666 -39 57.999c-4.66699 18.667 -7 45.334 -7 80.001c0 28 3.66699 52.167 11 72.5s17.166 36.5 29.499 48.5s26.166 20.667 41.499 26
s31.333 8 48 8z" />
    <glyph glyph-name="nine" unicode="9" 
d="M373 324c-18.667 -22.667 -39.334 -41 -62.001 -55s-46.667 -21 -72 -21c-23.333 0 -42.666 5 -57.999 15s-27 23.167 -35 39.5s-13.5 34 -16.5 53s-4.5 39.167 -4.5 60.5c0 32 1.16699 60 3.5 84s7.83301 46.167 16.5 66.5s21.667 36.5 39 48.5s40.333 18 69 18
c50 0 82.833 -16.833 98.5 -50.5s23.5 -89.5 23.5 -167.5c0 -46 -0.666992 -76.333 -2 -91zM81 -13c59.333 4 113.665 17.6689 162.998 41.002s91.5 53.666 126.5 90.999s61.667 78.666 80 123.999s27.5 91.666 27.5 138.999c0 30 -3.83301 61 -11.5 93
s-20.167 61.833 -37.5 89.5s-40.5 50.167 -69.5 67.5s-63.833 26 -104.5 26c-31.333 0 -61 -5 -89 -15s-52.833 -24.667 -74.5 -44s-38.667 -42.666 -51 -69.999s-18.5 -57.666 -18.5 -90.999c0 -28 5.16699 -55 15.5 -81s24.833 -49 43.5 -69s40.334 -35.667 65.001 -47
s50.667 -17 78 -17c29.333 0 54.333 5 75 15s44.334 26.667 71.001 50c-12 -84.667 -42.167 -149.334 -90.5 -194.001s-114.5 -73 -198.5 -85v-23z" />
    <glyph glyph-name="colon" unicode=":" horiz-adv-x="250" 
d="M123 294c16.667 0 31 5.33301 43 16s18 24.334 18 41.001c0 14.667 -6.33301 27.5 -19 38.5s-26.667 16.5 -42 16.5c-14.667 0 -27.834 -5.5 -39.501 -16.5s-17.5 -23.833 -17.5 -38.5c0 -16.667 5.33301 -30.334 16 -41.001s24.334 -16 41.001 -16zM123 -11
c16.667 0 31 5.33301 43 16s18 24.334 18 41.001c0 14.667 -6.33301 27.5 -19 38.5s-26.667 16.5 -42 16.5c-14.667 0 -27.834 -5.5 -39.501 -16.5s-17.5 -23.833 -17.5 -38.5c0 -16.667 5.33301 -30.334 16 -41.001s24.334 -16 41.001 -16z" />
    <glyph glyph-name="semicolon" unicode=";" horiz-adv-x="250" 
d="M86 -161c32 21.333 59.334 46.334 82.001 75.001s34 58.667 34 90s-7.66699 55.333 -23 72s-35.666 25 -60.999 25c-17.333 0 -32.666 -5.83301 -45.999 -17.5s-20 -25.834 -20 -42.501c0 -37.333 18 -56 54 -56c12 0 21.167 2 27.5 6s12.166 9.33301 17.499 16
c3.33301 4.66699 5.66602 7 6.99902 7c3.33301 0 6.16602 -1.66699 8.49902 -5s3.5 -11 3.5 -23c0 -19.333 -7 -39 -21 -59s-37.667 -43.667 -71 -71zM123.001 294.001c16.667 0 31 5.33301 43 16s18 24.334 18 41.001c0 14.667 -6.33301 27.5 -19 38.5
s-26.667 16.5 -42 16.5c-14.667 0 -27.834 -5.5 -39.501 -16.5s-17.5 -23.833 -17.5 -38.5c0 -16.667 5.33301 -30.334 16 -41.001s24.334 -16 41.001 -16z" />
    <glyph glyph-name="less" unicode="&#x3c;" horiz-adv-x="550" 
d="M507 35l-392 208l392 207v65l-464 -242v-60l464 -242v64z" />
    <glyph glyph-name="equal" unicode="=" horiz-adv-x="550" 
d="M507 316v58h-464v-58h464zM507 112v58h-464v-58h464z" />
    <glyph glyph-name="greater" unicode="&#x3e;" horiz-adv-x="550" 
d="M43 -29l464 242v60l-464 242v-65l392 -207l-392 -208v-64z" />
    <glyph glyph-name="question" unicode="?" horiz-adv-x="444" 
d="M184 192c0 30.667 2.83398 53.501 8.50098 68.501s19.5 31.167 41.5 48.5c6 4.66699 11.667 9.33398 17 14.001c22 16.667 39.5 30.667 52.5 42s25.167 24.166 36.5 38.499s20.166 30.833 26.499 49.5s9.5 39.334 9.5 62.001c0 23.333 -4.33301 45 -13 65
s-20.834 37.5 -36.501 52.5s-33.667 26.667 -54 35s-41.833 12.5 -64.5 12.5c-16.667 0 -33.667 -2.83301 -51 -8.5s-33.166 -13.667 -47.499 -24s-25.833 -22.833 -34.5 -37.5s-13 -31 -13 -49s4.66699 -32.833 14 -44.5s22.666 -17.5 39.999 -17.5
c12.667 0 23.334 4.16699 32.001 12.5s13 19.833 13 34.5c-1.33301 15.333 -5.83301 25.5 -13.5 30.5s-17.834 8.16699 -30.501 9.5c-6.66699 0.666992 -11.5 1.66699 -14.5 3s-4.5 4 -4.5 8c0 6 3 12.5 9 19.5s14 14 24 21s21.333 12.5 34 16.5s25.334 6 38.001 6
c22 0 41.167 -4 57.5 -12s29.5 -17.833 39.5 -29.5s17.333 -23.834 22 -36.501s7 -23.667 7 -33c0 -22.667 -7.33301 -40.334 -22 -53.001c-32 -28 -57.333 -51.167 -76 -69.5s-33.5 -36 -44.5 -53s-18.833 -34.667 -23.5 -53s-7 -39.5 -7 -63.5
c0 -29.333 1.66699 -51 5 -65h23zM182.001 -10.999c16.667 0 31 5.33301 43 16s18 24.667 18 42c0 15.333 -6.33301 28.5 -19 39.5s-26.667 16.5 -42 16.5c-14.667 0 -27.834 -5.5 -39.501 -16.5s-17.5 -24.167 -17.5 -39.5c0 -16.667 5.33301 -30.5 16 -41.5
s24.334 -16.5 41.001 -16.5z" />
    <glyph glyph-name="at" unicode="@" horiz-adv-x="778" 
d="M509 405c-6 -66.667 -21.6689 -119.833 -47.002 -159.5s-49.666 -59.5 -72.999 -59.5c-20 0 -35.5 6.5 -46.5 19.5s-16.5 34.5 -16.5 64.5c0 28 3.83301 54.5 11.5 79.5s17.834 47 30.501 66s26.5 33.833 41.5 44.5s29.5 16 43.5 16c20 0 34.333 -6.16699 43 -18.5
s13 -29.833 13 -52.5zM524.998 459.001l-1.99805 0.00488281c-8 18 -17 31.333 -27 40s-23 13 -39 13c-29.333 0 -56.833 -7.66699 -82.5 -23s-48 -35.333 -67 -60s-33.833 -51.167 -44.5 -79.5s-16 -54.833 -16 -79.5c0 -26.667 3.5 -48.5 10.5 -65.5s16 -29.667 27 -38
s22 -14 33 -17s21.833 -4.5 32.5 -4.5c25.333 2.66699 48.833 11.667 70.5 27s37.167 29.666 46.5 42.999h2c0 -4.66699 1.83301 -10.834 5.5 -18.501s9.16699 -15.5 16.5 -23.5s16.666 -14.833 27.999 -20.5s24.666 -8.5 39.999 -8.5c28.667 0 54.834 7.33301 78.501 22
s43.667 34 60 58s28.833 50 37.5 78s13 55.333 13 82c0 42 -8 81.333 -24 118s-38.833 68.5 -68.5 95.5s-65 48 -106 63s-85.833 22.5 -134.5 22.5c-50 0 -97.333 -8.66699 -142 -26s-84.167 -42.333 -118.5 -75s-61.166 -71.5 -80.499 -116.5s-29 -94.167 -29 -147.5
c0 -35.333 7.66699 -72.333 23 -111s38.666 -74.834 69.999 -108.501s71.166 -61 119.499 -82s104.166 -31.5 167.499 -31.5c36 0 70.667 5 104 15s69.666 24 108.999 42l-13 25h-1c-38 -16.667 -70.833 -28.834 -98.5 -36.501s-61.5 -11.5 -101.5 -11.5
c-44 0 -84.667 8 -122 24s-69.333 37.833 -96 65.5s-47 58.834 -61 93.501s-21 70 -21 106c0 54.667 7.33301 104 22 148s35.334 81.167 62.001 111.5s57.667 53.333 93 69s73.333 23.5 114 23.5c46.667 0 88.5 -7 125.5 -21s68.333 -33.667 94 -59
s45.167 -54.833 58.5 -88.5s20 -69.834 20 -108.501c0 -22.667 -3.16699 -46.167 -9.5 -70.5s-15.5 -47 -27.5 -68s-26.667 -37.833 -44 -50.5s-36.666 -19 -57.999 -19c-14.667 0 -25 4.16699 -31 12.5s-9 18.166 -9 29.499c0 8 1 15.333 3 22l67 261h-69z" />
    <glyph glyph-name="A" unicode="A" horiz-adv-x="667" 
d="M212 271l88 271h2l82 -271h-172zM218 0v23h-86l71 220h191l69 -220h-81v-23h252v23h-70l-206 654h-39l-217 -654h-79v-23h195z" />
    <glyph glyph-name="B" unicode="B" horiz-adv-x="611" 
d="M299 0c51.333 0 94.167 5.66602 128.5 16.999s61 26.166 80 44.499s32.167 38 39.5 59s11 42.167 11 63.5c0 16.667 -3.83301 33.834 -11.5 51.501s-19.5 34.667 -35.5 51s-36.167 30.333 -60.5 42s-52.5 19.167 -84.5 22.5v2c21.333 2.66699 42.166 7.66699 62.499 15
s38.5 17.333 54.5 30s28.833 28.334 38.5 47.001s14.5 39.667 14.5 63c0 18 -3.33301 36 -10 54s-18.667 35.167 -36 51.5s-41.666 29.5 -72.999 39.5s-70.333 15 -117 15h-259v-23h77v-622h-77v-23h258zM215.001 338.999l46.999 0.00195312c64.667 0 111 -10.167 139 -30.5
s42 -60.5 42 -120.5c0 -32.667 -2.16699 -59.334 -6.5 -80.001s-11.666 -37.334 -21.999 -50.001s-24.833 -21.667 -43.5 -27s-42.667 -8 -72 -8h-84v316zM215 645.001h78.001c49.333 0 84.166 -11 104.499 -33s30.5 -56.667 30.5 -104c0 -54 -8.83301 -91.833 -26.5 -113.5
s-51.167 -32.5 -100.5 -32.5h-86v283z" />
    <glyph glyph-name="C" unicode="C" horiz-adv-x="611" 
d="M535 660l-15.001 -0.00195312l-34 -30c-26 18.667 -50 32.167 -72 40.5s-47 12.5 -75 12.5c-35.333 0 -70.5 -8.66699 -105.5 -26s-66.667 -41.833 -95 -73.5s-50.833 -68.667 -67.5 -111s-25 -87.166 -25 -134.499c0 -48 6.33301 -93.333 19 -136
s31.5 -80.334 56.5 -113.001s55.5 -58.167 91.5 -76.5s76.667 -27.5 122 -27.5c29.333 0 57.166 4.5 83.499 13.5s50.833 23.167 73.5 42.5l28 -41h27v182h-24c-14 -48 -36.833 -88.167 -68.5 -120.5s-70.167 -48.5 -115.5 -48.5c-38 0 -69 7.16699 -93 21.5
s-42.167 34.333 -54.5 60s-20.666 55.834 -24.999 90.501s-6.5 76 -6.5 124c0 20 0.333008 40.667 1 62s2.33398 44.833 5.00098 70.5s7 50.834 13 75.501s13.333 45.334 22 62.001c11.333 21.333 29 40.166 53 56.499s50.667 24.5 80 24.5c49.333 0 88.5 -15.333 117.5 -46
s49.167 -72 60.5 -124h23v170z" />
    <glyph glyph-name="D" unicode="D" horiz-adv-x="667" 
d="M118 23l-76.998 -0.000976562v-23h266c16 0 32.5 0.833008 49.5 2.5s35 5 54 10s37.667 12.5 56 22.5s35.166 22.667 50.499 38c32 34.667 57.333 74.167 76 118.5s28 93.833 28 148.5c0 49.333 -7.33301 94.333 -22 135s-35.667 75.334 -63 104.001
s-60.333 50.667 -99 66s-81.334 23 -128.001 23h-268v-23h77v-622zM215.002 644.999h75.002c49.333 0 89.166 -7.83301 119.499 -23.5s52.666 -36.834 66.999 -63.501s23.666 -55.834 27.999 -87.501s6.5 -69.167 6.5 -112.5c0 -55.333 -1.66699 -102.166 -5 -140.499
s-9.66602 -68.166 -18.999 -89.499c-6 -13.333 -13 -25.833 -21 -37.5s-18.667 -22.5 -32 -32.5s-30 -18.333 -50 -25s-43.667 -10 -71 -10h-98v622z" />
    <glyph glyph-name="E" unicode="E" horiz-adv-x="611" 
d="M551 0l13.002 187.002h-26c-6.66699 -37.333 -14.667 -66.833 -24 -88.5s-21.5 -37.834 -36.5 -48.501s-33.333 -17.834 -55 -21.501s-50.5 -5.5 -86.5 -5.5h-121v309c26.667 0 48.667 -1.5 66 -4.5s31.666 -8.5 42.999 -16.5s20.166 -20 26.499 -36
s10.166 -37.333 11.499 -64h22v253h-22c-3.33301 -26 -8.16602 -46.333 -14.499 -61s-14.833 -25.167 -25.5 -31.5s-23.5 -10.333 -38.5 -12s-37.833 -2.5 -68.5 -2.5v288h130c50.667 0 89.667 -9.5 117 -28.5s45 -56.167 53 -111.5h22v163h-507v-23h88v-622h-88v-23h521z
" />
    <glyph glyph-name="F" unicode="F" horiz-adv-x="556" 
d="M301 0v23.002h-86v306c50 0 85 -7.33301 105 -22s31.667 -46.334 35 -95.001h22v246h-23c-2.66699 -24.667 -7.16699 -44 -13.5 -58s-14.833 -24.167 -25.5 -30.5s-23.167 -10.333 -37.5 -12s-35.166 -2.83398 -62.499 -3.50098v291h127c32 0 57.333 -2.33301 76 -7
s33.667 -12.667 45 -24s20.666 -26 27.999 -44s15.333 -44.333 24 -79h18l-8 177h-488v-23h81v-622h-81v-23h264z" />
    <glyph glyph-name="G" unicode="G" horiz-adv-x="667" 
d="M509 623c-44 40 -100.668 59.9951 -170.001 59.9951c-35.333 0 -70.5 -8.66699 -105.5 -26s-66.667 -41.666 -95 -72.999s-50.833 -68.166 -67.5 -110.499s-25 -87.5 -25 -135.5s6.33301 -93.333 19 -136s31.5 -80.334 56.5 -113.001s55.5 -58.167 91.5 -76.5
s76.667 -27.5 122 -27.5c48.667 0 89.5 6.33301 122.5 19s59 29.667 78 51s32.833 45.166 41.5 71.499s14 55.166 16 86.499h61v24h-271v-24h97v-16c0.666992 -7.33301 1 -12.666 1 -15.999c0 -27.333 -1.83301 -51.166 -5.5 -71.499s-10.334 -38 -20.001 -53
s-24 -26.833 -43 -35.5s-43.5 -13 -73.5 -13c-38 0 -69 7.33301 -93 22s-42.167 35.334 -54.5 62.001s-20.666 57.334 -24.999 92.001s-6.5 76.334 -6.5 125.001c0 20 0.333008 40.667 1 62s2.33398 45 5.00098 71s7 51.333 13 76s13.333 45.334 22 62.001
c11.333 21.333 29 40 53 56s50.667 24 80 24c54 0 98.833 -15.5 134.5 -46.5s58.5 -72.167 68.5 -123.5h23v171h-16z" />
    <glyph glyph-name="H" unicode="H" horiz-adv-x="722" 
d="M217 359v286h78v23h-253v-23h78v-622h-78v-23h253v23h-78v307h288v-307h-78v-23h253v23h-78v622h78v23h-253v-23h78v-286h-288z" />
    <glyph glyph-name="I" unicode="I" horiz-adv-x="333" 
d="M301 23h-86v622h86v23h-269v-23h86v-622h-86v-23h269v23z" />
    <glyph glyph-name="J" unicode="J" horiz-adv-x="389" 
d="M89 668l-0.000976562 -23.002h89v-644c0 -18.667 -5 -34.167 -15 -46.5s-23.667 -18.5 -41 -18.5c-8 0 -15.333 1.16699 -22 3.5s-10 6.5 -10 12.5c0 2.66699 2 7 6 13s7.16699 11.833 9.5 17.5s3.5 12.5 3.5 20.5c0 14.667 -5 26.834 -15 36.501s-22.333 14.5 -37 14.5
c-17.333 0 -30.666 -5.33301 -39.999 -16s-14 -25.334 -14 -44.001c0 -27.333 10.833 -48.666 32.5 -63.999s45.167 -23 70.5 -23c22 0 43.167 3.83301 63.5 11.5s38.5 18.834 54.5 33.501s28.5 32 37.5 52s13.5 42 13.5 66v575h84v23h-270z" />
    <glyph glyph-name="K" unicode="K" horiz-adv-x="667" 
d="M497 645l-264 -278.999c-6 -6 -9 -10.333 -9 -13c0 -0.666992 0.333008 -1.33398 1 -2.00098v-2l253 -326h-80v-23h254v23h-47l-304 374l231 248h74v23h-199v-23h90zM292 23.001h-77v622h77v23h-251v-23h77v-622h-77v-23h251v23z" />
    <glyph glyph-name="L" unicode="L" horiz-adv-x="556" 
d="M535 0l11.002 187.001h-19c-3.33301 -18 -8.33301 -36.333 -15 -55s-15.334 -36.334 -26.001 -53.001s-23.834 -30.167 -39.501 -40.5s-33.167 -15.5 -52.5 -15.5h-179v622h92v23h-271v-23h82v-622h-82v-23h499z" />
    <glyph glyph-name="M" unicode="M" horiz-adv-x="778" 
d="M118 645v-622h-75v-23h180v23h-75v610h2l187 -633h26l194 633h2v-610h-77v-23h250v23h-76v622h76v23h-199l-147 -492h-2l-141 492h-200v-23h75z" />
    <glyph glyph-name="N" unicode="N" horiz-adv-x="667" 
d="M116 23h-78v-23h185v23h-77v602h2l375 -640h26v660h77v23h-185v-23h78v-461h-2l-284 484h-195v-23h78v-622z" />
    <glyph glyph-name="O" unicode="O" horiz-adv-x="667" 
d="M333 -15c42 0 80.665 9.66699 115.998 29s65.833 45.666 91.5 78.999s45.334 71 59.001 113s20.5 85 20.5 129s-6.83301 87 -20.5 129s-33.334 79.5 -59.001 112.5s-56.167 59 -91.5 78s-74 28.5 -116 28.5c-41.333 0 -79.833 -9.5 -115.5 -28.5s-66.167 -45 -91.5 -78
s-45 -70.5 -59 -112.5s-21 -85 -21 -129s6.83301 -87 20.5 -129s33.334 -79.667 59.001 -113s56.334 -59.666 92.001 -78.999s74.167 -29 115.5 -29zM332.998 8c-34 0 -62.167 7.16699 -84.5 21.5s-40.166 35.833 -53.499 64.5c-23.333 50 -35 130 -35 240
c0 110.667 11.667 191 35 241c13.333 28 31.166 49.167 53.499 63.5s50.5 21.5 84.5 21.5s62.167 -7.16699 84.5 -21.5s40.166 -35.5 53.499 -63.5c23.333 -50 35 -130.333 35 -241c0 -110 -11.667 -190 -35 -240c-13.333 -28.667 -31.166 -50.167 -53.499 -64.5
s-50.5 -21.5 -84.5 -21.5z" />
    <glyph glyph-name="P" unicode="P" horiz-adv-x="556" 
d="M32 645h78.998v-622h-86v-23h272v23h-89v278h48c50 0 93.333 5.66699 130 17s66.334 26.333 89.001 45s39.334 39 50.001 61s16 44 16 66c0 23.333 -4.16699 45.5 -12.5 66.5s-22 40 -41 57s-44.167 30.333 -75.5 40s-69.333 14.5 -114 14.5h-266v-23zM207.998 645
h27.999c38.667 0 69.5 -1.5 92.5 -4.5s42.5 -9.33301 58.5 -19s28 -24.667 36 -45s12 -47.833 12 -82.5c0 -30 -2.66699 -55.167 -8 -75.5s-14.666 -37.5 -27.999 -51.5s-32.833 -24.667 -58.5 -32s-58.5 -11 -98.5 -11h-34v321z" />
    <glyph glyph-name="Q" unicode="Q" horiz-adv-x="667" 
d="M564 -200c-66 0 -111.499 11.165 -136.499 33.498s-37.5 58.5 -37.5 108.5v50c34 8.66699 65.333 23.834 94 45.501s53.167 48.334 73.5 80.001s35.833 66.167 46.5 103.5s16 75.333 16 114c0 44 -6.83301 87 -20.5 129s-33.334 79.5 -59.001 112.5s-56.167 59 -91.5 78
s-74 28.5 -116 28.5c-41.333 0 -79.833 -9.5 -115.5 -28.5s-66.167 -45 -91.5 -78s-45 -70.5 -59 -112.5s-21 -85 -21 -129c0 -39.333 5.5 -77.833 16.5 -115.5s26.667 -72.167 47 -103.5s44.666 -57.833 72.999 -79.5s59.5 -36.5 93.5 -44.5v-11
c0 -40 5.83301 -73.167 17.5 -99.5s28.834 -47 51.501 -62s49.5 -25.5 80.5 -31.5s67.5 -9 109.5 -9h29v21zM333.001 6.99805c-34 0 -62.165 7.16699 -84.498 21.5s-40 35.5 -53 63.5s-22.167 61.833 -27.5 101.5s-8 86.5 -8 140.5c0 110.667 11.667 191 35 241
c13.333 28 31.166 49.167 53.499 63.5s50.5 21.5 84.5 21.5s62.167 -7.16699 84.5 -21.5s40.166 -35.5 53.499 -63.5c23.333 -50 35 -130.333 35 -241c0 -54 -2.66699 -100.833 -8 -140.5s-14.5 -73.5 -27.5 -101.5s-30.667 -49.167 -53 -63.5s-50.5 -21.5 -84.5 -21.5z" />
    <glyph glyph-name="R" unicode="R" horiz-adv-x="667" 
d="M294 0l0.000976562 23.0049h-79v326h60c29.333 0 53.333 -3.83301 72 -11.5s32.667 -17.5 42 -29.5s15.5 -24.167 18.5 -36.5s5.5 -26.833 7.5 -43.5s4.33301 -40.334 7 -71.001l6.5 -58c1.66699 -15.333 3.16699 -25.333 4.5 -30
c6.66699 -24.667 20.5 -44.834 41.5 -60.501s48.5 -23.5 82.5 -23.5c26.667 0.666992 56.334 7 89.001 19v25c-22 -8 -41.667 -12 -59 -12c-12.667 0 -22.667 2.33301 -30 7c-8.66699 4 -15.167 13.333 -19.5 28s-6.5 32.334 -6.5 53.001c0 3.33301 0.333008 7 1 11v11v12
c0.666992 4 1 8 1 12c0 33.333 -4.33301 61.666 -13 84.999s-21.167 42.666 -37.5 57.999s-35.333 27.666 -57 36.999s-47.5 17.666 -77.5 24.999v2c27.333 2.66699 52.833 6.66699 76.5 12s45.667 13.833 66 25.5s36.5 27.834 48.5 48.501s18 46.667 18 78
c0 14 -2.83301 29 -8.5 45s-16.334 31.667 -32.001 47s-38.334 28.166 -68.001 38.499s-67.167 15.5 -112.5 15.5h-295v-23h77v-622h-77v-23h253zM215.001 645.005l95.001 0.00195312c49.333 0 84.666 -9.33301 105.999 -28s32 -51.667 32 -99
c0 -33.333 -4 -59.833 -12 -79.5s-19.5 -34.334 -34.5 -44.001s-32.667 -15.834 -53 -18.501s-46.833 -4 -79.5 -4h-54v273z" />
    <glyph glyph-name="S" unicode="S" 
d="M96 41c19.333 -19.333 42.165 -33.499 68.498 -42.499s54.5 -13.5 84.5 -13.5c66 0 118.667 20 158 60s59 94 59 162c0 36 -6.33301 66.5 -19 91.5s-29.5 45 -50.5 60s-43.167 26.833 -66.5 35.5s-52.666 18 -87.999 28c-26.667 7.33301 -48.167 13.833 -64.5 19.5
s-31.5 12.667 -45.5 21s-25 18.666 -33 30.999s-12 27.166 -12 44.499c0 36 14.667 65.333 44 88s62 34 98 34c42.667 0 78.834 -13.667 108.501 -41s50.167 -63 61.5 -107h20v156h-14l-38 -29c-5.33301 4 -13 8.5 -23 13.5s-21.333 9.83301 -34 14.5s-25.5 8.5 -38.5 11.5
s-24.833 4.5 -35.5 4.5c-35.333 0 -65.833 -6.5 -91.5 -19.5s-46.834 -30.167 -63.501 -51.5c-14.667 -18.667 -25.167 -37.167 -31.5 -55.5s-9.5 -37.833 -9.5 -58.5c0 -30 6.66699 -58.667 20 -86s33.666 -49.666 60.999 -66.999c4.66699 -2.66699 19.5 -8.66699 44.5 -18
s56.5 -20.333 94.5 -33l42 -14.5c14.667 -5 23.334 -8.16699 26.001 -9.5c37.333 -14.667 61.833 -30.167 73.5 -46.5s17.5 -39.833 17.5 -70.5c0 -21.333 -4.5 -40.833 -13.5 -58.5s-21.5 -33 -37.5 -46s-34.167 -23 -54.5 -30s-41.166 -10.5 -62.499 -10.5
c-46.667 0 -87 15 -121 45s-58 68.667 -72 116h-19v-172h14z" />
    <glyph glyph-name="T" unicode="T" horiz-adv-x="556" 
d="M409 0v22.999h-83v622h44c25.333 0 46.833 -4.16699 64.5 -12.5s32.167 -20.166 43.5 -35.499s20 -33 26 -53s10.667 -43 14 -69h26l-7 193h-515l-11 -193h26l2 11c5.33301 28.667 10.333 51.667 15 69s11.167 33 19.5 47s19.5 24.667 33.5 32s32 11 54 11h68v-622h-83
v-23h263z" />
    <glyph glyph-name="U" unicode="U" horiz-adv-x="667" 
d="M37 668v-23.001h77v-477c0 -56 19.167 -100.5 57.5 -133.5s89.833 -49.5 154.5 -49.5c75.333 0 130.833 19 166.5 57s53.5 96.333 53.5 175v428h77v23h-181v-23h77v-397c0 -36 -2 -67.333 -6 -94s-11.667 -50.167 -23 -70.5s-28.5 -36.333 -51.5 -48
s-52.5 -17.5 -88.5 -17.5c-28 0 -51.333 5.33301 -70 16s-33 23.334 -43 38.001s-16.833 29 -20.5 43s-5.5 25.333 -5.5 34v496h78v23h-252z" />
    <glyph glyph-name="V" unicode="V" horiz-adv-x="667" 
d="M25 645h73l224 -660h25l212 660h71v23h-190v-23h91l-161 -499h-2l-168 499h78v23h-253v-23z" />
    <glyph glyph-name="W" unicode="W" horiz-adv-x="889" 
d="M339 132h-2l-160 513h152l95 -280zM548 645l-68 -185h-2l-59 185h129zM82 645l206 -660h28l121 338h2l111 -338h30l213 660h75v23h-180v-23h78l-166 -515h-2l-101 304l77 211h51v23h-604v-23h61z" />
    <glyph glyph-name="X" unicode="X" horiz-adv-x="667" 
d="M227 23h-87l160 269l162 -269h-80v-23h259v23h-67l-209 358l159 264h80v23h-198v-23h82l-142 -235l-141 235h74v23h-258v-23h70l190 -329l-176 -293h-84v-23h206v23z" />
    <glyph glyph-name="Y" unicode="Y" horiz-adv-x="667" 
d="M372 345l-169 300h88v23h-270v-23h74l193 -335v-287h-88v-23h274v23h-89v287l174 335h80v23h-206v-23h99z" />
    <glyph glyph-name="Z" unicode="Z" horiz-adv-x="556" 
d="M512 636l0.000976562 31.998h-456l-10 -162h23c9.33301 30.667 17.666 54.334 24.999 71.001s15.833 30 25.5 40s22.167 17.167 37.5 21.5s35.333 6.5 60 6.5h185l-386 -604v-41h487l11 188h-27c-5.33301 -32.667 -12.333 -59.5 -21 -80.5s-19.5 -37.667 -32.5 -50
s-29.5 -21.166 -49.5 -26.499s-44.667 -8 -74 -8h-185z" />
    <glyph glyph-name="bracketleft" unicode="[" horiz-adv-x="278" 
d="M258 -179h-137v824h137v23h-209v-870h209v23z" />
    <glyph glyph-name="backslash" unicode="\" horiz-adv-x="278" 
d="M-4 683l224 -698h62l-225 698h-61z" />
    <glyph glyph-name="bracketright" unicode="]" horiz-adv-x="278" 
d="M20 -202h209v870h-209v-23h137v-824h-137v-23z" />
    <glyph glyph-name="asciicircum" unicode="^" horiz-adv-x="550" 
d="M128 265l147 307l147 -307h62l-183 380h-52l-183 -380h62z" />
    <glyph glyph-name="underscore" unicode="_" 
d="M500 -125v50h-500v-50h500z" />
    <glyph glyph-name="grave" unicode="`" horiz-adv-x="278" 
d="M213 438l-149 145l-4 4c-6 6.66699 -11.167 11.5 -15.5 14.5s-9.5 4.5 -15.5 4.5c-10 0 -18.333 -3.16699 -25 -9.5s-10 -14.5 -10 -24.5c0 -9.33301 3.83301 -17.5 11.5 -24.5s20.167 -15.833 37.5 -26.5l2 -2l133 -81h35z" />
    <glyph glyph-name="a" unicode="a" horiz-adv-x="444" 
d="M419 69c-3.33301 -12 -7.83203 -22.502 -13.499 -31.502s-12.834 -13.5 -21.501 -13.5c-9.33301 0 -15.166 3.33301 -17.499 10s-3.5 18.667 -3.5 36v238c0 14 -1 26 -3 36s-7.16699 19.833 -15.5 29.5s-22 17.5 -41 23.5s-44.5 9 -76.5 9
c-28 0 -52.333 -3.16699 -73 -9.5s-37.334 -14.333 -50.001 -24s-22 -20 -28 -31s-9 -21.5 -9 -31.5c0 -14 3.66699 -25.5 11 -34.5s17.666 -13.5 30.999 -13.5c12.667 0 22.667 3.83301 30 11.5s11 17.834 11 30.501c0 10 -2 17.667 -6 23s-9.33301 10.333 -16 15
c-5.33301 3.33301 -8 6 -8 8c0 6.66699 3.5 12.334 10.5 17.001s15.667 8.5 26 11.5s20.666 5 30.999 6s18.833 1.5 25.5 1.5c20 0 37 -4.83301 51 -14.5s21 -25.167 21 -46.5v-95c-77.333 0 -138.166 -12.667 -182.499 -38s-67.166 -61 -68.499 -107
c0 -34.667 10.833 -59.667 32.5 -75s49.834 -23 84.501 -23c26.667 0 51.667 5.16699 75 15.5s43.333 25.5 60 45.5c4 -19.333 11.333 -34.333 22 -45s25 -16 43 -16c22.667 0 42.167 7.83301 58.5 23.5s25.166 35.167 26.499 58.5h-17zM285.001 115.998
c0 -17.333 -1.83301 -29.999 -5.5 -37.999s-8.5 -15 -14.5 -21l-2 -2c-12 -10.667 -23.833 -18.167 -35.5 -22.5s-25.5 -6.5 -41.5 -6.5c-23.333 0 -42 7.16699 -56 21.5s-21 33.5 -21 57.5c0 21.333 5.66699 39 17 53s26 24.667 44 32s36.5 12.166 55.5 14.499
s38.833 3.83301 59.5 4.5v-93z" />
    <glyph glyph-name="b" unicode="b" 
d="M159 698c-30.667 -6 -68.001 -9.00098 -112.001 -9.00098h-23v-23h57v-642h-57v-24c23.333 0 55.333 -1.66699 96 -5c16.667 -1.33301 28.334 -2.33301 35.001 -3v69h2c12.667 -21.333 29.5 -39 50.5 -53s43.5 -21 67.5 -21c26.667 0 51.667 5.16699 75 15.5
s43.833 24.833 61.5 43.5s31.334 41 41.001 67s14.5 54 14.5 84c0 24 -3.66699 48.167 -11 72.5s-18.833 46.833 -34.5 67.5s-35.834 37.334 -60.501 50.001s-53.667 19 -87 19c-22.667 0 -44.667 -7 -66 -21s-37 -30.333 -47 -49h-2v362zM160.999 287.999
c0.666992 8 3.99609 17.501 9.99609 28.501s14 21.833 24 32.5s22 19.5 36 26.5s28.667 10.5 44 10.5c22.667 0 41 -5.66699 55 -17s24.333 -26.166 31 -44.499s10.834 -37.333 12.501 -57s2.5 -41.834 2.5 -66.501c0 -28 -0.833008 -51.833 -2.5 -71.5s-5.5 -39 -11.5 -58
s-16.167 -34.333 -30.5 -46s-33.166 -17.5 -56.499 -17.5c-10 0 -21.5 1.83301 -34.5 5.5s-25.833 10.5 -38.5 20.5s-23.5 24.667 -32.5 44s-13.5 43.666 -13.5 72.999c0 16.667 0.333008 39.334 1 68.001c0.666992 12 1.33398 25.167 2.00098 39.5
s1.33398 24.166 2.00098 29.499z" />
    <glyph glyph-name="c" unicode="c" horiz-adv-x="444" 
d="M381 124c-11.333 -35.333 -29.498 -63.498 -54.498 -84.498s-52.833 -31.5 -83.5 -31.5c-49.333 2.66699 -82 21.667 -98 57c-4.66699 11.333 -9.33398 27.666 -14.001 48.999s-7 45 -7 71c0 69.333 8.66699 120.166 26 152.499s49 48.5 95 48.5
c6 0 14 -0.833008 24 -2.5s19.5 -4 28.5 -7s16.667 -7 23 -12s9.5 -10.5 9.5 -16.5c0 -2.66699 -3 -6.33398 -9 -11.001c-6.66699 -6 -12.167 -12 -16.5 -18s-6.5 -14.667 -6.5 -26c0 -14 4.5 -25.333 13.5 -34s20.167 -13 33.5 -13s24.166 5.33301 32.499 16
s12.5 23 12.5 37c0 18 -4.83301 34 -14.5 48s-22.334 25.333 -38.001 34s-32.667 15 -51 19s-36.166 6 -53.499 6c-16.667 0 -36.167 -3.5 -58.5 -10.5s-44.333 -18.833 -66 -35.5s-39.667 -39.5 -54 -68.5s-21.5 -64.5 -21.5 -106.5c0 -19.333 3.5 -40.166 10.5 -62.499
s18.333 -43.833 34 -64.5s36.667 -37.667 63 -51s57.833 -20 94.5 -20c48 2 84.5 15 109.5 39s44.167 56.667 57.5 98h-21z" />
    <glyph glyph-name="d" unicode="d" 
d="M338 281c2.66699 -8.66699 4.49902 -21.3281 5.49902 -37.9951s1.5 -33.334 1.5 -50.001c0 -26 -0.833008 -47.333 -2.5 -64s-4.5 -30.334 -8.5 -41.001s-9 -19.834 -15 -27.501s-14.333 -16.167 -25 -25.5c-7.33301 -6.66699 -17.666 -12.834 -30.999 -18.501
s-26 -8.5 -38 -8.5c-40 0 -66.833 14.5 -80.5 43.5s-20.5 82.833 -20.5 161.5c0 23.333 0.833008 44.166 2.5 62.499s5.5 36 11.5 53s15.667 30.833 29 41.5s31 16 53 16c20.667 0 38.5 -4.16699 53.5 -12.5s26.833 -18.5 35.5 -30.5s15 -22.833 19 -32.5
s7.33301 -19.167 10 -28.5v-1zM418.999 23.0059l-0.00195312 675.001c-30.667 -6 -68 -9 -112 -9h-33v-23h67v-336h-2c-13.333 27.333 -31.5 46.833 -54.5 58.5s-44.833 17.5 -65.5 17.5c-57.333 0 -102.666 -20 -135.999 -60s-50 -89.333 -50 -148
c0 -28 4.33301 -54.833 13 -80.5s21 -48.334 37 -68.001s34.833 -35 56.5 -46s44.834 -16.5 69.501 -16.5c59.333 0 103 24 131 72h2v-67c33.333 5.33301 77.333 8 132 8v23h-55z" />
    <glyph glyph-name="e" unicode="e" horiz-adv-x="444" 
d="M387 124c-6.66699 -32 -23.998 -59.332 -51.998 -81.999s-56.667 -34 -86 -34c-26 0 -47.167 4.5 -63.5 13.5s-28.833 21.5 -37.5 37.5s-14.334 34.333 -17.001 55s-4 45 -4 73v41h283c-0.666992 54 -17.834 97.167 -51.501 129.5s-76.5 48.5 -128.5 48.5
c-29.333 0 -56 -6 -80 -18s-44.833 -28.667 -62.5 -50s-31.167 -45.666 -40.5 -72.999s-14 -55.666 -14 -84.999c0 -26.667 5.5 -51.834 16.5 -75.501s26 -44.334 45 -62.001s40.5 -31.334 64.5 -41.001s48.667 -14.5 74 -14.5c45.333 0 83.5 11.5 114.5 34.5
s51.5 57.167 61.5 102.5h-22zM128.002 257.001c1.33301 27.333 4.66699 49.334 10 66.001c0.666992 3.33301 3.16699 8.33301 7.5 15s10 13.667 17 21s16 13.666 27 18.999s23.5 8 37.5 8c27.333 0 49.5 -7.33301 66.5 -22s25.5 -39 25.5 -73v-34h-191z" />
    <glyph glyph-name="f" unicode="f" horiz-adv-x="278" 
d="M161 396l0.00195312 113.002c0 49.333 7.16699 88 21.5 116s33.5 42 57.5 42c5.33301 0 10.666 -0.5 15.999 -1.5s8 -2.5 8 -4.5c0 -4.66699 -1.33301 -9.33398 -4 -14.001c-2.66699 -4 -4 -7.66699 -4 -11c0 -30.667 13.667 -46 41 -46
c9.33301 0 17.833 3.16699 25.5 9.5s11.5 14.166 11.5 23.499c0 21.333 -8.33301 37.5 -25 48.5s-36.334 16.5 -59.001 16.5c-50.667 0 -91.167 -20 -121.5 -60s-45.5 -101 -45.5 -183v-49h-77v-23h77v-350h-77v-23h236v23h-81v350h81v23h-81z" />
    <glyph glyph-name="g" unicode="g" horiz-adv-x="444" 
d="M96 63c-7.33301 0 -13.502 2.16992 -18.502 6.50293s-7.5 9.16602 -7.5 14.499c0 18.667 11.5 31.667 34.5 39s59.833 14 110.5 20c22.667 2 38 3.66699 46 5c6.66699 0.666992 15.5 3.33398 26.5 8.00098s22.333 11.834 34 21.501s21.334 22.5 29.001 38.5
s11.5 35 11.5 57c0 11.333 -3 26.666 -9 45.999c-3.33301 9.33301 -5 15.666 -5 18.999c0 5.33301 2.33301 10.666 7 15.999s9.66699 8 15 8c2 0 5.33301 -3.33301 10 -10c4 -6 7.83301 -10.833 11.5 -14.5s7.83398 -5.5 12.501 -5.5c10 0 17.833 3.66699 23.5 11
s8.5 16.333 8.5 27c0 12 -3.83301 20.667 -11.5 26s-16.834 8 -27.501 8c-14.667 0 -27.334 -5.66699 -38.001 -17s-19.334 -24.333 -26.001 -39c-26 38.667 -67.667 58 -125 58c-46 0 -81.5 -14.167 -106.5 -42.5s-37.5 -60.166 -37.5 -95.499c0 -27.333 6.5 -50 19.5 -68
s31.5 -33 55.5 -45v-2c-11.333 -2 -22.5 -4.5 -33.5 -7.5s-21.667 -7.5 -32 -13.5s-18.666 -13.667 -24.999 -23s-9.5 -20.333 -9.5 -33c0 -16.667 3 -30.334 9 -41.001s14 -19 24 -25s20.333 -10.167 31 -12.5s25 -4.83301 43 -7.5h2v-3
c-14 -3.33301 -27.667 -7.83301 -41 -13.5s-25.833 -12.667 -37.5 -21s-21 -18.833 -28 -31.5s-10.5 -27.334 -10.5 -44.001c0 -11.333 3.5 -23 10.5 -35s18 -23.333 33 -34s35 -19.167 60 -25.5s54.5 -9.5 88.5 -9.5c24.667 0 49 3 73 9s45.833 15.667 65.5 29
s35.334 30.833 47.001 52.5s17.5 47.167 17.5 76.5c0 32.667 -9.33301 59.667 -28 81c-8.66699 10 -17.167 17.5 -25.5 22.5s-19.166 9 -32.499 12s-30.5 5 -51.5 6s-49.5 1.5 -85.5 1.5h-107zM94.998 -118.997c0 10 2.49902 21.332 7.49902 33.999s13.333 25.167 25 37.5
s27.5 22.5 47.5 30.5s43.667 12 71 12c60 0 99.167 -6.66699 117.5 -20s27.5 -36 27.5 -68c0 -7.33301 -1.66699 -16.666 -5 -27.999s-10.833 -23.5 -22.5 -36.5s-29.667 -24 -54 -33s-56.166 -13.5 -95.499 -13.5c-14 0 -28 1.5 -42 4.5s-26.833 7.83301 -38.5 14.5
s-21 15.5 -28 26.5s-10.5 24.167 -10.5 39.5zM215.997 386.002c14 0 25.667 -3.16504 35 -9.49805s16.333 -14.833 21 -25.5s7.83398 -22.167 9.50098 -34.5s2.5 -25.833 2.5 -40.5c0 -18.667 -0.666992 -34.334 -2 -47.001s-4.66602 -24 -9.99902 -34
s-13.166 -18 -23.499 -24s-24.5 -9 -42.5 -9c-12.667 0 -23.334 3.16699 -32.001 9.5s-15.334 14.666 -20.001 24.999s-7.83398 21.5 -9.50098 33.5s-2.5 24.333 -2.5 37c0 45.333 5.83301 76.5 17.5 93.5s30.5 25.5 56.5 25.5z" />
    <glyph glyph-name="h" unicode="h" 
d="M79 23h-55v-23h187v23h-54v186c0 18.667 3 38 9 58s14.5 38.333 25.5 55s23.833 30 38.5 40s30.334 15 47.001 15c22 0 38 -5.5 48 -16.5s15 -33.5 15 -67.5v-270h-52v-23h184v23h-54v283c0 21.333 -4.16699 38.833 -12.5 52.5s-18.833 24 -31.5 31
s-25.334 11.5 -38.001 13.5s-25 3 -37 3c-34 0 -62 -9 -84 -27s-40.667 -44.333 -56 -79h-2v398c-30.667 -6 -68 -9 -112 -9h-21v-23h55v-643z" />
    <glyph glyph-name="i" unicode="i" horiz-adv-x="278" 
d="M236 0v23h-59v383c-26.667 -6.66699 -64 -10 -112 -10h-33v-23h67v-350h-67v-23h204zM89 612c0 -14.667 4.50098 -27.167 13.501 -37.5s20.5 -15.5 34.5 -15.5c14.667 0 26.834 5 36.501 15s14.5 22.667 14.5 38c0 12.667 -5.33301 23.834 -16 33.501
s-22.334 14.5 -35.001 14.5s-23.834 -4.83301 -33.501 -14.5s-14.5 -20.834 -14.5 -33.501z" />
    <glyph glyph-name="j" unicode="j" horiz-adv-x="278" 
d="M190 406c-26.667 -6.66699 -64.001 -9.99902 -112.001 -9.99902h-33v-23h67v-453c0 -11.333 -0.5 -23 -1.5 -35s-3 -24.167 -6 -36.5s-7.66699 -22.833 -14 -31.5s-14.833 -13 -25.5 -13c-6 0 -11.167 2.33301 -15.5 7s-7.16602 10 -8.49902 16
c-0.666992 5.33301 -3.33398 12.333 -8.00098 21s-12.334 13 -23.001 13c-12.667 0 -23.5 -2.66699 -32.5 -8s-13.5 -14 -13.5 -26c0 -16.667 6.83301 -29.834 20.5 -39.501s28.834 -14.5 45.501 -14.5c26 0 49 6.5 69 19.5s36.833 30.667 50.5 53s23.834 47 30.501 74
s10 54.5 10 82.5v404zM101.999 612.001c0 -14.667 4.50098 -27.167 13.501 -37.5s20.5 -15.5 34.5 -15.5c14.667 0 26.834 5 36.501 15s14.5 22.667 14.5 38c0 12.667 -5.33301 23.834 -16 33.501s-22.334 14.5 -35.001 14.5s-23.834 -4.83301 -33.501 -14.5
s-14.5 -20.834 -14.5 -33.501z" />
    <glyph glyph-name="k" unicode="k" 
d="M331 373v-3l-169 -144l167 -203h-50v-23h190v23h-42l-190 230l138 120h61v23h-164v-23h59zM221 0v23h-60v675c-30.667 -6 -68 -9 -112 -9h-18v-23h52v-643h-52v-23h190z" />
    <glyph glyph-name="l" unicode="l" horiz-adv-x="278" 
d="M252 0v23h-77v675c-30.667 -6 -68 -9 -112 -9h-43v-23h77v-643h-77v-23h232z" />
    <glyph glyph-name="m" unicode="m" horiz-adv-x="722" 
d="M649 23l-0.000976562 266.002c0 24 -3.5 44 -10.5 60s-16.167 28 -27.5 36s-23 13.5 -35 16.5s-23.667 4.5 -35 4.5c-30.667 0 -57 -8.16699 -79 -24.5s-41.667 -39.5 -59 -69.5h-2c-2.66699 29.333 -13.834 52.333 -33.501 69s-44.167 25 -73.5 25
c-33.333 0 -58.833 -7.33301 -76.5 -22s-37.167 -39 -58.5 -73h-2v95c-26.667 -6.66699 -64 -10 -112 -10h-16v-23h50v-350h-50v-23h184v23h-56v189c0 19.333 3 38.666 9 57.999s14.167 37.166 24.5 53.499s22.333 29.333 36 39s27.834 14.5 42.501 14.5
c16.667 0 30.167 -6 40.5 -18s15.5 -29.333 15.5 -52v-284h-53v-23h184v23h-53v210c0 14 3 29.333 9 46s14.167 32.5 24.5 47.5s22.333 27.167 36 36.5s27.834 14 42.501 14c16.667 0 30.167 -6 40.5 -18s15.5 -29.333 15.5 -52v-284h-56v-23h184v23h-50z" />
    <glyph glyph-name="n" unicode="n" 
d="M84 23l-55 0.000976562v-23h187v23h-54v186c0 18.667 3 38 9 58s14.5 38.333 25.5 55s23.833 30 38.5 40s30.334 15 47.001 15c22 0 38 -5.5 48 -16.5s15 -33.5 15 -67.5v-270h-52v-23h184v23h-54v283c0 21.333 -4.16699 38.833 -12.5 52.5s-18.833 24 -31.5 31
s-25.334 11.5 -38.001 13.5s-25 3 -37 3c-34 0 -62 -9 -84 -27s-40.667 -44.333 -56 -79h-2v106c-20 -4.66699 -38.667 -7.33398 -56 -8.00098c-12 -1.33301 -30.667 -2 -56 -2h-21v-23h55v-350z" />
    <glyph glyph-name="o" unicode="o" horiz-adv-x="444" 
d="M222 406c-26 0 -50.667 -5.16602 -74 -15.499s-44 -25 -62 -44s-32 -41.333 -42 -67s-15 -53.167 -15 -82.5s5 -57 15 -83s24 -48.5 42 -67.5s38.667 -33.667 62 -44s48 -15.5 74 -15.5s50.667 5.16699 74 15.5s44 25.166 62 44.499s32 41.833 42 67.5s15 53.167 15 82.5
s-5 56.833 -15 82.5s-24 48 -42 67s-38.667 33.667 -62 44s-48 15.5 -74 15.5zM222 386.001c24 0 43 -5.5 57 -16.5s24.167 -25.667 30.5 -44s10.333 -37.166 12 -56.499s2.5 -43.333 2.5 -72s-0.833008 -52.834 -2.5 -72.501s-5.5 -38.5 -11.5 -56.5
s-16.167 -32.667 -30.5 -44s-33.5 -17 -57.5 -17s-43 5.66699 -57 17s-24.167 26 -30.5 44s-10.333 36.833 -12 56.5s-2.5 43.834 -2.5 72.501s0.833008 52.667 2.5 72s5.66699 38.166 12 56.499s16.5 33 30.5 44s33 16.5 57 16.5z" />
    <glyph glyph-name="p" unicode="p" 
d="M81 -203l-58.9961 0.00195312v-23h205v23h-68v257h2c26 -44.667 64.667 -67 116 -67c30 0 56.833 5.66699 80.5 17s43.667 26.666 60 45.999s28.666 41 36.999 65s12.5 48.333 12.5 73c0 37.333 -5.66699 70 -17 98s-26.333 50.833 -45 68.5s-38.834 30.667 -60.501 39
s-42.834 12.5 -63.501 12.5c-25.333 0 -48.833 -6.66699 -70.5 -20s-38.834 -32.333 -51.501 -57l-2 -1v78c-20 -4.66699 -39 -7.33398 -57 -8.00098c-12.667 -1.33301 -31.667 -2 -57 -2h-21v-23h59v-576zM163.004 270.002c3.33301 22.667 9.83203 41.5 19.499 56.5
s20.334 26.5 32.001 34.5s22.667 13.5 33 16.5s18.833 4.5 25.5 4.5c37.333 0 63.833 -14 79.5 -42s23.5 -77.667 23.5 -149c0 -43.333 -3 -77.833 -9 -103.5s-13.833 -44.167 -23.5 -55.5s-20.167 -18.333 -31.5 -21s-25.333 -4 -42 -4c-15.333 0 -32.333 5.66699 -51 17
s-32 25 -40 41c-8 15.333 -13.333 30 -16 44s-4 37 -4 69c0 26.667 0.333008 46 1 58s1.66699 23.333 3 34z" />
    <glyph glyph-name="q" unicode="q" 
d="M417 -203l0.000976562 576.001h58v23h-14c-21.333 0 -42.833 0.5 -64.5 1.5s-39.834 3.83301 -54.501 8.5v-82h-2c-10 25.333 -26.667 45.333 -50 60s-49 22 -77 22c-18 0 -37.333 -4 -58 -12s-40.334 -20.667 -59.001 -38s-33.834 -39.833 -45.501 -67.5
s-17.5 -60.5 -17.5 -98.5c0 -26.667 4.5 -52.334 13.5 -77.001s21.667 -46.5 38 -65.5s35.333 -33.833 57 -44.5s44.834 -16 69.501 -16c28 0 52.833 5.5 74.5 16.5s38.834 27.5 51.501 49.5h2v-256h-66v-23h202v23h-58zM341.001 205.001l-0.00195312 -29
c-0.666992 -16.667 -1 -26.667 -1 -30c0 -29.333 -4.66699 -53.333 -14 -72s-20.5 -32.5 -33.5 -41.5s-25.667 -15 -38 -18s-22.833 -4.5 -31.5 -4.5c-22 0 -39.833 5.16699 -53.5 15.5s-23.667 24.166 -30 41.499s-10.5 35.333 -12.5 54s-3 39.667 -3 63
c0 24.667 0.833008 47.334 2.5 68.001s5.33398 41 11.001 61s15.334 36.5 29.001 49.5s31.5 19.5 53.5 19.5c32 0 58.667 -11.333 80 -34c18 -18.667 29.333 -37.667 34 -57s7 -48 7 -86z" />
    <glyph glyph-name="r" unicode="r" horiz-adv-x="333" 
d="M164 406c-26.667 -6.66699 -64 -9.99902 -112 -9.99902h-31v-23h68v-350h-68v-23h223v23h-77v190c0 19.333 2.33301 38.333 7 57s10.667 35.667 18 51c9.33301 18.667 20.333 33.167 33 43.5s20.667 15.5 24 15.5c2.66699 0 4.83398 -0.333008 6.50098 -1
s2.5 -2.33398 2.5 -5.00098c0 -1.33301 -0.333008 -3.66602 -1 -6.99902c-2 -6.66699 -3 -11.334 -3 -14.001c0 -10 4.16699 -19.167 12.5 -27.5s17.166 -12.5 26.499 -12.5c12 0 22.833 3.33301 32.5 10s14.5 15.667 14.5 27c0 18 -5.66699 31.833 -17 41.5
s-26 14.5 -44 14.5c-25.333 0 -48 -9.33301 -68 -28s-35 -40.667 -45 -66h-2v94z" />
    <glyph glyph-name="s" unicode="s" horiz-adv-x="389" 
d="M289 396l-18 -26.998c-30.667 24.667 -61.667 37 -93 37c-26 0 -47.833 -4.16699 -65.5 -12.5s-31.5 -18.833 -41.5 -31.5s-17.167 -26 -21.5 -40s-6.5 -27 -6.5 -39c0 -20 2.83301 -36.333 8.5 -49s13.667 -22.667 24 -30s21.5 -13 33.5 -17s28 -8.33301 48 -13l10 -3
c48 -12 83 -23.5 105 -34.5s33 -25.5 33 -43.5c0 -24.667 -10.167 -45.167 -30.5 -61.5s-42.5 -24.5 -66.5 -24.5c-36 0 -66.167 11.5 -90.5 34.5s-41.5 53.167 -51.5 90.5h-23v-132h22l22 36c14 -15.333 31.333 -27.333 52 -36s41.667 -13 63 -13
c40.667 0 74.834 12.333 102.501 37s41.5 58 41.5 100c0 32 -7.83301 57 -23.5 75s-42.5 31 -80.5 39c-36.667 7.33301 -66 14.166 -88 20.499s-38.333 12.166 -49 17.499s-17.334 10.666 -20.001 15.999s-4 12.333 -4 21c0 4.66699 1.33301 10.834 4 18.501
s7.16699 15.667 13.5 24s16 15.5 29 21.5s28.833 9 47.5 9c28.667 -1.33301 52 -11 70 -29s31 -42.333 39 -73h22v112h-17z" />
    <glyph glyph-name="t" unicode="t" horiz-adv-x="278" 
d="M18 373l56.999 0.00195312v-299c0 -28.667 5.16699 -50.334 15.5 -65.001s31.833 -22 64.5 -22c21.333 0 42.333 5.66699 63 17s35.667 26 45 44l-16 11l-2 -2c-10 -12 -18.667 -20.833 -26 -26.5s-16.666 -8.5 -27.999 -8.5c-16.667 0 -27.167 4.16699 -31.5 12.5
s-6.5 19.166 -6.5 32.499v306h88v23h-88v127c-16.667 -2.66699 -42 -4 -76 -4v-123h-59v-23z" />
    <glyph glyph-name="u" unicode="u" 
d="M470 23l-57.0029 -0.000976562v383c-26.667 -6.66699 -64 -10 -112 -10h-23v-23h57v-224c0 -36.667 -11.5 -67.667 -34.5 -93s-51.833 -38 -86.5 -38c-18 0 -32.667 5.33301 -44 16s-17 30 -17 58v314c-26.667 -6.66699 -64 -10 -112 -10h-20v-23h54v-290
c0 -13.333 1.66699 -25.5 5 -36.5s9.33301 -21.167 18 -30.5s20.834 -16.666 36.501 -21.999s35.167 -8 58.5 -8c32.667 0 61.834 7.83301 87.501 23.5s44.834 37.167 57.501 64.5h2v-81c42 4.66699 78.333 7 109 7h21v23z" />
    <glyph glyph-name="v" unicode="v" horiz-adv-x="444" 
d="M67 373l134 -386h34l138 386h48v23h-136v-23h61l-101 -287h-2l-97 287h53v23h-180v-23h48z" />
    <glyph glyph-name="w" unicode="w" horiz-adv-x="611" 
d="M64 373l115 -386h32l91 296h2l100 -296h28l113 386h55v23h-149v-23h69l-78 -266h-2l-94 289h-33l-90 -289h-2l-81 266h59v23h-192v-23h57z" />
    <glyph glyph-name="x" unicode="x" horiz-adv-x="444" 
d="M157 23h-54l97 143l93 -143h-52v-23h185v23h-49l-136 205l102 145h57v23h-143v-23h56l-86 -125l-82 125h54v23h-187v-23h53l121 -186l-114 -164h-60v-23h145v23z" />
    <glyph glyph-name="y" unicode="y" horiz-adv-x="444" 
d="M424 373l0.00195312 23h-142v-23h64l-95 -269l-111 269h64v23h-192v-23h47l153 -373c-9.33301 -29.333 -16.833 -51.333 -22.5 -66s-11.834 -29.667 -18.501 -45l-2 -5c-8 -21.333 -14.667 -36.833 -20 -46.5s-11.333 -14.5 -18 -14.5c-2.66699 0 -6 3.33301 -10 10
c-4.66699 8 -10 14.5 -16 19.5s-14.667 7.5 -26 7.5s-21 -3.83301 -29 -11.5s-12 -18.167 -12 -31.5c0 -11.333 5.16699 -21.5 15.5 -30.5s21.166 -13.5 32.499 -13.5c29.333 0 53 12.667 71 38s37 66 57 122l160 440h50z" />
    <glyph glyph-name="z" unicode="z" horiz-adv-x="389" 
d="M73 266c6.66699 46 17.167 75.333 31.5 88s36.166 19 65.499 19h89l-234 -351v-22h323v145h-19c-8.66699 -40 -19.167 -70.333 -31.5 -91s-30.166 -31 -53.499 -31h-126l232 348v25h-300v-130h23z" />
    <glyph glyph-name="braceleft" unicode="{" horiz-adv-x="333" 
d="M273 -197c-29.333 8.66699 -48.833 23.333 -58.5 44s-14.5 51.667 -14.5 93v151c0 41.333 -6.33301 73 -19 95s-35.667 37.667 -69 47v2c33.333 9.33301 56.333 25 69 47s19 53.333 19 94v151c0 42 4.83301 73.333 14.5 94s29.167 35 58.5 43v12
c-22.667 0 -42.5 -2 -59.5 -6s-32 -11.5 -45 -22.5s-23 -26.833 -30 -47.5s-10.5 -47 -10.5 -79v-161c0 -38.667 -4.16699 -67 -12.5 -85s-27.166 -31.667 -56.499 -41c29.333 -10 48.166 -24 56.499 -42s12.5 -46.333 12.5 -85v-161c0 -32 3.5 -58.333 10.5 -79
s17 -36.5 30 -47.5s28 -18.5 45 -22.5s36.833 -6 59.5 -6v12z" />
    <glyph glyph-name="bar" unicode="|" horiz-adv-x="222" 
d="M82 -15h58v698h-58v-698z" />
    <glyph glyph-name="braceright" unicode="}" horiz-adv-x="333" 
d="M60 664c29.333 -8 48.833 -22.332 58.5 -42.999s14.5 -52 14.5 -94v-151c0 -40.667 6.33301 -72 19 -94s35.667 -37.667 69 -47v-2c-33.333 -9.33301 -56.333 -25 -69 -47s-19 -53.667 -19 -95v-151c0 -41.333 -4.83301 -72.333 -14.5 -93s-29.167 -35.334 -58.5 -44.001
v-12c22.667 0 42.5 2 59.5 6s32 11.5 45 22.5s23 26.833 30 47.5s10.5 47 10.5 79v161c0 38.667 4.16699 67 12.5 85s27.166 32 56.499 42c-29.333 9.33301 -48.166 23 -56.499 41s-12.5 46.333 -12.5 85v161c0 32 -3.5 58.333 -10.5 79s-17 36.5 -30 47.5
s-28 18.5 -45 22.5s-36.833 6 -59.5 6v-12z" />
    <glyph glyph-name="asciitilde" unicode="~" horiz-adv-x="550" 
d="M470 312c-15.333 -24 -29.333 -42.502 -42 -55.502s-28 -19.5 -46 -19.5c-10 0 -21.833 2.5 -35.5 7.5s-30.5 12.167 -50.5 21.5l-16 8c-21.333 10 -41.333 18 -60 24s-35.667 9 -51 9c-30.667 0 -55.834 -8.33301 -75.501 -25s-36.167 -38 -49.5 -64l36 -44
c10 22.667 21.5 40.834 34.5 54.501s29.5 20.5 49.5 20.5c21.333 0 40.833 -3.16699 58.5 -9.5s36.5 -15.166 56.5 -26.499c19.333 -11.333 37 -20 53 -26s32.333 -9 49 -9c27.333 0 52.333 9.66699 75 29c14.667 12.667 31.334 33 50.001 61z" />
    <glyph glyph-name="exclamdown" unicode="&#xa1;" horiz-adv-x="278" 
d="M128 260c-2 -65.333 -6.50098 -127.667 -13.501 -187s-15.167 -117.333 -24.5 -174c-5.33301 -31.333 -8 -49 -8 -53c0 -18.667 5 -34.667 15 -48s24 -20 42 -20c18.667 0 32.834 6.66699 42.501 20s14.5 29.333 14.5 48c0 4 -2.66699 21.667 -8 53
c-9.33301 60 -17.5 118.667 -24.5 176s-11.5 119 -13.5 185h-22zM136.999 356.999c16.667 0 31 5.33301 43 16s18 24.667 18 42c0 15.333 -6.33301 28.5 -19 39.5s-26.667 16.5 -42 16.5c-14.667 0 -27.834 -5.5 -39.501 -16.5s-17.5 -24.167 -17.5 -39.5
c0 -16.667 5.33301 -30.5 16 -41.5s24.334 -16.5 41.001 -16.5z" />
    <glyph glyph-name="cent" unicode="&#xa2;" 
d="M185 47c-6 6 -12.833 20.333 -20.5 43s-11.5 54 -11.5 94c0 68.667 8.66699 119 26 151s49 48 95 48c8.66699 0 18 -1 28 -3zM410 122c-12 -34.667 -30.3281 -62.5039 -54.9951 -83.5039s-52.334 -31.5 -83.001 -31.5c-21.333 0.666992 -42 6.33398 -62 17.001l122 346
c18 -5.33301 27 -13.666 27 -24.999c0 -2.66699 -3 -6.33398 -9 -11.001c-6.66699 -5.33301 -12.167 -11.166 -16.5 -17.499s-6.5 -15.166 -6.5 -26.499c0 -14 4.33301 -25.167 13 -33.5s20 -12.5 34 -12.5c13.333 0 24.166 5.33301 32.499 16s12.5 23 12.5 37
c0 22.667 -7.33301 41.834 -22 57.501s-34 27.5 -58 35.5l49 140h-32l-47 -132c-14 3.33301 -29.667 5 -47 5c-16.667 0 -36.167 -3.5 -58.5 -10.5s-44.333 -18.833 -66 -35.5s-39.667 -39.334 -54 -68.001s-21.5 -63.667 -21.5 -105c0 -14 2 -29.167 6 -45.5
s10.167 -33 18.5 -50s19.5 -32.667 33.5 -47s31 -26.166 51 -35.499l-51 -146h32l48 136c19.333 -6 40.666 -9 63.999 -9c47.333 1.33301 83.666 14 108.999 38s44.666 56.333 57.999 97h-21z" />
    <glyph glyph-name="sterling" unicode="&#xa3;" 
d="M444 195c0 -38 -6.33398 -66.665 -19.001 -85.998s-36.334 -29 -71.001 -29c-16 0 -32 2 -48 6s-35.333 9.33301 -58 16l-3 1c19.333 48.667 29 98.667 29 150c0 24 -1.33301 45.333 -4 64h110v27h-116c-2 9.33301 -9 30.666 -21 63.999l-24 74.5
c-5.33301 17 -8 29.833 -8 38.5c0 32 9.5 58.5 28.5 79.5s43.833 31.5 74.5 31.5c16.667 0 34.834 -4.5 54.501 -13.5s29.5 -21.167 29.5 -36.5c0 -4.66699 -3.66699 -7.33398 -11 -8.00098s-12.666 -2 -15.999 -4c-18.667 -10.667 -28 -25 -28 -43
c0 -16.667 5 -29.167 15 -37.5s23 -12.5 39 -12.5c14.667 0 26.834 5.83301 36.501 17.5s14.5 25.167 14.5 40.5c0 38 -14.333 67.667 -43 89s-60 32 -94 32c-32 0 -59.667 -6.33301 -83 -19s-42 -28.667 -56 -48s-24 -39.333 -30 -60s-9 -39.334 -9 -56.001
c0 -40.667 9.66699 -83.667 29 -129h-101v-27h111l13 -36c9.33301 -26.667 16.333 -48.667 21 -66s7 -35.666 7 -54.999c0 -6.66699 -1 -17 -3 -31l-2 -9l-23 9c-17.333 6.66699 -31.5 11.667 -42.5 15s-22.5 5 -34.5 5c-26 0 -47.333 -7 -64 -21s-25 -34.333 -25 -61
c0 -6.66699 1 -14.5 3 -23.5s6 -17.833 12 -26.5s14.667 -16 26 -22s25.666 -9 42.999 -9c25.333 0 45.5 4.83301 60.5 14.5s32.5 26.167 52.5 49.5c19.333 -20 37.5 -35.833 54.5 -47.5s35.833 -17.5 56.5 -17.5c22 0 41.333 3.33301 58 10s31 18 43 34
s21.167 37.5 27.5 64.5s9.5 60.833 9.5 101.5h-21zM193.999 74.002c-8 -18 -19.499 -33.167 -34.499 -45.5s-31.5 -18.5 -49.5 -18.5c-15.333 0 -27.666 4.66699 -36.999 14s-14 22 -14 38c0 16.667 4.16699 30.5 12.5 41.5s20.5 16.5 36.5 16.5
c17.333 0 32.666 -3.83301 45.999 -11.5s26.666 -19.167 39.999 -34.5z" />
    <glyph glyph-name="currency" unicode="&#xa4;" 
d="M-18 94l41 -41l98 98c36 -30 79 -45 129 -45c48.667 0 91.667 15 129 45l98 -98l41 41l-97 97c29.333 38 44 81.333 44 130c0 47.333 -14.667 90.666 -44 129.999l97 97l-41 41l-97 -97c-38 29.333 -81.333 44 -130 44s-92 -14.667 -130 -44l-97 97l-41 -41l97 -97
c-29.333 -39.333 -44 -82.666 -44 -129.999c0 -48.667 15 -91.667 45 -129zM93 321c0 21.333 4 41.5 12 60.5s19.333 35.833 34 50.5s31.5 26 50.5 34s39.167 12 60.5 12s41.5 -4 60.5 -12s35.833 -19.333 50.5 -34s26 -31.5 34 -50.5s12 -39.167 12 -60.5
s-4 -41.5 -12 -60.5s-19.333 -35.833 -34 -50.5s-31.5 -26 -50.5 -34s-39.167 -12 -60.5 -12s-41.5 4 -60.5 12s-35.833 19.333 -50.5 34s-26 31.5 -34 50.5s-12 39.167 -12 60.5z" />
    <glyph glyph-name="yen" unicode="&#xa5;" 
d="M395 0v24h-99v178h164v24h-164v85l9 19h155v24h-143l136 267h69v24h-186v-24h89l-141 -278l-147 278h82v24h-240v-24h69l147 -267h-155v-24h168l10 -19v-85h-178v-24h178v-178h-98v-24h275z" />
    <glyph glyph-name="brokenbar" unicode="&#xa6;" horiz-adv-x="222" 
d="M82 -15h58v280h-58v-280zM82 403h58v280h-58v-280z" />
    <glyph glyph-name="section" unicode="&#xa7;" 
d="M250 -158c38.667 0 71.3281 11.8281 97.9951 35.4951s40 52.834 40 87.501c0 30.667 -6.33301 55.667 -19 75s-34 43.333 -64 72l-5 5v2c40 0 71.333 11.167 94 33.5s34 53.5 34 93.5c0 20.667 -4.16699 40.334 -12.5 59.001s-19.666 36.334 -33.999 53.001
s-28.666 31.334 -42.999 44.001s-34.5 29.334 -60.5 50.001c-38 30 -66 54.667 -84 74s-27 39.666 -27 60.999c0 22.667 8.5 41 25.5 55s36.833 21 59.5 21c11.333 0 24.666 -3 39.999 -9s23 -14 23 -24c0 -3.33301 -4 -9 -12 -17c-6.66699 -6 -12 -12 -16 -18
s-6 -13 -6 -21c0 -14 4.5 -25.167 13.5 -33.5s20.5 -12.5 34.5 -12.5s25.833 5 35.5 15s14.5 22 14.5 36c0 32 -12.833 57.333 -38.5 76s-54.5 28 -86.5 28c-39.333 0 -72.833 -10.833 -100.5 -32.5s-41.5 -52.167 -41.5 -91.5c0 -31.333 8 -58.166 24 -80.499
s38.667 -45.166 68 -68.499l-2 -2c-37.333 0 -68.333 -10.833 -93 -32.5s-37 -53.167 -37 -94.5c0 -21.333 4.16699 -41.5 12.5 -60.5s19.333 -36.5 33 -52.5s27.834 -30.167 42.501 -42.5s34.334 -27.5 59.001 -45.5c38 -28.667 66.167 -52.834 84.5 -72.501
s27.5 -41.167 27.5 -64.5c0 -26.667 -8 -46.834 -24 -60.501s-36 -20.5 -60 -20.5c-12.667 0 -28 3.33301 -46 10s-27 15.667 -27 27c0 3.33301 4 9 12 17c7.33301 6 12.833 11.667 16.5 17s5.5 11.666 5.5 18.999c0 13.333 -4.83301 24.833 -14.5 34.5
s-21.834 14.5 -36.501 14.5c-14 -1.33301 -26.167 -7.16602 -36.5 -17.499s-15.5 -22.5 -15.5 -36.5c0 -17.333 4.33301 -32.833 13 -46.5s20.334 -24.667 35.001 -33s30.334 -14.666 47.001 -18.999s33.334 -6.5 50.001 -6.5zM235.994 168.995
c-2 1.33301 -6.00098 4.66602 -12.001 9.99902c-31.333 25.333 -56.166 48.5 -74.499 69.5s-27.5 43.5 -27.5 67.5c0 17.333 6.66699 33.333 20 48s28.333 22 45 22c19.333 0 37.5 -5.33301 54.5 -16s35.833 -25.667 56.5 -45l25 -23c8.66699 -8 16.834 -16.667 24.501 -26
s14.167 -19.166 19.5 -29.499s8 -19.833 8 -28.5c0 -21.333 -6.16699 -39.5 -18.5 -54.5s-28.833 -22.5 -49.5 -22.5c-24.667 0 -48.334 9.33301 -71.001 28z" />
    <glyph glyph-name="dieresis" unicode="&#xa8;" horiz-adv-x="278" 
d="M41 456c12.667 0 23.667 4.49805 33 13.498s14 19.833 14 32.5s-4.66699 23.834 -14 33.501s-20.333 14.5 -33 14.5c-13.333 0 -24.333 -4.66699 -33 -14s-13 -20.666 -13 -33.999s4.33301 -24.333 13 -33s19.667 -13 33 -13zM236 455.998
c12.667 0 23.667 4.49805 33 13.498s14 19.833 14 32.5s-4.66699 23.834 -14 33.501s-20.333 14.5 -33 14.5c-13.333 0 -24.333 -4.66699 -33 -14s-13 -20.666 -13 -33.999s4.33301 -24.333 13 -33s19.667 -13 33 -13z" />
    <glyph glyph-name="copyright" unicode="&#xa9;" horiz-adv-x="800" 
d="M400 -15c48.667 0 94.667 9 138 27s81 43 113 75s56.833 69 74.5 111s26.5 86.667 26.5 134c0 48 -8.83301 93.333 -26.5 136s-42.5 80.167 -74.5 112.5s-69.5 57.5 -112.5 75.5s-89.167 27 -138.5 27c-48.667 0 -94.5 -9 -137.5 -27s-80.667 -43.333 -113 -76
s-57.333 -70.167 -75 -112.5s-26.5 -87.5 -26.5 -135.5c0 -47.333 8.83301 -92 26.5 -134s42.667 -79 75 -111s70 -57 113 -75s88.833 -27 137.5 -27zM400 24c-41.333 0 -80 8.16992 -116 24.5029s-67.5 39 -94.5 68s-47.833 62.167 -62.5 99.5s-22 76 -22 116
c0 41.333 7.33301 80.666 22 117.999s35.5 70.666 62.5 99.999s58.5 52.333 94.5 69s74.667 25 116 25s80 -8.33301 116 -25s67.5 -39.667 94.5 -69s47.833 -62.833 62.5 -100.5s22 -76.834 22 -117.501s-7.33301 -79.5 -22 -116.5s-35.5 -70 -62.5 -99
s-58.5 -51.667 -94.5 -68s-74.667 -24.5 -116 -24.5zM554 247.003c-10.667 -25.333 -25.833 -46.001 -45.5 -62.001s-45.5 -24 -77.5 -24c-50.667 0 -88 16.5 -112 49.5s-36 78.167 -36 135.5c0.666992 52.667 12.334 94.5 35.001 125.5s57.667 46.5 105 46.5
c38 0 66.167 -9 84.5 -27s28.5 -39.667 30.5 -65h15v71c0 9.33301 -7 16.333 -21 21c-2 0.666992 -6.66699 2 -14 4c-15.333 5.33301 -29.5 9.33301 -42.5 12s-29.5 4 -49.5 4c-35.333 0 -67.166 -6 -95.499 -18s-51.833 -27.833 -70.5 -47.5s-32.834 -41 -42.501 -64
s-14.5 -45.167 -14.5 -66.5c0 -34.667 5.83301 -64.834 17.5 -90.501s27.5 -46.667 47.5 -63s43 -28.333 69 -36s54 -11.5 84 -11.5c21.333 0 41.166 1.66699 59.499 5s33.833 7.33301 46.5 12h1c8.66699 2.66699 15 5.33398 19 8.00098s6 6.33398 6 11.001l16 70h-15z" />
    <glyph glyph-name="ordfeminine" unicode="&#xaa;" horiz-adv-x="280" 
d="M237 594c0 8 -0.666992 15.168 -2 21.501s-5.16602 12.666 -11.499 18.999s-16.833 11.666 -31.5 15.999s-34 6.83301 -58 7.5c-34.667 -1.33301 -61.5 -9 -80.5 -23s-28.5 -27.667 -28.5 -41c0 -7.33301 3.5 -13.666 10.5 -18.999s15.833 -8 26.5 -8
c8.66699 0 16.167 2.33301 22.5 7s9.5 10.334 9.5 17.001c0 5.33301 -1.33301 9.66602 -4 12.999s-6.33398 6.33301 -11.001 9c-3.33301 2 -5 3.66699 -5 5c0 6.66699 6.5 11.667 19.5 15s25.167 5 36.5 5c12.667 0 22.834 -2.66699 30.501 -8s11.5 -14.333 11.5 -27v-49
c-48 0 -87.667 -8.16699 -119 -24.5s-47.666 -37.833 -48.999 -64.5c0 -20 7.5 -35.167 22.5 -45.5s34.167 -15.5 57.5 -15.5c16.667 0 33.834 3.33301 51.501 10s31.5 16.667 41.5 30c2.66699 -11.333 7.66699 -20.833 15 -28.5s16.666 -11.5 27.999 -11.5
c19.333 0 34.666 5 45.999 15s17.666 22.333 18.999 37h-11c-2 -6.66699 -4.83301 -12.667 -8.5 -18s-8.5 -8 -14.5 -8s-9.83301 1.83301 -11.5 5.5s-2.5 10.5 -2.5 20.5v138zM172 483.001c0 -11.333 -0.833008 -19.499 -2.5 -24.499s-4.16699 -8.5 -7.5 -10.5
c-14 -11.333 -30.667 -17 -50 -17c-30 0 -45 15.333 -45 46c0 12 3.5 22 10.5 30s15.833 14.167 26.5 18.5s21.5 7.16602 32.5 8.49902s22.833 2.33301 35.5 3v-54z" />
    <glyph glyph-name="guillemotleft" unicode="&#xab;" 
d="M157 216c10 10 20.6689 22.1689 32.002 36.502s22.666 29.666 33.999 45.999s20.166 30 26.499 41s9.5 17.5 9.5 19.5c0 1.33301 -0.5 3.16602 -1.5 5.49902s-2.5 3.5 -4.5 3.5c-4 0 -10.5 -4 -19.5 -12s-23.167 -21.667 -42.5 -41l-43 -41
c-12.667 -12 -25 -22.667 -37 -32c-6 -5.33301 -11.333 -9.66602 -16 -12.999c-8 -6 -12 -10.333 -12 -13s5 -8 15 -16c8 -6 12.333 -9.33301 13 -10c12 -9.33301 24.333 -20 37 -32l43 -41c18 -18 31.833 -31.333 41.5 -40s16.5 -13 20.5 -13c2 0 3.5 1.16699 4.5 3.5
s1.5 4.16602 1.5 5.49902c0 2 -3.33301 8.83301 -10 20.5s-15.167 25 -25.5 40s-21.5 30 -33.5 45s-23 27.5 -33 37.5zM314.002 216.002c10 10 20.6689 22.1689 32.002 36.502s22.666 29.666 33.999 45.999s20.166 30 26.499 41s9.5 17.5 9.5 19.5
c0 1.33301 -0.5 3.16602 -1.5 5.49902s-2.5 3.5 -4.5 3.5c-4 0 -10.5 -4 -19.5 -12s-23.167 -21.667 -42.5 -41l-43 -41c-12.667 -12 -25 -22.667 -37 -32c-6 -5.33301 -11.333 -9.66602 -16 -12.999c-8 -6 -12 -10.333 -12 -13s5 -8 15 -16c8 -6 12.333 -9.33301 13 -10
c12 -9.33301 24.333 -20 37 -32l43 -41c18 -18 31.833 -31.333 41.5 -40s16.5 -13 20.5 -13c2 0 3.5 1.16699 4.5 3.5s1.5 4.16602 1.5 5.49902c0 2 -3.33301 8.83301 -10 20.5s-15.167 25 -25.5 40s-21.5 30 -33.5 45s-23 27.5 -33 37.5z" />
    <glyph glyph-name="logicalnot" unicode="&#xac;" horiz-adv-x="550" 
d="M449 91h58v283h-464v-58h406v-225z" />
    <glyph glyph-name="minus" unicode="&#xad;" horiz-adv-x="550" 
d="M507 214v58h-464v-58h464z" />
    <glyph glyph-name="minus" unicode="&#x2212;" horiz-adv-x="550" 
d="M507 214v58h-464v-58h464z" />
    <glyph glyph-name="registered" unicode="&#xae;" horiz-adv-x="800" 
d="M238 511l5 0.000976562c21.333 -2.66699 34 -6.16699 38 -10.5s6 -17.833 6 -40.5v-243c0 -22.667 -2 -36 -6 -40s-17 -7.33301 -39 -10h-4v-16h160v16h-4c-22.667 2.66699 -36 6 -40 10s-6 17.333 -6 40v97h53c15.333 -22 33.666 -50 54.999 -84
c18.667 -30 32.667 -50.667 42 -62s19.333 -17 30 -17h60v9c-10 6 -22.167 16.833 -36.5 32.5s-28.833 33.5 -43.5 53.5l-59 80c24.667 8.66699 44.667 22.167 60 40.5s23 40.166 23 65.499c0 30.667 -11.667 54 -35 70s-51.666 24 -84.999 24h-174v-15zM348 506.001h44.002
c23.333 0 42.166 -6.16699 56.499 -18.5s21.5 -31.833 21.5 -58.5c0 -29.333 -6.33301 -52.333 -19 -69s-31.334 -25 -56.001 -25h-47v171zM400.002 -14.999c48.667 0 94.667 9 138 27s81 43 113 75s56.833 69 74.5 111s26.5 86.667 26.5 134
c0 48 -8.83301 93.333 -26.5 136s-42.5 80.167 -74.5 112.5s-69.5 57.5 -112.5 75.5s-89.167 27 -138.5 27c-48.667 0 -94.5 -9 -137.5 -27s-80.667 -43.333 -113 -76s-57.333 -70.167 -75 -112.5s-26.5 -87.5 -26.5 -135.5c0 -47.333 8.83301 -92 26.5 -134
s42.667 -79 75 -111s70 -57 113 -75s88.833 -27 137.5 -27zM400.002 24.001c-41.333 0 -80 8.16992 -116 24.5029s-67.5 39 -94.5 68s-47.833 62.167 -62.5 99.5s-22 76 -22 116c0 41.333 7.33301 80.666 22 117.999s35.5 70.666 62.5 99.999s58.5 52.333 94.5 69
s74.667 25 116 25s80 -8.33301 116 -25s67.5 -39.667 94.5 -69s47.833 -62.833 62.5 -100.5s22 -76.834 22 -117.501s-7.33301 -79.5 -22 -116.5s-35.5 -70 -62.5 -99s-58.5 -51.667 -94.5 -68s-74.667 -24.5 -116 -24.5z" />
    <glyph glyph-name="macron" unicode="&#xaf;" horiz-adv-x="278" 
d="M6 478h266v50h-266v-50z" />
    <glyph glyph-name="degree" unicode="&#xb0;" horiz-adv-x="400" 
d="M200 404c-29.333 0 -54.333 11 -75 33s-31 48 -31 78s10.333 56 31 78s45.667 33 75 33s54.333 -11 75 -33s31 -48 31 -78s-10.333 -56 -31 -78s-45.667 -33 -75 -33zM200 372c40 0 73.833 13.833 101.5 41.5s41.5 61.5 41.5 101.5s-13.833 73.833 -41.5 101.5
s-61.5 41.5 -101.5 41.5s-73.833 -13.833 -101.5 -41.5s-41.5 -61.5 -41.5 -101.5s13.833 -73.833 41.5 -101.5s61.5 -41.5 101.5 -41.5z" />
    <glyph glyph-name="plusminus" unicode="&#xb1;" horiz-adv-x="550" 
d="M507 0v58h-464v-58h464zM246 324h-203v-58h203v-162h58v162h203v58h-203v162h-58v-162z" />
    <glyph glyph-name="twosuperior" unicode="&#xb2;" horiz-adv-x="300" 
d="M285 371l-23.001 0.00292969c-1.33301 -20.667 -4 -33.834 -8 -39.501s-13.667 -8.5 -29 -8.5h-150v2l96 77c46 38 77.5 67.167 94.5 87.5s25.5 41.166 25.5 62.499c0 18 -4.33301 33.833 -13 47.5s-20.167 24.834 -34.5 33.501s-30 15 -47 19s-33.833 6 -50.5 6
c-35.333 0 -66.166 -8.5 -92.499 -25.5s-39.5 -41.5 -39.5 -73.5c0 -14.667 5 -27.334 15 -38.001s21.667 -16 35 -16c9.33301 0 18 3.16699 26 9.5s12 14.5 12 24.5c0 8 -3 15.167 -9 21.5s-14 9.5 -24 9.5c-5.33301 0 -14 -2.33301 -26 -7v9c0 14 7.83301 28 23.5 42
s35.167 21 58.5 21c24 0 43.167 -9.33301 57.5 -28s21.5 -40.334 21.5 -65.001c0 -14 -2.5 -27.333 -7.5 -40s-13 -26.167 -24 -40.5s-25 -30 -42 -47l-69.5 -66.5l-55 -50v-35h270z" />
    <glyph glyph-name="threesuperior" unicode="&#xb3;" horiz-adv-x="300" 
d="M267 570c0 25.333 -13.666 46.335 -40.999 63.002s-56.666 25 -87.999 25c-20.667 0 -38.5 -2.16699 -53.5 -6.5s-26.833 -10 -35.5 -17s-15 -14 -19 -21s-6 -13.167 -6 -18.5c0 -26.667 13.667 -40 41 -40c9.33301 0 17.5 3 24.5 9s10.5 13.333 10.5 22
c0 6 -1.33301 10.5 -4 13.5s-7 5.5 -13 7.5c-6.66699 3.33301 -10 6.66602 -10 9.99902c0 7.33301 5 12.833 15 16.5s20 5.5 30 5.5c21.333 0 37.5 -5.16699 48.5 -15.5s16.5 -27.833 16.5 -52.5c0 -33.333 -7 -56.5 -21 -69.5s-33.333 -19.5 -58 -19.5
c-3.33301 0 -9 1.33301 -17 4c-6.66699 2.66699 -11.667 4 -15 4c-14 0 -21 -4.66699 -21 -14c0 -10.667 2.33301 -17.5 7 -20.5s10.667 -4.5 18 -4.5c1.33301 0 4 0.666992 8 2c10 4 19 6 27 6c61.333 0 92 -26 92 -78c0 -39.333 -6.5 -67 -19.5 -83s-35.5 -24 -67.5 -24
c-12.667 0 -27.834 3 -45.501 9s-26.5 14 -26.5 24c0 3.33301 1.16699 5.66602 3.5 6.99902s6.16602 2.33301 11.499 3c8 1.33301 14.333 3.66602 19 6.99902s7 10.333 7 21c0 8 -4.33301 14.667 -13 20s-17.667 8 -27 8c-11.333 0 -21.666 -3.83301 -30.999 -11.5
s-14 -16.5 -14 -26.5c0 -20 10.5 -38.333 31.5 -55s51.167 -25 90.5 -25c51.333 0 92.166 12.667 122.499 38s45.5 51 45.5 77c0 32 -10.333 56 -31 72s-48.667 27 -84 33v2c25.333 6 47 17.333 65 34s27 36.334 27 59.001z" />
    <glyph glyph-name="acute" unicode="&#xb4;" horiz-adv-x="278" 
d="M65 438h34.999l133 81l2 2c17.333 10.667 29.833 19.5 37.5 26.5s11.5 15.167 11.5 24.5c0 10 -3.33301 18.167 -10 24.5s-15 9.5 -25 9.5c-5.33301 0 -10.166 -1.5 -14.499 -4.5s-9.83301 -7.83301 -16.5 -14.5l-4 -4z" />
    <glyph glyph-name="mu" unicode="&#xb5;" 
d="M470 24l-57.001 0.000976562v382c-26.667 -6.66699 -64 -10 -112 -10h-23v-23h57v-224c0 -36.667 -11.5 -67.667 -34.5 -93s-51.833 -38 -86.5 -38c-18 0 -32.667 5.33301 -44 16s-17 30 -17 58v314c-26.667 -6.66699 -64 -10 -112 -10h-20v-23h54v-302
c0 -31.333 -2.66699 -74 -8 -128c-4.66699 -42 -7 -72.333 -7 -91c0 -24 4 -43.167 12 -57.5s20 -21.5 36 -21.5c17.333 0 30.333 5.66699 39 17s13 25.666 13 42.999c0 15.333 -6.33301 37.333 -19 66c-10.667 24.667 -16.334 42.334 -17.001 53.001
c0 14.667 0.333008 25.667 1 33s2 13.666 4 18.999c14.667 -12 36 -18 64 -18c32.667 0 61.834 7.83301 87.501 23.5s44.834 37.167 57.501 64.5h2v-81c42 4.66699 78.333 7 109 7h21v24z" />
    <glyph glyph-name="paragraph" unicode="&#xb6;" horiz-adv-x="600" 
d="M506 668h-248.001c-71.333 0 -126 -16.5 -164 -49.5s-57 -83.833 -57 -152.5c0 -65.333 18.333 -117.833 55 -157.5s88.334 -59.5 155.001 -59.5v-447h-82v-23h341v23h-82v843h82v23zM246.999 272c-44 0 -73.833 14.668 -89.5 44.001s-23.5 78.666 -23.5 147.999
c0 65.333 7.83301 111.833 23.5 139.5s45.5 41.5 89.5 41.5v-373zM304.999 645.001h61v-843h-61v843z" />
    <glyph glyph-name="periodcentered" unicode="&#xb7;" horiz-adv-x="250" 
d="M123 186c16.667 0 31 5.33301 43 16s18 24.334 18 41.001c0 14.667 -6.33301 27.5 -19 38.5s-26.667 16.5 -42 16.5c-14.667 0 -27.834 -5.5 -39.501 -16.5s-17.5 -23.833 -17.5 -38.5c0 -16.667 5.33301 -30.334 16 -41.001s24.334 -16 41.001 -16z" />
    <glyph glyph-name="periodcentered" unicode="&#x2219;" horiz-adv-x="250" 
d="M123 186c16.667 0 31 5.33301 43 16s18 24.334 18 41.001c0 14.667 -6.33301 27.5 -19 38.5s-26.667 16.5 -42 16.5c-14.667 0 -27.834 -5.5 -39.501 -16.5s-17.5 -23.833 -17.5 -38.5c0 -16.667 5.33301 -30.334 16 -41.001s24.334 -16 41.001 -16z" />
    <glyph glyph-name="cedilla" unicode="&#xb8;" horiz-adv-x="278" 
d="M152 0h-34.999l-44 -99l18 -5l4 1c6.66699 1.33301 15.334 2.66602 26.001 3.99902c10 0 19.667 -3.33301 29 -10s14 -16.334 14 -29.001c0 -14.667 -6.16699 -25.334 -18.5 -32.001s-26.5 -10 -42.5 -10c-10.667 0 -27.334 3.33301 -50.001 10
c-3.33301 0.666992 -6 1.33398 -8 2.00098l-14 -30c10.667 -4.66699 23.667 -8.33398 39 -11.001s29.666 -4 42.999 -4c14.667 0 29 1.33301 43 4s27 7.33398 39 14.001s21.5 15.334 28.5 26.001s10.5 24 10.5 40c0 22.667 -8.33301 39.834 -25 51.501s-33 17.5 -49 17.5
c-9.33301 0 -22 -2 -38 -6z" />
    <glyph glyph-name="onesuperior" unicode="&#xb9;" horiz-adv-x="300" 
d="M259 263v20.001h-67v375l-11 -1c-54 -4.66699 -90 -7 -108 -7h-31v-20h31c19.333 0 31.5 -1.33301 36.5 -4s7.5 -9.33398 7.5 -20.001v-323h-71v-20h213z" />
    <glyph glyph-name="ordmasculine" unicode="&#xba;" horiz-adv-x="280" 
d="M140 658c-36.667 0 -68.334 -12.333 -95.001 -37s-40 -54.334 -40 -89.001c0 -35.333 13.333 -65.5 40 -90.5s58.334 -37.5 95.001 -37.5s68.334 12.5 95.001 37.5s40 55.167 40 90.5c0 34.667 -13.333 64.334 -40 89.001s-58.334 37 -95.001 37zM140 641
c14.667 0 26.167 -3.16699 34.5 -9.5s14.333 -14.666 18 -24.999s6 -21.166 7 -32.499s1.5 -25.333 1.5 -42c0 -17.333 -0.5 -31.833 -1.5 -43.5s-3.33301 -22.667 -7 -33s-9.66699 -18.666 -18 -24.999s-19.833 -9.5 -34.5 -9.5s-26.167 3.16699 -34.5 9.5
s-14.333 14.666 -18 24.999s-6 21.333 -7 33s-1.5 26.167 -1.5 43.5c0 16.667 0.5 30.667 1.5 42s3.33301 22.166 7 32.499s9.66699 18.666 18 24.999s19.833 9.5 34.5 9.5z" />
    <glyph glyph-name="guillemotright" unicode="&#xbb;" 
d="M343 216c-10 -10 -20.6689 -22.168 -32.002 -36.501s-22.666 -29.666 -33.999 -45.999s-20.166 -30 -26.499 -41s-9.5 -17.5 -9.5 -19.5c0 -1.33301 0.666992 -3.16602 2 -5.49902s2.66602 -3.5 3.99902 -3.5c4 0 10.667 4 20 12s23.333 21.667 42 41l43 41
c12.667 12 25 22.667 37 32c6 5.33301 11.667 9.66602 17 12.999c7.33301 6 11 10.333 11 13c0 3.33301 -5 8.66602 -15 15.999c-8 6 -12.333 9.33301 -13 10c-12 9.33301 -24.333 20 -37 32l-43 41c-18 18 -31.833 31.333 -41.5 40s-16.5 13 -20.5 13
c-1.33301 0 -2.66602 -1.16699 -3.99902 -3.5s-2 -4.16602 -2 -5.49902c0 -2 3.33301 -8.83301 10 -20.5s15.167 -25 25.5 -40s21.5 -30 33.5 -45s23 -27.5 33 -37.5zM185.998 215.999c-10 -10 -20.6689 -22.168 -32.002 -36.501s-22.666 -29.666 -33.999 -45.999
s-20.166 -30 -26.499 -41s-9.5 -17.5 -9.5 -19.5c0 -1.33301 0.666992 -3.16602 2 -5.49902s2.66602 -3.5 3.99902 -3.5c4 0 10.667 4 20 12s23.333 21.667 42 41l43 41c12.667 12 25 22.667 37 32c6 5.33301 11.667 9.66602 17 12.999c7.33301 6 11 10.333 11 13
c0 3.33301 -5 8.66602 -15 15.999c-8 6 -12.333 9.33301 -13 10c-12 9.33301 -24.333 20 -37 32l-43 41c-18 18 -31.833 31.333 -41.5 40s-16.5 13 -20.5 13c-1.33301 0 -2.66602 -1.16699 -3.99902 -3.5s-2 -4.16602 -2 -5.49902c0 -2 3.33301 -8.83301 10 -20.5
s15.167 -25 25.5 -40s21.5 -30 33.5 -45s23 -27.5 33 -37.5z" />
    <glyph glyph-name="onequarter" unicode="&#xbc;" horiz-adv-x="750" 
d="M546 341h2v-219h-152zM378 102h170v-82h-48v-20h161v20h-47v82h58v-45h20v112h-20v-47h-58v282h-56l-180 -266v-36zM118 -13h50l451 671h-50zM259 263v20.001h-67v375l-11 -1c-54 -4.66699 -90 -7 -108 -7h-31v-20h31c19.333 0 31.5 -1.33301 36.5 -4
s7.5 -9.33398 7.5 -20.001v-323h-71v-20h213z" />
    <glyph glyph-name="onehalf" unicode="&#xbd;" horiz-adv-x="750" 
d="M118 -13h50l451 671h-50zM259 263v20.001h-67v375l-11 -1c-54 -4.66699 -90 -7 -108 -7h-31v-20h31c19.333 0 31.5 -1.33301 36.5 -4s7.5 -9.33398 7.5 -20.001v-323h-71v-20h213zM709 108.001l-23.001 0.00292969c-1.33301 -20.667 -4 -33.834 -8 -39.501
s-13.667 -8.5 -29 -8.5h-150v2l96 77c46 38 77.5 67.167 94.5 87.5s25.5 41.166 25.5 62.499c0 18 -4.33301 33.833 -13 47.5s-20.167 24.834 -34.5 33.501s-30 15 -47 19s-33.833 6 -50.5 6c-35.333 0 -66.166 -8.5 -92.499 -25.5s-39.5 -41.5 -39.5 -73.5
c0 -14.667 5 -27.334 15 -38.001s21.667 -16 35 -16c9.33301 0 18 3.16699 26 9.5s12 14.5 12 24.5c0 8 -3 15.167 -9 21.5s-14 9.5 -24 9.5c-5.33301 0 -14 -2.33301 -26 -7v9c0 14 7.83301 28 23.5 42s35.167 21 58.5 21c24 0 43.167 -9.33301 57.5 -28
s21.5 -40.334 21.5 -65.001c0 -14 -2.5 -27.333 -7.5 -40s-13 -26.167 -24 -40.5s-25 -30 -42 -47l-69.5 -66.5l-55 -50v-35h270z" />
    <glyph glyph-name="threequarters" unicode="&#xbe;" horiz-adv-x="750" 
d="M546 341h2v-219h-152zM378 102h170v-82h-48v-20h161v20h-47v82h58v-45h20v112h-20v-47h-58v282h-56l-180 -266v-36zM118 -13h50l451 671h-50zM267 570c0 25.333 -13.666 46.335 -40.999 63.002s-56.666 25 -87.999 25c-20.667 0 -38.5 -2.16699 -53.5 -6.5
s-26.833 -10 -35.5 -17s-15 -14 -19 -21s-6 -13.167 -6 -18.5c0 -26.667 13.667 -40 41 -40c9.33301 0 17.5 3 24.5 9s10.5 13.333 10.5 22c0 6 -1.33301 10.5 -4 13.5s-7 5.5 -13 7.5c-6.66699 3.33301 -10 6.66602 -10 9.99902c0 7.33301 5 12.833 15 16.5s20 5.5 30 5.5
c21.333 0 37.5 -5.16699 48.5 -15.5s16.5 -27.833 16.5 -52.5c0 -33.333 -7 -56.5 -21 -69.5s-33.333 -19.5 -58 -19.5c-3.33301 0 -9 1.33301 -17 4c-6.66699 2.66699 -11.667 4 -15 4c-14 0 -21 -4.66699 -21 -14c0 -10.667 2.33301 -17.5 7 -20.5s10.667 -4.5 18 -4.5
c1.33301 0 4 0.666992 8 2c10 4 19 6 27 6c61.333 0 92 -26 92 -78c0 -39.333 -6.5 -67 -19.5 -83s-35.5 -24 -67.5 -24c-12.667 0 -27.834 3 -45.501 9s-26.5 14 -26.5 24c0 3.33301 1.16699 5.66602 3.5 6.99902s6.16602 2.33301 11.499 3
c8 1.33301 14.333 3.66602 19 6.99902s7 10.333 7 21c0 8 -4.33301 14.667 -13 20s-17.667 8 -27 8c-11.333 0 -21.666 -3.83301 -30.999 -11.5s-14 -16.5 -14 -26.5c0 -20 10.5 -38.333 31.5 -55s51.167 -25 90.5 -25c51.333 0 92.166 12.667 122.499 38s45.5 51 45.5 77
c0 32 -10.333 56 -31 72s-48.667 27 -84 33v2c25.333 6 47 17.333 65 34s27 36.334 27 59.001z" />
    <glyph glyph-name="questiondown" unicode="&#xbf;" horiz-adv-x="444" 
d="M260 268c0 -30.667 -2.83398 -53.5 -8.50098 -68.5s-19.5 -31.167 -41.5 -48.5l-17 -13c-22 -16.667 -39.5 -30.834 -52.5 -42.501s-25.167 -24.667 -36.5 -39s-20.166 -30.833 -26.499 -49.5s-9.5 -39.334 -9.5 -62.001c0 -23.333 4.33301 -45 13 -65
s20.834 -37.5 36.501 -52.5s33.667 -26.667 54 -35s41.833 -12.5 64.5 -12.5c16.667 0 33.667 2.83301 51 8.5s33.166 13.667 47.499 24s25.833 22.833 34.5 37.5s13 31 13 49s-4.66699 32.833 -14 44.5s-22.666 17.5 -39.999 17.5
c-12.667 0 -23.334 -4.16699 -32.001 -12.5s-13 -19.833 -13 -34.5c1.33301 -15.333 5.83301 -25.5 13.5 -30.5s17.834 -8.16699 30.501 -9.5c6.66699 -0.666992 11.5 -1.66699 14.5 -3s4.5 -4 4.5 -8c0 -6 -2.83301 -12.5 -8.5 -19.5s-13.667 -14 -24 -21
s-21.833 -12.5 -34.5 -16.5s-25.334 -6 -38.001 -6c-22 0 -41.167 4 -57.5 12s-29.5 17.833 -39.5 29.5s-17.333 23.834 -22 36.501s-7 23.667 -7 33c0 22.667 7.33301 40.334 22 53.001c32 28 57.333 51.167 76 69.5s33.5 36 44.5 53s18.833 34.667 23.5 53s7 39.5 7 63.5
c0 29.333 -1.66699 51 -5 65h-23zM261.999 471c-16.667 0 -31 -5.33301 -43 -16s-18 -24.667 -18 -42c0 -15.333 6.33301 -28.5 19 -39.5s26.667 -16.5 42 -16.5c14.667 0 27.834 5.5 39.501 16.5s17.5 24.167 17.5 39.5c0 17.333 -5.33301 31.333 -16 42
s-24.334 16 -41.001 16z" />
    <glyph glyph-name="Agrave" unicode="&#xc0;" horiz-adv-x="667" 
d="M408 700l-149 145l-4 4c-6 6.66699 -11.167 11.5 -15.5 14.5s-9.5 4.5 -15.5 4.5c-10 0 -18.333 -3.16699 -25 -9.5s-10 -14.5 -10 -24.5c0 -9.33301 3.83301 -17.5 11.5 -24.5s20.167 -15.833 37.5 -26.5l2 -2l133 -81h35zM212 271l88 271h2l82 -271h-172zM218 0v23h-86
l71 220h191l69 -220h-81v-23h252v23h-70l-206 654h-39l-217 -654h-79v-23h195z" />
    <glyph glyph-name="Aacute" unicode="&#xc1;" horiz-adv-x="667" 
d="M260 700h34.999l133 81l2 2c17.333 10.667 29.833 19.5 37.5 26.5s11.5 15.167 11.5 24.5c0 10 -3.33301 18.167 -10 24.5s-15 9.5 -25 9.5c-5.33301 0 -10.166 -1.5 -14.499 -4.5s-9.83301 -7.83301 -16.5 -14.5l-4 -4zM211.999 271l88 271h2l82 -271h-172zM217.999 0
v23h-86l71 220h191l69 -220h-81v-23h252v23h-70l-206 654h-39l-217 -654h-79v-23h195z" />
    <glyph glyph-name="Acircumflex" unicode="&#xc2;" horiz-adv-x="667" 
d="M307 866l-123 -166h34l117 105l117 -105h32l-121 166h-56zM212 271l88 271h2l82 -271h-172zM218 0v23h-86l71 220h191l69 -220h-81v-23h252v23h-70l-206 654h-39l-217 -654h-79v-23h195z" />
    <glyph glyph-name="Atilde" unicode="&#xc3;" horiz-adv-x="667" 
d="M479 826c-7.33301 -16.667 -14.999 -29.168 -22.999 -37.501s-19.667 -12.5 -35 -12.5c-14 0 -35.667 7.66699 -65 23l-3 1c-14 7.33301 -25.833 12.833 -35.5 16.5s-19.167 5.5 -28.5 5.5c-28 0 -51.333 -9.16699 -70 -27.5s-30.667 -41.833 -36 -70.5h27
c2.66699 12.667 9 23.5 19 32.5s21.667 13.5 35 13.5c12.667 0 31.667 -6.33301 57 -19l7 -4c28 -15.333 52.667 -23 74 -23c27.333 0 50.166 9.83301 68.499 29.5s30.833 43.834 37.5 72.501h-29zM212.001 270.999l88 271h2l82 -271h-172zM218.001 -0.000976562v23h-86
l71 220h191l69 -220h-81v-23h252v23h-70l-206 654h-39l-217 -654h-79v-23h195z" />
    <glyph glyph-name="Adieresis" unicode="&#xc4;" horiz-adv-x="667" 
d="M241 718c12.667 0 23.667 4.49805 33 13.498s14 19.833 14 32.5s-4.66699 23.834 -14 33.501s-20.333 14.5 -33 14.5c-13.333 0 -24.333 -4.66699 -33 -14s-13 -20.666 -13 -33.999s4.33301 -24.333 13 -33s19.667 -13 33 -13zM436 717.998
c12.667 0 23.667 4.49805 33 13.498s14 19.833 14 32.5s-4.66699 23.834 -14 33.501s-20.333 14.5 -33 14.5c-13.333 0 -24.333 -4.66699 -33 -14s-13 -20.666 -13 -33.999s4.33301 -24.333 13 -33s19.667 -13 33 -13zM212 270.996l88 271h2l82 -271h-172zM218 -0.00390625
v23h-86l71 220h191l69 -220h-81v-23h252v23h-70l-206 654h-39l-217 -654h-79v-23h195z" />
    <glyph glyph-name="Aring" unicode="&#xc5;" horiz-adv-x="667" 
d="M334 856c18.667 0 34.5 -6.5 47.5 -19.5s19.5 -28.833 19.5 -47.5s-6.5 -34.5 -19.5 -47.5s-28.833 -19.5 -47.5 -19.5c-19.333 0 -35.333 6.33301 -48 19s-19 28.667 -19 48c0 18.667 6.5 34.5 19.5 47.5s28.833 19.5 47.5 19.5zM334 692c26.667 0 49.5 9.5 68.5 28.5
s28.5 41.833 28.5 68.5s-9.5 49.5 -28.5 68.5s-41.833 28.5 -68.5 28.5c-27.333 0 -50.333 -9.33301 -69 -28s-28 -41.667 -28 -69s9.33301 -50.333 28 -69s41.667 -28 69 -28zM212 271l88 271h2l82 -271h-172zM218 0v23h-86l71 220h191l69 -220h-81v-23h252v23h-70
l-206 654h-39l-217 -654h-79v-23h195z" />
    <glyph glyph-name="AE" unicode="&#xc6;" horiz-adv-x="889" 
d="M155 23h-74.998l105 214h221v-214h-91v-23h513l14 187h-27c-6.66699 -37.333 -14.667 -66.833 -24 -88.5s-21.5 -37.834 -36.5 -48.501s-33.167 -17.834 -54.5 -21.501s-50.333 -5.5 -87 -5.5h-110v309c26.667 0 48.5 -1.5 65.5 -4.5s31.167 -8.66699 42.5 -17
s19.666 -20.333 24.999 -36s8 -36.834 8 -63.501h22v253h-22c-2 -26.667 -5.83301 -47.167 -11.5 -61.5s-13.667 -24.666 -24 -30.999s-22.833 -10.333 -37.5 -12s-37.334 -2.5 -68.001 -2.5v288h119c50.667 0 89.667 -9.5 117 -28.5s45.333 -56.167 54 -111.5h22v163h-616
v-23c16 -1.33301 29.833 -3.16602 41.5 -5.49902s22.5 -6.16602 32.5 -11.499s18 -12.833 24 -22.5s9 -22.5 9 -38.5c0 -10 -2 -21.5 -6 -34.5s-9 -25.167 -15 -36.5l-234 -473h-67v-23h171v23zM200.002 265l187 378h19v-378h-206z" />
    <glyph glyph-name="Ccedilla" unicode="&#xc7;" horiz-adv-x="611" 
d="M319 0h-34.999l-44 -99l18 -5l4 1c6.66699 1.33301 15.334 2.66602 26.001 3.99902c10 0 19.667 -3.33301 29 -10s14 -16.334 14 -29.001c0 -14.667 -6.16699 -25.334 -18.5 -32.001s-26.5 -10 -42.5 -10c-10.667 0 -27.334 3.33301 -50.001 10
c-3.33301 0.666992 -6 1.33398 -8 2.00098l-14 -30c10.667 -4.66699 23.667 -8.33398 39 -11.001s29.666 -4 42.999 -4c14.667 0 29 1.33301 43 4s27 7.33398 39 14.001s21.5 15.334 28.5 26.001s10.5 24 10.5 40c0 22.667 -8.33301 39.834 -25 51.501s-33 17.5 -49 17.5
c-9.33301 0 -22 -2 -38 -6zM535.001 660l-15.001 -0.00195312l-34 -30c-26 18.667 -50 32.167 -72 40.5s-47 12.5 -75 12.5c-35.333 0 -70.5 -8.66699 -105.5 -26s-66.667 -41.833 -95 -73.5s-50.833 -68.667 -67.5 -111s-25 -87.166 -25 -134.499
c0 -48 6.33301 -93.333 19 -136s31.5 -80.334 56.5 -113.001s55.5 -58.167 91.5 -76.5s76.667 -27.5 122 -27.5c29.333 0 57.166 4.5 83.499 13.5s50.833 23.167 73.5 42.5l28 -41h27v182h-24c-14 -48 -36.833 -88.167 -68.5 -120.5s-70.167 -48.5 -115.5 -48.5
c-38 0 -69 7.16699 -93 21.5s-42.167 34.333 -54.5 60s-20.666 55.834 -24.999 90.501s-6.5 76 -6.5 124c0 20 0.333008 40.667 1 62s2.33398 44.833 5.00098 70.5s7 50.834 13 75.501s13.333 45.334 22 62.001c11.333 21.333 29 40.166 53 56.499s50.667 24.5 80 24.5
c49.333 0 88.5 -15.333 117.5 -46s49.167 -72 60.5 -124h23v170z" />
    <glyph glyph-name="Egrave" unicode="&#xc8;" horiz-adv-x="611" 
d="M380 700l-149 145l-4 4c-6 6.66699 -11.167 11.5 -15.5 14.5s-9.5 4.5 -15.5 4.5c-10 0 -18.333 -3.16699 -25 -9.5s-10 -14.5 -10 -24.5c0 -9.33301 3.83301 -17.5 11.5 -24.5s20.167 -15.833 37.5 -26.5l2 -2l133 -81h35zM551 0l13.002 187.002h-26
c-6.66699 -37.333 -14.667 -66.833 -24 -88.5s-21.5 -37.834 -36.5 -48.501s-33.333 -17.834 -55 -21.501s-50.5 -5.5 -86.5 -5.5h-121v309c26.667 0 48.667 -1.5 66 -4.5s31.666 -8.5 42.999 -16.5s20.166 -20 26.499 -36s10.166 -37.333 11.499 -64h22v253h-22
c-3.33301 -26 -8.16602 -46.333 -14.499 -61s-14.833 -25.167 -25.5 -31.5s-23.5 -10.333 -38.5 -12s-37.833 -2.5 -68.5 -2.5v288h130c50.667 0 89.667 -9.5 117 -28.5s45 -56.167 53 -111.5h22v163h-507v-23h88v-622h-88v-23h521z" />
    <glyph glyph-name="Eacute" unicode="&#xc9;" horiz-adv-x="611" 
d="M232 700h34.999l133 81l2 2c17.333 10.667 29.833 19.5 37.5 26.5s11.5 15.167 11.5 24.5c0 10 -3.33301 18.167 -10 24.5s-15 9.5 -25 9.5c-5.33301 0 -10.166 -1.5 -14.499 -4.5s-9.83301 -7.83301 -16.5 -14.5l-4 -4zM550.999 0l13.002 187.002h-26
c-6.66699 -37.333 -14.667 -66.833 -24 -88.5s-21.5 -37.834 -36.5 -48.501s-33.333 -17.834 -55 -21.501s-50.5 -5.5 -86.5 -5.5h-121v309c26.667 0 48.667 -1.5 66 -4.5s31.666 -8.5 42.999 -16.5s20.166 -20 26.499 -36s10.166 -37.333 11.499 -64h22v253h-22
c-3.33301 -26 -8.16602 -46.333 -14.499 -61s-14.833 -25.167 -25.5 -31.5s-23.5 -10.333 -38.5 -12s-37.833 -2.5 -68.5 -2.5v288h130c50.667 0 89.667 -9.5 117 -28.5s45 -56.167 53 -111.5h22v163h-507v-23h88v-622h-88v-23h521z" />
    <glyph glyph-name="Ecircumflex" unicode="&#xca;" horiz-adv-x="611" 
d="M279 866l-123 -166h34l117 105l117 -105h32l-121 166h-56zM551 0l13.002 187.002h-26c-6.66699 -37.333 -14.667 -66.833 -24 -88.5s-21.5 -37.834 -36.5 -48.501s-33.333 -17.834 -55 -21.501s-50.5 -5.5 -86.5 -5.5h-121v309c26.667 0 48.667 -1.5 66 -4.5
s31.666 -8.5 42.999 -16.5s20.166 -20 26.499 -36s10.166 -37.333 11.499 -64h22v253h-22c-3.33301 -26 -8.16602 -46.333 -14.499 -61s-14.833 -25.167 -25.5 -31.5s-23.5 -10.333 -38.5 -12s-37.833 -2.5 -68.5 -2.5v288h130c50.667 0 89.667 -9.5 117 -28.5
s45 -56.167 53 -111.5h22v163h-507v-23h88v-622h-88v-23h521z" />
    <glyph glyph-name="Edieresis" unicode="&#xcb;" horiz-adv-x="611" 
d="M208 718c12.667 0 23.667 4.49805 33 13.498s14 19.833 14 32.5s-4.66699 23.834 -14 33.501s-20.333 14.5 -33 14.5c-13.333 0 -24.333 -4.66699 -33 -14s-13 -20.666 -13 -33.999s4.33301 -24.333 13 -33s19.667 -13 33 -13zM403 717.998
c12.667 0 23.667 4.49805 33 13.498s14 19.833 14 32.5s-4.66699 23.834 -14 33.501s-20.333 14.5 -33 14.5c-13.333 0 -24.333 -4.66699 -33 -14s-13 -20.666 -13 -33.999s4.33301 -24.333 13 -33s19.667 -13 33 -13zM551 -0.00390625l13.002 187.002h-26
c-6.66699 -37.333 -14.667 -66.833 -24 -88.5s-21.5 -37.834 -36.5 -48.501s-33.333 -17.834 -55 -21.501s-50.5 -5.5 -86.5 -5.5h-121v309c26.667 0 48.667 -1.5 66 -4.5s31.666 -8.5 42.999 -16.5s20.166 -20 26.499 -36s10.166 -37.333 11.499 -64h22v253h-22
c-3.33301 -26 -8.16602 -46.333 -14.499 -61s-14.833 -25.167 -25.5 -31.5s-23.5 -10.333 -38.5 -12s-37.833 -2.5 -68.5 -2.5v288h130c50.667 0 89.667 -9.5 117 -28.5s45 -56.167 53 -111.5h22v163h-507v-23h88v-622h-88v-23h521z" />
    <glyph glyph-name="Igrave" unicode="&#xcc;" horiz-adv-x="333" 
d="M241 700l-149 145l-4 4c-6 6.66699 -11.167 11.5 -15.5 14.5s-9.5 4.5 -15.5 4.5c-10 0 -18.333 -3.16699 -25 -9.5s-10 -14.5 -10 -24.5c0 -9.33301 3.83301 -17.5 11.5 -24.5s20.167 -15.833 37.5 -26.5l2 -2l133 -81h35zM301 23h-86v622h86v23h-269v-23h86v-622h-86
v-23h269v23z" />
    <glyph glyph-name="Iacute" unicode="&#xcd;" horiz-adv-x="333" 
d="M93 700h34.999l133 81l2 2c17.333 10.667 29.833 19.5 37.5 26.5s11.5 15.167 11.5 24.5c0 10 -3.33301 18.167 -10 24.5s-15 9.5 -25 9.5c-5.33301 0 -10.166 -1.5 -14.499 -4.5s-9.83301 -7.83301 -16.5 -14.5l-4 -4zM300.999 23h-86v622h86v23h-269v-23h86v-622h-86
v-23h269v23z" />
    <glyph glyph-name="Icircumflex" unicode="&#xce;" horiz-adv-x="333" 
d="M140 866l-123 -166h34l117 105l117 -105h32l-121 166h-56zM301 23h-86v622h86v23h-269v-23h86v-622h-86v-23h269v23z" />
    <glyph glyph-name="Idieresis" unicode="&#xcf;" horiz-adv-x="333" 
d="M69 718c12.667 0 23.667 4.49805 33 13.498s14 19.833 14 32.5s-4.66699 23.834 -14 33.501s-20.333 14.5 -33 14.5c-13.333 0 -24.333 -4.66699 -33 -14s-13 -20.666 -13 -33.999s4.33301 -24.333 13 -33s19.667 -13 33 -13zM264 717.998
c12.667 0 23.667 4.49805 33 13.498s14 19.833 14 32.5s-4.66699 23.834 -14 33.501s-20.333 14.5 -33 14.5c-13.333 0 -24.333 -4.66699 -33 -14s-13 -20.666 -13 -33.999s4.33301 -24.333 13 -33s19.667 -13 33 -13zM301 22.9961h-86v622h86v23h-269v-23h86v-622h-86v-23
h269v23z" />
    <glyph glyph-name="Eth" unicode="&#xd0;" horiz-adv-x="667" 
d="M118 23l-76.999 -0.00195312v-23h266c17.333 0 34.166 0.833008 50.499 2.5s34 4.83398 53 9.50098s37.833 12 56.5 22s35.334 22.667 50.001 38c32.667 34 58.167 73.333 76.5 118s27.5 94.667 27.5 150c0 49.333 -7.33301 94.333 -22 135
s-35.834 75.334 -63.501 104.001s-60.667 50.667 -99 66s-80.833 23 -127.5 23h-268v-23h77v-286h-99v-29h99v-307zM215.001 644.998l75 0.000976562c49.333 0 89 -7.83301 119 -23.5s52.333 -36.834 67 -63.501s24.167 -55.834 28.5 -87.501s6.5 -69.167 6.5 -112.5
c0 -55.333 -1.66699 -102.166 -5 -140.499s-10 -68.5 -20 -90.5c-6 -14 -13 -26.667 -21 -38s-18.5 -22 -31.5 -32s-29.5 -18.167 -49.5 -24.5s-43.667 -9.5 -71 -9.5h-98v307h140v29h-140v286z" />
    <glyph glyph-name="Ntilde" unicode="&#xd1;" horiz-adv-x="667" 
d="M469 826c-7.33301 -16.667 -14.999 -29.168 -22.999 -37.501s-19.667 -12.5 -35 -12.5c-14 0 -35.667 7.66699 -65 23l-3 1c-14 7.33301 -25.833 12.833 -35.5 16.5s-19.167 5.5 -28.5 5.5c-28 0 -51.333 -9.16699 -70 -27.5s-30.667 -41.833 -36 -70.5h27
c2.66699 12.667 9 23.5 19 32.5s21.667 13.5 35 13.5c12.667 0 31.667 -6.33301 57 -19l7 -4c28 -15.333 52.667 -23 74 -23c27.333 0 50.166 9.83301 68.499 29.5s30.833 43.834 37.5 72.501h-29zM116.001 22.999h-78v-23h185v23h-77v602h2l375 -640h26v660h77v23h-185v-23
h78v-461h-2l-284 484h-195v-23h78v-622z" />
    <glyph glyph-name="Ograve" unicode="&#xd2;" horiz-adv-x="667" 
d="M408 700l-149 145l-4 4c-6 6.66699 -11.167 11.5 -15.5 14.5s-9.5 4.5 -15.5 4.5c-10 0 -18.333 -3.16699 -25 -9.5s-10 -14.5 -10 -24.5c0 -9.33301 3.83301 -17.5 11.5 -24.5s20.167 -15.833 37.5 -26.5l2 -2l133 -81h35zM333 -15c42 0 80.665 9.66699 115.998 29
s65.833 45.666 91.5 78.999s45.334 71 59.001 113s20.5 85 20.5 129s-6.83301 87 -20.5 129s-33.334 79.5 -59.001 112.5s-56.167 59 -91.5 78s-74 28.5 -116 28.5c-41.333 0 -79.833 -9.5 -115.5 -28.5s-66.167 -45 -91.5 -78s-45 -70.5 -59 -112.5s-21 -85 -21 -129
s6.83301 -87 20.5 -129s33.334 -79.667 59.001 -113s56.334 -59.666 92.001 -78.999s74.167 -29 115.5 -29zM332.998 8c-34 0 -62.167 7.16699 -84.5 21.5s-40.166 35.833 -53.499 64.5c-23.333 50 -35 130 -35 240c0 110.667 11.667 191 35 241
c13.333 28 31.166 49.167 53.499 63.5s50.5 21.5 84.5 21.5s62.167 -7.16699 84.5 -21.5s40.166 -35.5 53.499 -63.5c23.333 -50 35 -130.333 35 -241c0 -110 -11.667 -190 -35 -240c-13.333 -28.667 -31.166 -50.167 -53.499 -64.5s-50.5 -21.5 -84.5 -21.5z" />
    <glyph glyph-name="Oacute" unicode="&#xd3;" horiz-adv-x="667" 
d="M260 700h34.999l133 81l2 2c17.333 10.667 29.833 19.5 37.5 26.5s11.5 15.167 11.5 24.5c0 10 -3.33301 18.167 -10 24.5s-15 9.5 -25 9.5c-5.33301 0 -10.166 -1.5 -14.499 -4.5s-9.83301 -7.83301 -16.5 -14.5l-4 -4zM332.999 -15c42 0 80.665 9.66699 115.998 29
s65.833 45.666 91.5 78.999s45.334 71 59.001 113s20.5 85 20.5 129s-6.83301 87 -20.5 129s-33.334 79.5 -59.001 112.5s-56.167 59 -91.5 78s-74 28.5 -116 28.5c-41.333 0 -79.833 -9.5 -115.5 -28.5s-66.167 -45 -91.5 -78s-45 -70.5 -59 -112.5s-21 -85 -21 -129
s6.83301 -87 20.5 -129s33.334 -79.667 59.001 -113s56.334 -59.666 92.001 -78.999s74.167 -29 115.5 -29zM332.997 8c-34 0 -62.167 7.16699 -84.5 21.5s-40.166 35.833 -53.499 64.5c-23.333 50 -35 130 -35 240c0 110.667 11.667 191 35 241
c13.333 28 31.166 49.167 53.499 63.5s50.5 21.5 84.5 21.5s62.167 -7.16699 84.5 -21.5s40.166 -35.5 53.499 -63.5c23.333 -50 35 -130.333 35 -241c0 -110 -11.667 -190 -35 -240c-13.333 -28.667 -31.166 -50.167 -53.499 -64.5s-50.5 -21.5 -84.5 -21.5z" />
    <glyph glyph-name="Ocircumflex" unicode="&#xd4;" horiz-adv-x="667" 
d="M307 866l-123 -166h34l117 105l117 -105h32l-121 166h-56zM333 -15c42 0 80.665 9.66699 115.998 29s65.833 45.666 91.5 78.999s45.334 71 59.001 113s20.5 85 20.5 129s-6.83301 87 -20.5 129s-33.334 79.5 -59.001 112.5s-56.167 59 -91.5 78s-74 28.5 -116 28.5
c-41.333 0 -79.833 -9.5 -115.5 -28.5s-66.167 -45 -91.5 -78s-45 -70.5 -59 -112.5s-21 -85 -21 -129s6.83301 -87 20.5 -129s33.334 -79.667 59.001 -113s56.334 -59.666 92.001 -78.999s74.167 -29 115.5 -29zM332.998 8c-34 0 -62.167 7.16699 -84.5 21.5
s-40.166 35.833 -53.499 64.5c-23.333 50 -35 130 -35 240c0 110.667 11.667 191 35 241c13.333 28 31.166 49.167 53.499 63.5s50.5 21.5 84.5 21.5s62.167 -7.16699 84.5 -21.5s40.166 -35.5 53.499 -63.5c23.333 -50 35 -130.333 35 -241c0 -110 -11.667 -190 -35 -240
c-13.333 -28.667 -31.166 -50.167 -53.499 -64.5s-50.5 -21.5 -84.5 -21.5z" />
    <glyph glyph-name="Otilde" unicode="&#xd5;" horiz-adv-x="667" 
d="M469 826c-7.33301 -16.667 -14.999 -29.168 -22.999 -37.501s-19.667 -12.5 -35 -12.5c-14 0 -35.667 7.66699 -65 23l-3 1c-14 7.33301 -25.833 12.833 -35.5 16.5s-19.167 5.5 -28.5 5.5c-28 0 -51.333 -9.16699 -70 -27.5s-30.667 -41.833 -36 -70.5h27
c2.66699 12.667 9 23.5 19 32.5s21.667 13.5 35 13.5c12.667 0 31.667 -6.33301 57 -19l7 -4c28 -15.333 52.667 -23 74 -23c27.333 0 50.166 9.83301 68.499 29.5s30.833 43.834 37.5 72.501h-29zM333.001 -15.001c42 0 80.665 9.66699 115.998 29
s65.833 45.666 91.5 78.999s45.334 71 59.001 113s20.5 85 20.5 129s-6.83301 87 -20.5 129s-33.334 79.5 -59.001 112.5s-56.167 59 -91.5 78s-74 28.5 -116 28.5c-41.333 0 -79.833 -9.5 -115.5 -28.5s-66.167 -45 -91.5 -78s-45 -70.5 -59 -112.5s-21 -85 -21 -129
s6.83301 -87 20.5 -129s33.334 -79.667 59.001 -113s56.334 -59.666 92.001 -78.999s74.167 -29 115.5 -29zM332.999 7.99902c-34 0 -62.167 7.16699 -84.5 21.5s-40.166 35.833 -53.499 64.5c-23.333 50 -35 130 -35 240c0 110.667 11.667 191 35 241
c13.333 28 31.166 49.167 53.499 63.5s50.5 21.5 84.5 21.5s62.167 -7.16699 84.5 -21.5s40.166 -35.5 53.499 -63.5c23.333 -50 35 -130.333 35 -241c0 -110 -11.667 -190 -35 -240c-13.333 -28.667 -31.166 -50.167 -53.499 -64.5s-50.5 -21.5 -84.5 -21.5z" />
    <glyph glyph-name="Odieresis" unicode="&#xd6;" horiz-adv-x="667" 
d="M236 718c12.667 0 23.667 4.49805 33 13.498s14 19.833 14 32.5s-4.66699 23.834 -14 33.501s-20.333 14.5 -33 14.5c-13.333 0 -24.333 -4.66699 -33 -14s-13 -20.666 -13 -33.999s4.33301 -24.333 13 -33s19.667 -13 33 -13zM431 717.998
c12.667 0 23.667 4.49805 33 13.498s14 19.833 14 32.5s-4.66699 23.834 -14 33.501s-20.333 14.5 -33 14.5c-13.333 0 -24.333 -4.66699 -33 -14s-13 -20.666 -13 -33.999s4.33301 -24.333 13 -33s19.667 -13 33 -13zM333 -15.0039c42 0 80.665 9.66699 115.998 29
s65.833 45.666 91.5 78.999s45.334 71 59.001 113s20.5 85 20.5 129s-6.83301 87 -20.5 129s-33.334 79.5 -59.001 112.5s-56.167 59 -91.5 78s-74 28.5 -116 28.5c-41.333 0 -79.833 -9.5 -115.5 -28.5s-66.167 -45 -91.5 -78s-45 -70.5 -59 -112.5s-21 -85 -21 -129
s6.83301 -87 20.5 -129s33.334 -79.667 59.001 -113s56.334 -59.666 92.001 -78.999s74.167 -29 115.5 -29zM332.998 7.99609c-34 0 -62.167 7.16699 -84.5 21.5s-40.166 35.833 -53.499 64.5c-23.333 50 -35 130 -35 240c0 110.667 11.667 191 35 241
c13.333 28 31.166 49.167 53.499 63.5s50.5 21.5 84.5 21.5s62.167 -7.16699 84.5 -21.5s40.166 -35.5 53.499 -63.5c23.333 -50 35 -130.333 35 -241c0 -110 -11.667 -190 -35 -240c-13.333 -28.667 -31.166 -50.167 -53.499 -64.5s-50.5 -21.5 -84.5 -21.5z" />
    <glyph glyph-name="multiply" unicode="&#xd7;" horiz-adv-x="550" 
d="M235 243l-192 -200l40 -42l192 200l192 -200l40 42l-192 200l192 200l-40 42l-192 -201l-192 201l-40 -42z" />
    <glyph glyph-name="Oslash" unicode="&#xd8;" horiz-adv-x="667" 
d="M482 545c16 -47.333 24 -117.667 24 -211c0 -110 -11.667 -190 -35 -240c-13.333 -28.667 -31.166 -50.167 -53.499 -64.5s-50.5 -21.5 -84.5 -21.5c-60.667 0 -104.334 24.333 -131.001 73zM184 123.999c-16 47.333 -24 117.333 -24 210c0 110.667 11.667 191 35 241
c13.333 28 31.166 49.167 53.499 63.5s50.5 21.5 84.5 21.5c60.667 0 104.334 -24 131.001 -72zM550 732.999l-62 -103.997c-46.667 36 -98.334 54 -155.001 54c-41.333 0 -79.833 -9.5 -115.5 -28.5s-66.167 -45 -91.5 -78s-45 -70.5 -59 -112.5s-21 -85 -21 -129
c0 -50.667 9.16699 -100 27.5 -148s43.5 -88.333 75.5 -121l-78 -130h44l63 105c45.333 -37.333 97 -56 155 -56c42 0 80.667 9.66699 116 29s65.833 45.666 91.5 78.999s45.334 71 59.001 113s20.5 85 20.5 129c0 51.333 -9 100.666 -27 147.999
s-43.333 87.666 -76 120.999l77 129h-44z" />
    <glyph glyph-name="Ugrave" unicode="&#xd9;" horiz-adv-x="667" 
d="M408 700l-149 145l-4 4c-6 6.66699 -11.167 11.5 -15.5 14.5s-9.5 4.5 -15.5 4.5c-10 0 -18.333 -3.16699 -25 -9.5s-10 -14.5 -10 -24.5c0 -9.33301 3.83301 -17.5 11.5 -24.5s20.167 -15.833 37.5 -26.5l2 -2l133 -81h35zM37 668v-23.001h77v-477
c0 -56 19.167 -100.5 57.5 -133.5s89.833 -49.5 154.5 -49.5c75.333 0 130.833 19 166.5 57s53.5 96.333 53.5 175v428h77v23h-181v-23h77v-397c0 -36 -2 -67.333 -6 -94s-11.667 -50.167 -23 -70.5s-28.5 -36.333 -51.5 -48s-52.5 -17.5 -88.5 -17.5
c-28 0 -51.333 5.33301 -70 16s-33 23.334 -43 38.001s-16.833 29 -20.5 43s-5.5 25.333 -5.5 34v496h78v23h-252z" />
    <glyph glyph-name="Uacute" unicode="&#xda;" horiz-adv-x="667" 
d="M280 700h34.999l133 81l2 2c17.333 10.667 29.833 19.5 37.5 26.5s11.5 15.167 11.5 24.5c0 10 -3.33301 18.167 -10 24.5s-15 9.5 -25 9.5c-5.33301 0 -10.166 -1.5 -14.499 -4.5s-9.83301 -7.83301 -16.5 -14.5l-4 -4zM36.999 668v-23.001h77v-477
c0 -56 19.167 -100.5 57.5 -133.5s89.833 -49.5 154.5 -49.5c75.333 0 130.833 19 166.5 57s53.5 96.333 53.5 175v428h77v23h-181v-23h77v-397c0 -36 -2 -67.333 -6 -94s-11.667 -50.167 -23 -70.5s-28.5 -36.333 -51.5 -48s-52.5 -17.5 -88.5 -17.5
c-28 0 -51.333 5.33301 -70 16s-33 23.334 -43 38.001s-16.833 29 -20.5 43s-5.5 25.333 -5.5 34v496h78v23h-252z" />
    <glyph glyph-name="Ucircumflex" unicode="&#xdb;" horiz-adv-x="667" 
d="M307 866l-123 -166h34l117 105l117 -105h32l-121 166h-56zM37 668v-23.001h77v-477c0 -56 19.167 -100.5 57.5 -133.5s89.833 -49.5 154.5 -49.5c75.333 0 130.833 19 166.5 57s53.5 96.333 53.5 175v428h77v23h-181v-23h77v-397c0 -36 -2 -67.333 -6 -94
s-11.667 -50.167 -23 -70.5s-28.5 -36.333 -51.5 -48s-52.5 -17.5 -88.5 -17.5c-28 0 -51.333 5.33301 -70 16s-33 23.334 -43 38.001s-16.833 29 -20.5 43s-5.5 25.333 -5.5 34v496h78v23h-252z" />
    <glyph glyph-name="Udieresis" unicode="&#xdc;" horiz-adv-x="667" 
d="M236 718c12.667 0 23.667 4.49805 33 13.498s14 19.833 14 32.5s-4.66699 23.834 -14 33.501s-20.333 14.5 -33 14.5c-13.333 0 -24.333 -4.66699 -33 -14s-13 -20.666 -13 -33.999s4.33301 -24.333 13 -33s19.667 -13 33 -13zM431 717.998
c12.667 0 23.667 4.49805 33 13.498s14 19.833 14 32.5s-4.66699 23.834 -14 33.501s-20.333 14.5 -33 14.5c-13.333 0 -24.333 -4.66699 -33 -14s-13 -20.666 -13 -33.999s4.33301 -24.333 13 -33s19.667 -13 33 -13zM37 667.996v-23.001h77v-477
c0 -56 19.167 -100.5 57.5 -133.5s89.833 -49.5 154.5 -49.5c75.333 0 130.833 19 166.5 57s53.5 96.333 53.5 175v428h77v23h-181v-23h77v-397c0 -36 -2 -67.333 -6 -94s-11.667 -50.167 -23 -70.5s-28.5 -36.333 -51.5 -48s-52.5 -17.5 -88.5 -17.5
c-28 0 -51.333 5.33301 -70 16s-33 23.334 -43 38.001s-16.833 29 -20.5 43s-5.5 25.333 -5.5 34v496h78v23h-252z" />
    <glyph glyph-name="Yacute" unicode="&#xdd;" horiz-adv-x="667" 
d="M290 700h34.999l133 81l2 2c17.333 10.667 29.833 19.5 37.5 26.5s11.5 15.167 11.5 24.5c0 10 -3.33301 18.167 -10 24.5s-15 9.5 -25 9.5c-5.33301 0 -10.166 -1.5 -14.499 -4.5s-9.83301 -7.83301 -16.5 -14.5l-4 -4zM371.999 345l-169 300h88v23h-270v-23h74
l193 -335v-287h-88v-23h274v23h-89v287l174 335h80v23h-206v-23h99z" />
    <glyph glyph-name="Thorn" unicode="&#xde;" horiz-adv-x="556" 
d="M32 645h78.998v-622h-86v-23h272v23h-89v138h48c50 0 93.333 5.66699 130 17s66.334 26.333 89.001 45s39.334 39 50.001 61s16 44 16 66c0 23.333 -4.16699 45.5 -12.5 66.5s-22 40 -41 57s-44.333 30.333 -76 40s-69.5 14.5 -113.5 14.5h-90v117h77v23h-253v-23z
M207.998 505h28c38 0 68.667 -1.5 92 -4.5s43 -9.33301 59 -19s28 -24.667 36 -45s12 -47.833 12 -82.5c0 -30 -2.66699 -55.167 -8 -75.5s-14.833 -37.5 -28.5 -51.5s-33.167 -24.667 -58.5 -32s-58 -11 -98 -11h-34v321z" />
    <glyph glyph-name="germandbls" unicode="&#xdf;" 
d="M157 0l-0.000976562 561.005c0 44 8.16699 73.667 24.5 89s40.166 23 71.499 23c8.66699 0 18 -1.83301 28 -5.5s20 -10.167 30 -19.5s18.333 -22.333 25 -39s10 -37.667 10 -63c0 -32.667 -0.833008 -55.667 -2.5 -69s-5.16699 -27.333 -10.5 -42
c-7.33301 -21.333 -18.5 -36.333 -33.5 -45s-34.167 -13 -57.5 -13c-8 0 -13.833 -0.5 -17.5 -1.5s-5.5 -3.83301 -5.5 -8.5c0 -9.33301 8.33301 -14 25 -14c7.33301 0 17 -0.666992 29 -2c22.667 -1.33301 40.834 -8.33301 54.501 -21s23.667 -28.334 30 -47.001
s10.166 -37.667 11.499 -57s2 -42.333 2 -69c0 -16.667 -0.666992 -32.834 -2 -48.501s-4.33301 -31.334 -9 -47.001s-11.834 -28.667 -21.501 -39s-22.167 -15.5 -37.5 -15.5c-9.33301 0 -18 2.16699 -26 6.5s-12 10.5 -12 18.5c0 8.66699 4.66699 17.667 14 27
c5.33301 5.33301 9.33301 10.5 12 15.5s4 11.167 4 18.5c0 10.667 -4 20 -12 28s-17.333 12 -28 12c-34.667 0 -52 -19.333 -52 -58c0 -24.667 9.83301 -45.5 29.5 -62.5s43.834 -25.5 72.501 -25.5c50.667 0 89.834 18.167 117.501 54.5s41.5 81.166 41.5 134.499
c0 21.333 -3 42.5 -9 63.5s-15.5 40.5 -28.5 58.5s-30 33.167 -51 45.5s-45.5 20.5 -73.5 24.5v2c45.333 14 78.833 36.167 100.5 66.5s32.5 61.166 32.5 92.499c0 52 -18.167 92.5 -54.5 121.5s-80.166 43.5 -131.499 43.5c-47.333 0 -86.5 -16 -117.5 -48
s-46.5 -73 -46.5 -123v-500h-58v-23h132z" />
    <glyph glyph-name="agrave" unicode="&#xe0;" horiz-adv-x="444" 
d="M296 438l-149 145l-4 4c-6 6.66699 -11.167 11.5 -15.5 14.5s-9.5 4.5 -15.5 4.5c-10 0 -18.333 -3.16699 -25 -9.5s-10 -14.5 -10 -24.5c0 -9.33301 3.83301 -17.5 11.5 -24.5s20.167 -15.833 37.5 -26.5l2 -2l133 -81h35zM419 69
c-3.33301 -12 -7.83203 -22.502 -13.499 -31.502s-12.834 -13.5 -21.501 -13.5c-9.33301 0 -15.166 3.33301 -17.499 10s-3.5 18.667 -3.5 36v238c0 14 -1 26 -3 36s-7.16699 19.833 -15.5 29.5s-22 17.5 -41 23.5s-44.5 9 -76.5 9c-28 0 -52.333 -3.16699 -73 -9.5
s-37.334 -14.333 -50.001 -24s-22 -20 -28 -31s-9 -21.5 -9 -31.5c0 -14 3.66699 -25.5 11 -34.5s17.666 -13.5 30.999 -13.5c12.667 0 22.667 3.83301 30 11.5s11 17.834 11 30.501c0 10 -2 17.667 -6 23s-9.33301 10.333 -16 15c-5.33301 3.33301 -8 6 -8 8
c0 6.66699 3.5 12.334 10.5 17.001s15.667 8.5 26 11.5s20.666 5 30.999 6s18.833 1.5 25.5 1.5c20 0 37 -4.83301 51 -14.5s21 -25.167 21 -46.5v-95c-77.333 0 -138.166 -12.667 -182.499 -38s-67.166 -61 -68.499 -107c0 -34.667 10.833 -59.667 32.5 -75
s49.834 -23 84.501 -23c26.667 0 51.667 5.16699 75 15.5s43.333 25.5 60 45.5c4 -19.333 11.333 -34.333 22 -45s25 -16 43 -16c22.667 0 42.167 7.83301 58.5 23.5s25.166 35.167 26.499 58.5h-17zM285.001 115.998c0 -17.333 -1.83301 -29.999 -5.5 -37.999
s-8.5 -15 -14.5 -21l-2 -2c-12 -10.667 -23.833 -18.167 -35.5 -22.5s-25.5 -6.5 -41.5 -6.5c-23.333 0 -42 7.16699 -56 21.5s-21 33.5 -21 57.5c0 21.333 5.66699 39 17 53s26 24.667 44 32s36.5 12.166 55.5 14.499s38.833 3.83301 59.5 4.5v-93z" />
    <glyph glyph-name="aacute" unicode="&#xe1;" horiz-adv-x="444" 
d="M148 438h34.999l133 81l2 2c17.333 10.667 29.833 19.5 37.5 26.5s11.5 15.167 11.5 24.5c0 10 -3.33301 18.167 -10 24.5s-15 9.5 -25 9.5c-5.33301 0 -10.166 -1.5 -14.499 -4.5s-9.83301 -7.83301 -16.5 -14.5l-4 -4zM418.999 69
c-3.33301 -12 -7.83203 -22.502 -13.499 -31.502s-12.834 -13.5 -21.501 -13.5c-9.33301 0 -15.166 3.33301 -17.499 10s-3.5 18.667 -3.5 36v238c0 14 -1 26 -3 36s-7.16699 19.833 -15.5 29.5s-22 17.5 -41 23.5s-44.5 9 -76.5 9c-28 0 -52.333 -3.16699 -73 -9.5
s-37.334 -14.333 -50.001 -24s-22 -20 -28 -31s-9 -21.5 -9 -31.5c0 -14 3.66699 -25.5 11 -34.5s17.666 -13.5 30.999 -13.5c12.667 0 22.667 3.83301 30 11.5s11 17.834 11 30.501c0 10 -2 17.667 -6 23s-9.33301 10.333 -16 15c-5.33301 3.33301 -8 6 -8 8
c0 6.66699 3.5 12.334 10.5 17.001s15.667 8.5 26 11.5s20.666 5 30.999 6s18.833 1.5 25.5 1.5c20 0 37 -4.83301 51 -14.5s21 -25.167 21 -46.5v-95c-77.333 0 -138.166 -12.667 -182.499 -38s-67.166 -61 -68.499 -107c0 -34.667 10.833 -59.667 32.5 -75
s49.834 -23 84.501 -23c26.667 0 51.667 5.16699 75 15.5s43.333 25.5 60 45.5c4 -19.333 11.333 -34.333 22 -45s25 -16 43 -16c22.667 0 42.167 7.83301 58.5 23.5s25.166 35.167 26.499 58.5h-17zM285 115.998c0 -17.333 -1.83301 -29.999 -5.5 -37.999
s-8.5 -15 -14.5 -21l-2 -2c-12 -10.667 -23.833 -18.167 -35.5 -22.5s-25.5 -6.5 -41.5 -6.5c-23.333 0 -42 7.16699 -56 21.5s-21 33.5 -21 57.5c0 21.333 5.66699 39 17 53s26 24.667 44 32s36.5 12.166 55.5 14.499s38.833 3.83301 59.5 4.5v-93z" />
    <glyph glyph-name="acircumflex" unicode="&#xe2;" horiz-adv-x="444" 
d="M195 604l-123 -166h34l117 105l117 -105h32l-121 166h-56zM419 69c-3.33301 -12 -7.83203 -22.502 -13.499 -31.502s-12.834 -13.5 -21.501 -13.5c-9.33301 0 -15.166 3.33301 -17.499 10s-3.5 18.667 -3.5 36v238c0 14 -1 26 -3 36s-7.16699 19.833 -15.5 29.5
s-22 17.5 -41 23.5s-44.5 9 -76.5 9c-28 0 -52.333 -3.16699 -73 -9.5s-37.334 -14.333 -50.001 -24s-22 -20 -28 -31s-9 -21.5 -9 -31.5c0 -14 3.66699 -25.5 11 -34.5s17.666 -13.5 30.999 -13.5c12.667 0 22.667 3.83301 30 11.5s11 17.834 11 30.501
c0 10 -2 17.667 -6 23s-9.33301 10.333 -16 15c-5.33301 3.33301 -8 6 -8 8c0 6.66699 3.5 12.334 10.5 17.001s15.667 8.5 26 11.5s20.666 5 30.999 6s18.833 1.5 25.5 1.5c20 0 37 -4.83301 51 -14.5s21 -25.167 21 -46.5v-95c-77.333 0 -138.166 -12.667 -182.499 -38
s-67.166 -61 -68.499 -107c0 -34.667 10.833 -59.667 32.5 -75s49.834 -23 84.501 -23c26.667 0 51.667 5.16699 75 15.5s43.333 25.5 60 45.5c4 -19.333 11.333 -34.333 22 -45s25 -16 43 -16c22.667 0 42.167 7.83301 58.5 23.5s25.166 35.167 26.499 58.5h-17z
M285.001 115.998c0 -17.333 -1.83301 -29.999 -5.5 -37.999s-8.5 -15 -14.5 -21l-2 -2c-12 -10.667 -23.833 -18.167 -35.5 -22.5s-25.5 -6.5 -41.5 -6.5c-23.333 0 -42 7.16699 -56 21.5s-21 33.5 -21 57.5c0 21.333 5.66699 39 17 53s26 24.667 44 32
s36.5 12.166 55.5 14.499s38.833 3.83301 59.5 4.5v-93z" />
    <glyph glyph-name="atilde" unicode="&#xe3;" horiz-adv-x="444" 
d="M357 564c-7.33301 -16.667 -14.999 -29.168 -22.999 -37.501s-19.667 -12.5 -35 -12.5c-14 0 -35.667 7.66699 -65 23l-3 1c-14 7.33301 -25.833 12.833 -35.5 16.5s-19.167 5.5 -28.5 5.5c-28 0 -51.333 -9.16699 -70 -27.5s-30.667 -41.833 -36 -70.5h27
c2.66699 12.667 9 23.5 19 32.5s21.667 13.5 35 13.5c12.667 0 31.667 -6.33301 57 -19l7 -4c28 -15.333 52.667 -23 74 -23c27.333 0 50.166 9.83301 68.499 29.5s30.833 43.834 37.5 72.501h-29zM419.001 68.999c-3.33301 -12 -7.83203 -22.502 -13.499 -31.502
s-12.834 -13.5 -21.501 -13.5c-9.33301 0 -15.166 3.33301 -17.499 10s-3.5 18.667 -3.5 36v238c0 14 -1 26 -3 36s-7.16699 19.833 -15.5 29.5s-22 17.5 -41 23.5s-44.5 9 -76.5 9c-28 0 -52.333 -3.16699 -73 -9.5s-37.334 -14.333 -50.001 -24s-22 -20 -28 -31
s-9 -21.5 -9 -31.5c0 -14 3.66699 -25.5 11 -34.5s17.666 -13.5 30.999 -13.5c12.667 0 22.667 3.83301 30 11.5s11 17.834 11 30.501c0 10 -2 17.667 -6 23s-9.33301 10.333 -16 15c-5.33301 3.33301 -8 6 -8 8c0 6.66699 3.5 12.334 10.5 17.001s15.667 8.5 26 11.5
s20.666 5 30.999 6s18.833 1.5 25.5 1.5c20 0 37 -4.83301 51 -14.5s21 -25.167 21 -46.5v-95c-77.333 0 -138.166 -12.667 -182.499 -38s-67.166 -61 -68.499 -107c0 -34.667 10.833 -59.667 32.5 -75s49.834 -23 84.501 -23c26.667 0 51.667 5.16699 75 15.5
s43.333 25.5 60 45.5c4 -19.333 11.333 -34.333 22 -45s25 -16 43 -16c22.667 0 42.167 7.83301 58.5 23.5s25.166 35.167 26.499 58.5h-17zM285.002 115.997c0 -17.333 -1.83301 -29.999 -5.5 -37.999s-8.5 -15 -14.5 -21l-2 -2c-12 -10.667 -23.833 -18.167 -35.5 -22.5
s-25.5 -6.5 -41.5 -6.5c-23.333 0 -42 7.16699 -56 21.5s-21 33.5 -21 57.5c0 21.333 5.66699 39 17 53s26 24.667 44 32s36.5 12.166 55.5 14.499s38.833 3.83301 59.5 4.5v-93z" />
    <glyph glyph-name="adieresis" unicode="&#xe4;" horiz-adv-x="444" 
d="M124 456c12.667 0 23.667 4.49805 33 13.498s14 19.833 14 32.5s-4.66699 23.834 -14 33.501s-20.333 14.5 -33 14.5c-13.333 0 -24.333 -4.66699 -33 -14s-13 -20.666 -13 -33.999s4.33301 -24.333 13 -33s19.667 -13 33 -13zM319 455.998
c12.667 0 23.667 4.49805 33 13.498s14 19.833 14 32.5s-4.66699 23.834 -14 33.501s-20.333 14.5 -33 14.5c-13.333 0 -24.333 -4.66699 -33 -14s-13 -20.666 -13 -33.999s4.33301 -24.333 13 -33s19.667 -13 33 -13zM419 68.9961
c-3.33301 -12 -7.83203 -22.502 -13.499 -31.502s-12.834 -13.5 -21.501 -13.5c-9.33301 0 -15.166 3.33301 -17.499 10s-3.5 18.667 -3.5 36v238c0 14 -1 26 -3 36s-7.16699 19.833 -15.5 29.5s-22 17.5 -41 23.5s-44.5 9 -76.5 9c-28 0 -52.333 -3.16699 -73 -9.5
s-37.334 -14.333 -50.001 -24s-22 -20 -28 -31s-9 -21.5 -9 -31.5c0 -14 3.66699 -25.5 11 -34.5s17.666 -13.5 30.999 -13.5c12.667 0 22.667 3.83301 30 11.5s11 17.834 11 30.501c0 10 -2 17.667 -6 23s-9.33301 10.333 -16 15c-5.33301 3.33301 -8 6 -8 8
c0 6.66699 3.5 12.334 10.5 17.001s15.667 8.5 26 11.5s20.666 5 30.999 6s18.833 1.5 25.5 1.5c20 0 37 -4.83301 51 -14.5s21 -25.167 21 -46.5v-95c-77.333 0 -138.166 -12.667 -182.499 -38s-67.166 -61 -68.499 -107c0 -34.667 10.833 -59.667 32.5 -75
s49.834 -23 84.501 -23c26.667 0 51.667 5.16699 75 15.5s43.333 25.5 60 45.5c4 -19.333 11.333 -34.333 22 -45s25 -16 43 -16c22.667 0 42.167 7.83301 58.5 23.5s25.166 35.167 26.499 58.5h-17zM285.001 115.994c0 -17.333 -1.83301 -29.999 -5.5 -37.999
s-8.5 -15 -14.5 -21l-2 -2c-12 -10.667 -23.833 -18.167 -35.5 -22.5s-25.5 -6.5 -41.5 -6.5c-23.333 0 -42 7.16699 -56 21.5s-21 33.5 -21 57.5c0 21.333 5.66699 39 17 53s26 24.667 44 32s36.5 12.166 55.5 14.499s38.833 3.83301 59.5 4.5v-93z" />
    <glyph glyph-name="aring" unicode="&#xe5;" horiz-adv-x="444" 
d="M219 604c18.667 0 34.5 -6.5 47.5 -19.5s19.5 -28.833 19.5 -47.5s-6.5 -34.5 -19.5 -47.5s-28.833 -19.5 -47.5 -19.5c-19.333 0 -35.333 6.33301 -48 19s-19 28.667 -19 48c0 18.667 6.5 34.5 19.5 47.5s28.833 19.5 47.5 19.5zM219 440c26.667 0 49.5 9.5 68.5 28.5
s28.5 41.833 28.5 68.5s-9.5 49.5 -28.5 68.5s-41.833 28.5 -68.5 28.5c-27.333 0 -50.333 -9.33301 -69 -28s-28 -41.667 -28 -69s9.33301 -50.333 28 -69s41.667 -28 69 -28zM419 69c-3.33301 -12 -7.83203 -22.502 -13.499 -31.502s-12.834 -13.5 -21.501 -13.5
c-9.33301 0 -15.166 3.33301 -17.499 10s-3.5 18.667 -3.5 36v238c0 14 -1 26 -3 36s-7.16699 19.833 -15.5 29.5s-22 17.5 -41 23.5s-44.5 9 -76.5 9c-28 0 -52.333 -3.16699 -73 -9.5s-37.334 -14.333 -50.001 -24s-22 -20 -28 -31s-9 -21.5 -9 -31.5
c0 -14 3.66699 -25.5 11 -34.5s17.666 -13.5 30.999 -13.5c12.667 0 22.667 3.83301 30 11.5s11 17.834 11 30.501c0 10 -2 17.667 -6 23s-9.33301 10.333 -16 15c-5.33301 3.33301 -8 6 -8 8c0 6.66699 3.5 12.334 10.5 17.001s15.667 8.5 26 11.5s20.666 5 30.999 6
s18.833 1.5 25.5 1.5c20 0 37 -4.83301 51 -14.5s21 -25.167 21 -46.5v-95c-77.333 0 -138.166 -12.667 -182.499 -38s-67.166 -61 -68.499 -107c0 -34.667 10.833 -59.667 32.5 -75s49.834 -23 84.501 -23c26.667 0 51.667 5.16699 75 15.5s43.333 25.5 60 45.5
c4 -19.333 11.333 -34.333 22 -45s25 -16 43 -16c22.667 0 42.167 7.83301 58.5 23.5s25.166 35.167 26.499 58.5h-17zM285.001 115.998c0 -17.333 -1.83301 -29.999 -5.5 -37.999s-8.5 -15 -14.5 -21l-2 -2c-12 -10.667 -23.833 -18.167 -35.5 -22.5s-25.5 -6.5 -41.5 -6.5
c-23.333 0 -42 7.16699 -56 21.5s-21 33.5 -21 57.5c0 21.333 5.66699 39 17 53s26 24.667 44 32s36.5 12.166 55.5 14.499s38.833 3.83301 59.5 4.5v-93z" />
    <glyph glyph-name="ae" unicode="&#xe6;" horiz-adv-x="667" 
d="M281 116c0 -17.333 -1.83301 -29.999 -5.5 -37.999s-8.5 -15 -14.5 -21l-2 -2c-12 -10.667 -23.833 -18.167 -35.5 -22.5s-25.5 -6.5 -41.5 -6.5c-23.333 0 -42 7.16699 -56 21.5s-21 33.5 -21 57.5c0 21.333 5.66699 39 17 53s26 24.667 44 32s36.5 12.166 55.5 14.499
s38.833 3.83301 59.5 4.5v-93zM359 257.001c1.33301 27.333 4.66699 49.335 10 66.002v0c1.33301 4 3.83301 9.16699 7.5 15.5s8.66699 13.166 15 20.499s14.833 13.666 25.5 18.999s22.667 8 36 8c27.333 0 49.5 -7.33301 66.5 -22s25.5 -39 25.5 -73v-34h-186z
M613.001 124.003c-6.66699 -32 -24.332 -59.667 -52.999 -83c-12.667 -10.667 -26.5 -19 -41.5 -25s-29.5 -9 -43.5 -9c-26 0 -47 4.5 -63 13.5s-28 21.667 -36 38s-13.167 34.666 -15.5 54.999s-3.5 44.833 -3.5 73.5v41h279c-0.666992 54 -17.834 97.167 -51.501 129.5
s-76.5 48.5 -128.5 48.5c-23.333 0 -43.5 -3.16699 -60.5 -9.5s-35.833 -17.833 -56.5 -34.5c-12 17.333 -27.833 29 -47.5 35s-42.5 9 -68.5 9c-28 0 -52.333 -3.16699 -73 -9.5s-37.334 -14.333 -50.001 -24s-22 -20 -28 -31s-9 -21.5 -9 -31.5
c0 -14 3.66699 -25.5 11 -34.5s17.666 -13.5 30.999 -13.5c12.667 0 22.667 3.83301 30 11.5s11 17.834 11 30.501c0 10 -2 17.667 -6 23s-9.33301 10.333 -16 15c-5.33301 3.33301 -8 6 -8 8c0 6.66699 3.5 12.334 10.5 17.001s15.667 8.5 26 11.5s20.666 5 30.999 6
s18.833 1.5 25.5 1.5c20 0 37 -4.83301 51 -14.5s21 -25.167 21 -46.5v-95c-77.333 0 -138.166 -12.667 -182.499 -38s-67.166 -61 -68.499 -107c0 -34.667 10.833 -59.667 32.5 -75s49.834 -23 84.501 -23c27.333 0 56 7.5 86 22.5s54.667 35.5 74 61.5
c12 -22.667 33 -42.334 63 -59.001s59.667 -25 89 -25c45.333 0 83.5 11.5 114.5 34.5s51.5 57.167 61.5 102.5h-22z" />
    <glyph glyph-name="ccedilla" unicode="&#xe7;" horiz-adv-x="444" 
d="M235 0h-34.999l-44 -99l18 -5l4 1c6.66699 1.33301 15.334 2.66602 26.001 3.99902c10 0 19.667 -3.33301 29 -10s14 -16.334 14 -29.001c0 -14.667 -6.16699 -25.334 -18.5 -32.001s-26.5 -10 -42.5 -10c-10.667 0 -27.334 3.33301 -50.001 10
c-3.33301 0.666992 -6 1.33398 -8 2.00098l-14 -30c10.667 -4.66699 23.667 -8.33398 39 -11.001s29.666 -4 42.999 -4c14.667 0 29 1.33301 43 4s27 7.33398 39 14.001s21.5 15.334 28.5 26.001s10.5 24 10.5 40c0 22.667 -8.33301 39.834 -25 51.501s-33 17.5 -49 17.5
c-9.33301 0 -22 -2 -38 -6zM381.001 124c-11.333 -35.333 -29.498 -63.498 -54.498 -84.498s-52.833 -31.5 -83.5 -31.5c-49.333 2.66699 -82 21.667 -98 57c-4.66699 11.333 -9.33398 27.666 -14.001 48.999s-7 45 -7 71c0 69.333 8.66699 120.166 26 152.499
s49 48.5 95 48.5c6 0 14 -0.833008 24 -2.5s19.5 -4 28.5 -7s16.667 -7 23 -12s9.5 -10.5 9.5 -16.5c0 -2.66699 -3 -6.33398 -9 -11.001c-6.66699 -6 -12.167 -12 -16.5 -18s-6.5 -14.667 -6.5 -26c0 -14 4.5 -25.333 13.5 -34s20.167 -13 33.5 -13
s24.166 5.33301 32.499 16s12.5 23 12.5 37c0 18 -4.83301 34 -14.5 48s-22.334 25.333 -38.001 34s-32.667 15 -51 19s-36.166 6 -53.499 6c-16.667 0 -36.167 -3.5 -58.5 -10.5s-44.333 -18.833 -66 -35.5s-39.667 -39.5 -54 -68.5s-21.5 -64.5 -21.5 -106.5
c0 -19.333 3.5 -40.166 10.5 -62.499s18.333 -43.833 34 -64.5s36.667 -37.667 63 -51s57.833 -20 94.5 -20c48 2 84.5 15 109.5 39s44.167 56.667 57.5 98h-21z" />
    <glyph glyph-name="egrave" unicode="&#xe8;" horiz-adv-x="444" 
d="M296 438l-149 145l-4 4c-6 6.66699 -11.167 11.5 -15.5 14.5s-9.5 4.5 -15.5 4.5c-10 0 -18.333 -3.16699 -25 -9.5s-10 -14.5 -10 -24.5c0 -9.33301 3.83301 -17.5 11.5 -24.5s20.167 -15.833 37.5 -26.5l2 -2l133 -81h35zM387 124
c-6.66699 -32 -23.998 -59.332 -51.998 -81.999s-56.667 -34 -86 -34c-26 0 -47.167 4.5 -63.5 13.5s-28.833 21.5 -37.5 37.5s-14.334 34.333 -17.001 55s-4 45 -4 73v41h283c-0.666992 54 -17.834 97.167 -51.501 129.5s-76.5 48.5 -128.5 48.5c-29.333 0 -56 -6 -80 -18
s-44.833 -28.667 -62.5 -50s-31.167 -45.666 -40.5 -72.999s-14 -55.666 -14 -84.999c0 -26.667 5.5 -51.834 16.5 -75.501s26 -44.334 45 -62.001s40.5 -31.334 64.5 -41.001s48.667 -14.5 74 -14.5c45.333 0 83.5 11.5 114.5 34.5s51.5 57.167 61.5 102.5h-22z
M128.002 257.001c1.33301 27.333 4.66699 49.334 10 66.001c0.666992 3.33301 3.16699 8.33301 7.5 15s10 13.667 17 21s16 13.666 27 18.999s23.5 8 37.5 8c27.333 0 49.5 -7.33301 66.5 -22s25.5 -39 25.5 -73v-34h-191z" />
    <glyph glyph-name="eacute" unicode="&#xe9;" horiz-adv-x="444" 
d="M148 438h34.999l133 81l2 2c17.333 10.667 29.833 19.5 37.5 26.5s11.5 15.167 11.5 24.5c0 10 -3.33301 18.167 -10 24.5s-15 9.5 -25 9.5c-5.33301 0 -10.166 -1.5 -14.499 -4.5s-9.83301 -7.83301 -16.5 -14.5l-4 -4zM386.999 124
c-6.66699 -32 -23.998 -59.332 -51.998 -81.999s-56.667 -34 -86 -34c-26 0 -47.167 4.5 -63.5 13.5s-28.833 21.5 -37.5 37.5s-14.334 34.333 -17.001 55s-4 45 -4 73v41h283c-0.666992 54 -17.834 97.167 -51.501 129.5s-76.5 48.5 -128.5 48.5c-29.333 0 -56 -6 -80 -18
s-44.833 -28.667 -62.5 -50s-31.167 -45.666 -40.5 -72.999s-14 -55.666 -14 -84.999c0 -26.667 5.5 -51.834 16.5 -75.501s26 -44.334 45 -62.001s40.5 -31.334 64.5 -41.001s48.667 -14.5 74 -14.5c45.333 0 83.5 11.5 114.5 34.5s51.5 57.167 61.5 102.5h-22z
M128.001 257.001c1.33301 27.333 4.66699 49.334 10 66.001c0.666992 3.33301 3.16699 8.33301 7.5 15s10 13.667 17 21s16 13.666 27 18.999s23.5 8 37.5 8c27.333 0 49.5 -7.33301 66.5 -22s25.5 -39 25.5 -73v-34h-191z" />
    <glyph glyph-name="ecircumflex" unicode="&#xea;" horiz-adv-x="444" 
d="M210 604l-123 -166h34l117 105l117 -105h32l-121 166h-56zM387 124c-6.66699 -32 -23.998 -59.332 -51.998 -81.999s-56.667 -34 -86 -34c-26 0 -47.167 4.5 -63.5 13.5s-28.833 21.5 -37.5 37.5s-14.334 34.333 -17.001 55s-4 45 -4 73v41h283
c-0.666992 54 -17.834 97.167 -51.501 129.5s-76.5 48.5 -128.5 48.5c-29.333 0 -56 -6 -80 -18s-44.833 -28.667 -62.5 -50s-31.167 -45.666 -40.5 -72.999s-14 -55.666 -14 -84.999c0 -26.667 5.5 -51.834 16.5 -75.501s26 -44.334 45 -62.001s40.5 -31.334 64.5 -41.001
s48.667 -14.5 74 -14.5c45.333 0 83.5 11.5 114.5 34.5s51.5 57.167 61.5 102.5h-22zM128.002 257.001c1.33301 27.333 4.66699 49.334 10 66.001c0.666992 3.33301 3.16699 8.33301 7.5 15s10 13.667 17 21s16 13.666 27 18.999s23.5 8 37.5 8
c27.333 0 49.5 -7.33301 66.5 -22s25.5 -39 25.5 -73v-34h-191z" />
    <glyph glyph-name="edieresis" unicode="&#xeb;" horiz-adv-x="444" 
d="M124 456c12.667 0 23.667 4.49805 33 13.498s14 19.833 14 32.5s-4.66699 23.834 -14 33.501s-20.333 14.5 -33 14.5c-13.333 0 -24.333 -4.66699 -33 -14s-13 -20.666 -13 -33.999s4.33301 -24.333 13 -33s19.667 -13 33 -13zM319 455.998
c12.667 0 23.667 4.49805 33 13.498s14 19.833 14 32.5s-4.66699 23.834 -14 33.501s-20.333 14.5 -33 14.5c-13.333 0 -24.333 -4.66699 -33 -14s-13 -20.666 -13 -33.999s4.33301 -24.333 13 -33s19.667 -13 33 -13zM387 123.996
c-6.66699 -32 -23.998 -59.332 -51.998 -81.999s-56.667 -34 -86 -34c-26 0 -47.167 4.5 -63.5 13.5s-28.833 21.5 -37.5 37.5s-14.334 34.333 -17.001 55s-4 45 -4 73v41h283c-0.666992 54 -17.834 97.167 -51.501 129.5s-76.5 48.5 -128.5 48.5c-29.333 0 -56 -6 -80 -18
s-44.833 -28.667 -62.5 -50s-31.167 -45.666 -40.5 -72.999s-14 -55.666 -14 -84.999c0 -26.667 5.5 -51.834 16.5 -75.501s26 -44.334 45 -62.001s40.5 -31.334 64.5 -41.001s48.667 -14.5 74 -14.5c45.333 0 83.5 11.5 114.5 34.5s51.5 57.167 61.5 102.5h-22z
M128.002 256.997c1.33301 27.333 4.66699 49.334 10 66.001c0.666992 3.33301 3.16699 8.33301 7.5 15s10 13.667 17 21s16 13.666 27 18.999s23.5 8 37.5 8c27.333 0 49.5 -7.33301 66.5 -22s25.5 -39 25.5 -73v-34h-191z" />
    <glyph glyph-name="igrave" unicode="&#xec;" horiz-adv-x="278" 
d="M213 438l-149 145l-4 4c-6 6.66699 -11.167 11.5 -15.5 14.5s-9.5 4.5 -15.5 4.5c-10 0 -18.333 -3.16699 -25 -9.5s-10 -14.5 -10 -24.5c0 -9.33301 3.83301 -17.5 11.5 -24.5s20.167 -15.833 37.5 -26.5l2 -2l133 -81h35zM236 0v23h-59v383
c-26.667 -6.66699 -64 -10 -112 -10h-33v-23h67v-350h-67v-23h204z" />
    <glyph glyph-name="iacute" unicode="&#xed;" horiz-adv-x="278" 
d="M65 438h34.999l133 81l2 2c17.333 10.667 29.833 19.5 37.5 26.5s11.5 15.167 11.5 24.5c0 10 -3.33301 18.167 -10 24.5s-15 9.5 -25 9.5c-5.33301 0 -10.166 -1.5 -14.499 -4.5s-9.83301 -7.83301 -16.5 -14.5l-4 -4zM235.999 0v23h-59v383
c-26.667 -6.66699 -64 -10 -112 -10h-33v-23h67v-350h-67v-23h204z" />
    <glyph glyph-name="icircumflex" unicode="&#xee;" horiz-adv-x="278" 
d="M112 604l-123 -166h34l117 105l117 -105h32l-121 166h-56zM236 0v23h-59v383c-26.667 -6.66699 -64 -10 -112 -10h-33v-23h67v-350h-67v-23h204z" />
    <glyph glyph-name="idieresis" unicode="&#xef;" horiz-adv-x="278" 
d="M41 456c12.667 0 23.667 4.49805 33 13.498s14 19.833 14 32.5s-4.66699 23.834 -14 33.501s-20.333 14.5 -33 14.5c-13.333 0 -24.333 -4.66699 -33 -14s-13 -20.666 -13 -33.999s4.33301 -24.333 13 -33s19.667 -13 33 -13zM236 455.998
c12.667 0 23.667 4.49805 33 13.498s14 19.833 14 32.5s-4.66699 23.834 -14 33.501s-20.333 14.5 -33 14.5c-13.333 0 -24.333 -4.66699 -33 -14s-13 -20.666 -13 -33.999s4.33301 -24.333 13 -33s19.667 -13 33 -13zM236 -0.00390625v23h-59v383
c-26.667 -6.66699 -64 -10 -112 -10h-33v-23h67v-350h-67v-23h204z" />
    <glyph glyph-name="eth" unicode="&#xf0;" horiz-adv-x="444" 
d="M222 386c24 0 43 -5.5 57 -16.5s24.167 -25.667 30.5 -44s10.333 -37.166 12 -56.499s2.5 -43.333 2.5 -72s-0.833008 -52.834 -2.5 -72.501s-5.5 -38.5 -11.5 -56.5s-16.167 -32.667 -30.5 -44s-33.5 -17 -57.5 -17s-43 5.66699 -57 17s-24.167 26 -30.5 44
s-10.333 36.833 -12 56.5s-2.5 43.834 -2.5 72.501s0.833008 52.667 2.5 72s5.66699 38.166 12 56.499s16.5 33 30.5 44s33 16.5 57 16.5zM142 469l115.001 77.001c28 -50 46.667 -106.333 56 -169c-26.667 19.333 -57 29 -91 29c-26 0 -50.667 -5.16699 -74 -15.5
s-44 -25 -62 -44s-32 -41.333 -42 -67s-15 -53.167 -15 -82.5s5 -57 15 -83s24 -48.5 42 -67.5s38.667 -33.667 62 -44s48 -15.5 74 -15.5c64.667 0 113 23.5 145 70.5s48 111.167 48 192.5c0 61.333 -8.83301 119.5 -26.5 174.5s-45.834 105.833 -84.501 152.5l123 83
l-18 23l-124 -84c-34 38.667 -74 71.667 -120 99l-35 -24c45.333 -24.667 82.333 -59.334 111 -104.001l-117 -78z" />
    <glyph glyph-name="ntilde" unicode="&#xf1;" 
d="M385 564c-7.33301 -16.667 -14.999 -29.168 -22.999 -37.501s-19.667 -12.5 -35 -12.5c-14 0 -35.667 7.66699 -65 23l-3 1c-14 7.33301 -25.833 12.833 -35.5 16.5s-19.167 5.5 -28.5 5.5c-28 0 -51.333 -9.16699 -70 -27.5s-30.667 -41.833 -36 -70.5h27
c2.66699 12.667 9 23.5 19 32.5s21.667 13.5 35 13.5c12.667 0 31.667 -6.33301 57 -19l7 -4c28 -15.333 52.667 -23 74 -23c27.333 0 50.166 9.83301 68.499 29.5s30.833 43.834 37.5 72.501h-29zM84.001 22.999l-55 0.000976562v-23h187v23h-54v186c0 18.667 3 38 9 58
s14.5 38.333 25.5 55s23.833 30 38.5 40s30.334 15 47.001 15c22 0 38 -5.5 48 -16.5s15 -33.5 15 -67.5v-270h-52v-23h184v23h-54v283c0 21.333 -4.16699 38.833 -12.5 52.5s-18.833 24 -31.5 31s-25.334 11.5 -38.001 13.5s-25 3 -37 3c-34 0 -62 -9 -84 -27
s-40.667 -44.333 -56 -79h-2v106c-20 -4.66699 -38.667 -7.33398 -56 -8.00098c-12 -1.33301 -30.667 -2 -56 -2h-21v-23h55v-350z" />
    <glyph glyph-name="ograve" unicode="&#xf2;" horiz-adv-x="444" 
d="M296 438l-149 145l-4 4c-6 6.66699 -11.167 11.5 -15.5 14.5s-9.5 4.5 -15.5 4.5c-10 0 -18.333 -3.16699 -25 -9.5s-10 -14.5 -10 -24.5c0 -9.33301 3.83301 -17.5 11.5 -24.5s20.167 -15.833 37.5 -26.5l2 -2l133 -81h35zM222 406c-26 0 -50.667 -5.16602 -74 -15.499
s-44 -25 -62 -44s-32 -41.333 -42 -67s-15 -53.167 -15 -82.5s5 -57 15 -83s24 -48.5 42 -67.5s38.667 -33.667 62 -44s48 -15.5 74 -15.5s50.667 5.16699 74 15.5s44 25.166 62 44.499s32 41.833 42 67.5s15 53.167 15 82.5s-5 56.833 -15 82.5s-24 48 -42 67
s-38.667 33.667 -62 44s-48 15.5 -74 15.5zM222 386.001c24 0 43 -5.5 57 -16.5s24.167 -25.667 30.5 -44s10.333 -37.166 12 -56.499s2.5 -43.333 2.5 -72s-0.833008 -52.834 -2.5 -72.501s-5.5 -38.5 -11.5 -56.5s-16.167 -32.667 -30.5 -44s-33.5 -17 -57.5 -17
s-43 5.66699 -57 17s-24.167 26 -30.5 44s-10.333 36.833 -12 56.5s-2.5 43.834 -2.5 72.501s0.833008 52.667 2.5 72s5.66699 38.166 12 56.499s16.5 33 30.5 44s33 16.5 57 16.5z" />
    <glyph glyph-name="oacute" unicode="&#xf3;" horiz-adv-x="444" 
d="M148 438h34.999l133 81l2 2c17.333 10.667 29.833 19.5 37.5 26.5s11.5 15.167 11.5 24.5c0 10 -3.33301 18.167 -10 24.5s-15 9.5 -25 9.5c-5.33301 0 -10.166 -1.5 -14.499 -4.5s-9.83301 -7.83301 -16.5 -14.5l-4 -4zM221.999 406c-26 0 -50.667 -5.16602 -74 -15.499
s-44 -25 -62 -44s-32 -41.333 -42 -67s-15 -53.167 -15 -82.5s5 -57 15 -83s24 -48.5 42 -67.5s38.667 -33.667 62 -44s48 -15.5 74 -15.5s50.667 5.16699 74 15.5s44 25.166 62 44.499s32 41.833 42 67.5s15 53.167 15 82.5s-5 56.833 -15 82.5s-24 48 -42 67
s-38.667 33.667 -62 44s-48 15.5 -74 15.5zM221.999 386.001c24 0 43 -5.5 57 -16.5s24.167 -25.667 30.5 -44s10.333 -37.166 12 -56.499s2.5 -43.333 2.5 -72s-0.833008 -52.834 -2.5 -72.501s-5.5 -38.5 -11.5 -56.5s-16.167 -32.667 -30.5 -44s-33.5 -17 -57.5 -17
s-43 5.66699 -57 17s-24.167 26 -30.5 44s-10.333 36.833 -12 56.5s-2.5 43.834 -2.5 72.501s0.833008 52.667 2.5 72s5.66699 38.166 12 56.499s16.5 33 30.5 44s33 16.5 57 16.5z" />
    <glyph glyph-name="ocircumflex" unicode="&#xf4;" horiz-adv-x="444" 
d="M195 604l-123 -166h34l117 105l117 -105h32l-121 166h-56zM222 406c-26 0 -50.667 -5.16602 -74 -15.499s-44 -25 -62 -44s-32 -41.333 -42 -67s-15 -53.167 -15 -82.5s5 -57 15 -83s24 -48.5 42 -67.5s38.667 -33.667 62 -44s48 -15.5 74 -15.5s50.667 5.16699 74 15.5
s44 25.166 62 44.499s32 41.833 42 67.5s15 53.167 15 82.5s-5 56.833 -15 82.5s-24 48 -42 67s-38.667 33.667 -62 44s-48 15.5 -74 15.5zM222 386.001c24 0 43 -5.5 57 -16.5s24.167 -25.667 30.5 -44s10.333 -37.166 12 -56.499s2.5 -43.333 2.5 -72
s-0.833008 -52.834 -2.5 -72.501s-5.5 -38.5 -11.5 -56.5s-16.167 -32.667 -30.5 -44s-33.5 -17 -57.5 -17s-43 5.66699 -57 17s-24.167 26 -30.5 44s-10.333 36.833 -12 56.5s-2.5 43.834 -2.5 72.501s0.833008 52.667 2.5 72s5.66699 38.166 12 56.499s16.5 33 30.5 44
s33 16.5 57 16.5z" />
    <glyph glyph-name="otilde" unicode="&#xf5;" horiz-adv-x="444" 
d="M357 564c-7.33301 -16.667 -14.999 -29.168 -22.999 -37.501s-19.667 -12.5 -35 -12.5c-14 0 -35.667 7.66699 -65 23l-3 1c-14 7.33301 -25.833 12.833 -35.5 16.5s-19.167 5.5 -28.5 5.5c-28 0 -51.333 -9.16699 -70 -27.5s-30.667 -41.833 -36 -70.5h27
c2.66699 12.667 9 23.5 19 32.5s21.667 13.5 35 13.5c12.667 0 31.667 -6.33301 57 -19l7 -4c28 -15.333 52.667 -23 74 -23c27.333 0 50.166 9.83301 68.499 29.5s30.833 43.834 37.5 72.501h-29zM222.001 405.999c-26 0 -50.667 -5.16602 -74 -15.499s-44 -25 -62 -44
s-32 -41.333 -42 -67s-15 -53.167 -15 -82.5s5 -57 15 -83s24 -48.5 42 -67.5s38.667 -33.667 62 -44s48 -15.5 74 -15.5s50.667 5.16699 74 15.5s44 25.166 62 44.499s32 41.833 42 67.5s15 53.167 15 82.5s-5 56.833 -15 82.5s-24 48 -42 67s-38.667 33.667 -62 44
s-48 15.5 -74 15.5zM222.001 386c24 0 43 -5.5 57 -16.5s24.167 -25.667 30.5 -44s10.333 -37.166 12 -56.499s2.5 -43.333 2.5 -72s-0.833008 -52.834 -2.5 -72.501s-5.5 -38.5 -11.5 -56.5s-16.167 -32.667 -30.5 -44s-33.5 -17 -57.5 -17s-43 5.66699 -57 17
s-24.167 26 -30.5 44s-10.333 36.833 -12 56.5s-2.5 43.834 -2.5 72.501s0.833008 52.667 2.5 72s5.66699 38.166 12 56.499s16.5 33 30.5 44s33 16.5 57 16.5z" />
    <glyph glyph-name="odieresis" unicode="&#xf6;" horiz-adv-x="444" 
d="M124 456c12.667 0 23.667 4.49805 33 13.498s14 19.833 14 32.5s-4.66699 23.834 -14 33.501s-20.333 14.5 -33 14.5c-13.333 0 -24.333 -4.66699 -33 -14s-13 -20.666 -13 -33.999s4.33301 -24.333 13 -33s19.667 -13 33 -13zM319 455.998
c12.667 0 23.667 4.49805 33 13.498s14 19.833 14 32.5s-4.66699 23.834 -14 33.501s-20.333 14.5 -33 14.5c-13.333 0 -24.333 -4.66699 -33 -14s-13 -20.666 -13 -33.999s4.33301 -24.333 13 -33s19.667 -13 33 -13zM222 405.996c-26 0 -50.667 -5.16602 -74 -15.499
s-44 -25 -62 -44s-32 -41.333 -42 -67s-15 -53.167 -15 -82.5s5 -57 15 -83s24 -48.5 42 -67.5s38.667 -33.667 62 -44s48 -15.5 74 -15.5s50.667 5.16699 74 15.5s44 25.166 62 44.499s32 41.833 42 67.5s15 53.167 15 82.5s-5 56.833 -15 82.5s-24 48 -42 67
s-38.667 33.667 -62 44s-48 15.5 -74 15.5zM222 385.997c24 0 43 -5.5 57 -16.5s24.167 -25.667 30.5 -44s10.333 -37.166 12 -56.499s2.5 -43.333 2.5 -72s-0.833008 -52.834 -2.5 -72.501s-5.5 -38.5 -11.5 -56.5s-16.167 -32.667 -30.5 -44s-33.5 -17 -57.5 -17
s-43 5.66699 -57 17s-24.167 26 -30.5 44s-10.333 36.833 -12 56.5s-2.5 43.834 -2.5 72.501s0.833008 52.667 2.5 72s5.66699 38.166 12 56.499s16.5 33 30.5 44s33 16.5 57 16.5z" />
    <glyph glyph-name="divide" unicode="&#xf7;" horiz-adv-x="550" 
d="M216 438c0 -17.333 5.66699 -31.833 17 -43.5s25.333 -17.5 42 -17.5s30.834 5.83301 42.501 17.5s17.5 26.167 17.5 43.5c0 16.667 -5.83301 31 -17.5 43s-25.834 18 -42.501 18s-30.667 -5.83301 -42 -17.5s-17 -26.167 -17 -43.5zM216 48
c0 -16.667 5.66699 -31 17 -43s25.333 -18 42 -18s30.834 6 42.501 18s17.5 26.333 17.5 43s-5.83301 31 -17.5 43s-25.834 18 -42.501 18s-30.667 -5.83301 -42 -17.5s-17 -26.167 -17 -43.5zM507 214v58h-464v-58h464z" />
    <glyph glyph-name="oslash" unicode="&#xf8;" horiz-adv-x="444" 
d="M136 66c-7.33301 16.667 -11.833 35.168 -13.5 55.501s-2.5 45.5 -2.5 75.5c0 28.667 0.833008 52.667 2.5 72s5.66699 38.166 12 56.499s16.5 33 30.5 44s33 16.5 57 16.5c28 0 49.667 -8.33301 65 -25zM309 327.001c6.66699 -16 10.834 -34.166 12.501 -54.499
s2.5 -45.5 2.5 -75.5c0 -28.667 -0.833008 -52.834 -2.5 -72.501s-5.5 -38.5 -11.5 -56.5s-16.167 -32.667 -30.5 -44s-33.5 -17 -57.5 -17c-26.667 0 -48.334 8.33301 -65.001 25zM87 -101.998l56.001 108.002c25.333 -12.667 51.666 -19 78.999 -19
c26 0 50.667 5.16699 74 15.5s44 25.166 62 44.499s32 41.833 42 67.5s15 53.167 15 82.5c0 36.667 -7.5 70 -22.5 100s-35.5 54.667 -61.5 74l64 125h-38l-56 -107c-26 11.333 -52.333 17 -79 17c-26 0 -50.667 -5.16699 -74 -15.5s-44 -25 -62 -44s-32 -41.333 -42 -67
s-15 -53.167 -15 -82.5c0 -36.667 7.66699 -70.334 23 -101.001s36 -54.667 62 -72l-65 -126h38z" />
    <glyph glyph-name="ugrave" unicode="&#xf9;" 
d="M324 438l-149 145l-4 4c-6 6.66699 -11.167 11.5 -15.5 14.5s-9.5 4.5 -15.5 4.5c-10 0 -18.333 -3.16699 -25 -9.5s-10 -14.5 -10 -24.5c0 -9.33301 3.83301 -17.5 11.5 -24.5s20.167 -15.833 37.5 -26.5l2 -2l133 -81h35zM470 23l-57.0029 -0.000976562v383
c-26.667 -6.66699 -64 -10 -112 -10h-23v-23h57v-224c0 -36.667 -11.5 -67.667 -34.5 -93s-51.833 -38 -86.5 -38c-18 0 -32.667 5.33301 -44 16s-17 30 -17 58v314c-26.667 -6.66699 -64 -10 -112 -10h-20v-23h54v-290c0 -13.333 1.66699 -25.5 5 -36.5
s9.33301 -21.167 18 -30.5s20.834 -16.666 36.501 -21.999s35.167 -8 58.5 -8c32.667 0 61.834 7.83301 87.501 23.5s44.834 37.167 57.501 64.5h2v-81c42 4.66699 78.333 7 109 7h21v23z" />
    <glyph glyph-name="uacute" unicode="&#xfa;" 
d="M176 438h34.999l133 81l2 2c17.333 10.667 29.833 19.5 37.5 26.5s11.5 15.167 11.5 24.5c0 10 -3.33301 18.167 -10 24.5s-15 9.5 -25 9.5c-5.33301 0 -10.166 -1.5 -14.499 -4.5s-9.83301 -7.83301 -16.5 -14.5l-4 -4zM469.999 23l-57.0029 -0.000976562v383
c-26.667 -6.66699 -64 -10 -112 -10h-23v-23h57v-224c0 -36.667 -11.5 -67.667 -34.5 -93s-51.833 -38 -86.5 -38c-18 0 -32.667 5.33301 -44 16s-17 30 -17 58v314c-26.667 -6.66699 -64 -10 -112 -10h-20v-23h54v-290c0 -13.333 1.66699 -25.5 5 -36.5
s9.33301 -21.167 18 -30.5s20.834 -16.666 36.501 -21.999s35.167 -8 58.5 -8c32.667 0 61.834 7.83301 87.501 23.5s44.834 37.167 57.501 64.5h2v-81c42 4.66699 78.333 7 109 7h21v23z" />
    <glyph glyph-name="ucircumflex" unicode="&#xfb;" 
d="M223 604l-123 -166h34l117 105l117 -105h32l-121 166h-56zM470 23l-57.0029 -0.000976562v383c-26.667 -6.66699 -64 -10 -112 -10h-23v-23h57v-224c0 -36.667 -11.5 -67.667 -34.5 -93s-51.833 -38 -86.5 -38c-18 0 -32.667 5.33301 -44 16s-17 30 -17 58v314
c-26.667 -6.66699 -64 -10 -112 -10h-20v-23h54v-290c0 -13.333 1.66699 -25.5 5 -36.5s9.33301 -21.167 18 -30.5s20.834 -16.666 36.501 -21.999s35.167 -8 58.5 -8c32.667 0 61.834 7.83301 87.501 23.5s44.834 37.167 57.501 64.5h2v-81c42 4.66699 78.333 7 109 7h21
v23z" />
    <glyph glyph-name="udieresis" unicode="&#xfc;" 
d="M152 456c12.667 0 23.667 4.49805 33 13.498s14 19.833 14 32.5s-4.66699 23.834 -14 33.501s-20.333 14.5 -33 14.5c-13.333 0 -24.333 -4.66699 -33 -14s-13 -20.666 -13 -33.999s4.33301 -24.333 13 -33s19.667 -13 33 -13zM347 455.998
c12.667 0 23.667 4.49805 33 13.498s14 19.833 14 32.5s-4.66699 23.834 -14 33.501s-20.333 14.5 -33 14.5c-13.333 0 -24.333 -4.66699 -33 -14s-13 -20.666 -13 -33.999s4.33301 -24.333 13 -33s19.667 -13 33 -13zM470 22.9961l-57.0029 -0.000976562v383
c-26.667 -6.66699 -64 -10 -112 -10h-23v-23h57v-224c0 -36.667 -11.5 -67.667 -34.5 -93s-51.833 -38 -86.5 -38c-18 0 -32.667 5.33301 -44 16s-17 30 -17 58v314c-26.667 -6.66699 -64 -10 -112 -10h-20v-23h54v-290c0 -13.333 1.66699 -25.5 5 -36.5
s9.33301 -21.167 18 -30.5s20.834 -16.666 36.501 -21.999s35.167 -8 58.5 -8c32.667 0 61.834 7.83301 87.501 23.5s44.834 37.167 57.501 64.5h2v-81c42 4.66699 78.333 7 109 7h21v23z" />
    <glyph glyph-name="yacute" unicode="&#xfd;" horiz-adv-x="444" 
d="M178 438h34.999l133 81l2 2c17.333 10.667 29.833 19.5 37.5 26.5s11.5 15.167 11.5 24.5c0 10 -3.33301 18.167 -10 24.5s-15 9.5 -25 9.5c-5.33301 0 -10.166 -1.5 -14.499 -4.5s-9.83301 -7.83301 -16.5 -14.5l-4 -4zM423.999 373l0.00195312 23h-142v-23h64l-95 -269
l-111 269h64v23h-192v-23h47l153 -373c-9.33301 -29.333 -16.833 -51.333 -22.5 -66s-11.834 -29.667 -18.501 -45l-2 -5c-8 -21.333 -14.667 -36.833 -20 -46.5s-11.333 -14.5 -18 -14.5c-2.66699 0 -6 3.33301 -10 10c-4.66699 8 -10 14.5 -16 19.5s-14.667 7.5 -26 7.5
s-21 -3.83301 -29 -11.5s-12 -18.167 -12 -31.5c0 -11.333 5.16699 -21.5 15.5 -30.5s21.166 -13.5 32.499 -13.5c29.333 0 53 12.667 71 38s37 66 57 122l160 440h50z" />
    <glyph glyph-name="thorn" unicode="&#xfe;" 
d="M81 -203h-58.999v-23h205v23h-68v257h2c26 -44.667 64.667 -67 116 -67c30 0 56.833 5.66699 80.5 17s43.667 26.666 60 45.999s28.666 41 36.999 65s12.5 48.333 12.5 73c0 38 -5.83301 70.833 -17.5 98.5s-27 50.334 -46 68.001s-39.667 30.667 -62 39
s-44.833 12.5 -67.5 12.5s-44.667 -7 -66 -21s-37 -30.333 -47 -49h-2v362c-30.667 -6 -68 -9 -112 -9h-23v-23h57v-869zM163.001 270c3.33301 22.667 9.83203 41.499 19.499 56.499s20.334 26.667 32.001 35s22.667 14 33 17s18.833 4.5 25.5 4.5
c37.333 0 63.833 -14.167 79.5 -42.5s23.5 -78.166 23.5 -149.499c0 -43.333 -3 -77.833 -9 -103.5s-13.833 -44.167 -23.5 -55.5s-20.167 -18.333 -31.5 -21s-25.333 -4 -42 -4c-15.333 0 -32.333 5.66699 -51 17s-32 25 -40 41c-8 15.333 -13.333 30 -16 44s-4 37 -4 69
c0 26.667 0.333008 46 1 58s1.66699 23.333 3 34z" />
    <glyph glyph-name="ydieresis" unicode="&#xff;" horiz-adv-x="444" 
d="M144 456c12.667 0 23.667 4.49805 33 13.498s14 19.833 14 32.5s-4.66699 23.834 -14 33.501s-20.333 14.5 -33 14.5c-13.333 0 -24.333 -4.66699 -33 -14s-13 -20.666 -13 -33.999s4.33301 -24.333 13 -33s19.667 -13 33 -13zM339 455.998
c12.667 0 23.667 4.49805 33 13.498s14 19.833 14 32.5s-4.66699 23.834 -14 33.501s-20.333 14.5 -33 14.5c-13.333 0 -24.333 -4.66699 -33 -14s-13 -20.666 -13 -33.999s4.33301 -24.333 13 -33s19.667 -13 33 -13zM424 372.996l0.00195312 23h-142v-23h64l-95 -269
l-111 269h64v23h-192v-23h47l153 -373c-9.33301 -29.333 -16.833 -51.333 -22.5 -66s-11.834 -29.667 -18.501 -45l-2 -5c-8 -21.333 -14.667 -36.833 -20 -46.5s-11.333 -14.5 -18 -14.5c-2.66699 0 -6 3.33301 -10 10c-4.66699 8 -10 14.5 -16 19.5s-14.667 7.5 -26 7.5
s-21 -3.83301 -29 -11.5s-12 -18.167 -12 -31.5c0 -11.333 5.16699 -21.5 15.5 -30.5s21.166 -13.5 32.499 -13.5c29.333 0 53 12.667 71 38s37 66 57 122l160 440h50z" />
    <glyph glyph-name="OE" unicode="&#x152;" horiz-adv-x="944" 
d="M872 505l-0.00390625 163.001h-556c-28 0 -57.5 -6.33301 -88.5 -19s-60.333 -32.667 -88 -60s-50.167 -63 -67.5 -107s-26 -95.667 -26 -155c0 -46 6.5 -89 19.5 -129s31.333 -74.833 55 -104.5s51.334 -52.667 83.001 -69s65.834 -24.5 102.501 -24.5h577l14 187h-27
c-6.66699 -37.333 -14.667 -66.833 -24 -88.5s-21.5 -37.834 -36.5 -48.501s-33.167 -17.834 -54.5 -21.501s-50.333 -5.5 -87 -5.5h-120v309c26.667 0 48.5 -1.5 65.5 -4.5s31.333 -8.5 43 -16.5s20.5 -20 26.5 -36s10 -37.333 12 -64h22v253h-22
c-3.33301 -26.667 -8.33301 -47.167 -15 -61.5s-15.167 -24.666 -25.5 -30.999s-23 -10.333 -38 -12s-37.833 -2.5 -68.5 -2.5v288h129c24.667 0 45.834 -1.5 63.501 -4.5s33.834 -9.16699 48.501 -18.5s27.167 -23.5 37.5 -42.5s17.5 -43.833 21.5 -74.5h24z
M452.996 228.001c0 -33.333 -1.83105 -62.167 -5.49805 -86.5s-10.334 -45.333 -20.001 -63s-23.834 -31.334 -42.501 -41.001s-42.334 -14.5 -71.001 -14.5c-34 0 -61.333 6.66699 -82 20s-36.167 33.666 -46.5 60.999s-17.166 60.833 -20.499 100.5s-5 90.834 -5 153.501
c0 40 1.5 74.667 4.5 104s6.66699 52.5 11 69.5s8.33301 29.833 12 38.5s6.83398 14.667 9.50098 18c11.333 18.667 28.166 32.834 50.499 42.501s44.5 14.5 66.5 14.5c29.333 0 53.166 -4.66699 71.499 -14s32.333 -23 42 -41s16.334 -39.167 20.001 -63.5
s5.5 -53.833 5.5 -88.5v-210z" />
    <glyph glyph-name="oe" unicode="&#x153;" horiz-adv-x="722" 
d="M662 124c-6.66699 -32 -24.3301 -59.667 -52.9971 -83c-12.667 -10.667 -26.5 -19 -41.5 -25s-29.5 -9 -43.5 -9c-26 0 -47.167 4.5 -63.5 13.5s-28.833 21.667 -37.5 38s-14.334 34.833 -17.001 55.5s-4 45 -4 73v41h283c-0.666992 54 -17.834 97.167 -51.501 129.5
s-76.5 48.5 -128.5 48.5c-26 -0.666992 -49.5 -6.5 -70.5 -17.5s-43.833 -27.5 -68.5 -49.5c-19.333 20 -41 36 -65 48s-49.667 18.333 -77 19c-26 0 -50.667 -5.16699 -74 -15.5s-44 -25 -62 -44s-32 -41.333 -42 -67s-15 -53.167 -15 -82.5s5 -57 15 -83
s24 -48.5 42 -67.5s38.667 -33.667 62 -44s48 -15.5 74 -15.5c26.667 0 52.667 5.5 78 16.5s46.666 27.167 63.999 48.5c17.333 -20.667 39 -36.667 65 -48s51.667 -17 77 -17c45.333 0 83.5 11.5 114.5 34.5s51.5 57.167 61.5 102.5h-22zM224.004 386
c24 0 43 -5.5 57 -16.5s24.167 -25.667 30.5 -44s10.333 -37.166 12 -56.499s2.5 -43.333 2.5 -72s-0.833008 -52.834 -2.5 -72.501s-5.5 -38.5 -11.5 -56.5s-16.167 -32.667 -30.5 -44s-33.5 -17 -57.5 -17s-43 5.66699 -57 17s-24.167 26 -30.5 44
s-10.333 36.833 -12 56.5s-2.5 43.834 -2.5 72.501s0.833008 52.667 2.5 72s5.66699 38.166 12 56.499s16.5 33 30.5 44s33 16.5 57 16.5zM403.004 257c1.33301 27.333 4.66699 49.334 10 66.001c0.666992 3.33301 3.16699 8.33301 7.5 15s10 13.667 17 21
s16 13.666 27 18.999s23.5 8 37.5 8c27.333 0 49.5 -7.33301 66.5 -22s25.5 -39 25.5 -73v-34h-191z" />
    <glyph glyph-name="Scaron" unicode="&#x160;" 
d="M277 700l123 166h-34l-117 -105l-117 105h-32l121 -166h56zM96 41c19.333 -19.333 42.165 -33.499 68.498 -42.499s54.5 -13.5 84.5 -13.5c66 0 118.667 20 158 60s59 94 59 162c0 36 -6.33301 66.5 -19 91.5s-29.5 45 -50.5 60s-43.167 26.833 -66.5 35.5
s-52.666 18 -87.999 28c-26.667 7.33301 -48.167 13.833 -64.5 19.5s-31.5 12.667 -45.5 21s-25 18.666 -33 30.999s-12 27.166 -12 44.499c0 36 14.667 65.333 44 88s62 34 98 34c42.667 0 78.834 -13.667 108.501 -41s50.167 -63 61.5 -107h20v156h-14l-38 -29
c-5.33301 4 -13 8.5 -23 13.5s-21.333 9.83301 -34 14.5s-25.5 8.5 -38.5 11.5s-24.833 4.5 -35.5 4.5c-35.333 0 -65.833 -6.5 -91.5 -19.5s-46.834 -30.167 -63.501 -51.5c-14.667 -18.667 -25.167 -37.167 -31.5 -55.5s-9.5 -37.833 -9.5 -58.5
c0 -30 6.66699 -58.667 20 -86s33.666 -49.666 60.999 -66.999c4.66699 -2.66699 19.5 -8.66699 44.5 -18s56.5 -20.333 94.5 -33l42 -14.5c14.667 -5 23.334 -8.16699 26.001 -9.5c37.333 -14.667 61.833 -30.167 73.5 -46.5s17.5 -39.833 17.5 -70.5
c0 -21.333 -4.5 -40.833 -13.5 -58.5s-21.5 -33 -37.5 -46s-34.167 -23 -54.5 -30s-41.166 -10.5 -62.499 -10.5c-46.667 0 -87 15 -121 45s-58 68.667 -72 116h-19v-172h14z" />
    <glyph glyph-name="scaron" unicode="&#x161;" horiz-adv-x="389" 
d="M222 438l123 166h-34l-117 -105l-117 105h-32l121 -166h56zM289 396l-18 -26.998c-30.667 24.667 -61.667 37 -93 37c-26 0 -47.833 -4.16699 -65.5 -12.5s-31.5 -18.833 -41.5 -31.5s-17.167 -26 -21.5 -40s-6.5 -27 -6.5 -39c0 -20 2.83301 -36.333 8.5 -49
s13.667 -22.667 24 -30s21.5 -13 33.5 -17s28 -8.33301 48 -13l10 -3c48 -12 83 -23.5 105 -34.5s33 -25.5 33 -43.5c0 -24.667 -10.167 -45.167 -30.5 -61.5s-42.5 -24.5 -66.5 -24.5c-36 0 -66.167 11.5 -90.5 34.5s-41.5 53.167 -51.5 90.5h-23v-132h22l22 36
c14 -15.333 31.333 -27.333 52 -36s41.667 -13 63 -13c40.667 0 74.834 12.333 102.501 37s41.5 58 41.5 100c0 32 -7.83301 57 -23.5 75s-42.5 31 -80.5 39c-36.667 7.33301 -66 14.166 -88 20.499s-38.333 12.166 -49 17.499s-17.334 10.666 -20.001 15.999
s-4 12.333 -4 21c0 4.66699 1.33301 10.834 4 18.501s7.16699 15.667 13.5 24s16 15.5 29 21.5s28.833 9 47.5 9c28.667 -1.33301 52 -11 70 -29s31 -42.333 39 -73h22v112h-17z" />
    <glyph glyph-name="Ydieresis" unicode="&#x178;" horiz-adv-x="667" 
d="M251 718c12.667 0 23.667 4.49805 33 13.498s14 19.833 14 32.5s-4.66699 23.834 -14 33.501s-20.333 14.5 -33 14.5c-13.333 0 -24.333 -4.66699 -33 -14s-13 -20.666 -13 -33.999s4.33301 -24.333 13 -33s19.667 -13 33 -13zM446 717.998
c12.667 0 23.667 4.49805 33 13.498s14 19.833 14 32.5s-4.66699 23.834 -14 33.501s-20.333 14.5 -33 14.5c-13.333 0 -24.333 -4.66699 -33 -14s-13 -20.666 -13 -33.999s4.33301 -24.333 13 -33s19.667 -13 33 -13zM372 344.996l-169 300h88v23h-270v-23h74l193 -335
v-287h-88v-23h274v23h-89v287l174 335h80v23h-206v-23h99z" />
    <glyph glyph-name="florin" unicode="&#x192;" 
d="M400 376l0.00292969 23.998h-115v103c0 13.333 0.666992 28.5 2 45.5s4.66602 35.333 9.99902 55s13.833 36.334 25.5 50.001s27.167 20.5 46.5 20.5c7.33301 0 15 -1.66699 23 -5l-1 -15c-1.33301 -13.333 -2 -23.333 -2 -30c0.666992 -10 4 -18.333 10 -25
s14 -10 24 -10c10.667 0 19.667 4.66699 27 14s11 17 11 23c0 46 -31 69 -93 69c-16 0 -32.667 -4.83301 -50 -14.5s-34 -25.834 -50 -48.501s-29.333 -53.167 -40 -91.5s-17 -85.166 -19 -140.499h-109v-24h108l-4 -240l-3 -163c-1.33301 -57.333 -8.5 -99.333 -21.5 -126
s-31.5 -40 -55.5 -40c-6 0 -11.167 0.833008 -15.5 2.5s-6.5 5.16699 -6.5 10.5c0 2 0.666992 6 2 12c1.33301 8.66699 2 15 2 19c0 12.667 -3.33301 22.834 -10 30.501s-16 11.5 -28 11.5c-10.667 0 -19.667 -4.5 -27 -13.5s-11 -18.833 -11 -29.5
c0 -20 7.16699 -35.667 21.5 -47s30.833 -17 49.5 -17c55.333 0 95.666 19.667 120.999 59s42.333 98 51 176c5.33301 44.667 8.66602 92 9.99902 142s2 121 2 213h115z" />
    <glyph glyph-name="circumflex" unicode="&#x2c6;" horiz-adv-x="278" 
d="M112 604l-123 -166h34l117 105l117 -105h32l-121 166h-56z" />
    <glyph glyph-name="tilde" unicode="&#x2dc;" horiz-adv-x="278" 
d="M274 564c-7.33301 -16.667 -14.999 -29.168 -22.999 -37.501s-19.667 -12.5 -35 -12.5c-14 0 -35.667 7.66699 -65 23l-3 1c-14 7.33301 -25.833 12.833 -35.5 16.5s-19.167 5.5 -28.5 5.5c-28 0 -51.333 -9.16699 -70 -27.5s-30.667 -41.833 -36 -70.5h27
c2.66699 12.667 9 23.5 19 32.5s21.667 13.5 35 13.5c12.667 0 31.667 -6.33301 57 -19l7 -4c28 -15.333 52.667 -23 74 -23c27.333 0 50.166 9.83301 68.499 29.5s30.833 43.834 37.5 72.501h-29z" />
    <glyph glyph-name="endash" unicode="&#x2013;" 
d="M500 191v51h-500v-51h500z" />
    <glyph glyph-name="emdash" unicode="&#x2014;" horiz-adv-x="1000" 
d="M1000 191v51h-1000v-51h1000z" />
    <glyph glyph-name="quoteleft" unicode="&#x2018;" horiz-adv-x="222" 
d="M158 667c-32 -21.333 -59.334 -46.334 -82.001 -75.001s-34 -58.667 -34 -90s7.83301 -55.333 23.5 -72s35.834 -25 60.501 -25c17.333 0 32.666 5.83301 45.999 17.5s20 25.834 20 42.501c0 37.333 -18 56 -54 56c-12 0 -21.167 -2 -27.5 -6s-11.833 -9.33301 -16.5 -16
c-3.33301 -4.66699 -6 -7 -8 -7c-3.33301 0 -6.16602 1.66699 -8.49902 5s-3.5 11 -3.5 23c0 19.333 7 39 21 59s37.667 43.667 71 71z" />
    <glyph glyph-name="quoteright" unicode="&#x2019;" horiz-adv-x="222" 
d="M64 405c32 21.333 59.334 46.334 82.001 75.001s34 58.667 34 90s-7.66699 55.333 -23 72s-35.666 25 -60.999 25c-17.333 0 -32.666 -5.83301 -45.999 -17.5s-20 -25.834 -20 -42.501c0 -37.333 18 -56 54 -56c12 0 21.167 2 27.5 6s12.166 9.33301 17.499 16
c3.33301 4.66699 5.66602 7 6.99902 7c3.33301 0 6.16602 -1.66699 8.49902 -5s3.5 -11 3.5 -23c0 -19.333 -7 -39 -21 -59s-37.667 -43.667 -71 -71z" />
    <glyph glyph-name="quotesinglbase" unicode="&#x201a;" horiz-adv-x="222" 
d="M64 -161c32 21.333 59.334 46.334 82.001 75.001s34 58.667 34 90s-7.66699 55.333 -23 72s-35.666 25 -60.999 25c-17.333 0 -32.666 -5.83301 -45.999 -17.5s-20 -25.834 -20 -42.501c0 -37.333 18 -56 54 -56c12 0 21.167 2 27.5 6s12.166 9.33301 17.499 16
c3.33301 4.66699 5.66602 7 6.99902 7c3.33301 0 6.16602 -1.66699 8.49902 -5s3.5 -11 3.5 -23c0 -19.333 -7 -39 -21 -59s-37.667 -43.667 -71 -71z" />
    <glyph glyph-name="quotedblleft" unicode="&#x201c;" horiz-adv-x="444" 
d="M380 667c-32 -21.333 -59.334 -46.334 -82.001 -75.001s-34 -58.667 -34 -90s7.83301 -55.333 23.5 -72s35.834 -25 60.501 -25c17.333 0 32.666 5.83301 45.999 17.5s20 25.834 20 42.501c0 37.333 -18 56 -54 56c-12 0 -21.167 -2 -27.5 -6s-11.833 -9.33301 -16.5 -16
c-3.33301 -4.66699 -6 -7 -8 -7c-3.33301 0 -6.16602 1.66699 -8.49902 5s-3.5 11 -3.5 23c0 19.333 7 39 21 59s37.667 43.667 71 71zM157.999 666.999c-32 -21.333 -59.334 -46.334 -82.001 -75.001s-34 -58.667 -34 -90s7.83301 -55.333 23.5 -72s35.834 -25 60.501 -25
c17.333 0 32.666 5.83301 45.999 17.5s20 25.834 20 42.501c0 37.333 -18 56 -54 56c-12 0 -21.167 -2 -27.5 -6s-11.833 -9.33301 -16.5 -16c-3.33301 -4.66699 -6 -7 -8 -7c-3.33301 0 -6.16602 1.66699 -8.49902 5s-3.5 11 -3.5 23c0 19.333 7 39 21 59
s37.667 43.667 71 71z" />
    <glyph glyph-name="quotedblright" unicode="&#x201d;" horiz-adv-x="444" 
d="M64 405c32 21.333 59.334 46.334 82.001 75.001s34 58.667 34 90s-7.66699 55.333 -23 72s-35.666 25 -60.999 25c-17.333 0 -32.666 -5.83301 -45.999 -17.5s-20 -25.834 -20 -42.501c0 -37.333 18 -56 54 -56c12 0 21.167 2 27.5 6s12.166 9.33301 17.499 16
c3.33301 4.66699 5.66602 7 6.99902 7c3.33301 0 6.16602 -1.66699 8.49902 -5s3.5 -11 3.5 -23c0 -19.333 -7 -39 -21 -59s-37.667 -43.667 -71 -71zM286.001 405.001c32 21.333 59.334 46.334 82.001 75.001s34 58.667 34 90s-7.66699 55.333 -23 72
s-35.666 25 -60.999 25c-17.333 0 -32.666 -5.83301 -45.999 -17.5s-20 -25.834 -20 -42.501c0 -37.333 18 -56 54 -56c12 0 21.167 2 27.5 6s12.166 9.33301 17.499 16c3.33301 4.66699 5.66602 7 6.99902 7c3.33301 0 6.16602 -1.66699 8.49902 -5s3.5 -11 3.5 -23
c0 -19.333 -7 -39 -21 -59s-37.667 -43.667 -71 -71z" />
    <glyph glyph-name="quotedblbase" unicode="&#x201e;" horiz-adv-x="444" 
d="M64 -161c32 21.333 59.334 46.334 82.001 75.001s34 58.667 34 90s-7.66699 55.333 -23 72s-35.666 25 -60.999 25c-17.333 0 -32.666 -5.83301 -45.999 -17.5s-20 -25.834 -20 -42.501c0 -37.333 18 -56 54 -56c12 0 21.167 2 27.5 6s12.166 9.33301 17.499 16
c3.33301 4.66699 5.66602 7 6.99902 7c3.33301 0 6.16602 -1.66699 8.49902 -5s3.5 -11 3.5 -23c0 -19.333 -7 -39 -21 -59s-37.667 -43.667 -71 -71zM286.001 -160.999c32 21.333 59.334 46.334 82.001 75.001s34 58.667 34 90s-7.66699 55.333 -23 72
s-35.666 25 -60.999 25c-17.333 0 -32.666 -5.83301 -45.999 -17.5s-20 -25.834 -20 -42.501c0 -37.333 18 -56 54 -56c12 0 21.167 2 27.5 6s12.166 9.33301 17.499 16c3.33301 4.66699 5.66602 7 6.99902 7c3.33301 0 6.16602 -1.66699 8.49902 -5s3.5 -11 3.5 -23
c0 -19.333 -7 -39 -21 -59s-37.667 -43.667 -71 -71z" />
    <glyph glyph-name="dagger" unicode="&#x2020;" 
d="M260 -159c0 96.667 2.33496 175.334 7.00195 236.001s16.667 116.334 36 167.001c-16.667 22 -27.834 48.167 -33.501 78.5s-8.5 65.166 -8.5 104.499c20 0 36.5 -1.66699 49.5 -5s26.5 -8.33301 40.5 -15c10.667 -4.66699 19.5 -8.16699 26.5 -10.5
s15.167 -3.5 24.5 -3.5c7.33301 0 16 3.33301 26 10s15 18 15 34s-5 27.333 -15 34s-18.667 10 -26 10c-9.33301 0 -17.333 -1 -24 -3s-15.667 -5.66699 -27 -11c-14.667 -6.66699 -28.334 -11.667 -41.001 -15s-29 -5 -49 -5c0 33.333 2.33301 59.5 7 78.5
s11 37.167 19 54.5c6.66699 14 10 25 10 33c0 18.667 -4.66699 32.5 -14 41.5s-20.333 13.5 -33 13.5s-23.667 -4.5 -33 -13.5s-14 -22.833 -14 -41.5c0 -8 3.33301 -19 10 -33c8 -17.333 14.333 -35.5 19 -54.5s7 -45.167 7 -78.5c-20 0 -36.5 1.83301 -49.5 5.5
s-26.5 8.5 -40.5 14.5c-10.667 4.66699 -19.5 8.16699 -26.5 10.5s-15.167 3.5 -24.5 3.5c-7.33301 0 -16 -3.33301 -26 -10s-15 -18 -15 -34s5 -27.333 15 -34s18.667 -10 26 -10c9.33301 0 17.5 1 24.5 3s15.833 5.66699 26.5 11c14.667 6.66699 28.334 11.667 41.001 15
s29 5 49 5c0 -39.333 -2.83301 -74.166 -8.5 -104.499s-16.834 -56.5 -33.501 -78.5c19.333 -50.667 31.333 -106.334 36 -167.001s7 -139.334 7 -236.001h20z" />
    <glyph glyph-name="daggerdbl" unicode="&#x2021;" 
d="M197 251c16.667 -18.667 27.834 -42.834 33.501 -72.501s8.5 -64.167 8.5 -103.5c-20 0 -36.5 1.83301 -49.5 5.5s-26.5 8.5 -40.5 14.5c-10.667 4.66699 -19.5 8.16699 -26.5 10.5s-15.167 3.5 -24.5 3.5c-7.33301 0 -16 -3.33301 -26 -10s-15 -18 -15 -34
s5 -27.333 15 -34s18.667 -10 26 -10c9.33301 0 17.5 1 24.5 3s15.833 5.66699 26.5 11c14.667 6.66699 28.334 11.667 41.001 15s29 5 49 5c0 -33.333 -2.33301 -59.5 -7 -78.5s-11 -37.167 -19 -54.5c-6.66699 -14 -10 -25 -10 -33c0 -18.667 4.66699 -32.334 14 -41.001
s20.333 -13 33 -13s23.667 4.33301 33 13s14 22.334 14 41.001c0 8 -3.33301 19 -10 33c-8 17.333 -14.333 35.5 -19 54.5s-7 45.167 -7 78.5c20 0 36.5 -1.66699 49.5 -5s26.5 -8.33301 40.5 -15c10.667 -4.66699 19.5 -8.16699 26.5 -10.5s15.167 -3.5 24.5 -3.5
c7.33301 0 16 3.33301 26 10s15 18 15 34s-5 27.333 -15 34s-18.667 10 -26 10c-9.33301 0 -17.333 -1 -24 -3s-15.667 -5.66699 -27 -11c-14.667 -6.66699 -28.334 -11.667 -41.001 -15s-29 -5 -49 -5c0 39.333 2.83301 73.833 8.5 103.5s16.834 53.834 33.501 72.501
c-16.667 18.667 -27.834 42.834 -33.501 72.501s-8.5 64.167 -8.5 103.5c20 0 36.5 -1.66699 49.5 -5s26.5 -8.33301 40.5 -15c10.667 -4.66699 19.5 -8.16699 26.5 -10.5s15.167 -3.5 24.5 -3.5c7.33301 0 16 3.33301 26 10s15 18 15 34s-5 27.333 -15 34
s-18.667 10 -26 10c-9.33301 0 -17.333 -1 -24 -3s-15.667 -5.66699 -27 -11c-14.667 -6.66699 -28.334 -11.667 -41.001 -15s-29 -5 -49 -5c0 33.333 2.33301 59.5 7 78.5s11 37.167 19 54.5c6.66699 14 10 25 10 33c0 18.667 -4.66699 32.5 -14 41.5
s-20.333 13.5 -33 13.5s-23.667 -4.5 -33 -13.5s-14 -22.833 -14 -41.5c0 -8 3.33301 -19 10 -33c8 -17.333 14.333 -35.5 19 -54.5s7 -45.167 7 -78.5c-20 0 -36.5 1.83301 -49.5 5.5s-26.5 8.5 -40.5 14.5c-10.667 4.66699 -19.5 8.16699 -26.5 10.5
s-15.167 3.5 -24.5 3.5c-7.33301 0 -16 -3.33301 -26 -10s-15 -18 -15 -34s5 -27.333 15 -34s18.667 -10 26 -10c9.33301 0 17.5 1 24.5 3s15.833 5.66699 26.5 11c14.667 6.66699 28.334 11.667 41.001 15s29 5 49 5c0 -39.333 -2.83301 -73.833 -8.5 -103.5
s-16.834 -53.834 -33.501 -72.501z" />
    <glyph glyph-name="bullet" unicode="&#x2022;" 
d="M87 327c0 -22 4.16699 -43 12.5 -63s20 -37.5 35 -52.5s32.5 -26.667 52.5 -35s41 -12.5 63 -12.5s43 4.16699 63 12.5s37.5 20 52.5 35s26.667 32.5 35 52.5s12.5 41 12.5 63s-4.16699 43 -12.5 63s-20 37.5 -35 52.5s-32.5 26.667 -52.5 35s-41 12.5 -63 12.5
s-43 -4.16699 -63 -12.5s-37.5 -20 -52.5 -35s-26.667 -32.5 -35 -52.5s-12.5 -41 -12.5 -63z" />
    <glyph glyph-name="ellipsis" unicode="&#x2026;" horiz-adv-x="1000" 
d="M165 -11c16.667 0 31 5.33301 43 16s18 24.334 18 41.001c0 14.667 -6.33301 27.5 -19 38.5s-26.667 16.5 -42 16.5c-14.667 0 -27.834 -5.5 -39.501 -16.5s-17.5 -23.833 -17.5 -38.5c0 -16.667 5.33301 -30.334 16 -41.001s24.334 -16 41.001 -16zM498 -11
c16.667 0 31 5.33301 43 16s18 24.334 18 41.001c0 14.667 -6.33301 27.5 -19 38.5s-26.667 16.5 -42 16.5c-14.667 0 -27.834 -5.5 -39.501 -16.5s-17.5 -23.833 -17.5 -38.5c0 -16.667 5.33301 -30.334 16 -41.001s24.334 -16 41.001 -16zM831 -11
c16.667 0 31 5.33301 43 16s18 24.334 18 41.001c0 14.667 -6.33301 27.5 -19 38.5s-26.667 16.5 -42 16.5c-14.667 0 -27.834 -5.5 -39.501 -16.5s-17.5 -23.833 -17.5 -38.5c0 -16.667 5.33301 -30.334 16 -41.001s24.334 -16 41.001 -16z" />
    <glyph glyph-name="perthousand" unicode="&#x2030;" horiz-adv-x="1000" 
d="M505 672c-18.667 -26.667 -41.168 -47.1641 -67.501 -61.4971s-55.5 -21.5 -87.5 -21.5c-18.667 0 -32.334 3.33301 -41.001 10c-6 18 -17.667 32.333 -35 43s-36 16 -56 16c-24 0 -48.667 -7.66699 -74 -23s-48.5 -35.5 -69.5 -60.5s-37.667 -51.667 -50 -80
s-18.5 -54.833 -18.5 -79.5c0 -12 1.66699 -24.667 5 -38s9.33301 -26 18 -38s20.834 -21.833 36.501 -29.5s34.834 -11.5 57.501 -11.5c25.333 0 49.333 7.16699 72 21.5s42.667 33.666 60 57.999s31.333 50.666 42 78.999s17 56.166 19 83.499c0 8 -0.333008 15 -1 21v6
c13.333 -2.66699 28 -4 44 -4c14.667 0 29.5 2.33301 44.5 7s30.833 10.667 47.5 18l2 -2l-347 -613h51l392 699h-44zM228.999 623.003c6 -10 14.168 -18.6699 24.501 -26.0029s22.166 -13.666 35.499 -18.999c1.33301 -7.33301 2 -17 2 -29c0 -22.667 -4.5 -47 -13.5 -73
s-21 -50.333 -36 -73s-31.333 -41 -49 -55s-34.834 -21 -51.501 -21c-18 0 -31.833 4.33301 -41.5 13s-14.5 22.334 -14.5 41.001c0 23.333 7.33301 53.833 22 91.5s32.334 70.167 53.001 97.5l2 2c12 16.667 23 29.334 33 38.001s21.333 13 34 13zM544 349
c-25.333 0 -50.834 -7.66602 -76.501 -22.999s-49 -35.333 -70 -60s-37.667 -51.334 -50 -80.001s-18.5 -55.667 -18.5 -81c0 -37.333 10.167 -66.333 30.5 -87s48.5 -31 84.5 -31c27.333 0 53 8.33301 77 25s44.833 38 62.5 64s31.5 53.667 41.5 83s15 55.333 15 78
c0 33.333 -8.16699 60.333 -24.5 81s-40.166 31 -71.499 31zM555.999 315.001c21.333 0 36.498 -6.66699 45.498 -20s13.5 -31.333 13.5 -54c0 -24.667 -4.66699 -50.334 -14 -77.001s-21.666 -51.167 -36.999 -73.5s-32.166 -40.333 -50.499 -54s-35.5 -20.5 -51.5 -20.5
c-20 0 -34 5.83301 -42 17.5s-12 27.5 -12 47.5c0 9.33301 4.33301 27 13 53s20 52.833 34 80.5s29.833 51.334 47.5 71.001s35.5 29.5 53.5 29.5zM897.997 349.001c-25.333 0 -50.834 -7.66602 -76.501 -22.999s-49 -35.333 -70 -60s-37.667 -51.334 -50 -80.001
s-18.5 -55.667 -18.5 -81c0 -37.333 10.167 -66.333 30.5 -87s48.5 -31 84.5 -31c27.333 0 53 8.33301 77 25s44.833 38 62.5 64s31.5 53.667 41.5 83s15 55.333 15 78c0 33.333 -8.16699 60.333 -24.5 81s-40.166 31 -71.499 31zM909.996 315.002
c21.333 0 36.498 -6.66699 45.498 -20s13.5 -31.333 13.5 -54c0 -24.667 -4.66699 -50.334 -14 -77.001s-21.666 -51.167 -36.999 -73.5s-32.166 -40.333 -50.499 -54s-35.5 -20.5 -51.5 -20.5c-20 0 -34 5.83301 -42 17.5s-12 27.5 -12 47.5c0 9.33301 4.33301 27 13 53
s20 52.833 34 80.5s29.833 51.334 47.5 71.001s35.5 29.5 53.5 29.5z" />
    <glyph glyph-name="guilsinglleft" unicode="&#x2039;" horiz-adv-x="333" 
d="M153 216c10 10 20.6689 22.1689 32.002 36.502s22.666 29.666 33.999 45.999s20.166 30 26.499 41s9.5 17.5 9.5 19.5c0 1.33301 -0.5 3.16602 -1.5 5.49902s-2.5 3.5 -4.5 3.5c-4 0 -10.5 -4 -19.5 -12s-23.167 -21.667 -42.5 -41l-43 -41
c-12.667 -12 -25 -22.667 -37 -32c-6 -5.33301 -11.333 -9.66602 -16 -12.999c-8 -6 -12 -10.333 -12 -13s5 -8 15 -16c8 -6 12.333 -9.33301 13 -10c12 -9.33301 24.333 -20 37 -32l43 -41c18 -18 31.833 -31.333 41.5 -40s16.5 -13 20.5 -13c2 0 3.5 1.16699 4.5 3.5
s1.5 4.16602 1.5 5.49902c0 2 -3.33301 8.83301 -10 20.5s-15.167 25 -25.5 40s-21.5 30 -33.5 45s-23 27.5 -33 37.5z" />
    <glyph glyph-name="guilsinglright" unicode="&#x203a;" horiz-adv-x="333" 
d="M181 216c-10 -10 -20.6689 -22.168 -32.002 -36.501s-22.666 -29.666 -33.999 -45.999s-20.166 -30 -26.499 -41s-9.5 -17.5 -9.5 -19.5c0 -1.33301 0.666992 -3.16602 2 -5.49902s2.66602 -3.5 3.99902 -3.5c4 0 10.667 4 20 12s23.333 21.667 42 41l43 41
c12.667 12 25 22.667 37 32c6 5.33301 11.667 9.66602 17 12.999c7.33301 6 11 10.333 11 13c0 3.33301 -5 8.66602 -15 15.999c-8 6 -12.333 9.33301 -13 10c-12 9.33301 -24.333 20 -37 32l-43 41c-18 18 -31.833 31.333 -41.5 40s-16.5 13 -20.5 13
c-1.33301 0 -2.66602 -1.16699 -3.99902 -3.5s-2 -4.16602 -2 -5.49902c0 -2 3.33301 -8.83301 10 -20.5s15.167 -25 25.5 -40s21.5 -30 33.5 -45s23 -27.5 33 -37.5z" />
    <glyph glyph-name="trademark" unicode="&#x2122;" horiz-adv-x="990" 
d="M240 636h48.001c18.667 0 33.334 -6.16699 44.001 -18.5s18.667 -29.166 24 -50.499h19v88h-339v-88h19c5.33301 21.333 13.166 38.166 23.499 50.499s25.166 18.5 44.499 18.5h48v-307c0 -24.667 -2.16699 -39.5 -6.5 -44.5s-17.5 -8.83301 -39.5 -11.5h-1v-19h163v19
h-2c-22 2.66699 -35 6.5 -39 11.5s-6 19.833 -6 44.5v307zM668.001 251h8.99902l152 306h2v-228c0 -24.667 -2.16699 -39.5 -6.5 -44.5s-17.5 -8.83301 -39.5 -11.5h-1v-19h163v19h-1c-22 2.66699 -35.167 6.5 -39.5 11.5s-6.5 19.833 -6.5 44.5v250
c0 18.667 3.83301 32.667 11.5 42s21.834 14.333 42.501 15v19h-98l-159 -303l-154 303h-123v-19c14 0 27.5 -4.66699 40.5 -14s22.5 -21.333 28.5 -36v-249c0 -22 -3.5 -37.5 -10.5 -46.5s-21.167 -14.833 -42.5 -17.5v-19h130v19c-20.667 2.66699 -34.5 8.5 -41.5 17.5
s-10.5 24.5 -10.5 46.5v222h2z" />
    </font>
</defs>
</svg>
