<?xml version="1.0" standalone="no"?>
<!DOCTYPE svg PUBLIC "-//W3C//DTD SVG 1.1//EN" "http://www.w3.org/Graphics/SVG/1.1/DTD/svg11.dtd" >
<svg>
<metadata>
Created by FontForge 20090914 at Mon May  4 10:19:44 2015
 By www-data
Copyright (c) Mark Simonson, 2005. All rights reserved.
</metadata>
<defs>
<font id="ProximaNova-Extrabld" horiz-adv-x="402" >
  <font-face 
    font-family="Proxima Nova Th"
    font-weight="800"
    font-stretch="normal"
    units-per-em="1000"
    panose-1="2 0 5 6 3 0 0 2 0 4"
    ascent="790"
    descent="-210"
    x-height="483"
    cap-height="667"
    bbox="-172 -296.003 1180 911.001"
    underline-thickness="20"
    underline-position="-113"
    unicode-range="U+0020-U+FB04"
  />
<missing-glyph horiz-adv-x="471" 
d="M411 -90h-351v842h351v-842zM379 -60v782h-288v-782h288z" />
    <glyph glyph-name="f_f_j" unicode="ffj" horiz-adv-x="965" 
d="M243 0l-153.998 -0.000976562v350h-80v133h80v11c0 56.667 16 101.334 48 134.001s73.667 49 125 49c60 0 106 -15 138 -45l-56 -96c-12.667 11.333 -29.334 17 -50.001 17c-14.667 0 -26.834 -5 -36.501 -15s-14.5 -24.667 -14.5 -44v-11h98v-133h-98v-350z
M592.002 -0.000976562h-153.998v350h-80v133h80v11c0 58 16.333 103 49 135s74 48 124 48c44 0 78.333 -6.33301 103 -19l-30 -115c-8.66699 6.66699 -22.334 10 -41.001 10c-14.667 0 -26.834 -5 -36.501 -15s-14.5 -24.667 -14.5 -44v-11h98v-133h-98v-350z
M831.004 525.999c-24.667 0 -45.5 8.66699 -62.5 26s-25.5 38.333 -25.5 63s8.5 45.5 25.5 62.5s37.833 25.5 62.5 25.5s45.667 -8.5 63 -25.5s26 -37.833 26 -62.5s-8.66699 -45.667 -26 -63s-38.333 -26 -63 -26zM721.004 -196.001c-31.333 0 -55.333 2.5 -72 7.5
s-35 13.833 -55 26.5l39 112c17.333 -14.667 38 -22 62 -22c39.333 0 59 25.333 59 76v479h154v-479c0 -61.333 -15.667 -110 -47 -146s-78 -54 -140 -54z" />
    <glyph glyph-name="f_j" unicode="fj" horiz-adv-x="615" 
d="M243 0h-153.998v350h-80v133h80v11c0 58 16.333 103 49 135s74 48 124 48c44 0 78.333 -6.33301 103 -19l-30 -115c-8.66699 6.66699 -22.334 10 -41.001 10c-14.667 0 -26.834 -5 -36.501 -15s-14.5 -24.667 -14.5 -44v-11h98v-133h-98v-350zM482.002 526
c-24.667 0 -45.5 8.66699 -62.5 26s-25.5 38.333 -25.5 63s8.5 45.5 25.5 62.5s37.833 25.5 62.5 25.5s45.667 -8.5 63 -25.5s26 -37.833 26 -62.5s-8.66699 -45.667 -26 -63s-38.333 -26 -63 -26zM372.002 -196c-31.333 0 -55.333 2.5 -72 7.5s-35 13.833 -55 26.5l39 112
c17.333 -14.667 38 -22 62 -22c39.333 0 59 25.333 59 76v479h154v-479c0 -61.333 -15.667 -110 -47 -146s-78 -54 -140 -54z" />
    <glyph glyph-name="f_f" unicode="ff" horiz-adv-x="698" 
d="M243 0l-153.998 -0.000976562v350h-80v133h80v11c0 56.667 16 101.334 48 134.001s73.667 49 125 49c60 0 106 -15 138 -45l-56 -96c-12.667 11.333 -29.334 17 -50.001 17c-14.667 0 -26.834 -5 -36.501 -15s-14.5 -24.667 -14.5 -44v-11h98v-133h-98v-350z
M592.002 -0.000976562l-153.998 -0.000976562v350h-80v133h80v11c0 56.667 16 101.334 48 134.001s73.667 49 125 49c60 0 106 -15 138 -45l-56 -96c-12.667 11.333 -29.334 17 -50.001 17c-14.667 0 -26.834 -5 -36.501 -15s-14.5 -24.667 -14.5 -44v-11h98v-133h-98v-350z
" />
    <glyph glyph-name="fi" unicode="fi" horiz-adv-x="615" 
d="M243 0h-153.998v350h-80v133h80v11c0 58 16.333 103 49 135s74 48 124 48c44 0 78.333 -6.33301 103 -19l-30 -115c-8.66699 6.66699 -22.334 10 -41.001 10c-14.667 0 -26.834 -5 -36.501 -15s-14.5 -24.667 -14.5 -44v-11h98v-133h-98v-350zM482.002 526
c-24.667 0 -45.5 8.66699 -62.5 26s-25.5 38.333 -25.5 63s8.5 45.5 25.5 62.5s37.833 25.5 62.5 25.5s45.667 -8.5 63 -25.5s26 -37.833 26 -62.5s-8.66699 -45.667 -26 -63s-38.333 -26 -63 -26zM559.002 0h-154v483h154v-483z" />
    <glyph glyph-name="fl" unicode="fl" horiz-adv-x="615" 
d="M243 0h-153.998v350h-80v133h80v11c0 58 16.333 103 49 135s74 48 124 48c44 0 78.333 -6.33301 103 -19l-30 -115c-8.66699 6.66699 -22.334 10 -41.001 10c-14.667 0 -26.834 -5 -36.501 -15s-14.5 -24.667 -14.5 -44v-11h98v-133h-98v-350zM559.002 0h-154v667h154
v-667z" />
    <glyph glyph-name="f_f_i" unicode="ffi" horiz-adv-x="965" 
d="M243 0l-153.998 -0.000976562v350h-80v133h80v11c0 56.667 16 101.334 48 134.001s73.667 49 125 49c60 0 106 -15 138 -45l-56 -96c-12.667 11.333 -29.334 17 -50.001 17c-14.667 0 -26.834 -5 -36.501 -15s-14.5 -24.667 -14.5 -44v-11h98v-133h-98v-350z
M592.002 -0.000976562h-153.998v350h-80v133h80v11c0 58 16.333 103 49 135s74 48 124 48c44 0 78.333 -6.33301 103 -19l-30 -115c-8.66699 6.66699 -22.334 10 -41.001 10c-14.667 0 -26.834 -5 -36.501 -15s-14.5 -24.667 -14.5 -44v-11h98v-133h-98v-350z
M831.004 525.999c-24.667 0 -45.5 8.66699 -62.5 26s-25.5 38.333 -25.5 63s8.5 45.5 25.5 62.5s37.833 25.5 62.5 25.5s45.667 -8.5 63 -25.5s26 -37.833 26 -62.5s-8.66699 -45.667 -26 -63s-38.333 -26 -63 -26zM908.004 -0.000976562h-154v483h154v-483z" />
    <glyph glyph-name="f_f_l" unicode="ffl" horiz-adv-x="965" 
d="M243 0l-153.998 -0.000976562v350h-80v133h80v11c0 56.667 16 101.334 48 134.001s73.667 49 125 49c60 0 106 -15 138 -45l-56 -96c-12.667 11.333 -29.334 17 -50.001 17c-14.667 0 -26.834 -5 -36.501 -15s-14.5 -24.667 -14.5 -44v-11h98v-133h-98v-350z
M592.002 -0.000976562h-153.998v350h-80v133h80v11c0 58 16.333 103 49 135s74 48 124 48c44 0 78.333 -6.33301 103 -19l-30 -115c-8.66699 6.66699 -22.334 10 -41.001 10c-14.667 0 -26.834 -5 -36.501 -15s-14.5 -24.667 -14.5 -44v-11h98v-133h-98v-350z
M908.004 -0.000976562h-154v667h154v-667z" />
    <glyph glyph-name="f_b" unicode="fb" horiz-adv-x="940" 
d="M243 0h-153.998v350h-80v133h80v11c0 58 16.333 103 49 135s74 48 124 48c44 0 78.333 -6.33301 103 -19l-30 -115c-8.66699 6.66699 -22.334 10 -41.001 10c-14.667 0 -26.834 -5 -36.501 -15s-14.5 -24.667 -14.5 -44v-11h98v-133h-98v-350zM559.002 167
c9.33301 -12.667 22.833 -22.999 40.5 -30.999s34.834 -12 51.501 -12c31.333 0 57 10.667 77 32s30 50 30 86c0 35.333 -10 63.666 -30 84.999s-45.667 32 -77 32c-16.667 0 -33.834 -4.16699 -51.501 -12.5s-31.167 -18.833 -40.5 -31.5v-148zM559.002 0.000976562
h-154.001v667h154v-241c36.667 46 84.334 69 143.001 69c62 0 113 -22.833 153 -68.5s60 -107.167 60 -184.5c0 -79.333 -20 -141.5 -60 -186.5s-91 -67.5 -153 -67.5c-56 0 -103.667 22.667 -143 68v-56z" />
    <glyph glyph-name="f_h" unicode="fh" horiz-adv-x="943" 
d="M243 0h-153.998v350h-80v133h80v11c0 58 16.333 103 49 135s74 48 124 48c44 0 78.333 -6.33301 103 -19l-30 -115c-8.66699 6.66699 -22.334 10 -41.001 10c-14.667 0 -26.834 -5 -36.501 -15s-14.5 -24.667 -14.5 -44v-11h98v-133h-98v-350zM887.002 0h-154.001v281
c0 52 -26.667 78 -80 78c-36.667 0 -67.667 -15.667 -93 -47v-312h-154v667h154v-243c40.667 47.333 96.334 71 167.001 71c53.333 0 93.333 -13.5 120 -40.5s40 -63.833 40 -110.5v-344z" />
    <glyph glyph-name="f_k" unicode="fk" horiz-adv-x="895" 
d="M243 0h-153.998v350h-80v133h80v11c0 58 16.333 103 49 135s74 48 124 48c44 0 78.333 -6.33301 103 -19l-30 -115c-8.66699 6.66699 -22.334 10 -41.001 10c-14.667 0 -26.834 -5 -36.501 -15s-14.5 -24.667 -14.5 -44v-11h98v-133h-98v-350zM901.002 0h-190l-106 171
l-46 -55v-116h-154v667h154v-377l147 193h186l-178 -220z" />
    <glyph glyph-name=".notdef" horiz-adv-x="471" 
d="M411 -90h-351v842h351v-842zM379 -60v782h-288v-782h288z" />
    <glyph glyph-name="space" unicode=" " horiz-adv-x="256" 
 />
    <glyph glyph-name="exclam" unicode="!" horiz-adv-x="267" 
d="M203 233h-137l-24 434h184zM135 -11c-25.333 0 -47.333 9.33301 -66 28s-28 40.667 -28 66s9.33301 47.166 28 65.499s40.667 27.5 66 27.5s47.166 -9.16699 65.499 -27.5s27.5 -40.166 27.5 -65.499s-9.16699 -47.333 -27.5 -66s-40.166 -28 -65.499 -28z" />
    <glyph glyph-name="quotedbl" unicode="&#x22;" horiz-adv-x="438" 
d="M152 357h-65c-32 146 -48 226 -48 240c0 22 7.83301 40.833 23.5 56.5s34.5 23.5 56.5 23.5s41 -7.83301 57 -23.5s24 -34.5 24 -56.5c0 -6 -4 -29 -12 -69l-24 -116zM351 357h-64c-32 146 -48 226 -48 240c0 22 7.66699 40.833 23 56.5s34.333 23.5 57 23.5
c22 0 40.833 -7.83301 56.5 -23.5s23.5 -34.5 23.5 -56.5c0 -6 -4 -29 -12 -69l-24 -116z" />
    <glyph glyph-name="numbersign" unicode="#" horiz-adv-x="632" 
d="M358 0h-111l55 164h-87l-54 -164h-110l55 164h-92l31 95h93l49 148h-93l30 95h95l55 165h110l-55 -165h86l55 165h111l-56 -165h93l-29 -95h-95l-50 -148h96l-30 -95h-98zM333 259l50 148h-86l-49 -148h85z" />
    <glyph glyph-name="dollar" unicode="$" horiz-adv-x="625" 
d="M264 -100l0.00390625 91.0039c-97.333 9.33301 -177.333 43.666 -240 102.999l91 134c42 -42 91.667 -69 149 -81v111c-30 6.66699 -56.167 14.167 -78.5 22.5s-45 20.166 -68 35.499s-40.667 35.5 -53 60.5s-18.5 54.5 -18.5 88.5c0 52.667 19.333 98.667 58 138
s92 63 160 71v94h111v-95c80.667 -11.333 149.667 -41 207 -89l-94 -129c-32.667 26.667 -70.334 46 -113.001 58v-97c24 -5.33301 45.167 -11 63.5 -17s38.166 -14.5 59.499 -25.5s38.666 -23.333 51.999 -37s24.666 -31.334 33.999 -53.001s14 -45.834 14 -72.501
c0 -60.667 -19.333 -110.5 -58 -149.5s-93.667 -62.5 -165 -70.5v-91h-111zM423.004 193.004c0 16.667 -16 30 -48 40v-88c32 8.66699 48 24.667 48 48zM221.004 479.004c0 -16 14.333 -28.333 43 -37v80c-28.667 -4.66699 -43 -19 -43 -43z" />
    <glyph glyph-name="percent" unicode="%" horiz-adv-x="771" 
d="M196 343c-51.333 0 -93 15.833 -125 47.5s-48 71.167 -48 118.5c0 48 16 88 48 120s73.667 48 125 48c52.667 0 95.167 -16 127.5 -48s48.5 -72 48.5 -120c0 -47.333 -16.167 -86.833 -48.5 -118.5s-74.833 -47.5 -127.5 -47.5zM217 0h-87l426 667h88zM574 -12
c-52 0 -94 15.833 -126 47.5s-48 71.167 -48 118.5c0 48 16 88 48 120s74 48 126 48c51.333 0 93.166 -16 125.499 -48s48.5 -72 48.5 -120c0 -47.333 -16.167 -86.833 -48.5 -118.5s-74.166 -47.5 -125.499 -47.5zM196 435c20 0 36.5 6.5 49.5 19.5s19.5 31.167 19.5 54.5
c0 24 -6.5 42.667 -19.5 56s-29.5 20 -49.5 20s-36.167 -6.66699 -48.5 -20s-18.5 -32 -18.5 -56c0 -23.333 6.16699 -41.5 18.5 -54.5s28.5 -19.5 48.5 -19.5zM574 80c20 0 36.333 6.33301 49 19s19 31 19 55s-6.33301 42.667 -19 56s-29 20 -49 20
s-36.333 -6.66699 -49 -20s-19 -32 -19 -56s6.33301 -42.333 19 -55s29 -19 49 -19z" />
    <glyph glyph-name="ampersand" unicode="&#x26;" horiz-adv-x="649" 
d="M651 0l-191.999 0.00195312l-40 41c-52.667 -35.333 -110.667 -53 -174 -53c-66 0 -120.333 17 -163 51s-64 82.667 -64 146c0 46 12.5 83.667 37.5 113s59.5 55 103.5 77c-26.667 52 -40 98.667 -40 140c0 45.333 19 83.666 57 114.999s86.333 47 145 47
c51.333 0 95.333 -13.333 132 -40s55 -62 55 -106c0 -46 -14 -82 -42 -108s-67.667 -50.333 -119 -73l48 -61l46 -57c23.333 37.333 41.666 76.666 54.999 117.999l121 -56c-28.667 -61.333 -60 -113.333 -94 -156zM267.001 107.002c23.333 0 47.333 6.99902 72 20.999
c-34 40 -54.667 64.667 -62 74c-13.333 16 -33.333 42 -60 78c-25.333 -22 -38 -48.667 -38 -80c0 -27.333 8.66699 -49.666 26 -66.999s38 -26 62 -26zM271.001 511.001c0 -21.333 7.66699 -47.334 23 -78.001c27.333 12.667 48 25.834 62 39.501s21 30.167 21 49.5
c0 14 -4.5 25.333 -13.5 34s-20.5 13 -34.5 13c-16.667 0 -30.5 -5.5 -41.5 -16.5s-16.5 -24.833 -16.5 -41.5z" />
    <glyph glyph-name="quotesingle" unicode="'" horiz-adv-x="239" 
d="M152 357h-65c-32 146 -48 226 -48 240c0 22 7.83301 40.833 23.5 56.5s34.5 23.5 56.5 23.5s41 -7.83301 57 -23.5s24 -34.5 24 -56.5c0 -6 -4 -29 -12 -69l-24 -116z" />
    <glyph glyph-name="parenleft" unicode="(" horiz-adv-x="322" 
d="M304 -123l-97 -75.9971c-50.667 50.667 -91.334 116.667 -122.001 198s-46 162.666 -46 243.999s15.333 162.666 46 243.999s71.334 147.333 122.001 198l97 -74c-35.333 -60 -60.833 -118.667 -76.5 -176s-23.5 -121.333 -23.5 -192c0 -70 7.83301 -133.833 23.5 -191.5
s41.167 -115.834 76.5 -174.501z" />
    <glyph glyph-name="parenright" unicode=")" horiz-adv-x="322" 
d="M18 -123l97 -75.9971c50.667 50.667 91.334 116.667 122.001 198s46 162.666 46 243.999s-15.333 162.666 -46 243.999s-71.334 147.333 -122.001 198l-97 -74c34.667 -60 59.834 -118.667 75.501 -176s23.5 -121.333 23.5 -192c0 -70 -7.83301 -133.833 -23.5 -191.5
s-40.834 -115.834 -75.501 -174.501z" />
    <glyph glyph-name="asterisk" unicode="*" horiz-adv-x="357" 
d="M215 355h-72l4 107l-90 -58l-36 63l95 49l-95 49l36 62l90 -57l-4 107h72l-6 -107l91 57l36 -62l-95 -49l95 -49l-36 -63l-91 58z" />
    <glyph glyph-name="plus" unicode="+" horiz-adv-x="507" 
d="M478 291h-174v-198h-101v198h-174v92h174v191h101v-191h174v-92z" />
    <glyph glyph-name="comma" unicode="," horiz-adv-x="268" 
d="M234 61c0 -82 -37.999 -149.668 -113.999 -203.001l-64 52c16.667 8.66699 33.667 22.334 51 41.001s28.666 36.667 33.999 54c-8 -2 -15.667 -3 -23 -3c-22 0 -40.5 7.66699 -55.5 23s-22.5 35 -22.5 59c0 25.333 9 47 27 65s39.667 27 65 27c28 0 52 -10.333 72 -31
s30 -48.667 30 -84z" />
    <glyph glyph-name="hyphen" unicode="-" horiz-adv-x="300" 
d="M270 178h-240v129h240v-129z" />
    <glyph glyph-name="period" unicode="." horiz-adv-x="270" 
d="M135 -11c-25.333 0 -47.5 9.33105 -66.5 27.998s-28.5 40.667 -28.5 66c0 24.667 9.5 46.334 28.5 65.001s41.167 28 66.5 28s47.333 -9.16699 66 -27.5s28 -40.166 28 -65.499s-9.33301 -47.333 -28 -66s-40.667 -28 -66 -28z" />
    <glyph glyph-name="slash" unicode="/" horiz-adv-x="346" 
d="M109 -20h-109l237 707h109z" />
    <glyph glyph-name="zero" unicode="0" horiz-adv-x="624" 
d="M312 -12c-47.333 0 -89.5 9.66699 -126.5 29s-67 45.333 -90 78s-40.333 69.167 -52 109.5s-17.5 83.166 -17.5 128.499c0 61.333 10 117.333 30 168s52.167 92.667 96.5 126s97.5 50 159.5 50s115.167 -16.667 159.5 -50s76.5 -75.333 96.5 -126s30 -106.667 30 -168
c0 -45.333 -5.83301 -88.166 -17.5 -128.499s-29 -76.833 -52 -109.5s-53 -58.667 -90 -78s-79.167 -29 -126.5 -29zM312 140c74.667 0 112 64.333 112 193c0 128 -37.333 192 -112 192s-112 -64 -112 -192c0 -128.667 37.333 -193 112 -193z" />
    <glyph glyph-name="one" unicode="1" horiz-adv-x="447" 
d="M387 0h-172v447l-112 -113l-98 103l233 230h149v-667z" />
    <glyph glyph-name="two" unicode="2" horiz-adv-x="607" 
d="M567 0h-522.999v134c148 106.667 242.167 178.834 282.5 216.501s60.5 72.834 60.5 105.501c0 21.333 -8.83301 38.166 -26.5 50.499s-39.5 18.5 -65.5 18.5c-66.667 0 -126 -24.333 -178 -73l-95 114c34 37.333 75 65.166 123 83.499s97 27.5 147 27.5
c79.333 0 144.166 -20.333 194.499 -61s75.5 -94 75.5 -160c0 -50.667 -18.667 -99.5 -56 -146.5s-98.333 -100.167 -183 -159.5h244v-150z" />
    <glyph glyph-name="three" unicode="3" horiz-adv-x="602" 
d="M292 -12c-61.333 0 -115.667 9.50195 -163 28.502s-85 44.5 -113 76.5l87 117c23.333 -22.667 51.833 -40 85.5 -52s65.834 -18 96.501 -18c36 0 63.667 6 83 18s29 27.667 29 47c0 20 -8.83301 34.5 -26.5 43.5s-48.5 13.5 -92.5 13.5
c-46.667 0 -76.667 -0.666992 -90 -2v153c8.66699 -0.666992 38.667 -1 90 -1c72 0 108 17.333 108 52c0 20 -10.333 35.167 -31 45.5s-47.667 15.5 -81 15.5c-62.667 0 -118 -21.333 -166 -64l-83 108c65.333 72 154.333 108 267 108c84 0 149.167 -16.5 195.5 -49.5
s69.5 -77.5 69.5 -133.5c0 -38 -14.167 -70.833 -42.5 -98.5s-62.833 -44.834 -103.5 -51.501c40 -4 76.167 -20.167 108.5 -48.5s48.5 -64.833 48.5 -109.5c0 -58.667 -25.333 -106.334 -76 -143.001s-117.334 -55 -200.001 -55z" />
    <glyph glyph-name="four" unicode="4" horiz-adv-x="616" 
d="M514 0h-173v122h-319v134l253 411h239v-394h81v-151h-81v-122zM341 273v244l-152 -244h152z" />
    <glyph glyph-name="five" unicode="5" horiz-adv-x="617" 
d="M309 -12c-112.667 0 -202 32.333 -268 97l93 121c47.333 -44 105 -66 173 -66c34.667 0 61.5 7.33301 80.5 22s28.5 33 28.5 55c0 23.333 -9 42 -27 56s-43.667 21 -77 21c-52.667 0 -96.667 -16.667 -132 -50l-119 29v394h484v-150h-312v-129
c36.667 35.333 84.334 53 143.001 53c59.333 0 110 -19.833 152 -59.5s63 -92.167 63 -157.5c0 -72 -25.333 -129.333 -76 -172s-119.334 -64 -206.001 -64z" />
    <glyph glyph-name="six" unicode="6" horiz-adv-x="617" 
d="M329 -12c-100.667 0 -176.333 31.834 -227 95.501s-76 146.5 -76 248.5c0 106 29.833 190 89.5 252s140.167 93 241.5 93c80 0 147.333 -21.333 202 -64l-74 -132c-36 29.333 -78.667 44 -128 44c-42.667 0 -79.5 -14.167 -110.5 -42.5s-46.5 -64.833 -46.5 -109.5v-8
c16.667 22.667 40 41 70 55s61.333 21 94 21c64 0 118.5 -19.5 163.5 -58.5s67.5 -92.5 67.5 -160.5c0 -68.667 -25 -124.834 -75 -168.501s-113.667 -65.5 -191 -65.5zM318.001 140.001c30.667 0 55.501 7.66699 74.501 23s28.5 33 28.5 53c0 26 -10.833 45.667 -32.5 59
s-47.167 20 -76.5 20c-46.667 0 -84 -15 -112 -45c2.66699 -30.667 13.667 -56.667 33 -78s47.666 -32 84.999 -32z" />
    <glyph glyph-name="seven" unicode="7" horiz-adv-x="560" 
d="M309 0h-189l226 517h-325v150h523v-119z" />
    <glyph glyph-name="eight" unicode="8" horiz-adv-x="618" 
d="M309 -12c-78.667 0 -145.499 15.999 -200.499 47.999s-82.5 78.667 -82.5 140c0 36.667 12.5 70 37.5 100s57.5 52.667 97.5 68c-82.667 31.333 -124 83 -124 155c0 40.667 14 74.834 42 102.501s61.667 47.167 101 58.5s82.333 17 129 17s89.667 -5.66699 129 -17
s73 -30.833 101 -58.5s42 -61.834 42 -102.501c0 -72 -41.667 -123.667 -125 -155c40.667 -15.333 73.5 -38 98.5 -68s37.5 -63.333 37.5 -100c0 -41.333 -13.833 -76.666 -41.5 -105.999s-62.334 -50.333 -104.001 -63s-87.5 -19 -137.5 -19zM309.001 410.999
c24.667 3.33301 46.832 10.166 66.499 20.499s29.5 23.166 29.5 38.499c0 17.333 -8.66699 30.833 -26 40.5s-40.666 14.5 -69.999 14.5s-52.833 -4.83301 -70.5 -14.5s-26.5 -23.167 -26.5 -40.5c0 -15.333 10 -28.166 30 -38.499s42.333 -17.166 67 -20.499z
M308.999 139.999c31.333 0 57.168 5.5 77.501 16.5s30.5 25.5 30.5 43.5s-11.5 32.667 -34.5 44s-47.5 18.666 -73.5 21.999c-26.667 -3.33301 -51.334 -10.666 -74.001 -21.999s-34 -26 -34 -44s10 -32.5 30 -43.5s46 -16.5 78 -16.5z" />
    <glyph glyph-name="nine" unicode="9" horiz-adv-x="617" 
d="M260 -11c-80 0 -147.334 21.333 -202.001 64l74 132c36 -29.333 78.667 -44 128 -44c47.333 0 85.166 14.833 113.499 44.5s42.5 65.5 42.5 107.5v8c-16 -22.667 -39 -41 -69 -55s-61.333 -21 -94 -21c-64 0 -118.667 19.5 -164 58.5s-68 92.5 -68 160.5s25 124 75 168
s113.667 66 191 66c100.667 0 176.334 -31.833 227.001 -95.5s76 -146.5 76 -248.5c0 -106 -29.667 -190 -89 -252s-139.666 -93 -240.999 -93zM303.999 371c46.667 0 83.999 15 111.999 45c-2 30.667 -12.667 56.667 -32 78s-48.333 32 -87 32
c-30 0 -54.333 -7.66699 -73 -23s-28 -33 -28 -53c0 -26 10.833 -45.667 32.5 -59s46.834 -20 75.501 -20z" />
    <glyph glyph-name="colon" unicode=":" horiz-adv-x="256" 
d="M135 302c-25.333 0 -47.5 9.33301 -66.5 28s-28.5 40.667 -28.5 66s9.5 47.333 28.5 66s41.167 28 66.5 28s47.333 -9.33301 66 -28s28 -40.667 28 -66s-9.33301 -47.333 -28 -66s-40.667 -28 -66 -28zM135 -11c-25.333 0 -47.5 9.33105 -66.5 27.998
s-28.5 40.667 -28.5 66c0 24.667 9.5 46.334 28.5 65.001s41.167 28 66.5 28s47.333 -9.16699 66 -27.5s28 -40.166 28 -65.499s-9.33301 -47.333 -28 -66s-40.667 -28 -66 -28z" />
    <glyph glyph-name="semicolon" unicode=";" horiz-adv-x="268" 
d="M135 302c-25.333 0 -47.5 9.5 -66.5 28.5s-28.5 41.167 -28.5 66.5s9.5 47.166 28.5 65.499s41.167 27.5 66.5 27.5s47.333 -9.16699 66 -27.5s28 -40.166 28 -65.499s-9.33301 -47.5 -28 -66.5s-40.667 -28.5 -66 -28.5zM234 66
c0 -82 -37.999 -149.668 -113.999 -203.001l-64 52c16.667 8.66699 33.667 22.334 51 41.001s28.666 36.667 33.999 54c-8 -2 -15.667 -3 -23 -3c-22 0 -40.5 7.66699 -55.5 23s-22.5 35 -22.5 59c0 25.333 9 47 27 65s39.667 27 65 27c28 0 52 -10.333 72 -31
s30 -48.667 30 -84z" />
    <glyph glyph-name="less" unicode="&#x3c;" horiz-adv-x="507" 
d="M478 90l-449 189v111l449 190v-109l-344 -137l344 -135v-109z" />
    <glyph glyph-name="equal" unicode="=" horiz-adv-x="507" 
d="M478 381h-449v92h449v-92zM478 195h-449v92h449v-92z" />
    <glyph glyph-name="greater" unicode="&#x3e;" horiz-adv-x="507" 
d="M478 279l-449 -189v109l345 135l-345 137v109l449 -190v-111z" />
    <glyph glyph-name="question" unicode="?" horiz-adv-x="453" 
d="M166 214c-20 24 -30 54.667 -30 92c0 20.667 4.5 39.5 13.5 56.5s19.667 30.833 32 41.5s24.833 20.334 37.5 29.001s23.5 17.5 32.5 26.5s13.5 17.833 13.5 26.5c0 26 -19.667 39 -59 39c-40 0 -75 -17.333 -105 -52l-96 110c26.667 30.667 59.5 54 98.5 70
s79.5 24 121.5 24c65.333 0 117.333 -14.667 156 -44s58 -68 58 -116c0 -26.667 -5.33301 -50.334 -16 -71.001s-23.5 -37.5 -38.5 -50.5s-30.167 -24.833 -45.5 -35.5s-28.333 -22 -39 -34s-16 -24.667 -16 -38c0 -16.667 5 -30 15 -40zM227 -11
c-25.333 0 -47.333 9.33301 -66 28s-28 40.667 -28 66s9.33301 47.166 28 65.499s40.667 27.5 66 27.5s47.333 -9.16699 66 -27.5s28 -40.166 28 -65.499s-9.33301 -47.333 -28 -66s-40.667 -28 -66 -28z" />
    <glyph glyph-name="at" unicode="@" horiz-adv-x="783" 
d="M352 -70c-90.667 0 -166.169 30.167 -226.502 90.5s-90.5 134.833 -90.5 223.5c0 105.333 40 197.333 120 276s172.333 118 277 118c94 0 170 -29.167 228 -87.5s87 -129.5 87 -213.5c0 -41.333 -6.66699 -78.666 -20 -111.999s-30.666 -59.833 -51.999 -79.5
s-44 -34.667 -68 -45s-47.333 -15.5 -70 -15.5c-28.667 0 -51.334 6.66699 -68.001 20s-27.334 30 -32.001 50l-2 7c-17.333 -24.667 -38.166 -43.667 -62.499 -57s-48.833 -20 -73.5 -20c-48.667 0 -87 16 -115 48s-42 73 -42 123c0 64.667 22.5 121.167 67.5 169.5
s96.5 72.5 154.5 72.5c56 0 97.333 -20.667 124 -62l9 48h136l-49 -230c-1.33301 -6.66699 -2 -15 -2 -25c0 -28 10.667 -42 32 -42c22 0 42 13.167 60 39.5s27 63.5 27 111.5c0 78 -24.667 140.5 -74 187.5s-115.666 70.5 -198.999 70.5c-94 0 -176 -34.833 -246 -104.5
s-105 -151.167 -105 -244.5c0 -78.667 26.5 -144.334 79.5 -197.001s119.833 -79 200.5 -79c62.667 0 122.667 18 180 54l23 -32c-65.333 -42 -134.666 -63 -207.999 -63zM354.998 192c34.667 0 65.333 17.668 92 53.001l22 106c-14.667 26.667 -38 40 -70 40
c-34 0 -62 -12.333 -84 -37s-33 -53.334 -33 -86.001c0 -23.333 6.5 -41.833 19.5 -55.5s30.833 -20.5 53.5 -20.5z" />
    <glyph glyph-name="A" unicode="A" horiz-adv-x="697" 
d="M708 0h-195l-33 96h-263l-33 -96h-195l251 667h217zM433 246l-84 251l-85 -251h169z" />
    <glyph glyph-name="B" unicode="B" horiz-adv-x="680" 
d="M450 0l-390 -0.000976562v667h378c62.667 0 110.834 -16.833 144.501 -50.5s50.5 -73.5 50.5 -119.5c0 -40 -10.833 -73.667 -32.5 -101s-48.834 -44.666 -81.501 -51.999c36 -5.33301 66.167 -23.5 90.5 -54.5s36.5 -67.167 36.5 -108.5c0 -51.333 -17 -94.333 -51 -129
s-82.333 -52 -145 -52zM399 412.999c18 0 32.333 4.66699 43 14s16 22 16 38s-5.5 28.667 -16.5 38s-25.167 14 -42.5 14h-167v-104h167zM405 149.999c20.667 0 36.834 5 48.501 15s17.5 24 17.5 42c0 16.667 -5.83301 30.167 -17.5 40.5s-27.834 15.5 -48.501 15.5h-173
v-113h173z" />
    <glyph glyph-name="C" unicode="C" horiz-adv-x="692" 
d="M387 -12c-103.333 0 -189.332 32.168 -257.999 96.501s-103 147.166 -103 248.499c0 102 34.167 185 102.5 249s154.5 96 258.5 96c74 0 134.667 -17 182 -51s83.666 -76.333 108.999 -127l-148 -71c-11.333 27.333 -30.166 50.333 -56.499 69s-55.166 28 -86.499 28
c-54 0 -98.5 -18.333 -133.5 -55s-52.5 -82.667 -52.5 -138c0 -54.667 17.5 -100.5 52.5 -137.5s79.5 -55.5 133.5 -55.5c31.333 0 60.166 9.33301 86.499 28s45.166 41.667 56.499 69l148 -70c-25.333 -50.667 -61.833 -93.167 -109.5 -127.5s-108.167 -51.5 -181.5 -51.5z
" />
    <glyph glyph-name="D" unicode="D" horiz-adv-x="727" 
d="M341 0h-281v667h280c106.667 0 193.5 -30 260.5 -90s100.5 -141 100.5 -243s-33.5 -183.167 -100.5 -243.5s-153.5 -90.5 -259.5 -90.5zM340 150c56.667 0 101.667 17.833 135 53.5s50 79.167 50 130.5c0 54 -16 98 -48 132s-77.333 51 -136 51h-109v-367h108z" />
    <glyph glyph-name="E" unicode="E" horiz-adv-x="589" 
d="M549 0h-489v667h489v-150h-317v-104h310v-150h-310v-113h317v-150z" />
    <glyph glyph-name="F" unicode="F" horiz-adv-x="582" 
d="M232 0h-172v667h489v-150h-317v-104h310v-150h-310v-263z" />
    <glyph glyph-name="G" unicode="G" horiz-adv-x="723" 
d="M387 -12c-102 0 -187.666 31.6699 -256.999 95.0029s-104 146.666 -104 249.999s34.667 186.666 104 249.999s155 95 257 95c69.333 0 127.666 -15.333 174.999 -46s84 -69.334 110 -116.001l-144 -75c-13.333 24 -32.5 44.167 -57.5 60.5s-52.833 24.5 -83.5 24.5
c-54 0 -98.5 -18.333 -133.5 -55s-52.5 -82.667 -52.5 -138c0 -54.667 17.5 -100.5 52.5 -137.5s79.5 -55.5 133.5 -55.5c23.333 0 46.5 4 69.5 12s40.833 17.333 53.5 28v52h-150v151h322v-265c-78 -86.667 -176.333 -130 -295 -130z" />
    <glyph glyph-name="H" unicode="H" horiz-adv-x="741" 
d="M681 0h-172v268h-277v-268h-172v667h172v-249h277v249h172v-667z" />
    <glyph glyph-name="I" unicode="I" horiz-adv-x="292" 
d="M232 0h-172v667h172v-667z" />
    <glyph glyph-name="J" unicode="J" horiz-adv-x="492" 
d="M186 -12c-76.667 0 -137.667 20 -183 60l72 131c31.333 -26 63.333 -39 96 -39c27.333 0 49 8.16699 65 24.5s24 38.5 24 66.5v436h172v-438c0 -80 -22 -140.167 -66 -180.5s-104 -60.5 -180 -60.5z" />
    <glyph glyph-name="K" unicode="K" horiz-adv-x="654" 
d="M663 0h-211l-175 251l-45 -56v-195h-172v667h172v-274l205 274h212l-259 -312z" />
    <glyph glyph-name="L" unicode="L" horiz-adv-x="525" 
d="M497 0h-440v667h172v-517h268v-150z" />
    <glyph glyph-name="M" unicode="M" horiz-adv-x="877" 
d="M817 0h-172v441l-168 -441h-76l-169 441v-441h-172v667h239l140 -368l139 368h239v-667z" />
    <glyph glyph-name="N" unicode="N" horiz-adv-x="740" 
d="M680 0h-166l-282 386v-386h-172v667h177l270 -367v367h173v-667z" />
    <glyph glyph-name="O" unicode="O" horiz-adv-x="766" 
d="M383 -12c-102.667 0 -187.834 32.333 -255.501 97s-101.5 147.334 -101.5 248.001s33.833 183.334 101.5 248.001s152.834 97 255.501 97s187.667 -32.333 255 -97s101 -147.334 101 -248.001s-33.667 -183.334 -101 -248.001s-152.333 -97 -255 -97zM383 140
c54 0 97.667 18.333 131 55s50 82.667 50 138s-16.667 101.333 -50 138s-77 55 -131 55s-97.833 -18.333 -131.5 -55s-50.5 -82.667 -50.5 -138s16.833 -101.333 50.5 -138s77.5 -55 131.5 -55z" />
    <glyph glyph-name="P" unicode="P" horiz-adv-x="643" 
d="M232 0l-172 -0.000976562v667h334c72 0 128.667 -21.167 170 -63.5s62 -95.166 62 -158.499c0 -62.667 -20.667 -115.167 -62 -157.5s-98 -63.5 -170 -63.5h-162v-224zM368 373.999c24 0 43.833 6.33301 59.5 19s23.5 30 23.5 52s-7.83301 39.5 -23.5 52.5
s-35.5 19.5 -59.5 19.5h-136v-143h136z" />
    <glyph glyph-name="Q" unicode="Q" horiz-adv-x="766" 
d="M383 -12c-102.667 0 -187.834 32.332 -255.501 96.999s-101.5 147.334 -101.5 248.001s33.833 183.334 101.5 248.001s152.834 97 255.501 97s187.667 -32.333 255 -97s101 -147.334 101 -248.001c0 -91.333 -28 -168.333 -84 -231l42 -51l-119 -96l-50 60
c-46.667 -18 -95 -27 -145 -27zM383 139.999c14.667 0 27.667 1.33301 39 4l-61 74l119 96l63 -76c14 30 21 61.667 21 95c0 55.333 -16.667 101.333 -50 138s-77 55 -131 55s-97.833 -18.333 -131.5 -55s-50.5 -82.667 -50.5 -138s16.833 -101.333 50.5 -138
s77.5 -55 131.5 -55z" />
    <glyph glyph-name="R" unicode="R" horiz-adv-x="661" 
d="M629 0l-197 0.000976562l-112 224h-88v-224h-172v667h334c72 0 128.667 -21 170 -63s62 -95 62 -159c0 -53.333 -13 -96.833 -39 -130.5s-57.333 -56.834 -94 -69.501zM368 374.001c24 0 43.833 6.33203 59.5 18.999s23.5 30.334 23.5 53.001
c0 22 -7.83301 39.333 -23.5 52s-35.5 19 -59.5 19h-136v-143h136z" />
    <glyph glyph-name="S" unicode="S" horiz-adv-x="606" 
d="M308 -12c-122 0 -220.667 35.335 -296 106.002l91 134c58.667 -58.667 130 -88 214 -88c29.333 0 52.333 4.66699 69 14s25 22.333 25 39c0 13.333 -9.33301 24.333 -28 33s-42 15.167 -70 19.5s-58.167 11.166 -90.5 20.499s-62.5 20.5 -90.5 33.5
s-51.333 33.833 -70 62.5s-28 63 -28 103c0 59.333 23.667 109.5 71 150.5s112 61.5 194 61.5c108.667 0 199 -31 271 -93l-94 -129c-55.333 46.667 -120.333 70 -195 70c-48 0 -72 -15.333 -72 -46c0 -14.667 13 -26.334 39 -35.001s57.5 -16.834 94.5 -24.501
s73.833 -17.667 110.5 -30s68 -33.666 94 -63.999s39 -68.5 39 -114.5c0 -68 -24.333 -122.167 -73 -162.5s-117 -60.5 -205 -60.5z" />
    <glyph glyph-name="T" unicode="T" horiz-adv-x="589" 
d="M381 0h-172v517h-187v150h545v-150h-186v-517z" />
    <glyph glyph-name="U" unicode="U" horiz-adv-x="750" 
d="M376 -12c-103.333 0 -181.832 25.668 -235.499 77.001s-80.5 119.666 -80.5 204.999v397h175v-391c0 -40.667 12.167 -73.5 36.5 -98.5s59.166 -37.5 104.499 -37.5c44.667 0 79.167 12.5 103.5 37.5s36.5 57.833 36.5 98.5v391h174v-396
c0 -86.667 -26.5 -155.5 -79.5 -206.5s-131.167 -76.5 -234.5 -76.5z" />
    <glyph glyph-name="V" unicode="V" horiz-adv-x="697" 
d="M457 0h-217l-251 667h195l165 -481l164 481h195z" />
    <glyph glyph-name="W" unicode="W" horiz-adv-x="936" 
d="M751 0h-182l-101 418l-101 -418h-182l-191 667h193l101 -445l114 445h132l114 -445l100 445h194z" />
    <glyph glyph-name="X" unicode="X" horiz-adv-x="676" 
d="M686 0h-203l-145 224l-145 -224h-203l232 342l-217 325h203l130 -209l129 209h204l-217 -324z" />
    <glyph glyph-name="Y" unicode="Y" horiz-adv-x="655" 
d="M414 0h-172v269l-253 398h194l145 -246l143 246h195l-252 -398v-269z" />
    <glyph glyph-name="Z" unicode="Z" horiz-adv-x="596" 
d="M557 0h-518v137l284 380h-284v150h511v-136l-285 -381h292v-150z" />
    <glyph glyph-name="bracketleft" unicode="[" horiz-adv-x="299" 
d="M281 -190h-230v868h230v-99h-122v-670h122v-99z" />
    <glyph glyph-name="backslash" unicode="\" horiz-adv-x="346" 
d="M237 -20l-237 707h109l237 -707h-109z" />
    <glyph glyph-name="bracketright" unicode="]" horiz-adv-x="299" 
d="M248 -190h-230v99h122v670h-122v99h230v-868z" />
    <glyph glyph-name="asciicircum" unicode="^" horiz-adv-x="445" 
d="M426 333h-109l-94 231l-93 -231h-111l149 334h111z" />
    <glyph glyph-name="underscore" unicode="_" horiz-adv-x="564" 
d="M567 -139h-570v99h570v-99z" />
    <glyph glyph-name="grave" unicode="`" horiz-adv-x="263" 
d="M263 556h-104l-159 144h136z" />
    <glyph glyph-name="grave" unicode="&#x2cb;" horiz-adv-x="263" 
d="M263 556h-104l-159 144h136z" />
    <glyph glyph-name="a" unicode="a" horiz-adv-x="551" 
d="M495 0l-154.002 0.000976562v48c-15.333 -18 -36.5 -32.5 -63.5 -43.5s-55.833 -16.5 -86.5 -16.5c-42 0 -80.167 14 -114.5 42s-51.5 67 -51.5 117c0 53.333 16.667 92.666 50 117.999s72 38 116 38c69.333 0 119.333 -19 150 -57v48c0 21.333 -8.66699 38.5 -26 51.5
s-41.333 19.5 -72 19.5c-49.333 0 -94.333 -17.333 -135 -52l-57 107c58.667 50 131.667 75 219 75c30.667 0 58.834 -3.16699 84.501 -9.5s49.334 -16.5 71.001 -30.5s38.667 -34 51 -60s18.5 -57 18.5 -93v-302zM254.998 89.001c41.333 0 70 11.667 86 35v43
c-16 22.667 -44.667 34 -86 34c-21.333 0 -39.5 -4.83301 -54.5 -14.5s-22.5 -23.5 -22.5 -41.5s7.5 -31.833 22.5 -41.5s33.167 -14.5 54.5 -14.5z" />
    <glyph glyph-name="b" unicode="b" horiz-adv-x="591" 
d="M210 167c9.33301 -12.667 22.833 -22.999 40.5 -30.999s34.834 -12 51.501 -12c31.333 0 57 10.667 77 32s30 50 30 86c0 35.333 -10 63.666 -30 84.999s-45.667 32 -77 32c-16.667 0 -33.834 -4.16699 -51.501 -12.5s-31.167 -18.833 -40.5 -31.5v-148zM210 0.000976562
h-154.001v667h154v-241c36.667 46 84.334 69 143.001 69c62 0 113 -22.833 153 -68.5s60 -107.167 60 -184.5c0 -79.333 -20 -141.5 -60 -186.5s-91 -67.5 -153 -67.5c-56 0 -103.667 22.667 -143 68v-56z" />
    <glyph glyph-name="c" unicode="c" horiz-adv-x="500" 
d="M288 -12c-76 0 -138.833 23.667 -188.5 71s-74.5 108.333 -74.5 183s24.833 135.5 74.5 182.5s112.5 70.5 188.5 70.5c48 0 88.833 -8.66699 122.5 -26s58.834 -38.333 75.501 -63l-100 -93c-20.667 30.667 -51 46 -91 46c-32.667 0 -59.667 -10.5 -81 -31.5
s-32 -49.5 -32 -85.5s10.667 -64.667 32 -86s48.333 -32 81 -32c38.667 0 69 15.667 91 47l100 -94c-16.667 -24.667 -41.834 -45.667 -75.501 -63s-74.5 -26 -122.5 -26z" />
    <glyph glyph-name="d" unicode="d" horiz-adv-x="591" 
d="M534 0h-153.001v56c-39.333 -45.333 -87 -68 -143 -68c-62 0 -113 22.5 -153 67.5s-60 107.167 -60 186.5c0 77.333 20 138.833 60 184.5s91 68.5 153 68.5c58.667 0 106.334 -23 143.001 -69v241h153v-667zM287.999 124c16.667 0 33.834 4.16602 51.501 12.499
s31.5 18.833 41.5 31.5v148c-10 12.667 -23.833 23 -41.5 31s-34.834 12 -51.501 12c-31.333 0 -56.833 -10.667 -76.5 -32s-29.5 -49.666 -29.5 -84.999s10 -63.833 30 -85.5s45.333 -32.5 76 -32.5z" />
    <glyph glyph-name="e" unicode="e" horiz-adv-x="548" 
d="M288 -12c-76 0 -138.833 23.167 -188.5 69.5s-74.5 107.833 -74.5 184.5c0 71.333 24 131.333 72 180s109.333 73 184 73c72.667 0 132 -24.5 178 -73.5s69 -114.167 69 -195.5v-35h-344c6 -23.333 19.333 -42.333 40 -57s47.667 -22 81 -22
c18.667 0 39.667 3.83301 63 11.5s41.666 17.5 54.999 29.5l67 -101c-23.333 -20.667 -53.166 -36.5 -89.499 -47.5s-73.833 -16.5 -112.5 -16.5zM381 296c-2.66699 20 -12 37.501 -28 52.501s-40 22.5 -72 22.5c-30.667 0 -54 -7.33301 -70 -22
s-25.667 -32.334 -29 -53.001h199z" />
    <glyph glyph-name="f" unicode="f" horiz-adv-x="349" 
d="M243 0l-153.998 -0.000976562v350h-80v133h80v11c0 56.667 16 101.334 48 134.001s73.667 49 125 49c60 0 106 -15 138 -45l-56 -96c-12.667 11.333 -29.334 17 -50.001 17c-14.667 0 -26.834 -5 -36.501 -15s-14.5 -24.667 -14.5 -44v-11h98v-133h-98v-350z" />
    <glyph glyph-name="g" unicode="g" horiz-adv-x="590" 
d="M257 -196c-84 0 -155.334 24.002 -214.001 72.002l67 108c35.333 -37.333 84.333 -56 147 -56c32 0 60.5 8.66699 85.5 26s37.5 46.666 37.5 87.999v37c-39.333 -47.333 -87 -71 -143 -71c-62 0 -112.833 21 -152.5 63s-59.5 102.333 -59.5 181
c0 77.333 19.667 137.166 59 179.499s90.333 63.5 153 63.5c58 0 105.667 -23 143 -69v57h154v-441c0 -37.333 -5.83301 -70.5 -17.5 -99.5s-26.667 -52 -45 -69s-40.166 -31 -65.499 -42s-50 -18.333 -74 -22s-49 -5.5 -75 -5.5zM287.999 144.002
c16.667 0 33.834 4.00098 51.501 12.001s31.167 18.333 40.5 31v129c-9.33301 12.667 -22.833 23 -40.5 31s-34.834 12 -51.501 12c-31.333 0 -56.833 -9.33301 -76.5 -28s-29.5 -45 -29.5 -79c0 -34.667 9.83301 -61.334 29.5 -80.001s45.167 -28 76.5 -28z" />
    <glyph glyph-name="h" unicode="h" horiz-adv-x="594" 
d="M538 0h-154.001v281c0 52 -26.667 78 -80 78c-36.667 0 -67.667 -15.667 -93 -47v-312h-154v667h154v-243c40.667 47.333 96.334 71 167.001 71c53.333 0 93.333 -13.5 120 -40.5s40 -63.833 40 -110.5v-344z" />
    <glyph glyph-name="i" unicode="i" horiz-adv-x="266" 
d="M133 526c-24.667 0 -45.5 8.66699 -62.5 26s-25.5 38.333 -25.5 63s8.5 45.5 25.5 62.5s37.833 25.5 62.5 25.5s45.667 -8.5 63 -25.5s26 -37.833 26 -62.5s-8.66699 -45.667 -26 -63s-38.333 -26 -63 -26zM210 0h-154v483h154v-483z" />
    <glyph glyph-name="j" unicode="j" horiz-adv-x="266" 
d="M133 526c-24.667 0 -45.5 8.66699 -62.5 26s-25.5 38.333 -25.5 63s8.5 45.5 25.5 62.5s37.833 25.5 62.5 25.5s45.667 -8.5 63 -25.5s26 -37.833 26 -62.5s-8.66699 -45.667 -26 -63s-38.333 -26 -63 -26zM23 -196c-31.333 0 -55.333 2.5 -72 7.5s-35 13.833 -55 26.5
l39 112c17.333 -14.667 38 -22 62 -22c39.333 0 59 25.333 59 76v479h154v-479c0 -61.333 -15.667 -110 -47 -146s-78 -54 -140 -54z" />
    <glyph glyph-name="k" unicode="k" horiz-adv-x="546" 
d="M552 0h-190l-106 171l-46 -55v-116h-154v667h154v-377l147 193h186l-178 -220z" />
    <glyph glyph-name="l" unicode="l" horiz-adv-x="266" 
d="M210 0h-154v667h154v-667z" />
    <glyph glyph-name="m" unicode="m" horiz-adv-x="875" 
d="M818 0h-152.998v294c0 43.333 -21.333 65 -64 65c-34.667 0 -63.667 -15.667 -87 -47v-312h-154v294c0 43.333 -21 65 -63 65c-32.667 0 -61.667 -15.667 -87 -47v-312h-154v483h154v-59c12.667 16.667 33.667 32.667 63 48s61.333 23 96 23
c71.333 0 117 -28.667 137 -86c15.333 23.333 38.166 43.5 68.499 60.5s63.166 25.5 98.499 25.5c46 0 81.667 -12.167 107 -36.5s38 -60.5 38 -108.5v-350z" />
    <glyph glyph-name="n" unicode="n" horiz-adv-x="593" 
d="M537 0l-154.002 0.000976562v279c0 53.333 -26.333 80 -79 80c-37.333 0 -68.666 -15.667 -93.999 -47v-312h-154v483h154v-59c40.667 47.333 96.667 71 168 71c52.667 0 92.334 -13.833 119.001 -41.5s40 -64.834 40 -111.501v-342z" />
    <glyph glyph-name="o" unicode="o" horiz-adv-x="576" 
d="M287 -12c-79.333 0 -142.833 24.667 -190.5 74s-71.5 109.333 -71.5 180s23.833 130.5 71.5 179.5s111.167 73.5 190.5 73.5c80 0 144 -24.5 192 -73.5s72 -108.833 72 -179.5s-24 -130.667 -72 -180s-112 -74 -192 -74zM287 124c32.667 0 58.5 11.167 77.5 33.5
s28.5 50.5 28.5 84.5c0 33.333 -9.5 61.166 -28.5 83.499s-44.833 33.5 -77.5 33.5c-32 0 -57.333 -11.167 -76 -33.5s-28 -50.166 -28 -83.499c0 -34 9.33301 -62.167 28 -84.5s44 -33.5 76 -33.5z" />
    <glyph glyph-name="p" unicode="p" horiz-adv-x="589" 
d="M353 -12c-56.667 0 -104.333 23 -143 69v-241h-154v667h154v-56c37.333 45.333 85 68 143 68c62.667 0 113.667 -22.333 153 -67s59 -106.667 59 -186c0 -80 -19.667 -142.333 -59 -187s-90.333 -67 -153 -67zM302.001 124c30.667 0 56 10.668 76 32.001s30 50 30 86
c0 35.333 -10 63.666 -30 84.999s-45.333 32 -76 32c-16.667 0 -33.834 -4.16699 -51.501 -12.5s-31.167 -18.833 -40.5 -31.5v-147c9.33301 -12.667 22.833 -23.167 40.5 -31.5s34.834 -12.5 51.501 -12.5z" />
    <glyph glyph-name="q" unicode="q" horiz-adv-x="589" 
d="M288 124c16 0 33 4.16602 51 12.499s31.333 18.833 40 31.5v147c-9.33301 12.667 -22.833 23.167 -40.5 31.5s-34.5 12.5 -50.5 12.5c-31.333 0 -57 -10.667 -77 -32s-30 -49.666 -30 -84.999c0 -36 10 -64.667 30 -86s45.667 -32 77 -32zM237 -12.001
c-62.667 0 -113.833 22.333 -153.5 67s-59.5 107 -59.5 187c0 79.333 19.833 141.333 59.5 186s90.834 67 153.501 67c57.333 0 104.666 -22.667 141.999 -68v56h154v-667h-154v241c-38 -46 -85.333 -69 -142 -69z" />
    <glyph glyph-name="r" unicode="r" horiz-adv-x="375" 
d="M210 0h-154.002v483h154v-59c16.667 20 39 37 67 51s56 21 84 21v-148c-8 2.66699 -20.667 4 -38 4c-21.333 0 -43.166 -4.16699 -65.499 -12.5s-38.166 -18.833 -47.499 -31.5v-308z" />
    <glyph glyph-name="s" unicode="s" horiz-adv-x="484" 
d="M242 -12c-43.333 0 -85.667 6.83301 -127 20.5s-74.666 31.834 -99.999 54.501l64 110c18.667 -16.667 44.834 -31.667 78.501 -45s64.167 -20 91.5 -20c43.333 0 65 11.333 65 34c0 10.667 -9.66699 18.667 -29 24s-42.666 10.166 -69.999 14.499
s-54.833 10.666 -82.5 18.999s-51.167 24 -70.5 47s-29 52.833 -29 89.5c0 44.667 18.5 82.334 55.5 113.001s87.5 46 151.5 46c76 0 143.333 -21.333 202 -64l-59 -109c-15.333 14.667 -36 27.167 -62 37.5s-52.667 15.5 -80 15.5c-18 0 -32.5 -3.16699 -43.5 -9.5
s-16.5 -14.166 -16.5 -23.499s9.66699 -16.333 29 -21s42.666 -9.5 69.999 -14.5s54.666 -12 81.999 -21s50.666 -25.333 69.999 -49s29 -53.834 29 -90.501c0 -46.667 -19.5 -84.667 -58.5 -114s-92.5 -44 -160.5 -44z" />
    <glyph glyph-name="t" unicode="t" horiz-adv-x="360" 
d="M239 -12c-49.333 0 -86.834 12 -112.501 36s-38.5 59.333 -38.5 106v220h-80v133h80v132h154v-132h98v-133h-98v-177c0 -14 3.83301 -25.667 11.5 -35s17.834 -14 30.501 -14c19.333 0 32.333 4 39 12l30 -116c-22.667 -21.333 -60.667 -32 -114 -32z" />
    <glyph glyph-name="u" unicode="u" horiz-adv-x="592" 
d="M536 0h-154v58c-41.333 -46.667 -97 -70 -167 -70c-52.667 0 -92.334 13.667 -119.001 41s-40 64 -40 110v344h154v-280c0 -52.667 26.667 -79 80 -79c36.667 0 67.334 15.667 92.001 47v312h154v-483z" />
    <glyph glyph-name="v" unicode="v" horiz-adv-x="524" 
d="M344 0h-164l-190 483h162l110 -306l109 306h163z" />
    <glyph glyph-name="w" unicode="w" horiz-adv-x="787" 
d="M650 0h-166l-91 299l-90 -299h-166l-143 483h158l78 -296l95 296h137l95 -296l77 296h159z" />
    <glyph glyph-name="x" unicode="x" horiz-adv-x="512" 
d="M518 0h-169l-92 146l-95 -146h-168l165 248l-155 235h169l83 -131l82 131h169l-154 -235z" />
    <glyph glyph-name="y" unicode="y" horiz-adv-x="524" 
d="M46 -188l21.998 137c10.667 -6 23.334 -9 38.001 -9c36 0 58 9 66 27l11 26l-193 490h162l110 -306l109 306h163l-218 -552c-18 -47.333 -43.667 -80 -77 -98s-75.666 -27.667 -126.999 -29c-26.667 0 -48.667 2.66699 -66 8z" />
    <glyph glyph-name="z" unicode="z" horiz-adv-x="483" 
d="M445 0h-407v114l194 236h-194v133h403v-109l-198 -241h202v-133z" />
    <glyph glyph-name="braceleft" unicode="{" horiz-adv-x="302" 
d="M285 -190l-60 0.00195312c-46.667 0 -86.667 15.667 -120 47s-50 73 -50 125v155c0 19.333 -4.5 35.166 -13.5 47.499s-21.833 18.5 -38.5 18.5v82c16.667 0 29.5 6.16699 38.5 18.5s13.5 28.166 13.5 47.499v155c0 51.333 16.667 92.833 50 124.5s73.333 47.5 120 47.5
h60v-99h-60c-17.333 0 -32 -6.66699 -44 -20s-18 -31 -18 -53v-172c0 -46.667 -15.333 -76.667 -46 -90c30.667 -13.333 46 -43.333 46 -90v-172c0 -21.333 6 -38.833 18 -52.5s26.667 -20.5 44 -20.5h60v-99z" />
    <glyph glyph-name="bar" unicode="|" horiz-adv-x="219" 
d="M159 -20h-99v707h99v-707z" />
    <glyph glyph-name="braceright" unicode="}" horiz-adv-x="302" 
d="M17 -190v98.998h60c17.333 0 32 6.83301 44 20.5s18 31.167 18 52.5v172c0 46.667 15.333 76.667 46 90c-30.667 13.333 -46 43.333 -46 90v172c0 22 -6 39.667 -18 53s-26.667 20 -44 20h-60v99h60c46.667 0 86.667 -15.833 120 -47.5s50 -73.167 50 -124.5v-155
c0 -19.333 4.5 -35.166 13.5 -47.499s21.833 -18.5 38.5 -18.5v-82c-16.667 0 -29.5 -6.16699 -38.5 -18.5s-13.5 -28.166 -13.5 -47.499v-155c0 -52 -16.667 -93.667 -50 -125s-73.333 -47 -120 -47h-60z" />
    <glyph glyph-name="asciitilde" unicode="~" horiz-adv-x="514" 
d="M388 667l100.997 -11.998c-2.66699 -34.667 -6.66699 -64.834 -12 -90.501s-13.333 -51.334 -24 -77.001s-26 -45.5 -46 -59.5s-44 -21 -72 -21c-30 0 -54.167 8.83301 -72.5 26.5s-30.166 37 -35.499 58s-11.833 40.333 -19.5 58s-16.834 26.5 -27.501 26.5
c-25.333 0 -42.666 -56.667 -51.999 -170l-102 12c2 26.667 4.66699 50.667 8 72s8.83301 43.5 16.5 66.5s16.834 42.167 27.501 57.5s24.667 28 42 38s37.333 15 60 15c30 0 54.167 -8.83301 72.5 -26.5s30.166 -37.167 35.499 -58.5s11.833 -40.833 19.5 -58.5
s16.834 -26.5 27.501 -26.5c26.667 0 44.334 56.667 53.001 170z" />
    <glyph glyph-name="nbspace" unicode="&#xa0;" horiz-adv-x="256" 
 />
    <glyph glyph-name="exclamdown" unicode="&#xa1;" horiz-adv-x="267" 
d="M42 -184l22 434h137l25 -434h-184zM40 401c0 25.333 9.16699 47.166 27.5 65.499s40.166 27.5 65.499 27.5s47.166 -9.16699 65.499 -27.5s27.5 -40.166 27.5 -65.499s-9.16699 -47.333 -27.5 -66s-40.166 -28 -65.499 -28s-47.166 9.33301 -65.499 28
s-27.5 40.667 -27.5 66z" />
    <glyph glyph-name="cent" unicode="&#xa2;" horiz-adv-x="500" 
d="M235 -100l0.000976562 92.998c-62.667 10.667 -113.334 38.334 -152.001 83.001s-58 100 -58 166c0 65.333 19.333 120.333 58 165s89.334 72.334 152.001 83.001v75h109v-75c63.333 -11.333 110.666 -39.333 141.999 -84l-100 -93c-12 16.667 -26 28.667 -42 36v-214
c16 7.33301 30 19.333 42 36l100 -94c-32 -45.333 -79.333 -73.333 -142 -84v-93h-109zM182.001 241.998c0 -48 17.667 -82.332 53 -102.999v204c-35.333 -20.667 -53 -54.334 -53 -101.001z" />
    <glyph glyph-name="sterling" unicode="&#xa3;" horiz-adv-x="565" 
d="M24 269l-0.00390625 95.999h53c-22 36.667 -33 70 -33 100c0 64 26 115.333 78 154s109.667 58 173 58c122 0 204.667 -41.667 248 -125l-137 -79c-7.33301 20.667 -19 36.667 -35 48s-34 17 -54 17c-24.667 0 -45 -7.16699 -61 -21.5s-24 -32.5 -24 -54.5
c0 -6 0.666992 -12.333 2 -19s2.33301 -12 3 -16s2.83398 -9.66699 6.50098 -17s5.83398 -12 6.50098 -14s3.5 -7.5 8.5 -16.5s7.83301 -13.833 8.5 -14.5h139v-96h-110v-7c0 -20 -5.66699 -39.333 -17 -58s-25.666 -33 -42.999 -43c14 5.33301 30 8 48 8
c19.333 0 40.833 -4.83301 64.5 -14.5s42.834 -14.5 57.501 -14.5c37.333 0 64.333 11.667 81 35l67 -136c-31.333 -34 -82.666 -51 -153.999 -51c-31.333 0 -65.833 7.16699 -103.5 21.5s-63.834 21.5 -78.501 21.5c-32 0 -70.333 -12.667 -115 -38l-57 115
c64.667 32.667 97 69.334 97 110.001c0 17.333 -3.66699 34.333 -11 51h-108z" />
    <glyph glyph-name="currency" unicode="&#xa4;" horiz-adv-x="522" 
d="M486 137l-29.001 -29l-56 57c-40 -34 -86.667 -51 -140 -51s-100 17 -140 51l-57 -57l-28 29l56 56c-33.333 42 -50 88.667 -50 140c0 52.667 16.667 99.334 50 140.001l-56 57l28 28l57 -56c39.333 33.333 86 50 140 50c52.667 0 99.334 -16.667 140.001 -50l56 56
l29 -28l-56 -57c33.333 -40.667 50 -87.334 50 -140.001c0 -51.333 -16.667 -98 -50 -140zM431.999 333c0 47.333 -16.667 87.666 -50 120.999s-73.666 50 -120.999 50s-87.666 -16.667 -120.999 -50s-50 -73.666 -50 -120.999s16.667 -87.666 50 -120.999
s73.666 -50 120.999 -50s87.666 16.667 120.999 50s50 73.666 50 120.999z" />
    <glyph glyph-name="yen" unicode="&#xa5;" horiz-adv-x="655" 
d="M414 0h-172v111h-218v92h218v66h-218v92h159l-194 306h194l145 -246l143 246h195l-194 -306h160v-92h-218v-66h218v-92h-218v-111z" />
    <glyph glyph-name="brokenbar" unicode="&#xa6;" horiz-adv-x="219" 
d="M159 -20h-99v316h99v-316zM159 371h-99v316h99v-316z" />
    <glyph glyph-name="section" unicode="&#xa7;" horiz-adv-x="492" 
d="M461 331c0 -26.667 -6.99707 -51.3311 -20.9971 -73.998s-33.667 -40.667 -59 -54c53.333 -24.667 80 -65.667 80 -123c0 -50 -20.5 -89.333 -61.5 -118s-93.5 -43 -157.5 -43c-88 0 -162.667 26.333 -224 79l61 97c19.333 -18.667 44 -35.167 74 -49.5
s59.667 -21.5 89 -21.5c48 0 72 14 72 42c0 14.667 -9.66699 26.167 -29 34.5s-42.666 15.333 -69.999 21s-54.833 13 -82.5 22s-51.167 24.667 -70.5 47s-29 51.166 -29 86.499c0 30 9.16699 55.667 27.5 77s38.833 36.666 61.5 45.999c-59.333 25.333 -89 68 -89 128
c0 43.333 19.5 79 58.5 107s88.167 42 147.5 42c85.333 0 152.666 -22 201.999 -66l-58 -91c-38 34.667 -83.333 52 -136 52c-44 0 -66 -13.667 -66 -41c0 -12.667 9.66699 -22.5 29 -29.5s42.666 -13 69.999 -18s54.666 -11.833 81.999 -20.5s50.666 -24 69.999 -46
s29 -50.667 29 -86zM310.003 300.003c0 31.333 -23 52.333 -69 63c-40 -8.66699 -60 -29 -60 -61c0 -31.333 27.333 -52.333 82 -63c31.333 12.667 47 33 47 61z" />
    <glyph glyph-name="dieresis" unicode="&#xa8;" horiz-adv-x="306" 
d="M339 615c0 -22 -7.66699 -40.667 -23 -56s-34 -23 -56 -23c-21.333 0 -39.666 7.66699 -54.999 23s-23 34 -23 56c0 21.333 7.66699 39.666 23 54.999s33.666 23 54.999 23c22 0 40.667 -7.66699 56 -23s23 -33.666 23 -54.999zM125 615c0 -22 -7.66699 -40.667 -23 -56
s-34 -23 -56 -23c-21.333 0 -39.666 7.66699 -54.999 23s-23 34 -23 56c0 21.333 7.66699 39.666 23 54.999s33.666 23 54.999 23c22 0 40.667 -7.66699 56 -23s23 -33.666 23 -54.999z" />
    <glyph glyph-name="copyright" unicode="&#xa9;" horiz-adv-x="778" 
d="M734 334c0 -95.333 -33.667 -176.668 -101 -244.001s-148.666 -101 -243.999 -101s-176.666 33.833 -243.999 101.5s-101 148.834 -101 243.501c0 95.333 33.667 176.666 101 243.999s148.666 101 243.999 101s176.666 -33.667 243.999 -101s101 -148.666 101 -243.999z
M695 333.998c0 84.667 -29.833 156.834 -89.5 216.501s-131.834 89.5 -216.501 89.5c-84 0 -156 -29.833 -216 -89.5s-90 -131.834 -90 -216.501c0 -84 30 -156 90 -216s132 -90 216 -90c84.667 0 156.834 30 216.501 90s89.5 132 89.5 216zM511 225.998l35.001 -33.001
c-39.333 -46 -89.333 -69 -150 -69c-58 0 -107.167 20 -147.5 60s-60.5 90.333 -60.5 151c0 60 20.167 109.833 60.5 149.5s89.5 59.5 147.5 59.5c61.333 0 111 -22.333 149 -67l-34 -34c-28.667 38.667 -67 58 -115 58c-44 0 -81.333 -15.667 -112 -47s-46 -71 -46 -119
c0 -47.333 15.333 -87.166 46 -119.499s68 -48.5 112 -48.5c47.333 0 85.666 19.667 114.999 59z" />
    <glyph glyph-name="ordfeminine" unicode="&#xaa;" horiz-adv-x="389" 
d="M343 326h-109v31c-21.333 -26 -54.333 -39 -99 -39c-28.667 0 -54.167 9 -76.5 27s-33.5 43.333 -33.5 76s11.167 57.667 33.5 75s47.833 26 76.5 26c45.333 0 78.333 -11.667 99 -35v31c0 14.667 -5.5 26.5 -16.5 35.5s-26.5 13.5 -46.5 13.5c-33.333 0 -63 -13 -89 -39
l-39 71c40.667 32.667 89.667 49 147 49c102 0 153 -44 153 -132v-190zM181 385c24.667 0 42.333 8 53 24v25c-10 15.333 -27.667 23 -53 23c-32 0 -48 -12 -48 -36s16 -36 48 -36z" />
    <glyph glyph-name="guillemotleft" unicode="&#xab;" horiz-adv-x="571" 
d="M541 63h-139l-160 180l160 177h139l-160 -177zM329 63h-139l-160 180l160 177h139l-160 -177z" />
    <glyph glyph-name="logicalnot" unicode="&#xac;" horiz-adv-x="521" 
d="M478 473v-278h-94v186h-355v92h449z" />
    <glyph glyph-name="registered" unicode="&#xae;" horiz-adv-x="494" 
d="M459 465c0 -58.667 -20.667 -108.667 -62 -150s-91.333 -62 -150 -62s-108.667 20.667 -150 62s-62 91.333 -62 150s20.667 108.667 62 150s91.333 62 150 62c59.333 0 109.5 -20.5 150.5 -61.5s61.5 -91.167 61.5 -150.5zM426 465c0 50 -17.5 92.333 -52.5 127
s-77.167 52 -126.5 52s-91.5 -17.333 -126.5 -52s-52.5 -77 -52.5 -127c0 -49.333 17.5 -91.5 52.5 -126.5s77.167 -52.5 126.5 -52.5s91.5 17.5 126.5 52.5s52.5 77.167 52.5 126.5zM348 343l-43.999 -0.000976562l-63 96h-40v-96h-36v243h99
c21.333 0 40.166 -7 56.499 -21s24.5 -31.667 24.5 -53c0 -23.333 -7.5 -41.166 -22.5 -53.499s-28.167 -18.5 -39.5 -18.5zM308.001 511.999c0 12.667 -4.5 23.167 -13.5 31.5s-19.167 12.5 -30.5 12.5h-63v-86h63c11.333 0 21.5 4 30.5 12s13.5 18 13.5 30z" />
    <glyph glyph-name="macron" unicode="&#xaf;" horiz-adv-x="363" 
d="M363 591h-363v85h363v-85z" />
    <glyph glyph-name="macron" unicode="&#x203e;" horiz-adv-x="363" 
d="M363 591h-363v85h363v-85z" />
    <glyph glyph-name="degree" unicode="&#xb0;" horiz-adv-x="321" 
d="M302 535c0 -39.333 -13.835 -72.833 -41.502 -100.5s-61.167 -41.5 -100.5 -41.5s-72.666 13.833 -99.999 41.5s-41 61.167 -41 100.5s13.833 72.833 41.5 100.5s60.834 41.5 99.501 41.5s72 -13.833 100 -41.5s42 -61.167 42 -100.5zM222.998 535
c0 16.667 -6.16699 31.332 -18.5 43.999s-27.166 19 -44.499 19c-16.667 0 -31 -6.16699 -43 -18.5s-18 -27.166 -18 -44.499c0 -16.667 5.83301 -31 17.5 -43s26.167 -18 43.5 -18s32.166 6 44.499 18s18.5 26.333 18.5 43z" />
    <glyph glyph-name="plusminus" unicode="&#xb1;" horiz-adv-x="507" 
d="M478 327h-174v-198h-101v198h-174v92h174v190h101v-190h174v-92zM478 0h-449v92h449v-92z" />
    <glyph glyph-name="twosuperior" unicode="&#xb2;" 
d="M370 421h-325.999v83c89.333 62.667 146.5 105.167 171.5 127.5s37.5 41.833 37.5 58.5c0 14.667 -5.33301 26.167 -16 34.5s-25 12.5 -43 12.5c-21.333 0 -41.833 -5 -61.5 -15s-34.834 -21.333 -45.501 -34l-58 72c41.333 44.667 97.333 67 168 67
c51.333 0 92.5 -11.333 123.5 -34s46.5 -54 46.5 -94c0 -28.667 -11.833 -57 -35.5 -85s-64.5 -62.333 -122.5 -103h161v-90z" />
    <glyph glyph-name="threesuperior" unicode="&#xb3;" 
d="M373 533c0 -35.333 -15.8359 -63.998 -47.5029 -85.998s-73.5 -33 -125.5 -33c-77.333 0 -134.666 21 -171.999 63l54 74c30.667 -31.333 68.334 -47 113.001 -47c20.667 0 36.667 3.5 48 10.5s17 15.833 17 26.5c0 15.333 -6.83301 25.666 -20.5 30.999
s-33.834 8 -60.501 8c-27.333 0 -43 -0.333008 -47 -1v88c6 -0.666992 21.333 -1 46 -1c26.667 0 45.834 2.66699 57.501 8s17.5 14.666 17.5 27.999c0 23.333 -21.667 35 -65 35c-41.333 0 -76 -14 -104 -42l-51 67c40 43.333 95.667 65 167 65
c53.333 0 94.333 -10 123 -30s43 -46.667 43 -80c0 -22 -8.5 -41.5 -25.5 -58.5s-38.167 -27.5 -63.5 -31.5c24.667 -2 46.834 -11.5 66.501 -28.5s29.5 -38.833 29.5 -65.5z" />
    <glyph glyph-name="acute" unicode="&#xb4;" horiz-adv-x="263" 
d="M263 700l-159 -144h-104l127 144h136z" />
    <glyph glyph-name="mu" unicode="&#xb5;" horiz-adv-x="592" 
d="M210 -184h-154.002v667h154v-289c2.66699 -46.667 29.334 -70 80.001 -70c36.667 0 67.334 15.667 92.001 47v312h154v-483h-154v58c-41.333 -46.667 -97 -70 -167 -70h-5v-172z" />
    <glyph glyph-name="mu" unicode="&#x3bc;" horiz-adv-x="592" 
d="M210 -184h-154.002v667h154v-289c2.66699 -46.667 29.334 -70 80.001 -70c36.667 0 67.334 15.667 92.001 47v312h154v-483h-154v58c-41.333 -46.667 -97 -70 -167 -70h-5v-172z" />
    <glyph glyph-name="paragraph" unicode="&#xb6;" horiz-adv-x="449" 
d="M415 -100h-71v696h-74v-696h-71v423c-47.333 0 -87.833 16.833 -121.5 50.5s-50.5 74.167 -50.5 121.5s16.833 87.833 50.5 121.5s74.167 50.5 121.5 50.5h216v-767z" />
    <glyph glyph-name="periodcentered" unicode="&#xb7;" horiz-adv-x="270" 
d="M228 244c0 -25.333 -9.16699 -47.166 -27.5 -65.499s-40.166 -27.5 -65.499 -27.5s-47.333 9.16699 -66 27.5s-28 40.166 -28 65.499s9.33301 47.333 28 66s40.667 28 66 28s47.166 -9.33301 65.499 -28s27.5 -40.667 27.5 -66z" />
    <glyph glyph-name="periodcentered" unicode="&#x2219;" horiz-adv-x="270" 
d="M228 244c0 -25.333 -9.16699 -47.166 -27.5 -65.499s-40.166 -27.5 -65.499 -27.5s-47.333 9.16699 -66 27.5s-28 40.166 -28 65.499s9.33301 47.333 28 66s40.667 28 66 28s47.166 -9.33301 65.499 -28s27.5 -40.667 27.5 -66z" />
    <glyph glyph-name="cedilla" unicode="&#xb8;" horiz-adv-x="229" 
d="M114 -198c-48.667 0 -86.665 11.002 -113.998 33.002l28 58c27.333 -20 54.666 -30 81.999 -30c12.667 0 23.667 2.5 33 7.5s14 11.833 14 20.5c0 14.667 -8.33301 22 -25 22c-12 0 -21.667 -4.33301 -29 -13l-52 30l30 81h71l-25 -60
c11.333 6.66699 22.666 10 33.999 10c18.667 0 34.667 -6.83301 48 -20.5s20 -30.834 20 -51.501c0 -26.667 -11 -47.834 -33 -63.501s-49.333 -23.5 -82 -23.5z" />
    <glyph glyph-name="onesuperior" unicode="&#xb9;" horiz-adv-x="311" 
d="M251 421h-114v255l-69 -69l-64 68l149 146h98v-400z" />
    <glyph glyph-name="ordmasculine" unicode="&#xba;" horiz-adv-x="405" 
d="M202 318c-53.333 0 -96.166 16 -128.499 48s-48.5 71 -48.5 117s16.167 85 48.5 117s75.166 48 128.499 48c54 0 97.167 -16 129.5 -48s48.5 -71 48.5 -117s-16.167 -85 -48.5 -117s-75.5 -48 -129.5 -48zM202 405c20.667 0 36.834 6.83301 48.501 20.5
s17.5 32.834 17.5 57.501s-5.83301 43.5 -17.5 56.5s-27.834 19.5 -48.501 19.5c-42.667 0 -64 -25.333 -64 -76c0 -24.667 5.66699 -43.834 17 -57.501s27 -20.5 47 -20.5z" />
    <glyph glyph-name="guillemotright" unicode="&#xbb;" horiz-adv-x="571" 
d="M329 243l-160 -180h-139l160 180l-160 177h139zM541 243l-160 -180h-139l160 180l-160 177h139z" />
    <glyph glyph-name="onequarter" unicode="&#xbc;" horiz-adv-x="865" 
d="M667 667l-428 -667h-86l426 667h88zM847 78h-50v-78h-113v78h-197v77l150 245h160v-233h50v-89zM684 167v138l-85 -138h85zM251 267h-114v255l-69 -69l-64 68l149 146h98v-400z" />
    <glyph glyph-name="onehalf" unicode="&#xbd;" horiz-adv-x="897" 
d="M667 667l-428 -667h-86l426 667h88zM865 0h-326v83c89.333 62.667 146.5 105.167 171.5 127.5s37.5 41.833 37.5 58.5c0 14.667 -5.33301 26.167 -16 34.5s-25 12.5 -43 12.5c-20.667 0 -41 -5 -61 -15s-35.333 -21.333 -46 -34l-58 72c41.333 44.667 97.333 67 168 67
c51.333 0 92.5 -11.333 123.5 -34s46.5 -54 46.5 -94c0 -28.667 -11.833 -57 -35.5 -85s-64.5 -62.333 -122.5 -103h161v-90zM251 267h-114v255l-69 -69l-64 68l149 146h98v-400z" />
    <glyph glyph-name="threequarters" unicode="&#xbe;" horiz-adv-x="942" 
d="M744 667l-428 -667h-86l426 667h88zM924 78h-50v-78h-113v78h-197v77l150 245h160v-233h50v-89zM761 167v138l-85 -138h85zM373 379c0 -35.333 -15.8359 -63.998 -47.5029 -85.998s-73.5 -33 -125.5 -33c-77.333 0 -134.666 21 -171.999 63l54 74
c30.667 -31.333 68.334 -47 113.001 -47c20.667 0 36.667 3.5 48 10.5s17 15.833 17 26.5c0 15.333 -6.83301 25.666 -20.5 30.999s-33.834 8 -60.501 8c-27.333 0 -43 -0.333008 -47 -1v88c6 -0.666992 21.333 -1 46 -1c26.667 0 45.834 2.66699 57.501 8
s17.5 14.666 17.5 27.999c0 23.333 -21.667 35 -65 35c-41.333 0 -76 -14 -104 -42l-51 67c40 43.333 95.667 65 167 65c53.333 0 94.333 -10 123 -30s43 -46.667 43 -80c0 -22 -8.5 -41.5 -25.5 -58.5s-38.167 -27.5 -63.5 -31.5c24.667 -2 46.834 -11.5 66.501 -28.5
s29.5 -38.833 29.5 -65.5z" />
    <glyph glyph-name="questiondown" unicode="&#xbf;" horiz-adv-x="399" 
d="M287 268c20 -23.333 30 -53.667 30 -91c0 -21.333 -4.5 -40.5 -13.5 -57.5s-19.833 -30.833 -32.5 -41.5s-25.167 -20.334 -37.5 -29.001s-23 -17.5 -32 -26.5s-13.5 -17.833 -13.5 -26.5c0 -25.333 19.667 -38 59 -38s74.333 17 105 51l96 -110
c-26.667 -30.667 -59.5 -54 -98.5 -70s-79.5 -24 -121.5 -24c-65.333 0 -117.333 14.667 -156 44s-58 68 -58 116c0 26.667 5.33301 50.5 16 71.5s23.5 37.833 38.5 50.5s30.167 24.334 45.5 35.001s28.333 22 39 34s16 25 16 39c0 16.667 -5 30 -15 40zM226 493.999
c25.333 0 47.333 -9.33301 66 -28s28 -40.667 28 -66s-9.33301 -47.166 -28 -65.499s-40.667 -27.5 -66 -27.5s-47.333 9.16699 -66 27.5s-28 40.166 -28 65.499s9.33301 47.333 28 66s40.667 28 66 28z" />
    <glyph glyph-name="Agrave" unicode="&#xc0;" horiz-adv-x="697" 
d="M440 728h-104l-159 144h136zM708 0h-195l-33 96h-263l-33 -96h-195l251 667h217zM433 246l-84 251l-85 -251h169z" />
    <glyph glyph-name="Aacute" unicode="&#xc1;" horiz-adv-x="697" 
d="M523 872l-159 -144h-104l127 144h136zM708 0h-195l-33 96h-263l-33 -96h-195l251 667h217zM433 246l-84 251l-85 -251h169z" />
    <glyph glyph-name="Acircumflex" unicode="&#xc2;" horiz-adv-x="697" 
d="M509 728h-92l-69 81l-65 -81h-92l90 144h135zM708 0h-195l-33 96h-263l-33 -96h-195l251 667h217zM433 246l-84 251l-85 -251h169z" />
    <glyph glyph-name="Atilde" unicode="&#xc3;" horiz-adv-x="697" 
d="M403 726c-18.667 0 -35 4.66699 -49 14s-26.167 18.5 -36.5 27.5s-19.5 13.5 -27.5 13.5c-20 0 -30 -16.333 -30 -49h-78c0 89.333 37.667 134 113 134c18.667 0 35 -4.66699 49 -14s26.167 -18.5 36.5 -27.5s19.5 -13.5 27.5 -13.5c20 0 30 16.333 30 49h78
c0 -89.333 -37.667 -134 -113 -134zM708 0h-195l-33 96h-263l-33 -96h-195l251 667h217zM433 246l-84 251l-85 -251h169z" />
    <glyph glyph-name="Adieresis" unicode="&#xc4;" horiz-adv-x="697" 
d="M534 790c0 -22 -7.66699 -40.667 -23 -56s-34 -23 -56 -23c-21.333 0 -39.666 7.66699 -54.999 23s-23 34 -23 56c0 21.333 7.66699 39.666 23 54.999s33.666 23 54.999 23c22 0 40.667 -7.66699 56 -23s23 -33.666 23 -54.999zM320 790c0 -22 -7.66699 -40.667 -23 -56
s-34 -23 -56 -23c-21.333 0 -39.666 7.66699 -54.999 23s-23 34 -23 56c0 21.333 7.66699 39.666 23 54.999s33.666 23 54.999 23c22 0 40.667 -7.66699 56 -23s23 -33.666 23 -54.999zM708 0h-195l-33 96h-263l-33 -96h-195l251 667h217zM433 246l-84 251l-85 -251h169z
" />
    <glyph glyph-name="Aring" unicode="&#xc5;" horiz-adv-x="697" 
d="M350 693c-30 0 -55.667 10.833 -77 32.5s-32 47.167 -32 76.5s10.667 54.833 32 76.5s47 32.5 77 32.5c29.333 0 54.5 -10.833 75.5 -32.5s31.5 -47.167 31.5 -76.5s-10.5 -54.833 -31.5 -76.5s-46.167 -32.5 -75.5 -32.5zM350 761c10.667 0 20 4 28 12s12 17.667 12 29
s-4 21 -12 29s-17.333 12 -28 12c-11.333 0 -21 -4 -29 -12s-12 -17.667 -12 -29s4 -21 12 -29s17.667 -12 29 -12zM708 0h-195l-33 96h-263l-33 -96h-195l251 667h217zM433 246l-84 251l-85 -251h169z" />
    <glyph glyph-name="AE" unicode="&#xc6;" horiz-adv-x="979" 
d="M943 0h-489v96h-221l-54 -96h-196l400 667h560v-150h-317v-104h310v-150h-310v-113h317v-150zM454 246v251l-141 -251h141z" />
    <glyph glyph-name="Ccedilla" unicode="&#xc7;" horiz-adv-x="692" 
d="M381 -194c-48.667 0 -86.6631 11.0029 -113.996 33.0029l28 58c27.333 -20 54.666 -30 81.999 -30c12.667 0 23.667 2.5 33 7.5s14 11.833 14 20.5c0 14.667 -8.33301 22 -25 22c-12 0 -21.667 -4.33301 -29 -13l-52 30l21 57c-92 10 -167.167 46.167 -225.5 108.5
s-87.5 140.166 -87.5 233.499c0 102 34.167 185 102.5 249s154.5 96 258.5 96c74 0 134.667 -17 182 -51s83.666 -76.333 108.999 -127l-148 -71c-11.333 27.333 -30.166 50.333 -56.499 69s-55.166 28 -86.499 28c-54 0 -98.5 -18.333 -133.5 -55s-52.5 -82.667 -52.5 -138
c0 -54.667 17.5 -100.5 52.5 -137.5s79.5 -55.5 133.5 -55.5c31.333 0 60.166 9.33301 86.499 28s45.166 41.667 56.499 69l148 -70c-15.333 -30 -33.833 -57 -55.5 -81s-51.334 -45.5 -89.001 -64.5s-79.5 -29.833 -125.5 -32.5l-14 -34
c11.333 6.66699 22.666 10 33.999 10c18.667 0 34.667 -6.83301 48 -20.5s20 -30.834 20 -51.501c0 -26.667 -11 -47.834 -33 -63.501s-49.333 -23.5 -82 -23.5z" />
    <glyph glyph-name="Egrave" unicode="&#xc8;" horiz-adv-x="589" 
d="M395 728h-104l-159 144h136zM549 0h-489v667h489v-150h-317v-104h310v-150h-310v-113h317v-150z" />
    <glyph glyph-name="Eacute" unicode="&#xc9;" horiz-adv-x="589" 
d="M478 872l-159 -144h-104l127 144h136zM549 0h-489v667h489v-150h-317v-104h310v-150h-310v-113h317v-150z" />
    <glyph glyph-name="Ecircumflex" unicode="&#xca;" horiz-adv-x="589" 
d="M464 728h-92l-69 81l-65 -81h-92l90 144h135zM549 0h-489v667h489v-150h-317v-104h310v-150h-310v-113h317v-150z" />
    <glyph glyph-name="Edieresis" unicode="&#xcb;" horiz-adv-x="589" 
d="M492 790c0 -22 -7.66699 -40.667 -23 -56s-34 -23 -56 -23c-21.333 0 -39.666 7.66699 -54.999 23s-23 34 -23 56c0 21.333 7.66699 39.666 23 54.999s33.666 23 54.999 23c22 0 40.667 -7.66699 56 -23s23 -33.666 23 -54.999zM278 790c0 -22 -7.66699 -40.667 -23 -56
s-34 -23 -56 -23c-21.333 0 -39.666 7.66699 -54.999 23s-23 34 -23 56c0 21.333 7.66699 39.666 23 54.999s33.666 23 54.999 23c22 0 40.667 -7.66699 56 -23s23 -33.666 23 -54.999zM549 0h-489v667h489v-150h-317v-104h310v-150h-310v-113h317v-150z" />
    <glyph glyph-name="Igrave" unicode="&#xcc;" horiz-adv-x="292" 
d="M235 728h-104l-159 144h136zM232 0h-172v667h172v-667z" />
    <glyph glyph-name="Iacute" unicode="&#xcd;" horiz-adv-x="292" 
d="M322 872l-159 -144h-104l127 144h136zM232 0h-172v667h172v-667z" />
    <glyph glyph-name="Icircumflex" unicode="&#xce;" horiz-adv-x="292" 
d="M304 728h-92l-69 81l-65 -81h-92l90 144h135zM232 0h-172v667h172v-667z" />
    <glyph glyph-name="Idieresis" unicode="&#xcf;" horiz-adv-x="292" 
d="M332 789c0 -22 -7.66699 -40.667 -23 -56s-34 -23 -56 -23c-21.333 0 -39.666 7.66699 -54.999 23s-23 34 -23 56c0 21.333 7.66699 39.666 23 54.999s33.666 23 54.999 23c22 0 40.667 -7.66699 56 -23s23 -33.666 23 -54.999zM118 789c0 -22 -7.66699 -40.667 -23 -56
s-34 -23 -56 -23c-21.333 0 -39.666 7.66699 -54.999 23s-23 34 -23 56c0 21.333 7.66699 39.666 23 54.999s33.666 23 54.999 23c22 0 40.667 -7.66699 56 -23s23 -33.666 23 -54.999zM232 0h-172v667h172v-667z" />
    <glyph glyph-name="Eth" unicode="&#xd0;" horiz-adv-x="750" 
d="M364 0h-281v265h-75v132h75v270h280c106.667 0 193.5 -30 260.5 -90s100.5 -141 100.5 -243s-33.5 -183.167 -100.5 -243.5s-153.5 -90.5 -259.5 -90.5zM395 265h-140v-115h108c56.667 0 101.667 17.833 135 53.5s50 79.167 50 130.5c0 54 -16 98 -48 132
s-77.333 51 -136 51h-109v-120h140v-132z" />
    <glyph glyph-name="Ntilde" unicode="&#xd1;" horiz-adv-x="740" 
d="M422 726c-18.667 0 -35 4.66699 -49 14s-26.167 18.5 -36.5 27.5s-19.5 13.5 -27.5 13.5c-20 0 -30 -16.333 -30 -49h-78c0 89.333 37.667 134 113 134c18.667 0 35 -4.66699 49 -14s26.167 -18.5 36.5 -27.5s19.5 -13.5 27.5 -13.5c20 0 30 16.333 30 49h78
c0 -89.333 -37.667 -134 -113 -134zM680 0h-166l-282 386v-386h-172v667h177l270 -367v367h173v-667z" />
    <glyph glyph-name="Ograve" unicode="&#xd2;" horiz-adv-x="766" 
d="M476 728h-104l-159 144h136zM383 -12c-102.667 0 -187.834 32.333 -255.501 97s-101.5 147.334 -101.5 248.001s33.833 183.334 101.5 248.001s152.834 97 255.501 97s187.667 -32.333 255 -97s101 -147.334 101 -248.001s-33.667 -183.334 -101 -248.001
s-152.333 -97 -255 -97zM383 140c54 0 97.667 18.333 131 55s50 82.667 50 138s-16.667 101.333 -50 138s-77 55 -131 55s-97.833 -18.333 -131.5 -55s-50.5 -82.667 -50.5 -138s16.833 -101.333 50.5 -138s77.5 -55 131.5 -55z" />
    <glyph glyph-name="Oacute" unicode="&#xd3;" horiz-adv-x="766" 
d="M558 872l-159 -144h-104l127 144h136zM383 -12c-102.667 0 -187.834 32.333 -255.501 97s-101.5 147.334 -101.5 248.001s33.833 183.334 101.5 248.001s152.834 97 255.501 97s187.667 -32.333 255 -97s101 -147.334 101 -248.001s-33.667 -183.334 -101 -248.001
s-152.333 -97 -255 -97zM383 140c54 0 97.667 18.333 131 55s50 82.667 50 138s-16.667 101.333 -50 138s-77 55 -131 55s-97.833 -18.333 -131.5 -55s-50.5 -82.667 -50.5 -138s16.833 -101.333 50.5 -138s77.5 -55 131.5 -55z" />
    <glyph glyph-name="Ocircumflex" unicode="&#xd4;" horiz-adv-x="766" 
d="M545 728h-92l-69 81l-65 -81h-92l90 144h135zM383 -12c-102.667 0 -187.834 32.333 -255.501 97s-101.5 147.334 -101.5 248.001s33.833 183.334 101.5 248.001s152.834 97 255.501 97s187.667 -32.333 255 -97s101 -147.334 101 -248.001
s-33.667 -183.334 -101 -248.001s-152.333 -97 -255 -97zM383 140c54 0 97.667 18.333 131 55s50 82.667 50 138s-16.667 101.333 -50 138s-77 55 -131 55s-97.833 -18.333 -131.5 -55s-50.5 -82.667 -50.5 -138s16.833 -101.333 50.5 -138s77.5 -55 131.5 -55z" />
    <glyph glyph-name="Otilde" unicode="&#xd5;" horiz-adv-x="766" 
d="M437 726c-18.667 0 -35 4.66699 -49 14s-26.167 18.5 -36.5 27.5s-19.5 13.5 -27.5 13.5c-20 0 -30 -16.333 -30 -49h-78c0 89.333 37.667 134 113 134c18.667 0 35 -4.66699 49 -14s26.167 -18.5 36.5 -27.5s19.5 -13.5 27.5 -13.5c20 0 30 16.333 30 49h78
c0 -89.333 -37.667 -134 -113 -134zM383 -12c-102.667 0 -187.834 32.333 -255.501 97s-101.5 147.334 -101.5 248.001s33.833 183.334 101.5 248.001s152.834 97 255.501 97s187.667 -32.333 255 -97s101 -147.334 101 -248.001s-33.667 -183.334 -101 -248.001
s-152.333 -97 -255 -97zM383 140c54 0 97.667 18.333 131 55s50 82.667 50 138s-16.667 101.333 -50 138s-77 55 -131 55s-97.833 -18.333 -131.5 -55s-50.5 -82.667 -50.5 -138s16.833 -101.333 50.5 -138s77.5 -55 131.5 -55z" />
    <glyph glyph-name="Odieresis" unicode="&#xd6;" horiz-adv-x="766" 
d="M571 790c0 -22 -7.66699 -40.667 -23 -56s-34 -23 -56 -23c-21.333 0 -39.666 7.66699 -54.999 23s-23 34 -23 56c0 21.333 7.66699 39.666 23 54.999s33.666 23 54.999 23c22 0 40.667 -7.66699 56 -23s23 -33.666 23 -54.999zM357 790c0 -22 -7.66699 -40.667 -23 -56
s-34 -23 -56 -23c-21.333 0 -39.666 7.66699 -54.999 23s-23 34 -23 56c0 21.333 7.66699 39.666 23 54.999s33.666 23 54.999 23c22 0 40.667 -7.66699 56 -23s23 -33.666 23 -54.999zM383 -12c-102.667 0 -187.834 32.333 -255.501 97s-101.5 147.334 -101.5 248.001
s33.833 183.334 101.5 248.001s152.834 97 255.501 97s187.667 -32.333 255 -97s101 -147.334 101 -248.001s-33.667 -183.334 -101 -248.001s-152.333 -97 -255 -97zM383 140c54 0 97.667 18.333 131 55s50 82.667 50 138s-16.667 101.333 -50 138s-77 55 -131 55
s-97.833 -18.333 -131.5 -55s-50.5 -82.667 -50.5 -138s16.833 -101.333 50.5 -138s77.5 -55 131.5 -55z" />
    <glyph glyph-name="multiply" unicode="&#xd7;" horiz-adv-x="507" 
d="M391 132l-137 137l-137 -137l-66 64l138 138l-138 138l66 64l137 -137l137 137l65 -64l-137 -138l137 -138z" />
    <glyph glyph-name="Oslash" unicode="&#xd8;" horiz-adv-x="766" 
d="M383 -12c-70.667 0 -134.001 16 -190.001 48l-29 -36h-120l75 93c-62 63.333 -93 143.333 -93 240c0 100.667 33.833 183.334 101.5 248.001s152.834 97 255.501 97c64.667 0 123 -13.333 175 -40l24 29h120l-67 -83c69.333 -65.333 104 -149 104 -251
c0 -100.667 -33.667 -183.334 -101 -248.001s-152.333 -97 -255 -97zM382.999 140c54 0 97.667 18.333 131 55s50 82.667 50 138c0 45.333 -11.667 85 -35 119l-235 -290c27.333 -14.667 57 -22 89 -22zM200.999 333c0 -40 8.66699 -75.333 26 -106l229 284
c-22 10 -46.333 15 -73 15c-54 0 -97.833 -18.333 -131.5 -55s-50.5 -82.667 -50.5 -138z" />
    <glyph glyph-name="Ugrave" unicode="&#xd9;" horiz-adv-x="750" 
d="M468 728h-104l-159 144h136zM376 -12c-103.333 0 -181.832 25.668 -235.499 77.001s-80.5 119.666 -80.5 204.999v397h175v-391c0 -40.667 12.167 -73.5 36.5 -98.5s59.166 -37.5 104.499 -37.5c44.667 0 79.167 12.5 103.5 37.5s36.5 57.833 36.5 98.5v391h174v-396
c0 -86.667 -26.5 -155.5 -79.5 -206.5s-131.167 -76.5 -234.5 -76.5z" />
    <glyph glyph-name="Uacute" unicode="&#xda;" horiz-adv-x="750" 
d="M551 872l-159 -144h-104l127 144h136zM376 -12c-103.333 0 -181.832 25.668 -235.499 77.001s-80.5 119.666 -80.5 204.999v397h175v-391c0 -40.667 12.167 -73.5 36.5 -98.5s59.166 -37.5 104.499 -37.5c44.667 0 79.167 12.5 103.5 37.5s36.5 57.833 36.5 98.5v391h174
v-396c0 -86.667 -26.5 -155.5 -79.5 -206.5s-131.167 -76.5 -234.5 -76.5z" />
    <glyph glyph-name="Ucircumflex" unicode="&#xdb;" horiz-adv-x="750" 
d="M542 728h-92l-69 81l-65 -81h-92l90 144h135zM376 -12c-103.333 0 -181.832 25.668 -235.499 77.001s-80.5 119.666 -80.5 204.999v397h175v-391c0 -40.667 12.167 -73.5 36.5 -98.5s59.166 -37.5 104.499 -37.5c44.667 0 79.167 12.5 103.5 37.5s36.5 57.833 36.5 98.5
v391h174v-396c0 -86.667 -26.5 -155.5 -79.5 -206.5s-131.167 -76.5 -234.5 -76.5z" />
    <glyph glyph-name="Udieresis" unicode="&#xdc;" horiz-adv-x="750" 
d="M564 790c0 -22 -7.66699 -40.667 -23 -56s-34 -23 -56 -23c-21.333 0 -39.666 7.66699 -54.999 23s-23 34 -23 56c0 21.333 7.66699 39.666 23 54.999s33.666 23 54.999 23c22 0 40.667 -7.66699 56 -23s23 -33.666 23 -54.999zM350 790c0 -22 -7.66699 -40.667 -23 -56
s-34 -23 -56 -23c-21.333 0 -39.666 7.66699 -54.999 23s-23 34 -23 56c0 21.333 7.66699 39.666 23 54.999s33.666 23 54.999 23c22 0 40.667 -7.66699 56 -23s23 -33.666 23 -54.999zM376 -12c-103.333 0 -181.832 25.668 -235.499 77.001s-80.5 119.666 -80.5 204.999
v397h175v-391c0 -40.667 12.167 -73.5 36.5 -98.5s59.166 -37.5 104.499 -37.5c44.667 0 79.167 12.5 103.5 37.5s36.5 57.833 36.5 98.5v391h174v-396c0 -86.667 -26.5 -155.5 -79.5 -206.5s-131.167 -76.5 -234.5 -76.5z" />
    <glyph glyph-name="Yacute" unicode="&#xdd;" horiz-adv-x="655" 
d="M504 872l-159 -144h-104l127 144h136zM414 0h-172v269l-253 398h194l145 -246l143 246h195l-252 -398v-269z" />
    <glyph glyph-name="Thorn" unicode="&#xde;" horiz-adv-x="643" 
d="M232 0h-172v667h172v-102h162c72 0 128.667 -21.333 170 -64s62 -95.667 62 -159s-20.5 -115.833 -61.5 -157.5s-97.833 -62.5 -170.5 -62.5h-162v-122zM368 273c24 0 43.833 6.16699 59.5 18.5s23.5 29.5 23.5 51.5s-7.83301 39.5 -23.5 52.5s-35.5 19.5 -59.5 19.5
h-136v-142h136z" />
    <glyph glyph-name="germandbls" unicode="&#xdf;" horiz-adv-x="665" 
d="M652 149c0 -48 -19.334 -86.8281 -58.001 -116.495s-89 -44.5 -151 -44.5c-44.667 0 -82.167 6.66699 -112.5 20s-60.166 33 -89.499 59l61 106c14 -17.333 34.333 -32.166 61 -44.499s53.334 -18.5 80.001 -18.5c40.667 0 61 11.333 61 34c0 10 -8.5 18 -25.5 24
s-37.667 11.5 -62 16.5s-48.5 12 -72.5 21s-44.5 24.667 -61.5 47s-25.5 50.833 -25.5 85.5c0 22.667 5.83301 43.5 17.5 62.5s24.5 33.5 38.5 43.5s26.833 20 38.5 30s17.5 18.667 17.5 26c0 13.333 -6.5 23.5 -19.5 30.5s-28.833 10.5 -47.5 10.5
c-27.333 0 -49.333 -6.83301 -66 -20.5s-25 -32.834 -25 -57.501v-463h-154v463c0 60 22.333 110.667 67 152s105 62 181 62c60 0 111.833 -14.167 155.5 -42.5s65.5 -65.5 65.5 -111.5c0 -20.667 -4.16699 -39.5 -12.5 -56.5s-18.5 -30.833 -30.5 -41.5
s-24 -20.334 -36 -29.001s-22.167 -17.334 -30.5 -26.001s-12.5 -17.334 -12.5 -26.001c0 -9.33301 8.5 -16.333 25.5 -21s37.667 -9.33398 62 -14.001s48.666 -11.5 72.999 -20.5s45 -25.333 62 -49s25.5 -53.834 25.5 -90.501z" />
    <glyph glyph-name="agrave" unicode="&#xe0;" horiz-adv-x="551" 
d="M495 0l-154.002 0.000976562v48c-15.333 -18 -36.5 -32.5 -63.5 -43.5s-55.833 -16.5 -86.5 -16.5c-42 0 -80.167 14 -114.5 42s-51.5 67 -51.5 117c0 53.333 16.667 92.666 50 117.999s72 38 116 38c69.333 0 119.333 -19 150 -57v48c0 21.333 -8.66699 38.5 -26 51.5
s-41.333 19.5 -72 19.5c-49.333 0 -94.333 -17.333 -135 -52l-57 107c58.667 50 131.667 75 219 75c30.667 0 58.834 -3.16699 84.501 -9.5s49.334 -16.5 71.001 -30.5s38.667 -34 51 -60s18.5 -57 18.5 -93v-302zM254.998 89.001c41.333 0 70 11.667 86 35v43
c-16 22.667 -44.667 34 -86 34c-21.333 0 -39.5 -4.83301 -54.5 -14.5s-22.5 -23.5 -22.5 -41.5s7.5 -31.833 22.5 -41.5s33.167 -14.5 54.5 -14.5zM360.998 556.001h-104l-159 144h136z" />
    <glyph glyph-name="aacute" unicode="&#xe1;" horiz-adv-x="551" 
d="M495 0l-154.002 0.000976562v48c-15.333 -18 -36.5 -32.5 -63.5 -43.5s-55.833 -16.5 -86.5 -16.5c-42 0 -80.167 14 -114.5 42s-51.5 67 -51.5 117c0 53.333 16.667 92.666 50 117.999s72 38 116 38c69.333 0 119.333 -19 150 -57v48c0 21.333 -8.66699 38.5 -26 51.5
s-41.333 19.5 -72 19.5c-49.333 0 -94.333 -17.333 -135 -52l-57 107c58.667 50 131.667 75 219 75c30.667 0 58.834 -3.16699 84.501 -9.5s49.334 -16.5 71.001 -30.5s38.667 -34 51 -60s18.5 -57 18.5 -93v-302zM254.998 89.001c41.333 0 70 11.667 86 35v43
c-16 22.667 -44.667 34 -86 34c-21.333 0 -39.5 -4.83301 -54.5 -14.5s-22.5 -23.5 -22.5 -41.5s7.5 -31.833 22.5 -41.5s33.167 -14.5 54.5 -14.5zM449.998 700.001l-159 -144h-104l127 144h136z" />
    <glyph glyph-name="acircumflex" unicode="&#xe2;" horiz-adv-x="551" 
d="M495 0l-154.002 0.000976562v48c-15.333 -18 -36.5 -32.5 -63.5 -43.5s-55.833 -16.5 -86.5 -16.5c-42 0 -80.167 14 -114.5 42s-51.5 67 -51.5 117c0 53.333 16.667 92.666 50 117.999s72 38 116 38c69.333 0 119.333 -19 150 -57v48c0 21.333 -8.66699 38.5 -26 51.5
s-41.333 19.5 -72 19.5c-49.333 0 -94.333 -17.333 -135 -52l-57 107c58.667 50 131.667 75 219 75c30.667 0 58.834 -3.16699 84.501 -9.5s49.334 -16.5 71.001 -30.5s38.667 -34 51 -60s18.5 -57 18.5 -93v-302zM254.998 89.001c41.333 0 70 11.667 86 35v43
c-16 22.667 -44.667 34 -86 34c-21.333 0 -39.5 -4.83301 -54.5 -14.5s-22.5 -23.5 -22.5 -41.5s7.5 -31.833 22.5 -41.5s33.167 -14.5 54.5 -14.5zM434.998 556.001h-92l-69 81l-65 -81h-92l90 144h135z" />
    <glyph glyph-name="atilde" unicode="&#xe3;" horiz-adv-x="551" 
d="M495 0l-154.002 0.000976562v48c-15.333 -18 -36.5 -32.5 -63.5 -43.5s-55.833 -16.5 -86.5 -16.5c-42 0 -80.167 14 -114.5 42s-51.5 67 -51.5 117c0 53.333 16.667 92.666 50 117.999s72 38 116 38c69.333 0 119.333 -19 150 -57v48c0 21.333 -8.66699 38.5 -26 51.5
s-41.333 19.5 -72 19.5c-49.333 0 -94.333 -17.333 -135 -52l-57 107c58.667 50 131.667 75 219 75c30.667 0 58.834 -3.16699 84.501 -9.5s49.334 -16.5 71.001 -30.5s38.667 -34 51 -60s18.5 -57 18.5 -93v-302zM254.998 89.001c41.333 0 70 11.667 86 35v43
c-16 22.667 -44.667 34 -86 34c-21.333 0 -39.5 -4.83301 -54.5 -14.5s-22.5 -23.5 -22.5 -41.5s7.5 -31.833 22.5 -41.5s33.167 -14.5 54.5 -14.5zM326.998 554.001c-18.667 0 -35 4.66699 -49 14s-26.167 18.5 -36.5 27.5s-19.5 13.5 -27.5 13.5
c-20 0 -30 -16.333 -30 -49h-78c0 89.333 37.667 134 113 134c18.667 0 35 -4.66699 49 -14s26.167 -18.5 36.5 -27.5s19.5 -13.5 27.5 -13.5c20 0 30 16.333 30 49h78c0 -89.333 -37.667 -134 -113 -134z" />
    <glyph glyph-name="adieresis" unicode="&#xe4;" horiz-adv-x="551" 
d="M495 0l-154.002 0.000976562v48c-15.333 -18 -36.5 -32.5 -63.5 -43.5s-55.833 -16.5 -86.5 -16.5c-42 0 -80.167 14 -114.5 42s-51.5 67 -51.5 117c0 53.333 16.667 92.666 50 117.999s72 38 116 38c69.333 0 119.333 -19 150 -57v48c0 21.333 -8.66699 38.5 -26 51.5
s-41.333 19.5 -72 19.5c-49.333 0 -94.333 -17.333 -135 -52l-57 107c58.667 50 131.667 75 219 75c30.667 0 58.834 -3.16699 84.501 -9.5s49.334 -16.5 71.001 -30.5s38.667 -34 51 -60s18.5 -57 18.5 -93v-302zM254.998 89.001c41.333 0 70 11.667 86 35v43
c-16 22.667 -44.667 34 -86 34c-21.333 0 -39.5 -4.83301 -54.5 -14.5s-22.5 -23.5 -22.5 -41.5s7.5 -31.833 22.5 -41.5s33.167 -14.5 54.5 -14.5zM456.998 615.001c0 -22 -7.66699 -40.667 -23 -56s-34 -23 -56 -23c-21.333 0 -39.666 7.66699 -54.999 23s-23 34 -23 56
c0 21.333 7.66699 39.666 23 54.999s33.666 23 54.999 23c22 0 40.667 -7.66699 56 -23s23 -33.666 23 -54.999zM242.998 615.001c0 -22 -7.66699 -40.667 -23 -56s-34 -23 -56 -23c-21.333 0 -39.666 7.66699 -54.999 23s-23 34 -23 56c0 21.333 7.66699 39.666 23 54.999
s33.666 23 54.999 23c22 0 40.667 -7.66699 56 -23s23 -33.666 23 -54.999z" />
    <glyph glyph-name="aring" unicode="&#xe5;" horiz-adv-x="551" 
d="M495 0l-154.002 0.000976562v48c-15.333 -18 -36.5 -32.5 -63.5 -43.5s-55.833 -16.5 -86.5 -16.5c-42 0 -80.167 14 -114.5 42s-51.5 67 -51.5 117c0 53.333 16.667 92.666 50 117.999s72 38 116 38c69.333 0 119.333 -19 150 -57v48c0 21.333 -8.66699 38.5 -26 51.5
s-41.333 19.5 -72 19.5c-49.333 0 -94.333 -17.333 -135 -52l-57 107c58.667 50 131.667 75 219 75c30.667 0 58.834 -3.16699 84.501 -9.5s49.334 -16.5 71.001 -30.5s38.667 -34 51 -60s18.5 -57 18.5 -93v-302zM254.998 89.001c41.333 0 70 11.667 86 35v43
c-16 22.667 -44.667 34 -86 34c-21.333 0 -39.5 -4.83301 -54.5 -14.5s-22.5 -23.5 -22.5 -41.5s7.5 -31.833 22.5 -41.5s33.167 -14.5 54.5 -14.5zM274.998 537.001c-30 0 -55.667 10.833 -77 32.5s-32 47.167 -32 76.5s10.667 54.833 32 76.5s47 32.5 77 32.5
c29.333 0 54.5 -10.833 75.5 -32.5s31.5 -47.167 31.5 -76.5s-10.5 -54.833 -31.5 -76.5s-46.167 -32.5 -75.5 -32.5zM274.998 605.001c10.667 0 20 4 28 12s12 17.667 12 29s-4 21 -12 29s-17.333 12 -28 12c-11.333 0 -21 -4 -29 -12s-12 -17.667 -12 -29s4 -21 12 -29
s17.667 -12 29 -12z" />
    <glyph glyph-name="ae" unicode="&#xe6;" horiz-adv-x="860" 
d="M840 191l-343.999 0.00195312c6 -22.667 19.5 -40.834 40.5 -54.501s48.167 -20.5 81.5 -20.5c18 0 38.833 3.83301 62.5 11.5s41.834 17.167 54.501 28.5l68 -104c-23.333 -20.667 -53.333 -36.5 -90 -47.5s-74.334 -16.5 -113.001 -16.5
c-39.333 0 -76.666 7.16699 -111.999 21.5s-64.333 34.166 -87 59.499c-22 -24 -50.333 -43.5 -85 -58.5s-71.667 -22.5 -111 -22.5c-48.667 0 -90.834 13.5 -126.501 40.5s-53.5 65.833 -53.5 116.5s16 89.667 48 117s71.333 41 118 41c67.333 0 117.333 -18.333 150 -55
v47c0 20.667 -8.66699 37.5 -26 50.5s-41.333 19.5 -72 19.5c-50 0 -95 -17.333 -135 -52l-57 107c58.667 50 131.667 75 219 75c77.333 0 132.666 -21.667 165.999 -65c40 43.333 95.333 65 166 65c68.667 0 125.5 -24.667 170.5 -74s67.5 -114.333 67.5 -195v-35z
M495.001 296.002h198.001c-2.66699 20.667 -11.834 38.334 -27.501 53.001s-39.5 22 -71.5 22c-30.667 0 -54.167 -7.33301 -70.5 -22s-25.833 -32.334 -28.5 -53.001zM348.002 132.002c-4.66699 10.667 -7 22 -7 34c-16 23.333 -44.667 35 -86 35
c-21.333 0 -39.5 -5 -54.5 -15s-22.5 -23.667 -22.5 -41c0 -18 7.5 -31.833 22.5 -41.5s33.167 -14.5 54.5 -14.5c44.667 0 75.667 14.333 93 43z" />
    <glyph glyph-name="ccedilla" unicode="&#xe7;" horiz-adv-x="500" 
d="M292 -196c-48.667 0 -86.666 11.0029 -113.999 33.0029l28 58c27.333 -20 54.666 -30 81.999 -30c12.667 0 23.667 2.5 33 7.5s14 11.833 14 20.5c0 14.667 -8.33301 22 -25 22c-12 0 -21.667 -4.33301 -29 -13l-52 30l21 58c-66 7.33301 -120 34.166 -162 80.499
s-63 103.5 -63 171.5c0 74.667 24.833 135.5 74.5 182.5s112.5 70.5 188.5 70.5c48 0 88.833 -8.66699 122.5 -26s58.834 -38.333 75.501 -63l-100 -93c-20.667 30.667 -51 46 -91 46c-32.667 0 -59.667 -10.5 -81 -31.5s-32 -49.5 -32 -85.5s10.667 -64.667 32 -86
s48.333 -32 81 -32c38.667 0 69 15.667 91 47l100 -94c-34.667 -50.667 -90 -79.667 -166 -87l-15 -37c11.333 6.66699 22.666 10 33.999 10c18.667 0 34.667 -6.83301 48 -20.5s20 -30.834 20 -51.501c0 -26.667 -11 -47.834 -33 -63.501s-49.333 -23.5 -82 -23.5z" />
    <glyph glyph-name="egrave" unicode="&#xe8;" horiz-adv-x="548" 
d="M288 -12c-76 0 -138.833 23.167 -188.5 69.5s-74.5 107.833 -74.5 184.5c0 71.333 24 131.333 72 180s109.333 73 184 73c72.667 0 132 -24.5 178 -73.5s69 -114.167 69 -195.5v-35h-344c6 -23.333 19.333 -42.333 40 -57s47.667 -22 81 -22
c18.667 0 39.667 3.83301 63 11.5s41.666 17.5 54.999 29.5l67 -101c-23.333 -20.667 -53.166 -36.5 -89.499 -47.5s-73.833 -16.5 -112.5 -16.5zM381 296c-2.66699 20 -12 37.501 -28 52.501s-40 22.5 -72 22.5c-30.667 0 -54 -7.33301 -70 -22
s-25.667 -32.334 -29 -53.001h199zM371 556.001h-104l-159 144h136z" />
    <glyph glyph-name="eacute" unicode="&#xe9;" horiz-adv-x="548" 
d="M288 -12c-76 0 -138.833 23.167 -188.5 69.5s-74.5 107.833 -74.5 184.5c0 71.333 24 131.333 72 180s109.333 73 184 73c72.667 0 132 -24.5 178 -73.5s69 -114.167 69 -195.5v-35h-344c6 -23.333 19.333 -42.333 40 -57s47.667 -22 81 -22
c18.667 0 39.667 3.83301 63 11.5s41.666 17.5 54.999 29.5l67 -101c-23.333 -20.667 -53.166 -36.5 -89.499 -47.5s-73.833 -16.5 -112.5 -16.5zM381 296c-2.66699 20 -12 37.501 -28 52.501s-40 22.5 -72 22.5c-30.667 0 -54 -7.33301 -70 -22
s-25.667 -32.334 -29 -53.001h199zM457 700.001l-159 -144h-104l127 144h136z" />
    <glyph glyph-name="ecircumflex" unicode="&#xea;" horiz-adv-x="548" 
d="M288 -12c-76 0 -138.833 23.167 -188.5 69.5s-74.5 107.833 -74.5 184.5c0 71.333 24 131.333 72 180s109.333 73 184 73c72.667 0 132 -24.5 178 -73.5s69 -114.167 69 -195.5v-35h-344c6 -23.333 19.333 -42.333 40 -57s47.667 -22 81 -22
c18.667 0 39.667 3.83301 63 11.5s41.666 17.5 54.999 29.5l67 -101c-23.333 -20.667 -53.166 -36.5 -89.499 -47.5s-73.833 -16.5 -112.5 -16.5zM381 296c-2.66699 20 -12 37.501 -28 52.501s-40 22.5 -72 22.5c-30.667 0 -54 -7.33301 -70 -22
s-25.667 -32.334 -29 -53.001h199zM441 556.001h-92l-69 81l-65 -81h-92l90 144h135z" />
    <glyph glyph-name="edieresis" unicode="&#xeb;" horiz-adv-x="548" 
d="M288 -12c-76 0 -138.833 23.167 -188.5 69.5s-74.5 107.833 -74.5 184.5c0 71.333 24 131.333 72 180s109.333 73 184 73c72.667 0 132 -24.5 178 -73.5s69 -114.167 69 -195.5v-35h-344c6 -23.333 19.333 -42.333 40 -57s47.667 -22 81 -22
c18.667 0 39.667 3.83301 63 11.5s41.666 17.5 54.999 29.5l67 -101c-23.333 -20.667 -53.166 -36.5 -89.499 -47.5s-73.833 -16.5 -112.5 -16.5zM381 296c-2.66699 20 -12 37.501 -28 52.501s-40 22.5 -72 22.5c-30.667 0 -54 -7.33301 -70 -22
s-25.667 -32.334 -29 -53.001h199zM468 615.001c0 -22 -7.66699 -40.667 -23 -56s-34 -23 -56 -23c-21.333 0 -39.666 7.66699 -54.999 23s-23 34 -23 56c0 21.333 7.66699 39.666 23 54.999s33.666 23 54.999 23c22 0 40.667 -7.66699 56 -23s23 -33.666 23 -54.999z
M254 615.001c0 -22 -7.66699 -40.667 -23 -56s-34 -23 -56 -23c-21.333 0 -39.666 7.66699 -54.999 23s-23 34 -23 56c0 21.333 7.66699 39.666 23 54.999s33.666 23 54.999 23c22 0 40.667 -7.66699 56 -23s23 -33.666 23 -54.999z" />
    <glyph glyph-name="igrave" unicode="&#xec;" horiz-adv-x="266" 
d="M223 556h-104l-159 144h136zM210 0h-154v483h154v-483z" />
    <glyph glyph-name="iacute" unicode="&#xed;" horiz-adv-x="266" 
d="M307 700l-159 -144h-104l127 144h136zM210 0h-154v483h154v-483z" />
    <glyph glyph-name="icircumflex" unicode="&#xee;" horiz-adv-x="266" 
d="M293 556h-92l-69 81l-65 -81h-92l90 144h135zM210 0h-154v483h154v-483z" />
    <glyph glyph-name="idieresis" unicode="&#xef;" horiz-adv-x="266" 
d="M319 615c0 -22 -7.66699 -40.667 -23 -56s-34 -23 -56 -23c-21.333 0 -39.666 7.66699 -54.999 23s-23 34 -23 56c0 21.333 7.66699 39.666 23 54.999s33.666 23 54.999 23c22 0 40.667 -7.66699 56 -23s23 -33.666 23 -54.999zM105 615c0 -22 -7.66699 -40.667 -23 -56
s-34 -23 -56 -23c-21.333 0 -39.666 7.66699 -54.999 23s-23 34 -23 56c0 21.333 7.66699 39.666 23 54.999s33.666 23 54.999 23c22 0 40.667 -7.66699 56 -23s23 -33.666 23 -54.999zM210 0h-154v483h154v-483z" />
    <glyph glyph-name="eth" unicode="&#xf0;" horiz-adv-x="576" 
d="M93 454l-27.998 69l103 45l-55 33l83 122c52 -32 95 -60.667 129 -86l100 44l29 -66l-67 -30c109.333 -99.333 164 -209.333 164 -330c0 -80.667 -23.5 -145.334 -70.5 -194.001s-111.5 -73 -193.5 -73c-78.667 0 -142 21.5 -190 64.5s-72 98.833 -72 167.5
c0 67.333 20.167 122.5 60.5 165.5s90.5 64.5 150.5 64.5c69.333 0 122.666 -31.333 159.999 -94c-18.667 48.667 -70.334 103.334 -155.001 164.001zM287.002 124c33.333 0 59.333 9 78 27s28 41 28 69c0 27.333 -9.5 50 -28.5 68s-44.833 27 -77.5 27
c-32 0 -57.333 -9 -76 -27s-28 -40.667 -28 -68c0 -28 9.33301 -51 28 -69s44 -27 76 -27z" />
    <glyph glyph-name="ntilde" unicode="&#xf1;" horiz-adv-x="593" 
d="M545 0l-154.002 0.000976562v279c0 53.333 -26.333 80 -79 80c-37.333 0 -68.666 -15.667 -93.999 -47v-312h-154v483h154v-59c40.667 47.333 96.667 71 168 71c52.667 0 92.334 -13.833 119.001 -41.5s40 -64.834 40 -111.501v-342zM351.998 554.001
c-18.667 0 -35 4.66699 -49 14s-26.167 18.5 -36.5 27.5s-19.5 13.5 -27.5 13.5c-20 0 -30 -16.333 -30 -49h-78c0 89.333 37.667 134 113 134c18.667 0 35 -4.66699 49 -14s26.167 -18.5 36.5 -27.5s19.5 -13.5 27.5 -13.5c20 0 30 16.333 30 49h78
c0 -89.333 -37.667 -134 -113 -134z" />
    <glyph glyph-name="ograve" unicode="&#xf2;" horiz-adv-x="576" 
d="M287 -12c-79.333 0 -142.833 24.667 -190.5 74s-71.5 109.333 -71.5 180s23.833 130.5 71.5 179.5s111.167 73.5 190.5 73.5c80 0 144 -24.5 192 -73.5s72 -108.833 72 -179.5s-24 -130.667 -72 -180s-112 -74 -192 -74zM287 124c32.667 0 58.5 11.167 77.5 33.5
s28.5 50.5 28.5 84.5c0 33.333 -9.5 61.166 -28.5 83.499s-44.833 33.5 -77.5 33.5c-32 0 -57.333 -11.167 -76 -33.5s-28 -50.166 -28 -83.499c0 -34 9.33301 -62.167 28 -84.5s44 -33.5 76 -33.5zM378 556h-104l-159 144h136z" />
    <glyph glyph-name="oacute" unicode="&#xf3;" horiz-adv-x="576" 
d="M287 -12c-79.333 0 -142.833 24.667 -190.5 74s-71.5 109.333 -71.5 180s23.833 130.5 71.5 179.5s111.167 73.5 190.5 73.5c80 0 144 -24.5 192 -73.5s72 -108.833 72 -179.5s-24 -130.667 -72 -180s-112 -74 -192 -74zM287 124c32.667 0 58.5 11.167 77.5 33.5
s28.5 50.5 28.5 84.5c0 33.333 -9.5 61.166 -28.5 83.499s-44.833 33.5 -77.5 33.5c-32 0 -57.333 -11.167 -76 -33.5s-28 -50.166 -28 -83.499c0 -34 9.33301 -62.167 28 -84.5s44 -33.5 76 -33.5zM461 700l-159 -144h-104l127 144h136z" />
    <glyph glyph-name="ocircumflex" unicode="&#xf4;" horiz-adv-x="576" 
d="M287 -12c-79.333 0 -142.833 24.667 -190.5 74s-71.5 109.333 -71.5 180s23.833 130.5 71.5 179.5s111.167 73.5 190.5 73.5c80 0 144 -24.5 192 -73.5s72 -108.833 72 -179.5s-24 -130.667 -72 -180s-112 -74 -192 -74zM287 124c32.667 0 58.5 11.167 77.5 33.5
s28.5 50.5 28.5 84.5c0 33.333 -9.5 61.166 -28.5 83.499s-44.833 33.5 -77.5 33.5c-32 0 -57.333 -11.167 -76 -33.5s-28 -50.166 -28 -83.499c0 -34 9.33301 -62.167 28 -84.5s44 -33.5 76 -33.5zM448 556h-92l-69 81l-65 -81h-92l90 144h135z" />
    <glyph glyph-name="otilde" unicode="&#xf5;" horiz-adv-x="576" 
d="M287 -12c-79.333 0 -142.833 24.667 -190.5 74s-71.5 109.333 -71.5 180s23.833 130.5 71.5 179.5s111.167 73.5 190.5 73.5c80 0 144 -24.5 192 -73.5s72 -108.833 72 -179.5s-24 -130.667 -72 -180s-112 -74 -192 -74zM287 124c32.667 0 58.5 11.167 77.5 33.5
s28.5 50.5 28.5 84.5c0 33.333 -9.5 61.166 -28.5 83.499s-44.833 33.5 -77.5 33.5c-32 0 -57.333 -11.167 -76 -33.5s-28 -50.166 -28 -83.499c0 -34 9.33301 -62.167 28 -84.5s44 -33.5 76 -33.5zM342 554c-18.667 0 -35 4.66699 -49 14s-26.167 18.5 -36.5 27.5
s-19.5 13.5 -27.5 13.5c-20 0 -30 -16.333 -30 -49h-78c0 89.333 37.667 134 113 134c18.667 0 35 -4.66699 49 -14s26.167 -18.5 36.5 -27.5s19.5 -13.5 27.5 -13.5c20 0 30 16.333 30 49h78c0 -89.333 -37.667 -134 -113 -134z" />
    <glyph glyph-name="odieresis" unicode="&#xf6;" horiz-adv-x="576" 
d="M287 -12c-79.333 0 -142.833 24.667 -190.5 74s-71.5 109.333 -71.5 180s23.833 130.5 71.5 179.5s111.167 73.5 190.5 73.5c80 0 144 -24.5 192 -73.5s72 -108.833 72 -179.5s-24 -130.667 -72 -180s-112 -74 -192 -74zM287 124c32.667 0 58.5 11.167 77.5 33.5
s28.5 50.5 28.5 84.5c0 33.333 -9.5 61.166 -28.5 83.499s-44.833 33.5 -77.5 33.5c-32 0 -57.333 -11.167 -76 -33.5s-28 -50.166 -28 -83.499c0 -34 9.33301 -62.167 28 -84.5s44 -33.5 76 -33.5zM473 615c0 -22 -7.66699 -40.667 -23 -56s-34 -23 -56 -23
c-21.333 0 -39.666 7.66699 -54.999 23s-23 34 -23 56c0 21.333 7.66699 39.666 23 54.999s33.666 23 54.999 23c22 0 40.667 -7.66699 56 -23s23 -33.666 23 -54.999zM259 615c0 -22 -7.66699 -40.667 -23 -56s-34 -23 -56 -23c-21.333 0 -39.666 7.66699 -54.999 23
s-23 34 -23 56c0 21.333 7.66699 39.666 23 54.999s33.666 23 54.999 23c22 0 40.667 -7.66699 56 -23s23 -33.666 23 -54.999z" />
    <glyph glyph-name="divide" unicode="&#xf7;" horiz-adv-x="511" 
d="M324 510c0 -18.667 -6.83105 -34.834 -20.498 -48.501s-29.834 -20.5 -48.501 -20.5s-34.667 6.83301 -48 20.5s-20 29.834 -20 48.501s6.5 34.667 19.5 48s29.167 20 48.5 20s35.666 -6.66699 48.999 -20s20 -29.333 20 -48zM482.002 291h-453v92h453v-92zM324.002 164
c0 -18.667 -6.66895 -34.832 -20.002 -48.499s-29.666 -20.5 -48.999 -20.5c-18.667 0 -34.667 6.66699 -48 20s-20 29.666 -20 48.999c0 18.667 6.66699 34.667 20 48s29.333 20 48 20s34.834 -6.66699 48.501 -20s20.5 -29.333 20.5 -48z" />
    <glyph glyph-name="oslash" unicode="&#xf8;" horiz-adv-x="576" 
d="M119 0l-90.001 -0.000976562l60 69c-42.667 46.667 -64 104.334 -64 173.001c0 70.667 23.833 130.5 71.5 179.5s111.167 73.5 190.5 73.5c54 0 102 -12.333 144 -37l22 25h92l-60 -68c44 -47.333 66 -105 66 -173c0 -70.667 -24 -130.667 -72 -180s-112 -74 -192 -74
c-55.333 0 -103.666 12.667 -144.999 38zM286.999 123.999c32.667 0 58.5 11.167 77.5 33.5s28.5 50.5 28.5 84.5c0 19.333 -3.66699 38 -11 56l-144 -163c14.667 -7.33301 31 -11 49 -11zM182.999 241.999c0 -21.333 3.33301 -39.668 10 -55.001l142 161
c-14.667 7.33301 -30.667 11 -48 11c-32 0 -57.333 -11.167 -76 -33.5s-28 -50.166 -28 -83.499z" />
    <glyph glyph-name="ugrave" unicode="&#xf9;" horiz-adv-x="592" 
d="M536 0h-154v58c-41.333 -46.667 -97 -70 -167 -70c-52.667 0 -92.334 13.667 -119.001 41s-40 64 -40 110v344h154v-280c0 -52.667 26.667 -79 80 -79c36.667 0 67.334 15.667 92.001 47v312h154v-483zM388 556h-104l-159 144h136z" />
    <glyph glyph-name="uacute" unicode="&#xfa;" horiz-adv-x="592" 
d="M536 0h-154v58c-41.333 -46.667 -97 -70 -167 -70c-52.667 0 -92.334 13.667 -119.001 41s-40 64 -40 110v344h154v-280c0 -52.667 26.667 -79 80 -79c36.667 0 67.334 15.667 92.001 47v312h154v-483zM471 700l-159 -144h-104l127 144h136z" />
    <glyph glyph-name="ucircumflex" unicode="&#xfb;" horiz-adv-x="592" 
d="M536 0h-154v58c-41.333 -46.667 -97 -70 -167 -70c-52.667 0 -92.334 13.667 -119.001 41s-40 64 -40 110v344h154v-280c0 -52.667 26.667 -79 80 -79c36.667 0 67.334 15.667 92.001 47v312h154v-483zM457 556h-92l-69 81l-65 -81h-92l90 144h135z" />
    <glyph glyph-name="udieresis" unicode="&#xfc;" horiz-adv-x="592" 
d="M536 0h-154v58c-41.333 -46.667 -97 -70 -167 -70c-52.667 0 -92.334 13.667 -119.001 41s-40 64 -40 110v344h154v-280c0 -52.667 26.667 -79 80 -79c36.667 0 67.334 15.667 92.001 47v312h154v-483zM484 615c0 -22 -7.66699 -40.667 -23 -56s-34 -23 -56 -23
c-21.333 0 -39.666 7.66699 -54.999 23s-23 34 -23 56c0 21.333 7.66699 39.666 23 54.999s33.666 23 54.999 23c22 0 40.667 -7.66699 56 -23s23 -33.666 23 -54.999zM270 615c0 -22 -7.66699 -40.667 -23 -56s-34 -23 -56 -23c-21.333 0 -39.666 7.66699 -54.999 23
s-23 34 -23 56c0 21.333 7.66699 39.666 23 54.999s33.666 23 54.999 23c22 0 40.667 -7.66699 56 -23s23 -33.666 23 -54.999z" />
    <glyph glyph-name="yacute" unicode="&#xfd;" horiz-adv-x="524" 
d="M46 -188l21.999 136.999c10.667 -6 23.334 -9 38.001 -9c36 0 58 9 66 27l11 26l-193 490h162l110 -306l109 306h163l-218 -552c-18.667 -46.667 -44.667 -79.167 -78 -97.5s-75.333 -28.166 -126 -29.499c-26.667 0 -48.667 2.66699 -66 8zM434.999 699.999l-159 -144
h-104l127 144h136z" />
    <glyph glyph-name="thorn" unicode="&#xfe;" horiz-adv-x="589" 
d="M353 -12c-56.667 0 -104.333 23 -143 69v-241h-154v851h154v-240c37.333 45.333 85 68 143 68c62.667 0 113.667 -22.333 153 -67s59 -106.667 59 -186c0 -80 -19.667 -142.333 -59 -187s-90.333 -67 -153 -67zM302.001 124c30.667 0 56 10.668 76 32.001s30 50 30 86
c0 35.333 -10 63.666 -30 84.999s-45.333 32 -76 32c-16.667 0 -33.834 -4.16699 -51.501 -12.5s-31.167 -18.833 -40.5 -31.5v-147c9.33301 -12.667 22.833 -23.167 40.5 -31.5s34.834 -12.5 51.501 -12.5z" />
    <glyph glyph-name="ydieresis" unicode="&#xff;" horiz-adv-x="524" 
d="M46 -188l21.999 137c10.667 -6 23.334 -9 38.001 -9c36 0 58 9 66 27l11 26l-193 490h162l110 -306l109 306h163l-218 -552c-18.667 -47.333 -44.5 -80 -77.5 -98s-75.167 -27.667 -126.5 -29c-26.667 0 -48.667 2.66699 -66 8zM446.999 615
c0 -22 -7.66699 -40.667 -23 -56s-34 -23 -56 -23c-21.333 0 -39.666 7.66699 -54.999 23s-23 34 -23 56c0 21.333 7.66699 39.666 23 54.999s33.666 23 54.999 23c22 0 40.667 -7.66699 56 -23s23 -33.666 23 -54.999zM232.999 615c0 -22 -7.66699 -40.667 -23 -56
s-34 -23 -56 -23c-21.333 0 -39.666 7.66699 -54.999 23s-23 34 -23 56c0 21.333 7.66699 39.666 23 54.999s33.666 23 54.999 23c22 0 40.667 -7.66699 56 -23s23 -33.666 23 -54.999z" />
    <glyph glyph-name="Amacron" unicode="&#x100;" horiz-adv-x="697" 
d="M708 0h-195l-33 96h-263l-33 -96h-195l251 667h217zM433 246l-84 251l-85 -251h169zM530 746h-363v85h363v-85z" />
    <glyph glyph-name="amacron" unicode="&#x101;" horiz-adv-x="551" 
d="M495 0l-154.002 0.000976562v48c-15.333 -18 -36.5 -32.5 -63.5 -43.5s-55.833 -16.5 -86.5 -16.5c-42 0 -80.167 14 -114.5 42s-51.5 67 -51.5 117c0 53.333 16.667 92.666 50 117.999s72 38 116 38c69.333 0 119.333 -19 150 -57v48c0 21.333 -8.66699 38.5 -26 51.5
s-41.333 19.5 -72 19.5c-49.333 0 -94.333 -17.333 -135 -52l-57 107c58.667 50 131.667 75 219 75c30.667 0 58.834 -3.16699 84.501 -9.5s49.334 -16.5 71.001 -30.5s38.667 -34 51 -60s18.5 -57 18.5 -93v-302zM254.998 89.001c41.333 0 70 11.667 86 35v43
c-16 22.667 -44.667 34 -86 34c-21.333 0 -39.5 -4.83301 -54.5 -14.5s-22.5 -23.5 -22.5 -41.5s7.5 -31.833 22.5 -41.5s33.167 -14.5 54.5 -14.5zM453.998 573.001h-363v85h363v-85z" />
    <glyph glyph-name="Abreve" unicode="&#x102;" horiz-adv-x="697" 
d="M708 0h-195l-33 96h-263l-33 -96h-195l251 667h217zM433 246l-84 251l-85 -251h169zM524 800c-43.333 -58.667 -101.667 -88 -175 -88c-72.667 0 -131.334 29.333 -176.001 88l66 54c28.667 -38.667 65.334 -58 110.001 -58c46 0 82.667 19.333 110 58z" />
    <glyph glyph-name="abreve" unicode="&#x103;" horiz-adv-x="551" 
d="M495 0l-154.002 0.000976562v48c-15.333 -18 -36.5 -32.5 -63.5 -43.5s-55.833 -16.5 -86.5 -16.5c-42 0 -80.167 14 -114.5 42s-51.5 67 -51.5 117c0 53.333 16.667 92.666 50 117.999s72 38 116 38c69.333 0 119.333 -19 150 -57v48c0 21.333 -8.66699 38.5 -26 51.5
s-41.333 19.5 -72 19.5c-49.333 0 -94.333 -17.333 -135 -52l-57 107c58.667 50 131.667 75 219 75c30.667 0 58.834 -3.16699 84.501 -9.5s49.334 -16.5 71.001 -30.5s38.667 -34 51 -60s18.5 -57 18.5 -93v-302zM254.998 89.001c41.333 0 70 11.667 86 35v43
c-16 22.667 -44.667 34 -86 34c-21.333 0 -39.5 -4.83301 -54.5 -14.5s-22.5 -23.5 -22.5 -41.5s7.5 -31.833 22.5 -41.5s33.167 -14.5 54.5 -14.5zM447.998 641.001c-43.333 -58.667 -101.667 -88 -175 -88c-72.667 0 -131.334 29.333 -176.001 88l66 54
c28.667 -38.667 65.334 -58 110.001 -58c46 0 82.667 19.333 110 58z" />
    <glyph glyph-name="Aogonek" unicode="&#x104;" horiz-adv-x="697" 
d="M712 -94l59 -37c-22 -36.667 -54.667 -55 -98 -55c-30 0 -55 7.66699 -75 23s-30 38.333 -30 69c0 36.667 14 68 42 94h-97l-33 96h-263l-33 -96h-195l251 667h217l251 -667c-45.333 -23.333 -68 -52.333 -68 -87c0 -25.333 11 -38 33 -38c18 0 31 10.333 39 31zM433 246
l-84 251l-85 -251h169z" />
    <glyph glyph-name="aogonek" unicode="&#x105;" horiz-adv-x="551" 
d="M499 -94l58.998 -36.999c-22 -36.667 -54.667 -55 -98 -55c-30 0 -55 7.66699 -75 23s-30 38.333 -30 69c0 36.667 14 68 42 94h-56v48c-15.333 -18 -36.5 -32.5 -63.5 -43.5s-55.833 -16.5 -86.5 -16.5c-42 0 -80.167 14 -114.5 42s-51.5 67 -51.5 117
c0 53.333 16.667 92.666 50 117.999s72 38 116 38c69.333 0 119.333 -19 150 -57v48c0 21.333 -8.66699 38.5 -26 51.5s-41.333 19.5 -72 19.5c-49.333 0 -94.333 -17.333 -135 -52l-57 107c58.667 50 131.667 75 219 75c30.667 0 58.834 -3.16699 84.501 -9.5
s49.334 -16.5 71.001 -30.5s38.667 -34 51 -60s18.5 -57 18.5 -93v-302c-45.333 -23.333 -68 -52.333 -68 -87c0 -25.333 11 -38 33 -38c18 0 31 10.333 39 31zM254.998 89.001c41.333 0 70 11.667 86 35v43c-16 22.667 -44.667 34 -86 34
c-21.333 0 -39.5 -4.83301 -54.5 -14.5s-22.5 -23.5 -22.5 -41.5s7.5 -31.833 22.5 -41.5s33.167 -14.5 54.5 -14.5z" />
    <glyph glyph-name="Cacute" unicode="&#x106;" horiz-adv-x="692" 
d="M387 -12c-103.333 0 -189.332 32.168 -257.999 96.501s-103 147.166 -103 248.499c0 102 34.167 185 102.5 249s154.5 96 258.5 96c74 0 134.667 -17 182 -51s83.666 -76.333 108.999 -127l-148 -71c-11.333 27.333 -30.166 50.333 -56.499 69s-55.166 28 -86.499 28
c-54 0 -98.5 -18.333 -133.5 -55s-52.5 -82.667 -52.5 -138c0 -54.667 17.5 -100.5 52.5 -137.5s79.5 -55.5 133.5 -55.5c31.333 0 60.166 9.33301 86.499 28s45.166 41.667 56.499 69l148 -70c-25.333 -50.667 -61.833 -93.167 -109.5 -127.5s-108.167 -51.5 -181.5 -51.5z
M560.001 872.001l-159 -144h-104l127 144h136z" />
    <glyph glyph-name="cacute" unicode="&#x107;" horiz-adv-x="500" 
d="M288 -12c-76 0 -138.833 23.667 -188.5 71s-74.5 108.333 -74.5 183s24.833 135.5 74.5 182.5s112.5 70.5 188.5 70.5c48 0 88.833 -8.66699 122.5 -26s58.834 -38.333 75.501 -63l-100 -93c-20.667 30.667 -51 46 -91 46c-32.667 0 -59.667 -10.5 -81 -31.5
s-32 -49.5 -32 -85.5s10.667 -64.667 32 -86s48.333 -32 81 -32c38.667 0 69 15.667 91 47l100 -94c-16.667 -24.667 -41.834 -45.667 -75.501 -63s-74.5 -26 -122.5 -26zM470 700l-159 -144h-104l127 144h136z" />
    <glyph glyph-name="Ccircumflex" unicode="&#x108;" horiz-adv-x="692" 
d="M387 -12c-103.333 0 -189.332 32.168 -257.999 96.501s-103 147.166 -103 248.499c0 102 34.167 185 102.5 249s154.5 96 258.5 96c74 0 134.667 -17 182 -51s83.666 -76.333 108.999 -127l-148 -71c-11.333 27.333 -30.166 50.333 -56.499 69s-55.166 28 -86.499 28
c-54 0 -98.5 -18.333 -133.5 -55s-52.5 -82.667 -52.5 -138c0 -54.667 17.5 -100.5 52.5 -137.5s79.5 -55.5 133.5 -55.5c31.333 0 60.166 9.33301 86.499 28s45.166 41.667 56.499 69l148 -70c-25.333 -50.667 -61.833 -93.167 -109.5 -127.5s-108.167 -51.5 -181.5 -51.5z
M545.001 728.001h-92l-69 81l-65 -81h-92l90 144h135z" />
    <glyph glyph-name="ccircumflex" unicode="&#x109;" horiz-adv-x="500" 
d="M288 -12c-76 0 -138.833 23.667 -188.5 71s-74.5 108.333 -74.5 183s24.833 135.5 74.5 182.5s112.5 70.5 188.5 70.5c48 0 88.833 -8.66699 122.5 -26s58.834 -38.333 75.501 -63l-100 -93c-20.667 30.667 -51 46 -91 46c-32.667 0 -59.667 -10.5 -81 -31.5
s-32 -49.5 -32 -85.5s10.667 -64.667 32 -86s48.333 -32 81 -32c38.667 0 69 15.667 91 47l100 -94c-16.667 -24.667 -41.834 -45.667 -75.501 -63s-74.5 -26 -122.5 -26zM456 556h-92l-69 81l-65 -81h-92l90 144h135z" />
    <glyph glyph-name="Cdotaccent" unicode="&#x10a;" horiz-adv-x="692" 
d="M387 -12c-103.333 0 -189.332 32.168 -257.999 96.501s-103 147.166 -103 248.499c0 102 34.167 185 102.5 249s154.5 96 258.5 96c74 0 134.667 -17 182 -51s83.666 -76.333 108.999 -127l-148 -71c-11.333 27.333 -30.166 50.333 -56.499 69s-55.166 28 -86.499 28
c-54 0 -98.5 -18.333 -133.5 -55s-52.5 -82.667 -52.5 -138c0 -54.667 17.5 -100.5 52.5 -137.5s79.5 -55.5 133.5 -55.5c31.333 0 60.166 9.33301 86.499 28s45.166 41.667 56.499 69l148 -70c-25.333 -50.667 -61.833 -93.167 -109.5 -127.5s-108.167 -51.5 -181.5 -51.5z
M389.001 712.001c-21.333 0 -39.666 7.66699 -54.999 23s-23 33.666 -23 54.999s7.66699 39.833 23 55.5s33.666 23.5 54.999 23.5s39.666 -7.83301 54.999 -23.5s23 -34.167 23 -55.5s-7.66699 -39.666 -23 -54.999s-33.666 -23 -54.999 -23z" />
    <glyph glyph-name="cdotaccent" unicode="&#x10b;" horiz-adv-x="500" 
d="M288 -12c-76 0 -138.833 23.667 -188.5 71s-74.5 108.333 -74.5 183s24.833 135.5 74.5 182.5s112.5 70.5 188.5 70.5c48 0 88.833 -8.66699 122.5 -26s58.834 -38.333 75.501 -63l-100 -93c-20.667 30.667 -51 46 -91 46c-32.667 0 -59.667 -10.5 -81 -31.5
s-32 -49.5 -32 -85.5s10.667 -64.667 32 -86s48.333 -32 81 -32c38.667 0 69 15.667 91 47l100 -94c-16.667 -24.667 -41.834 -45.667 -75.501 -63s-74.5 -26 -122.5 -26zM287 541c-21.333 0 -39.666 7.66699 -54.999 23s-23 33.666 -23 54.999s7.66699 39.833 23 55.5
s33.666 23.5 54.999 23.5s39.666 -7.83301 54.999 -23.5s23 -34.167 23 -55.5s-7.66699 -39.666 -23 -54.999s-33.666 -23 -54.999 -23z" />
    <glyph glyph-name="Ccaron" unicode="&#x10c;" horiz-adv-x="692" 
d="M387 -12c-103.333 0 -189.332 32.168 -257.999 96.501s-103 147.166 -103 248.499c0 102 34.167 185 102.5 249s154.5 96 258.5 96c74 0 134.667 -17 182 -51s83.666 -76.333 108.999 -127l-148 -71c-11.333 27.333 -30.166 50.333 -56.499 69s-55.166 28 -86.499 28
c-54 0 -98.5 -18.333 -133.5 -55s-52.5 -82.667 -52.5 -138c0 -54.667 17.5 -100.5 52.5 -137.5s79.5 -55.5 133.5 -55.5c31.333 0 60.166 9.33301 86.499 28s45.166 41.667 56.499 69l148 -70c-25.333 -50.667 -61.833 -93.167 -109.5 -127.5s-108.167 -51.5 -181.5 -51.5z
M455.001 728.001h-135l-93 144h92l68 -81l66 81h92z" />
    <glyph glyph-name="ccaron" unicode="&#x10d;" horiz-adv-x="500" 
d="M288 -12c-76 0 -138.833 23.667 -188.5 71s-74.5 108.333 -74.5 183s24.833 135.5 74.5 182.5s112.5 70.5 188.5 70.5c48 0 88.833 -8.66699 122.5 -26s58.834 -38.333 75.501 -63l-100 -93c-20.667 30.667 -51 46 -91 46c-32.667 0 -59.667 -10.5 -81 -31.5
s-32 -49.5 -32 -85.5s10.667 -64.667 32 -86s48.333 -32 81 -32c38.667 0 69 15.667 91 47l100 -94c-16.667 -24.667 -41.834 -45.667 -75.501 -63s-74.5 -26 -122.5 -26zM366 556h-135l-93 144h92l68 -81l66 81h92z" />
    <glyph glyph-name="Dcaron" unicode="&#x10e;" horiz-adv-x="727" 
d="M341 0h-281v667h280c106.667 0 193.5 -30 260.5 -90s100.5 -141 100.5 -243s-33.5 -183.167 -100.5 -243.5s-153.5 -90.5 -259.5 -90.5zM340 150c56.667 0 101.667 17.833 135 53.5s50 79.167 50 130.5c0 54 -16 98 -48 132s-77.333 51 -136 51h-109v-367h108zM437 728
h-135l-93 144h92l68 -81l66 81h92z" />
    <glyph glyph-name="dcaron" unicode="&#x10f;" horiz-adv-x="713" 
d="M534 0h-153.001v56c-39.333 -45.333 -87 -68 -143 -68c-62 0 -113 22.5 -153 67.5s-60 107.167 -60 186.5c0 77.333 20 138.833 60 184.5s91 68.5 153 68.5c58.667 0 106.334 -23 143.001 -69v241h153v-667zM287.999 124c16.667 0 33.834 4.16602 51.501 12.499
s31.5 18.833 41.5 31.5v148c-10 12.667 -23.833 23 -41.5 31s-34.834 12 -51.501 12c-31.333 0 -56.833 -10.667 -76.5 -32s-29.5 -49.666 -29.5 -84.999s10 -63.833 30 -85.5s45.333 -32.5 76 -32.5zM717.999 589.999c0 -62.667 -29.3301 -115.002 -87.9971 -157.002
l-49 39c13.333 7.33301 26.666 18.5 39.999 33.5s21.666 29.5 24.999 43.5c-2 -2 -7.66699 -3 -17 -3c-16.667 0 -30.667 5.83301 -42 17.5s-17 26.834 -17 45.501c0 19.333 6.83301 36 20.5 50s30.167 21 49.5 21c21.333 0 39.666 -8.16699 54.999 -24.5
s23 -38.166 23 -65.499z" />
    <glyph glyph-name="Dcroat" unicode="&#x110;" horiz-adv-x="750" 
d="M364 0h-281v265h-75v132h75v270h280c106.667 0 193.5 -30 260.5 -90s100.5 -141 100.5 -243s-33.5 -183.167 -100.5 -243.5s-153.5 -90.5 -259.5 -90.5zM395 265h-140v-115h108c56.667 0 101.667 17.833 135 53.5s50 79.167 50 130.5c0 54 -16 98 -48 132
s-77.333 51 -136 51h-109v-120h140v-132z" />
    <glyph glyph-name="dcroat" unicode="&#x111;" horiz-adv-x="596" 
d="M534 0h-153.001v56c-39.333 -45.333 -87 -68 -143 -68c-62 0 -113 22.5 -153 67.5s-60 107.167 -60 186.5c0 77.333 20 138.833 60 184.5s91 68.5 153 68.5c58.667 0 106.334 -23 143.001 -69v98h-140v85h140v58h153v-58h54v-85h-54v-524zM287.999 124
c16.667 0 33.834 4.16602 51.501 12.499s31.5 18.833 41.5 31.5v148c-10 12.667 -23.833 23 -41.5 31s-34.834 12 -51.501 12c-31.333 0 -56.833 -10.667 -76.5 -32s-29.5 -49.666 -29.5 -84.999s10 -63.833 30 -85.5s45.333 -32.5 76 -32.5z" />
    <glyph glyph-name="Emacron" unicode="&#x112;" horiz-adv-x="589" 
d="M549 0h-489v667h489v-150h-317v-104h310v-150h-310v-113h317v-150zM483 746h-363v85h363v-85z" />
    <glyph glyph-name="emacron" unicode="&#x113;" horiz-adv-x="548" 
d="M288 -12c-76 0 -138.833 23.167 -188.5 69.5s-74.5 107.833 -74.5 184.5c0 71.333 24 131.333 72 180s109.333 73 184 73c72.667 0 132 -24.5 178 -73.5s69 -114.167 69 -195.5v-35h-344c6 -23.333 19.333 -42.333 40 -57s47.667 -22 81 -22
c18.667 0 39.667 3.83301 63 11.5s41.666 17.5 54.999 29.5l67 -101c-23.333 -20.667 -53.166 -36.5 -89.499 -47.5s-73.833 -16.5 -112.5 -16.5zM381 296c-2.66699 20 -12 37.501 -28 52.501s-40 22.5 -72 22.5c-30.667 0 -54 -7.33301 -70 -22
s-25.667 -32.334 -29 -53.001h199zM457 573.001h-363v85h363v-85z" />
    <glyph glyph-name="Ebreve" unicode="&#x114;" horiz-adv-x="589" 
d="M549 0h-489v667h489v-150h-317v-104h310v-150h-310v-113h317v-150zM476 800c-43.333 -58.667 -101.667 -88 -175 -88c-72.667 0 -131.334 29.333 -176.001 88l66 54c28.667 -38.667 65.334 -58 110.001 -58c46 0 82.667 19.333 110 58z" />
    <glyph glyph-name="ebreve" unicode="&#x115;" horiz-adv-x="548" 
d="M288 -12c-76 0 -138.833 23.167 -188.5 69.5s-74.5 107.833 -74.5 184.5c0 71.333 24 131.333 72 180s109.333 73 184 73c72.667 0 132 -24.5 178 -73.5s69 -114.167 69 -195.5v-35h-344c6 -23.333 19.333 -42.333 40 -57s47.667 -22 81 -22
c18.667 0 39.667 3.83301 63 11.5s41.666 17.5 54.999 29.5l67 -101c-23.333 -20.667 -53.166 -36.5 -89.499 -47.5s-73.833 -16.5 -112.5 -16.5zM381 296c-2.66699 20 -12 37.501 -28 52.501s-40 22.5 -72 22.5c-30.667 0 -54 -7.33301 -70 -22
s-25.667 -32.334 -29 -53.001h199zM458 641.001c-43.333 -58.667 -101.667 -88 -175 -88c-72.667 0 -131.334 29.333 -176.001 88l66 54c28.667 -38.667 65.334 -58 110.001 -58c46 0 82.667 19.333 110 58z" />
    <glyph glyph-name="Edotaccent" unicode="&#x116;" horiz-adv-x="589" 
d="M549 0h-489v667h489v-150h-317v-104h310v-150h-310v-113h317v-150zM305 712c-21.333 0 -39.666 7.66699 -54.999 23s-23 33.666 -23 54.999s7.66699 39.833 23 55.5s33.666 23.5 54.999 23.5s39.666 -7.83301 54.999 -23.5s23 -34.167 23 -55.5
s-7.66699 -39.666 -23 -54.999s-33.666 -23 -54.999 -23z" />
    <glyph glyph-name="edotaccent" unicode="&#x117;" horiz-adv-x="548" 
d="M288 -12c-76 0 -138.833 23.167 -188.5 69.5s-74.5 107.833 -74.5 184.5c0 71.333 24 131.333 72 180s109.333 73 184 73c72.667 0 132 -24.5 178 -73.5s69 -114.167 69 -195.5v-35h-344c6 -23.333 19.333 -42.333 40 -57s47.667 -22 81 -22
c18.667 0 39.667 3.83301 63 11.5s41.666 17.5 54.999 29.5l67 -101c-23.333 -20.667 -53.166 -36.5 -89.499 -47.5s-73.833 -16.5 -112.5 -16.5zM381 296c-2.66699 20 -12 37.501 -28 52.501s-40 22.5 -72 22.5c-30.667 0 -54 -7.33301 -70 -22
s-25.667 -32.334 -29 -53.001h199zM283 541.001c-21.333 0 -39.666 7.66699 -54.999 23s-23 33.666 -23 54.999s7.66699 39.833 23 55.5s33.666 23.5 54.999 23.5s39.666 -7.83301 54.999 -23.5s23 -34.167 23 -55.5s-7.66699 -39.666 -23 -54.999s-33.666 -23 -54.999 -23z
" />
    <glyph glyph-name="Eogonek" unicode="&#x118;" horiz-adv-x="589" 
d="M553 -94l59 -37c-22 -36.667 -54.667 -55 -98 -55c-30 0 -55 7.66699 -75 23s-30 38.333 -30 69c0 36.667 14 68 42 94h-391v667h489v-150h-317v-104h310v-150h-310v-113h317v-150c-45.333 -23.333 -68 -52.333 -68 -87c0 -25.333 11 -38 33 -38c18 0 31 10.333 39 31z
" />
    <glyph glyph-name="eogonek" unicode="&#x119;" horiz-adv-x="548" 
d="M388 -94l59.001 -37.001c-22 -36.667 -54.667 -55 -98 -55c-30 0 -55 7.66699 -75 23s-30 38.333 -30 69c0 30 10.333 57.333 31 82c-73.333 3.33301 -133.333 27.833 -180 73.5s-70 105.834 -70 180.501c0 71.333 24 131.333 72 180s109.333 73 184 73
c72.667 0 132 -24.5 178 -73.5s69 -114.167 69 -195.5v-35h-344c6 -23.333 19.333 -42.333 40 -57s47.667 -22 81 -22c18.667 0 39.667 3.83301 63 11.5s41.666 17.5 54.999 29.5l67 -101c-26.667 -24 -62 -41.333 -106 -52c-45.333 -23.333 -68 -52.333 -68 -87
c0 -25.333 11 -38 33 -38c18 0 31 10.333 39 31zM381.001 295.999c-2.66699 20 -12 37.501 -28 52.501s-40 22.5 -72 22.5c-30.667 0 -54 -7.33301 -70 -22s-25.667 -32.334 -29 -53.001h199z" />
    <glyph glyph-name="Ecaron" unicode="&#x11a;" horiz-adv-x="589" 
d="M549 0h-489v667h489v-150h-317v-104h310v-150h-310v-113h317v-150zM374 728h-135l-93 144h92l68 -81l66 81h92z" />
    <glyph glyph-name="ecaron" unicode="&#x11b;" horiz-adv-x="548" 
d="M288 -12c-76 0 -138.833 23.167 -188.5 69.5s-74.5 107.833 -74.5 184.5c0 71.333 24 131.333 72 180s109.333 73 184 73c72.667 0 132 -24.5 178 -73.5s69 -114.167 69 -195.5v-35h-344c6 -23.333 19.333 -42.333 40 -57s47.667 -22 81 -22
c18.667 0 39.667 3.83301 63 11.5s41.666 17.5 54.999 29.5l67 -101c-23.333 -20.667 -53.166 -36.5 -89.499 -47.5s-73.833 -16.5 -112.5 -16.5zM381 296c-2.66699 20 -12 37.501 -28 52.501s-40 22.5 -72 22.5c-30.667 0 -54 -7.33301 -70 -22
s-25.667 -32.334 -29 -53.001h199zM349 556.001h-135l-93 144h92l68 -81l66 81h92z" />
    <glyph glyph-name="Gcircumflex" unicode="&#x11c;" horiz-adv-x="723" 
d="M387 -12c-102 0 -187.666 31.6699 -256.999 95.0029s-104 146.666 -104 249.999s34.667 186.666 104 249.999s155 95 257 95c69.333 0 127.666 -15.333 174.999 -46s84 -69.334 110 -116.001l-144 -75c-13.333 24 -32.5 44.167 -57.5 60.5s-52.833 24.5 -83.5 24.5
c-54 0 -98.5 -18.333 -133.5 -55s-52.5 -82.667 -52.5 -138c0 -54.667 17.5 -100.5 52.5 -137.5s79.5 -55.5 133.5 -55.5c23.333 0 46.5 4 69.5 12s40.833 17.333 53.5 28v52h-150v151h322v-265c-78 -86.667 -176.333 -130 -295 -130zM548.001 728.003h-92l-69 81l-65 -81
h-92l90 144h135z" />
    <glyph glyph-name="gcircumflex" unicode="&#x11d;" horiz-adv-x="590" 
d="M257 -196c-84 0 -155.334 24.002 -214.001 72.002l67 108c35.333 -37.333 84.333 -56 147 -56c32 0 60.5 8.66699 85.5 26s37.5 46.666 37.5 87.999v37c-39.333 -47.333 -87 -71 -143 -71c-62 0 -112.833 21 -152.5 63s-59.5 102.333 -59.5 181
c0 77.333 19.667 137.166 59 179.499s90.333 63.5 153 63.5c58 0 105.667 -23 143 -69v57h154v-441c0 -37.333 -5.83301 -70.5 -17.5 -99.5s-26.667 -52 -45 -69s-40.166 -31 -65.499 -42s-50 -18.333 -74 -22s-49 -5.5 -75 -5.5zM287.999 144.002
c16.667 0 33.834 4.00098 51.501 12.001s31.167 18.333 40.5 31v129c-9.33301 12.667 -22.833 23 -40.5 31s-34.834 12 -51.501 12c-31.333 0 -56.833 -9.33301 -76.5 -28s-29.5 -45 -29.5 -79c0 -34.667 9.83301 -61.334 29.5 -80.001s45.167 -28 76.5 -28z
M460.999 547.003h-92l-69 81l-65 -81h-92l90 144h135z" />
    <glyph glyph-name="Gbreve" unicode="&#x11e;" horiz-adv-x="723" 
d="M387 -12c-102 0 -187.666 31.6699 -256.999 95.0029s-104 146.666 -104 249.999s34.667 186.666 104 249.999s155 95 257 95c69.333 0 127.666 -15.333 174.999 -46s84 -69.334 110 -116.001l-144 -75c-13.333 24 -32.5 44.167 -57.5 60.5s-52.833 24.5 -83.5 24.5
c-54 0 -98.5 -18.333 -133.5 -55s-52.5 -82.667 -52.5 -138c0 -54.667 17.5 -100.5 52.5 -137.5s79.5 -55.5 133.5 -55.5c23.333 0 46.5 4 69.5 12s40.833 17.333 53.5 28v52h-150v151h322v-265c-78 -86.667 -176.333 -130 -295 -130zM563.001 800.003
c-43.333 -58.667 -101.667 -88 -175 -88c-72.667 0 -131.334 29.333 -176.001 88l66 54c28.667 -38.667 65.334 -58 110.001 -58c46 0 82.667 19.333 110 58z" />
    <glyph glyph-name="gbreve" unicode="&#x11f;" horiz-adv-x="590" 
d="M257 -196c-84 0 -155.334 24.002 -214.001 72.002l67 108c35.333 -37.333 84.333 -56 147 -56c32 0 60.5 8.66699 85.5 26s37.5 46.666 37.5 87.999v37c-39.333 -47.333 -87 -71 -143 -71c-62 0 -112.833 21 -152.5 63s-59.5 102.333 -59.5 181
c0 77.333 19.667 137.166 59 179.499s90.333 63.5 153 63.5c58 0 105.667 -23 143 -69v57h154v-441c0 -37.333 -5.83301 -70.5 -17.5 -99.5s-26.667 -52 -45 -69s-40.166 -31 -65.499 -42s-50 -18.333 -74 -22s-49 -5.5 -75 -5.5zM287.999 144.002
c16.667 0 33.834 4.00098 51.501 12.001s31.167 18.333 40.5 31v129c-9.33301 12.667 -22.833 23 -40.5 31s-34.834 12 -51.501 12c-31.333 0 -56.833 -9.33301 -76.5 -28s-29.5 -45 -29.5 -79c0 -34.667 9.83301 -61.334 29.5 -80.001s45.167 -28 76.5 -28z
M466.999 641.003c-43.333 -58.667 -101.667 -88 -175 -88c-72.667 0 -131.334 29.333 -176.001 88l66 54c28.667 -38.667 65.334 -58 110.001 -58c46 0 82.667 19.333 110 58z" />
    <glyph glyph-name="Gdotaccent" unicode="&#x120;" horiz-adv-x="723" 
d="M387 -12c-102 0 -187.666 31.6699 -256.999 95.0029s-104 146.666 -104 249.999s34.667 186.666 104 249.999s155 95 257 95c69.333 0 127.666 -15.333 174.999 -46s84 -69.334 110 -116.001l-144 -75c-13.333 24 -32.5 44.167 -57.5 60.5s-52.833 24.5 -83.5 24.5
c-54 0 -98.5 -18.333 -133.5 -55s-52.5 -82.667 -52.5 -138c0 -54.667 17.5 -100.5 52.5 -137.5s79.5 -55.5 133.5 -55.5c23.333 0 46.5 4 69.5 12s40.833 17.333 53.5 28v52h-150v151h322v-265c-78 -86.667 -176.333 -130 -295 -130zM388.001 712.003
c-21.333 0 -39.666 7.66699 -54.999 23s-23 33.666 -23 54.999s7.66699 39.833 23 55.5s33.666 23.5 54.999 23.5s39.666 -7.83301 54.999 -23.5s23 -34.167 23 -55.5s-7.66699 -39.666 -23 -54.999s-33.666 -23 -54.999 -23z" />
    <glyph glyph-name="gdotaccent" unicode="&#x121;" horiz-adv-x="590" 
d="M257 -196c-84 0 -155.334 24.002 -214.001 72.002l67 108c35.333 -37.333 84.333 -56 147 -56c32 0 60.5 8.66699 85.5 26s37.5 46.666 37.5 87.999v37c-39.333 -47.333 -87 -71 -143 -71c-62 0 -112.833 21 -152.5 63s-59.5 102.333 -59.5 181
c0 77.333 19.667 137.166 59 179.499s90.333 63.5 153 63.5c58 0 105.667 -23 143 -69v57h154v-441c0 -37.333 -5.83301 -70.5 -17.5 -99.5s-26.667 -52 -45 -69s-40.166 -31 -65.499 -42s-50 -18.333 -74 -22s-49 -5.5 -75 -5.5zM287.999 144.002
c16.667 0 33.834 4.00098 51.501 12.001s31.167 18.333 40.5 31v129c-9.33301 12.667 -22.833 23 -40.5 31s-34.834 12 -51.501 12c-31.333 0 -56.833 -9.33301 -76.5 -28s-29.5 -45 -29.5 -79c0 -34.667 9.83301 -61.334 29.5 -80.001s45.167 -28 76.5 -28z
M301.999 541.003c-21.333 0 -39.666 7.66699 -54.999 23s-23 33.666 -23 54.999s7.66699 39.833 23 55.5s33.666 23.5 54.999 23.5s39.666 -7.83301 54.999 -23.5s23 -34.167 23 -55.5s-7.66699 -39.666 -23 -54.999s-33.666 -23 -54.999 -23z" />
    <glyph glyph-name="Gcommaaccent" unicode="&#x122;" horiz-adv-x="723" 
d="M387 -12c-102 0 -187.666 31.6699 -256.999 95.0029s-104 146.666 -104 249.999s34.667 186.666 104 249.999s155 95 257 95c69.333 0 127.666 -15.333 174.999 -46s84 -69.334 110 -116.001l-144 -75c-13.333 24 -32.5 44.167 -57.5 60.5s-52.833 24.5 -83.5 24.5
c-54 0 -98.5 -18.333 -133.5 -55s-52.5 -82.667 -52.5 -138c0 -54.667 17.5 -100.5 52.5 -137.5s79.5 -55.5 133.5 -55.5c23.333 0 46.5 4 69.5 12s40.833 17.333 53.5 28v52h-150v151h322v-265c-78 -86.667 -176.333 -130 -295 -130zM466.001 -138.997
c0 -62.667 -29.3301 -115.002 -87.9971 -157.002l-49 39c13.333 7.33301 26.666 18.5 39.999 33.5s21.666 29.5 24.999 43.5c-2 -2 -7.66699 -3 -17 -3c-16.667 0 -30.667 5.83301 -42 17.5s-17 26.834 -17 45.501c0 19.333 6.83301 36 20.5 50s30.167 21 49.5 21
c21.333 0 39.666 -8.16699 54.999 -24.5s23 -38.166 23 -65.499z" />
    <glyph glyph-name="gcommaaccent" unicode="&#x123;" horiz-adv-x="590" 
d="M218 636c0 70 28.334 124.332 85.001 162.999l49 -39c-12.667 -5.33301 -26 -15.166 -40 -29.499s-22 -27.833 -24 -40.5h2c1.33301 0.666992 2.66602 1 3.99902 1c17.333 0 33 -6.5 47 -19.5s21 -28.833 21 -47.5c0 -19.333 -7 -36.166 -21 -50.499s-31 -21.5 -51 -21.5
c-18 0 -34.5 6.66699 -49.5 20s-22.5 34.666 -22.5 63.999zM257.001 -196.001c-84 0 -155.334 24.002 -214.001 72.002l67 108c35.333 -37.333 84.333 -56 147 -56c32 0 60.5 8.66699 85.5 26s37.5 46.666 37.5 87.999v37c-39.333 -47.333 -87 -71 -143 -71
c-62 0 -112.833 21 -152.5 63s-59.5 102.333 -59.5 181c0 77.333 19.667 137.166 59 179.499s90.333 63.5 153 63.5c58 0 105.667 -23 143 -69v57h154v-441c0 -37.333 -5.83301 -70.5 -17.5 -99.5s-26.667 -52 -45 -69s-40.166 -31 -65.499 -42s-50 -18.333 -74 -22
s-49 -5.5 -75 -5.5zM288 144.001c16.667 0 33.834 4.00098 51.501 12.001s31.167 18.333 40.5 31v129c-9.33301 12.667 -22.833 23 -40.5 31s-34.834 12 -51.501 12c-31.333 0 -56.833 -9.33301 -76.5 -28s-29.5 -45 -29.5 -79c0 -34.667 9.83301 -61.334 29.5 -80.001
s45.167 -28 76.5 -28z" />
    <glyph glyph-name="Hcircumflex" unicode="&#x124;" horiz-adv-x="741" 
d="M681 0h-172v268h-277v-268h-172v667h172v-249h277v249h172v-667zM529 728h-92l-69 81l-65 -81h-92l90 144h135z" />
    <glyph glyph-name="hcircumflex" unicode="&#x125;" horiz-adv-x="594" 
d="M538 0h-154.001v281c0 52 -26.667 78 -80 78c-36.667 0 -67.667 -15.667 -93 -47v-312h-154v667h154v-243c40.667 47.333 96.334 71 167.001 71c53.333 0 93.333 -13.5 120 -40.5s40 -63.833 40 -110.5v-344zM295.999 728h-92l-69 81l-65 -81h-92l90 144h135z" />
    <glyph glyph-name="Hbar" unicode="&#x126;" horiz-adv-x="757" 
d="M689 0h-172v268h-277v-268h-172v501h-60v85h60v81h172v-81h277v81h172v-81h60v-85h-60v-501zM240 418h277v83h-277v-83z" />
    <glyph glyph-name="hbar" unicode="&#x127;" horiz-adv-x="598" 
d="M355 524h-140.001v-100c40.667 47.333 96.334 71 167.001 71c53.333 0 93.333 -13.5 120 -40.5s40 -63.833 40 -110.5v-344h-154v281c0 52 -26.667 78 -80 78c-36.667 0 -67.667 -15.667 -93 -47v-312h-154v524h-53v85h53v58h154v-58h140v-85z" />
    <glyph glyph-name="Itilde" unicode="&#x128;" horiz-adv-x="292" 
d="M232 0h-172v667h172v-667zM201 726c-18.667 0 -35 4.66699 -49 14s-26.167 18.5 -36.5 27.5s-19.5 13.5 -27.5 13.5c-20 0 -30 -16.333 -30 -49h-78c0 89.333 37.667 134 113 134c18.667 0 35 -4.66699 49 -14s26.167 -18.5 36.5 -27.5s19.5 -13.5 27.5 -13.5
c20 0 30 16.333 30 49h78c0 -89.333 -37.667 -134 -113 -134z" />
    <glyph glyph-name="itilde" unicode="&#x129;" horiz-adv-x="266" 
d="M210 0h-154v483h154v-483zM188 536c-18.667 0 -35 4.66699 -49 14s-26.167 18.5 -36.5 27.5s-19.5 13.5 -27.5 13.5c-20 0 -30 -16.333 -30 -49h-78c0 89.333 37.667 134 113 134c18.667 0 35 -4.66699 49 -14s26.167 -18.5 36.5 -27.5s19.5 -13.5 27.5 -13.5
c20 0 30 16.333 30 49h78c0 -89.333 -37.667 -134 -113 -134z" />
    <glyph glyph-name="Imacron" unicode="&#x12a;" horiz-adv-x="292" 
d="M232 0h-172v667h172v-667zM328 746h-363v85h363v-85z" />
    <glyph glyph-name="imacron" unicode="&#x12b;" horiz-adv-x="266" 
d="M210 0h-154v483h154v-483zM315 573h-363v85h363v-85z" />
    <glyph glyph-name="Ibreve" unicode="&#x12c;" horiz-adv-x="292" 
d="M232 0h-172v667h172v-667zM325 800c-43.333 -58.667 -101.667 -88 -175 -88c-72.667 0 -131.334 29.333 -176.001 88l66 54c28.667 -38.667 65.334 -58 110.001 -58c46 0 82.667 19.333 110 58z" />
    <glyph glyph-name="ibreve" unicode="&#x12d;" horiz-adv-x="266" 
d="M210 0h-154v483h154v-483zM310 641c-43.333 -58.667 -101.667 -88 -175 -88c-72.667 0 -131.334 29.333 -176.001 88l66 54c28.667 -38.667 65.334 -58 110.001 -58c46 0 82.667 19.333 110 58z" />
    <glyph glyph-name="Iogonek" unicode="&#x12e;" horiz-adv-x="292" 
d="M236 -94l59 -37c-22 -36.667 -54.667 -55 -98 -55c-30 0 -55 7.66699 -75 23s-30 38.333 -30 69c0 36.667 14 68 42 94h-74v667h172v-667c-45.333 -23.333 -68 -52.333 -68 -87c0 -25.333 11 -38 33 -38c18 0 31 10.333 39 31z" />
    <glyph glyph-name="iogonek" unicode="&#x12f;" horiz-adv-x="266" 
d="M214 -94l59 -37c-22 -36.667 -54.667 -55 -98 -55c-30 0 -55 7.66699 -75 23s-30 38.333 -30 69c0 36.667 14 68 42 94h-56v483h154v-483c-45.333 -23.333 -68 -52.333 -68 -87c0 -25.333 11 -38 33 -38c18 0 31 10.333 39 31zM133 526c-24.667 0 -45.5 8.66699 -62.5 26
s-25.5 38.333 -25.5 63s8.5 45.5 25.5 62.5s37.833 25.5 62.5 25.5s45.667 -8.5 63 -25.5s26 -37.833 26 -62.5s-8.66699 -45.667 -26 -63s-38.333 -26 -63 -26z" />
    <glyph glyph-name="Idotaccent" unicode="&#x130;" horiz-adv-x="292" 
d="M232 0h-172v667h172v-667zM147 712c-21.333 0 -39.666 7.66699 -54.999 23s-23 33.666 -23 54.999s7.66699 39.833 23 55.5s33.666 23.5 54.999 23.5s39.666 -7.83301 54.999 -23.5s23 -34.167 23 -55.5s-7.66699 -39.666 -23 -54.999s-33.666 -23 -54.999 -23z" />
    <glyph glyph-name="dotlessi" unicode="&#x131;" horiz-adv-x="266" 
d="M210 0h-154v483h154v-483z" />
    <glyph glyph-name="IJ" unicode="&#x132;" horiz-adv-x="784" 
d="M232 0h-172v667h172v-667zM478 -12c-76.667 0 -137.667 20 -183 60l72 131c31.333 -26 63.333 -39 96 -39c27.333 0 49 8.16699 65 24.5s24 38.5 24 66.5v436h172v-438c0 -80 -22 -140.167 -66 -180.5s-104 -60.5 -180 -60.5z" />
    <glyph glyph-name="ij" unicode="&#x133;" horiz-adv-x="533" 
d="M133 526c-24.667 0 -45.5 8.66699 -62.5 26s-25.5 38.333 -25.5 63s8.5 45.5 25.5 62.5s37.833 25.5 62.5 25.5s45.667 -8.5 63 -25.5s26 -37.833 26 -62.5s-8.66699 -45.667 -26 -63s-38.333 -26 -63 -26zM210 0h-154v483h154v-483zM399 526
c-24.667 0 -45.5 8.66699 -62.5 26s-25.5 38.333 -25.5 63s8.5 45.5 25.5 62.5s37.833 25.5 62.5 25.5s45.667 -8.5 63 -25.5s26 -37.833 26 -62.5s-8.66699 -45.667 -26 -63s-38.333 -26 -63 -26zM289 -196c-31.333 0 -55.333 2.5 -72 7.5s-35 13.833 -55 26.5l39 112
c17.333 -14.667 38 -22 62 -22c39.333 0 59 25.333 59 76v479h154v-479c0 -61.333 -15.667 -110 -47 -146s-78 -54 -140 -54z" />
    <glyph glyph-name="Jcircumflex" unicode="&#x134;" horiz-adv-x="492" 
d="M186 -12c-76.667 0 -137.667 20 -183 60l72 131c31.333 -26 63.333 -39 96 -39c27.333 0 49 8.16699 65 24.5s24 38.5 24 66.5v436h172v-438c0 -80 -22 -140.167 -66 -180.5s-104 -60.5 -180 -60.5zM507 728h-92l-69 81l-65 -81h-92l90 144h135z" />
    <glyph glyph-name="jcircumflex" unicode="&#x135;" horiz-adv-x="266" 
d="M23 -196c-31.333 0 -55.333 2.5 -72 7.5s-35 13.833 -55 26.5l39 124c17.333 -14.667 38 -22 62 -22c18 0 32.333 5.66699 43 17s16 27 16 47v479h154v-479c0 -61.333 -15.667 -110 -47 -146s-78 -54 -140 -54zM296 556h-92l-69 81l-65 -81h-92l90 144h135z" />
    <glyph glyph-name="Kcommaaccent" unicode="&#x136;" horiz-adv-x="668" 
d="M663 0h-211l-175 251l-45 -56v-195h-172v667h172v-274l205 274h212l-259 -312zM412 -139c0 -62.667 -29.3301 -115.002 -87.9971 -157.002l-49 39c13.333 7.33301 26.666 18.5 39.999 33.5s21.666 29.5 24.999 43.5c-2 -2 -7.66699 -3 -17 -3
c-16.667 0 -30.667 5.83301 -42 17.5s-17 26.834 -17 45.501c0 19.333 6.83301 36 20.5 50s30.167 21 49.5 21c21.333 0 39.666 -8.16699 54.999 -24.5s23 -38.166 23 -65.499z" />
    <glyph glyph-name="kcommaaccent" unicode="&#x137;" horiz-adv-x="546" 
d="M552 0h-190l-106 171l-46 -55v-116h-154v667h154v-377l147 193h186l-178 -220zM351 -139c0 -62.667 -29.3301 -115.002 -87.9971 -157.002l-49 39c13.333 7.33301 26.666 18.5 39.999 33.5s21.666 29.5 24.999 43.5c-2 -2 -7.66699 -3 -17 -3
c-16.667 0 -30.667 5.83301 -42 17.5s-17 26.834 -17 45.501c0 19.333 6.83301 36 20.5 50s30.167 21 49.5 21c21.333 0 39.666 -8.16699 54.999 -24.5s23 -38.166 23 -65.499z" />
    <glyph glyph-name="kgreenlandic" unicode="&#x138;" horiz-adv-x="546" 
d="M552 0h-190l-106 171l-46 -55v-116h-154v483h154v-193l147 193h186l-178 -220z" />
    <glyph glyph-name="Lacute" unicode="&#x139;" horiz-adv-x="525" 
d="M497 0h-440v667h172v-517h268v-150zM449 872l-159 -144h-104l127 144h136z" />
    <glyph glyph-name="lacute" unicode="&#x13a;" horiz-adv-x="266" 
d="M210 0h-154v667h154v-667zM307 872l-159 -144h-104l127 144h136z" />
    <glyph glyph-name="Lcommaaccent" unicode="&#x13b;" horiz-adv-x="525" 
d="M497 0h-440v667h172v-517h268v-150zM337 -139c0 -62.667 -29.3301 -115.002 -87.9971 -157.002l-49 39c13.333 7.33301 26.666 18.5 39.999 33.5s21.666 29.5 24.999 43.5c-2 -2 -7.66699 -3 -17 -3c-16.667 0 -30.667 5.83301 -42 17.5s-17 26.834 -17 45.501
c0 19.333 6.83301 36 20.5 50s30.167 21 49.5 21c21.333 0 39.666 -8.16699 54.999 -24.5s23 -38.166 23 -65.499z" />
    <glyph glyph-name="lcommaaccent" unicode="&#x13c;" horiz-adv-x="266" 
d="M210 0h-154v667h154v-667zM212 -139c0 -62.667 -29.3301 -115.002 -87.9971 -157.002l-49 39c13.333 7.33301 26.666 18.5 39.999 33.5s21.666 29.5 24.999 43.5c-2 -2 -7.66699 -3 -17 -3c-16.667 0 -30.667 5.83301 -42 17.5s-17 26.834 -17 45.501
c0 19.333 6.83301 36 20.5 50s30.167 21 49.5 21c21.333 0 39.666 -8.16699 54.999 -24.5s23 -38.166 23 -65.499z" />
    <glyph glyph-name="Lcaron" unicode="&#x13d;" horiz-adv-x="525" 
d="M497 0h-440v667h172v-517h268v-150zM450 591c0 -62.667 -29.3301 -115.002 -87.9971 -157.002l-49 39c13.333 7.33301 26.666 18.5 39.999 33.5s21.666 29.5 24.999 43.5c-2 -2 -7.66699 -3 -17 -3c-16.667 0 -30.667 5.83301 -42 17.5s-17 26.834 -17 45.501
c0 19.333 6.83301 36 20.5 50s30.167 21 49.5 21c21.333 0 39.666 -8.16699 54.999 -24.5s23 -38.166 23 -65.499z" />
    <glyph glyph-name="lcaron" unicode="&#x13e;" horiz-adv-x="386" 
d="M210 0h-154v667h154v-667zM403 591c0 -62.667 -29.3301 -115.002 -87.9971 -157.002l-49 39c13.333 7.33301 26.666 18.5 39.999 33.5s21.666 29.5 24.999 43.5c-2 -2 -7.66699 -3 -17 -3c-16.667 0 -30.667 5.83301 -42 17.5s-17 26.834 -17 45.501
c0 19.333 6.83301 36 20.5 50s30.167 21 49.5 21c21.333 0 39.666 -8.16699 54.999 -24.5s23 -38.166 23 -65.499z" />
    <glyph glyph-name="Ldot" unicode="&#x13f;" horiz-adv-x="577" 
d="M497 0h-440v667h172v-517h268v-150zM528 342c0 -25.333 -9.16699 -47.166 -27.5 -65.499s-40.166 -27.5 -65.499 -27.5s-47.333 9.16699 -66 27.5s-28 40.166 -28 65.499s9.33301 47.333 28 66s40.667 28 66 28s47.166 -9.33301 65.499 -28s27.5 -40.667 27.5 -66z" />
    <glyph glyph-name="ldot" unicode="&#x140;" horiz-adv-x="423" 
d="M210 0h-154v667h154v-667zM438 244c0 -25.333 -9.16699 -47.166 -27.5 -65.499s-40.166 -27.5 -65.499 -27.5s-47.333 9.16699 -66 27.5s-28 40.166 -28 65.499s9.33301 47.333 28 66s40.667 28 66 28s47.166 -9.33301 65.499 -28s27.5 -40.667 27.5 -66z" />
    <glyph glyph-name="Lslash" unicode="&#x141;" horiz-adv-x="540" 
d="M8 178v137l63 36v316h172v-216l67 39v-139l-67 -39v-162h268v-150h-440v214z" />
    <glyph glyph-name="lslash" unicode="&#x142;" horiz-adv-x="319" 
d="M8 192v109l74 42v324h154v-235l75 44v-109l-75 -44v-323h-154v234z" />
    <glyph glyph-name="Nacute" unicode="&#x143;" horiz-adv-x="740" 
d="M680 0h-166l-282 386v-386h-172v667h177l270 -367v367h173v-667zM543 872l-159 -144h-104l127 144h136z" />
    <glyph glyph-name="nacute" unicode="&#x144;" horiz-adv-x="593" 
d="M545 0l-154.002 0.000976562v279c0 53.333 -26.333 80 -79 80c-37.333 0 -68.666 -15.667 -93.999 -47v-312h-154v483h154v-59c40.667 47.333 96.667 71 168 71c52.667 0 92.334 -13.833 119.001 -41.5s40 -64.834 40 -111.501v-342zM469.998 700.001l-159 -144h-104
l127 144h136z" />
    <glyph glyph-name="Ncommaaccent" unicode="&#x145;" horiz-adv-x="740" 
d="M680 0h-166l-282 386v-386h-172v667h177l270 -367v367h173v-667zM447 -139c0 -62.667 -29.3301 -115.002 -87.9971 -157.002l-49 39c13.333 7.33301 26.666 18.5 39.999 33.5s21.666 29.5 24.999 43.5c-2 -2 -7.66699 -3 -17 -3c-16.667 0 -30.667 5.83301 -42 17.5
s-17 26.834 -17 45.501c0 19.333 6.83301 36 20.5 50s30.167 21 49.5 21c21.333 0 39.666 -8.16699 54.999 -24.5s23 -38.166 23 -65.499z" />
    <glyph glyph-name="ncommaaccent" unicode="&#x146;" horiz-adv-x="593" 
d="M545 0l-154.002 0.000976562v279c0 53.333 -26.333 80 -79 80c-37.333 0 -68.666 -15.667 -93.999 -47v-312h-154v483h154v-59c40.667 47.333 96.667 71 168 71c52.667 0 92.334 -13.833 119.001 -41.5s40 -64.834 40 -111.501v-342zM374.998 -138.999
c0 -62.667 -29.3301 -115.002 -87.9971 -157.002l-49 39c13.333 7.33301 26.666 18.5 39.999 33.5s21.666 29.5 24.999 43.5c-2 -2 -7.66699 -3 -17 -3c-16.667 0 -30.667 5.83301 -42 17.5s-17 26.834 -17 45.501c0 19.333 6.83301 36 20.5 50s30.167 21 49.5 21
c21.333 0 39.666 -8.16699 54.999 -24.5s23 -38.166 23 -65.499z" />
    <glyph glyph-name="Ncaron" unicode="&#x147;" horiz-adv-x="740" 
d="M680 0h-166l-282 386v-386h-172v667h177l270 -367v367h173v-667zM439 728h-135l-93 144h92l68 -81l66 81h92z" />
    <glyph glyph-name="ncaron" unicode="&#x148;" horiz-adv-x="593" 
d="M545 0l-154.002 0.000976562v279c0 53.333 -26.333 80 -79 80c-37.333 0 -68.666 -15.667 -93.999 -47v-312h-154v483h154v-59c40.667 47.333 96.667 71 168 71c52.667 0 92.334 -13.833 119.001 -41.5s40 -64.834 40 -111.501v-342zM365.998 556.001h-135l-93 144h92
l68 -81l66 81h92z" />
    <glyph glyph-name="napostrophe" unicode="&#x149;" horiz-adv-x="593" 
d="M545 0l-154.002 0.000976562v279c0 53.333 -26.333 80 -79 80c-37.333 0 -68.666 -15.667 -93.999 -47v-312h-154v483h154v-59c40.667 47.333 96.667 71 168 71c52.667 0 92.334 -13.833 119.001 -41.5s40 -64.834 40 -111.501v-342zM182.998 685.001
c0 -62.667 -29.3301 -115.002 -87.9971 -157.002l-49 39c13.333 7.33301 26.666 18.5 39.999 33.5s21.666 29.5 24.999 43.5c-2 -2 -7.66699 -3 -17 -3c-16.667 0 -30.667 5.83301 -42 17.5s-17 26.834 -17 45.501c0 19.333 6.83301 36 20.5 50s30.167 21 49.5 21
c21.333 0 39.666 -8.16699 54.999 -24.5s23 -38.166 23 -65.499z" />
    <glyph glyph-name="Eng" unicode="&#x14a;" horiz-adv-x="740" 
d="M433 -196c-75.333 0 -136.333 19.999 -183 59.999l72 131c31.333 -26 63.333 -39 96 -39c44.667 0 73 19.667 85 59l-271 371v-386h-172v667h177l270 -367v367h173v-623c0 -79.333 -22.167 -139.166 -66.5 -179.499s-104.5 -60.5 -180.5 -60.5z" />
    <glyph glyph-name="eng" unicode="&#x14b;" horiz-adv-x="593" 
d="M350 -196c-31.333 0 -55.335 2.50098 -72.002 7.50098s-35 13.833 -55 26.5l39 124c17.333 -14.667 38 -22 62 -22c18 0 32.333 5.66699 43 17s16 27 16 47v275c0 53.333 -26.333 80 -79 80c-37.333 0 -68.666 -15.667 -93.999 -47v-312h-154v483h154v-59
c40.667 47.333 96.667 71 168 71c52.667 0 92.334 -13.833 119.001 -41.5s40 -64.834 40 -111.501v-338c0 -61.333 -15.667 -110 -47 -146s-78 -54 -140 -54z" />
    <glyph glyph-name="Omacron" unicode="&#x14c;" horiz-adv-x="766" 
d="M383 -12c-102.667 0 -187.834 32.333 -255.501 97s-101.5 147.334 -101.5 248.001s33.833 183.334 101.5 248.001s152.834 97 255.501 97s187.667 -32.333 255 -97s101 -147.334 101 -248.001s-33.667 -183.334 -101 -248.001s-152.333 -97 -255 -97zM383 140
c54 0 97.667 18.333 131 55s50 82.667 50 138s-16.667 101.333 -50 138s-77 55 -131 55s-97.833 -18.333 -131.5 -55s-50.5 -82.667 -50.5 -138s16.833 -101.333 50.5 -138s77.5 -55 131.5 -55zM564 746h-363v85h363v-85z" />
    <glyph glyph-name="omacron" unicode="&#x14d;" horiz-adv-x="576" 
d="M287 -12c-79.333 0 -142.833 24.667 -190.5 74s-71.5 109.333 -71.5 180s23.833 130.5 71.5 179.5s111.167 73.5 190.5 73.5c80 0 144 -24.5 192 -73.5s72 -108.833 72 -179.5s-24 -130.667 -72 -180s-112 -74 -192 -74zM287 124c32.667 0 58.5 11.167 77.5 33.5
s28.5 50.5 28.5 84.5c0 33.333 -9.5 61.166 -28.5 83.499s-44.833 33.5 -77.5 33.5c-32 0 -57.333 -11.167 -76 -33.5s-28 -50.166 -28 -83.499c0 -34 9.33301 -62.167 28 -84.5s44 -33.5 76 -33.5zM469 573h-363v85h363v-85z" />
    <glyph glyph-name="Obreve" unicode="&#x14e;" horiz-adv-x="766" 
d="M383 -12c-102.667 0 -187.834 32.333 -255.501 97s-101.5 147.334 -101.5 248.001s33.833 183.334 101.5 248.001s152.834 97 255.501 97s187.667 -32.333 255 -97s101 -147.334 101 -248.001s-33.667 -183.334 -101 -248.001s-152.333 -97 -255 -97zM383 140
c54 0 97.667 18.333 131 55s50 82.667 50 138s-16.667 101.333 -50 138s-77 55 -131 55s-97.833 -18.333 -131.5 -55s-50.5 -82.667 -50.5 -138s16.833 -101.333 50.5 -138s77.5 -55 131.5 -55zM558 800c-43.333 -58.667 -101.667 -88 -175 -88
c-72.667 0 -131.334 29.333 -176.001 88l66 54c28.667 -38.667 65.334 -58 110.001 -58c46 0 82.667 19.333 110 58z" />
    <glyph glyph-name="obreve" unicode="&#x14f;" horiz-adv-x="576" 
d="M287 -12c-79.333 0 -142.833 24.667 -190.5 74s-71.5 109.333 -71.5 180s23.833 130.5 71.5 179.5s111.167 73.5 190.5 73.5c80 0 144 -24.5 192 -73.5s72 -108.833 72 -179.5s-24 -130.667 -72 -180s-112 -74 -192 -74zM287 124c32.667 0 58.5 11.167 77.5 33.5
s28.5 50.5 28.5 84.5c0 33.333 -9.5 61.166 -28.5 83.499s-44.833 33.5 -77.5 33.5c-32 0 -57.333 -11.167 -76 -33.5s-28 -50.166 -28 -83.499c0 -34 9.33301 -62.167 28 -84.5s44 -33.5 76 -33.5zM462 641c-43.333 -58.667 -101.667 -88 -175 -88
c-72.667 0 -131.334 29.333 -176.001 88l66 54c28.667 -38.667 65.334 -58 110.001 -58c46 0 82.667 19.333 110 58z" />
    <glyph glyph-name="Ohungarumlaut" unicode="&#x150;" horiz-adv-x="766" 
d="M383 -12c-102.667 0 -187.834 32.333 -255.501 97s-101.5 147.334 -101.5 248.001s33.833 183.334 101.5 248.001s152.834 97 255.501 97s187.667 -32.333 255 -97s101 -147.334 101 -248.001s-33.667 -183.334 -101 -248.001s-152.333 -97 -255 -97zM383 140
c54 0 97.667 18.333 131 55s50 82.667 50 138s-16.667 101.333 -50 138s-77 55 -131 55s-97.833 -18.333 -131.5 -55s-50.5 -82.667 -50.5 -138s16.833 -101.333 50.5 -138s77.5 -55 131.5 -55zM455 872l-115 -144h-87l84 144h118zM608 872l-115 -144h-87l83 144h119z" />
    <glyph glyph-name="ohungarumlaut" unicode="&#x151;" horiz-adv-x="576" 
d="M287 -12c-79.333 0 -142.833 24.667 -190.5 74s-71.5 109.333 -71.5 180s23.833 130.5 71.5 179.5s111.167 73.5 190.5 73.5c80 0 144 -24.5 192 -73.5s72 -108.833 72 -179.5s-24 -130.667 -72 -180s-112 -74 -192 -74zM287 124c32.667 0 58.5 11.167 77.5 33.5
s28.5 50.5 28.5 84.5c0 33.333 -9.5 61.166 -28.5 83.499s-44.833 33.5 -77.5 33.5c-32 0 -57.333 -11.167 -76 -33.5s-28 -50.166 -28 -83.499c0 -34 9.33301 -62.167 28 -84.5s44 -33.5 76 -33.5zM361 700l-115 -144h-87l84 144h118zM514 700l-115 -144h-87l83 144h119z
" />
    <glyph glyph-name="OE" unicode="&#x152;" horiz-adv-x="1073" 
d="M1037 0h-489v57c-21.333 -22 -48.833 -39 -82.5 -51s-67.5 -18 -101.5 -18c-98 0 -178.833 32 -242.5 96s-95.5 147 -95.5 249c0 101.333 31.833 184 95.5 248s144.5 96 242.5 96c34 0 67.833 -5.83301 101.5 -17.5s61.167 -28.167 82.5 -49.5v57h489v-150h-317v-104h310
v-150h-310v-113h317v-150zM548 234l0.000976562 198.999c-14.667 29.333 -35.834 52 -63.501 68s-59.5 24 -95.5 24c-56.667 0 -102.167 -18.167 -136.5 -54.5s-51.5 -82.166 -51.5 -137.499c0 -56 17.167 -102.167 51.5 -138.5s79.833 -54.5 136.5 -54.5
c35.333 0 67 8.33301 95 25s49.333 39.667 64 69z" />
    <glyph glyph-name="oe" unicode="&#x153;" horiz-adv-x="916" 
d="M896 191h-344.003c6.66699 -23.333 20.334 -42.333 41.001 -57s47.667 -22 81 -22c18 0 38.833 3.83301 62.5 11.5s41.834 17.5 54.501 29.5l68 -101c-23.333 -20.667 -53.333 -36.5 -90 -47.5s-74.334 -16.5 -113.001 -16.5c-43.333 0 -79 8.16699 -107 24.5
s-54.333 38.5 -79 66.5c-50.667 -60.667 -111.667 -91 -183 -91c-79.333 0 -142.833 24.667 -190.5 74s-71.5 109.333 -71.5 180s23.833 130.5 71.5 179.5s111.167 73.5 190.5 73.5c68.667 0 130 -30.667 184 -92c48.667 61.333 108.334 92 179.001 92
c72.667 0 131.834 -24.5 177.501 -73.5s68.5 -114.167 68.5 -195.5v-35zM550.997 296l198 0.000976562c-2.66699 20 -12 37.5 -28 52.5s-40 22.5 -72 22.5c-30.667 0 -54 -7.33301 -70 -22s-25.333 -32.334 -28 -53.001zM392.997 242.001c0 36 -9.66699 64.499 -29 85.499
s-45 31.5 -77 31.5c-30.667 0 -55.667 -10.667 -75 -32s-29 -49.666 -29 -84.999c0 -36 9.66699 -64.833 29 -86.5s44.333 -32.5 75 -32.5c32 0 57.667 10.833 77 32.5s29 50.5 29 86.5z" />
    <glyph glyph-name="Racute" unicode="&#x154;" horiz-adv-x="661" 
d="M629 0l-197 0.000976562l-112 224h-88v-224h-172v667h334c72 0 128.667 -21 170 -63s62 -95 62 -159c0 -53.333 -13 -96.833 -39 -130.5s-57.333 -56.834 -94 -69.501zM368 374.001c24 0 43.833 6.33203 59.5 18.999s23.5 30.334 23.5 53.001
c0 22 -7.83301 39.333 -23.5 52s-35.5 19 -59.5 19h-136v-143h136zM507 872l-159 -144h-104l127 144h136z" />
    <glyph glyph-name="racute" unicode="&#x155;" horiz-adv-x="375" 
d="M210 0h-154.002v483h154v-59c16.667 20 39 37 67 51s56 21 84 21v-148c-8 2.66699 -20.667 4 -38 4c-21.333 0 -43.166 -4.16699 -65.499 -12.5s-38.166 -18.833 -47.499 -31.5v-308zM380.998 700l-159 -144h-104l127 144h136z" />
    <glyph glyph-name="Rcommaaccent" unicode="&#x156;" horiz-adv-x="661" 
d="M629 0l-197 0.000976562l-112 224h-88v-224h-172v667h334c72 0 128.667 -21 170 -63s62 -95 62 -159c0 -53.333 -13 -96.833 -39 -130.5s-57.333 -56.834 -94 -69.501zM368 374.001c24 0 43.833 6.33203 59.5 18.999s23.5 30.334 23.5 53.001
c0 22 -7.83301 39.333 -23.5 52s-35.5 19 -59.5 19h-136v-143h136zM411 -139c0 -62.667 -29.3301 -115.002 -87.9971 -157.002l-49 39c13.333 7.33301 26.666 18.5 39.999 33.5s21.666 29.5 24.999 43.5c-2 -2 -7.66699 -3 -17 -3c-16.667 0 -30.667 5.83301 -42 17.5
s-17 26.834 -17 45.501c0 19.333 6.83301 36 20.5 50s30.167 21 49.5 21c21.333 0 39.666 -8.16699 54.999 -24.5s23 -38.166 23 -65.499z" />
    <glyph glyph-name="rcommaaccent" unicode="&#x157;" horiz-adv-x="375" 
d="M210 0h-154.002v483h154v-59c16.667 20 39 37 67 51s56 21 84 21v-148c-8 2.66699 -20.667 4 -38 4c-21.333 0 -43.166 -4.16699 -65.499 -12.5s-38.166 -18.833 -47.499 -31.5v-308zM264.998 -139c0 -62.667 -29.3301 -115.002 -87.9971 -157.002l-49 39
c13.333 7.33301 26.666 18.5 39.999 33.5s21.666 29.5 24.999 43.5c-2 -2 -7.66699 -3 -17 -3c-16.667 0 -30.667 5.83301 -42 17.5s-17 26.834 -17 45.501c0 19.333 6.83301 36 20.5 50s30.167 21 49.5 21c21.333 0 39.666 -8.16699 54.999 -24.5s23 -38.166 23 -65.499z
" />
    <glyph glyph-name="Rcaron" unicode="&#x158;" horiz-adv-x="661" 
d="M629 0l-197 0.000976562l-112 224h-88v-224h-172v667h334c72 0 128.667 -21 170 -63s62 -95 62 -159c0 -53.333 -13 -96.833 -39 -130.5s-57.333 -56.834 -94 -69.501zM368 374.001c24 0 43.833 6.33203 59.5 18.999s23.5 30.334 23.5 53.001
c0 22 -7.83301 39.333 -23.5 52s-35.5 19 -59.5 19h-136v-143h136zM402 728h-135l-93 144h92l68 -81l66 81h92z" />
    <glyph glyph-name="rcaron" unicode="&#x159;" horiz-adv-x="375" 
d="M210 0h-154.002v483h154v-59c16.667 20 39 37 67 51s56 21 84 21v-148c-8 2.66699 -20.667 4 -38 4c-21.333 0 -43.166 -4.16699 -65.499 -12.5s-38.166 -18.833 -47.499 -31.5v-308zM276.998 556h-135l-93 144h92l68 -81l66 81h92z" />
    <glyph glyph-name="Sacute" unicode="&#x15a;" horiz-adv-x="606" 
d="M308 -12c-122 0 -220.667 35.335 -296 106.002l91 134c58.667 -58.667 130 -88 214 -88c29.333 0 52.333 4.66699 69 14s25 22.333 25 39c0 13.333 -9.33301 24.333 -28 33s-42 15.167 -70 19.5s-58.167 11.166 -90.5 20.499s-62.5 20.5 -90.5 33.5
s-51.333 33.833 -70 62.5s-28 63 -28 103c0 59.333 23.667 109.5 71 150.5s112 61.5 194 61.5c108.667 0 199 -31 271 -93l-94 -129c-55.333 46.667 -120.333 70 -195 70c-48 0 -72 -15.333 -72 -46c0 -14.667 13 -26.334 39 -35.001s57.5 -16.834 94.5 -24.501
s73.833 -17.667 110.5 -30s68 -33.666 94 -63.999s39 -68.5 39 -114.5c0 -68 -24.333 -122.167 -73 -162.5s-117 -60.5 -205 -60.5zM473 872.002l-159 -144h-104l127 144h136z" />
    <glyph glyph-name="sacute" unicode="&#x15b;" horiz-adv-x="484" 
d="M242 -12c-43.333 0 -85.667 6.83301 -127 20.5s-74.666 31.834 -99.999 54.501l64 110c18.667 -16.667 44.834 -31.667 78.501 -45s64.167 -20 91.5 -20c43.333 0 65 11.333 65 34c0 10.667 -9.66699 18.667 -29 24s-42.666 10.166 -69.999 14.499
s-54.833 10.666 -82.5 18.999s-51.167 24 -70.5 47s-29 52.833 -29 89.5c0 44.667 18.5 82.334 55.5 113.001s87.5 46 151.5 46c76 0 143.333 -21.333 202 -64l-59 -109c-15.333 14.667 -36 27.167 -62 37.5s-52.667 15.5 -80 15.5c-18 0 -32.5 -3.16699 -43.5 -9.5
s-16.5 -14.166 -16.5 -23.499s9.66699 -16.333 29 -21s42.666 -9.5 69.999 -14.5s54.666 -12 81.999 -21s50.666 -25.333 69.999 -49s29 -53.834 29 -90.501c0 -46.667 -19.5 -84.667 -58.5 -114s-92.5 -44 -160.5 -44zM418.999 700l-159 -144h-104l127 144h136z" />
    <glyph glyph-name="Scircumflex" unicode="&#x15c;" horiz-adv-x="606" 
d="M455 728h-92l-69 81l-65 -81h-92l90 144h135zM308 -12c-122 0 -220.667 35.335 -296 106.002l91 134c58.667 -58.667 130 -88 214 -88c29.333 0 52.333 4.66699 69 14s25 22.333 25 39c0 13.333 -9.33301 24.333 -28 33s-42 15.167 -70 19.5s-58.167 11.166 -90.5 20.499
s-62.5 20.5 -90.5 33.5s-51.333 33.833 -70 62.5s-28 63 -28 103c0 59.333 23.667 109.5 71 150.5s112 61.5 194 61.5c108.667 0 199 -31 271 -93l-94 -129c-55.333 46.667 -120.333 70 -195 70c-48 0 -72 -15.333 -72 -46c0 -14.667 13 -26.334 39 -35.001
s57.5 -16.834 94.5 -24.501s73.833 -17.667 110.5 -30s68 -33.666 94 -63.999s39 -68.5 39 -114.5c0 -68 -24.333 -122.167 -73 -162.5s-117 -60.5 -205 -60.5z" />
    <glyph glyph-name="scircumflex" unicode="&#x15d;" horiz-adv-x="484" 
d="M242 -12c-43.333 0 -85.667 6.83301 -127 20.5s-74.666 31.834 -99.999 54.501l64 110c18.667 -16.667 44.834 -31.667 78.501 -45s64.167 -20 91.5 -20c43.333 0 65 11.333 65 34c0 10.667 -9.66699 18.667 -29 24s-42.666 10.166 -69.999 14.499
s-54.833 10.666 -82.5 18.999s-51.167 24 -70.5 47s-29 52.833 -29 89.5c0 44.667 18.5 82.334 55.5 113.001s87.5 46 151.5 46c76 0 143.333 -21.333 202 -64l-59 -109c-15.333 14.667 -36 27.167 -62 37.5s-52.667 15.5 -80 15.5c-18 0 -32.5 -3.16699 -43.5 -9.5
s-16.5 -14.166 -16.5 -23.499s9.66699 -16.333 29 -21s42.666 -9.5 69.999 -14.5s54.666 -12 81.999 -21s50.666 -25.333 69.999 -49s29 -53.834 29 -90.501c0 -46.667 -19.5 -84.667 -58.5 -114s-92.5 -44 -160.5 -44zM400.999 556h-92l-69 81l-65 -81h-92l90 144h135z" />
    <glyph glyph-name="Scedilla" unicode="&#x15e;" horiz-adv-x="606" 
d="M293 -198c-48.667 0 -86.665 11.0059 -113.998 33.0059l28 58c27.333 -20 54.666 -30 81.999 -30c12.667 0 23.667 2.5 33 7.5s14 11.833 14 20.5c0 14.667 -8.33301 22 -25 22c-12 0 -21.667 -4.33301 -29 -13l-52 30l22 61c-96 8 -176 42.333 -240 103l91 134
c58.667 -58.667 130 -88 214 -88c29.333 0 52.333 4.66699 69 14s25 22.333 25 39c0 13.333 -9.33301 24.333 -28 33s-42 15.167 -70 19.5s-58.167 11.166 -90.5 20.499s-62.5 20.5 -90.5 33.5s-51.333 33.833 -70 62.5s-28 63 -28 103c0 59.333 23.667 109.5 71 150.5
s112 61.5 194 61.5c108.667 0 199 -31 271 -93l-94 -129c-55.333 46.667 -120.333 70 -195 70c-48 0 -72 -15.333 -72 -46c0 -14.667 13 -26.334 39 -35.001s57.5 -16.834 94.5 -24.501s73.833 -17.667 110.5 -30s68 -33.666 94 -63.999s39 -68.5 39 -114.5
c0 -66.667 -23 -119.834 -69 -159.501s-111.333 -60.834 -196 -63.501l-15 -37c11.333 6.66699 22.666 10 33.999 10c18.667 0 34.667 -6.83301 48 -20.5s20 -30.834 20 -51.501c0 -26.667 -11 -47.834 -33 -63.501s-49.333 -23.5 -82 -23.5z" />
    <glyph glyph-name="scedilla" unicode="&#x15f;" horiz-adv-x="484" 
d="M240 -198c-48.667 0 -86.665 11.0029 -113.998 33.0029l28 58c27.333 -20 54.666 -30 81.999 -30c12.667 0 23.667 2.5 33 7.5s14 11.833 14 20.5c0 14.667 -8.33301 22 -25 22c-12 0 -21.667 -4.33301 -29 -13l-52 30l22 61c-79.333 8 -140.666 32 -183.999 72l64 110
c18.667 -16.667 44.834 -31.667 78.501 -45s64.167 -20 91.5 -20c43.333 0 65 11.333 65 34c0 10.667 -9.66699 18.667 -29 24s-42.666 10.166 -69.999 14.499s-54.833 10.666 -82.5 18.999s-51.167 24 -70.5 47s-29 52.833 -29 89.5c0 44.667 18.5 82.334 55.5 113.001
s87.5 46 151.5 46c76 0 143.333 -21.333 202 -64l-59 -109c-15.333 14.667 -36 27.167 -62 37.5s-52.667 15.5 -80 15.5c-18 0 -32.5 -3.16699 -43.5 -9.5s-16.5 -14.166 -16.5 -23.499s9.66699 -16.333 29 -21s42.666 -9.5 69.999 -14.5s54.666 -12 81.999 -21
s50.666 -25.333 69.999 -49s29 -53.834 29 -90.501c0 -43.333 -17 -79.333 -51 -108s-81 -45 -141 -49l-16 -38c11.333 6.66699 22.666 10 33.999 10c18.667 0 34.667 -6.83301 48 -20.5s20 -30.834 20 -51.501c0 -26.667 -11 -47.834 -33 -63.501s-49.333 -23.5 -82 -23.5z
" />
    <glyph glyph-name="Scaron" unicode="&#x160;" horiz-adv-x="606" 
d="M365 728h-135l-93 144h92l68 -81l66 81h92zM308 -12c-122 0 -220.667 35.335 -296 106.002l91 134c58.667 -58.667 130 -88 214 -88c29.333 0 52.333 4.66699 69 14s25 22.333 25 39c0 13.333 -9.33301 24.333 -28 33s-42 15.167 -70 19.5s-58.167 11.166 -90.5 20.499
s-62.5 20.5 -90.5 33.5s-51.333 33.833 -70 62.5s-28 63 -28 103c0 59.333 23.667 109.5 71 150.5s112 61.5 194 61.5c108.667 0 199 -31 271 -93l-94 -129c-55.333 46.667 -120.333 70 -195 70c-48 0 -72 -15.333 -72 -46c0 -14.667 13 -26.334 39 -35.001
s57.5 -16.834 94.5 -24.501s73.833 -17.667 110.5 -30s68 -33.666 94 -63.999s39 -68.5 39 -114.5c0 -68 -24.333 -122.167 -73 -162.5s-117 -60.5 -205 -60.5z" />
    <glyph glyph-name="scaron" unicode="&#x161;" horiz-adv-x="484" 
d="M242 -12c-43.333 0 -85.667 6.83301 -127 20.5s-74.666 31.834 -99.999 54.501l64 110c18.667 -16.667 44.834 -31.667 78.501 -45s64.167 -20 91.5 -20c43.333 0 65 11.333 65 34c0 10.667 -9.66699 18.667 -29 24s-42.666 10.166 -69.999 14.499
s-54.833 10.666 -82.5 18.999s-51.167 24 -70.5 47s-29 52.833 -29 89.5c0 44.667 18.5 82.334 55.5 113.001s87.5 46 151.5 46c76 0 143.333 -21.333 202 -64l-59 -109c-15.333 14.667 -36 27.167 -62 37.5s-52.667 15.5 -80 15.5c-18 0 -32.5 -3.16699 -43.5 -9.5
s-16.5 -14.166 -16.5 -23.499s9.66699 -16.333 29 -21s42.666 -9.5 69.999 -14.5s54.666 -12 81.999 -21s50.666 -25.333 69.999 -49s29 -53.834 29 -90.501c0 -46.667 -19.5 -84.667 -58.5 -114s-92.5 -44 -160.5 -44zM310.999 556h-135l-93 144h92l68 -81l66 81h92z" />
    <glyph glyph-name="Tcommaaccent" unicode="&#x162;" horiz-adv-x="589" 
d="M381 0h-172v517h-187v150h545v-150h-186v-517zM372 -139c0 -62.667 -29.3301 -115.002 -87.9971 -157.002l-49 39c13.333 7.33301 26.666 18.5 39.999 33.5s21.666 29.5 24.999 43.5c-2 -2 -7.66699 -3 -17 -3c-16.667 0 -30.667 5.83301 -42 17.5s-17 26.834 -17 45.501
c0 19.333 6.83301 36 20.5 50s30.167 21 49.5 21c21.333 0 39.666 -8.16699 54.999 -24.5s23 -38.166 23 -65.499z" />
    <glyph glyph-name="Tcommaaccent" unicode="&#x21a;" horiz-adv-x="589" 
d="M381 0h-172v517h-187v150h545v-150h-186v-517zM372 -139c0 -62.667 -29.3301 -115.002 -87.9971 -157.002l-49 39c13.333 7.33301 26.666 18.5 39.999 33.5s21.666 29.5 24.999 43.5c-2 -2 -7.66699 -3 -17 -3c-16.667 0 -30.667 5.83301 -42 17.5s-17 26.834 -17 45.501
c0 19.333 6.83301 36 20.5 50s30.167 21 49.5 21c21.333 0 39.666 -8.16699 54.999 -24.5s23 -38.166 23 -65.499z" />
    <glyph glyph-name="tcommaaccent" unicode="&#x163;" horiz-adv-x="360" 
d="M239 -12c-49.333 0 -86.834 12 -112.501 36s-38.5 59.333 -38.5 106v220h-80v133h80v132h154v-132h98v-133h-98v-177c0 -14 3.83301 -25.667 11.5 -35s17.834 -14 30.501 -14c19.333 0 32.333 4 39 12l30 -116c-22.667 -21.333 -60.667 -32 -114 -32zM257.999 -139
c0 -62.667 -29.3301 -115.002 -87.9971 -157.002l-49 39c13.333 7.33301 26.666 18.5 39.999 33.5s21.666 29.5 24.999 43.5c-2 -2 -7.66699 -3 -17 -3c-16.667 0 -30.667 5.83301 -42 17.5s-17 26.834 -17 45.501c0 19.333 6.83301 36 20.5 50s30.167 21 49.5 21
c21.333 0 39.666 -8.16699 54.999 -24.5s23 -38.166 23 -65.499z" />
    <glyph glyph-name="tcommaaccent" unicode="&#x21b;" horiz-adv-x="360" 
d="M239 -12c-49.333 0 -86.834 12 -112.501 36s-38.5 59.333 -38.5 106v220h-80v133h80v132h154v-132h98v-133h-98v-177c0 -14 3.83301 -25.667 11.5 -35s17.834 -14 30.501 -14c19.333 0 32.333 4 39 12l30 -116c-22.667 -21.333 -60.667 -32 -114 -32zM257.999 -139
c0 -62.667 -29.3301 -115.002 -87.9971 -157.002l-49 39c13.333 7.33301 26.666 18.5 39.999 33.5s21.666 29.5 24.999 43.5c-2 -2 -7.66699 -3 -17 -3c-16.667 0 -30.667 5.83301 -42 17.5s-17 26.834 -17 45.501c0 19.333 6.83301 36 20.5 50s30.167 21 49.5 21
c21.333 0 39.666 -8.16699 54.999 -24.5s23 -38.166 23 -65.499z" />
    <glyph glyph-name="Tcaron" unicode="&#x164;" horiz-adv-x="589" 
d="M381 0h-172v517h-187v150h545v-150h-186v-517zM364 728h-135l-93 144h92l68 -81l66 81h92z" />
    <glyph glyph-name="tcaron" unicode="&#x165;" horiz-adv-x="414" 
d="M239 -12c-49.333 0 -86.834 12 -112.501 36s-38.5 59.333 -38.5 106v220h-80v133h80v132h154v-132h98v-133h-98v-177c0 -14 3.83301 -25.667 11.5 -35s17.834 -14 30.501 -14c19.333 0 32.333 4 39 12l30 -116c-22.667 -21.333 -60.667 -32 -114 -32zM439.999 685
c0 -62.667 -29.3301 -115.002 -87.9971 -157.002l-49 39c13.333 7.33301 26.666 18.5 39.999 33.5s21.666 29.5 24.999 43.5c-2 -2 -7.66699 -3 -17 -3c-16.667 0 -30.667 5.83301 -42 17.5s-17 26.834 -17 45.501c0 19.333 6.83301 36 20.5 50s30.167 21 49.5 21
c21.333 0 39.666 -8.16699 54.999 -24.5s23 -38.166 23 -65.499z" />
    <glyph glyph-name="Tbar" unicode="&#x166;" horiz-adv-x="589" 
d="M381 0h-172v247h-125v85h125v185h-187v150h545v-150h-186v-185h126v-85h-126v-247z" />
    <glyph glyph-name="tbar" unicode="&#x167;" horiz-adv-x="360" 
d="M309 200h-67.001v-27c0 -14 3.83301 -25.667 11.5 -35s17.834 -14 30.501 -14c19.333 0 32.333 4 39 12l30 -116c-22.667 -21.333 -60.667 -32 -114 -32c-49.333 0 -86.833 12 -112.5 36s-38.5 59.333 -38.5 106v70h-80v85h80v65h-80v133h80v132h154v-132h98v-133h-98
v-65h67v-85z" />
    <glyph glyph-name="Utilde" unicode="&#x168;" horiz-adv-x="750" 
d="M376 -12c-103.333 0 -181.832 25.668 -235.499 77.001s-80.5 119.666 -80.5 204.999v397h175v-391c0 -40.667 12.167 -73.5 36.5 -98.5s59.166 -37.5 104.499 -37.5c44.667 0 79.167 12.5 103.5 37.5s36.5 57.833 36.5 98.5v391h174v-396
c0 -86.667 -26.5 -155.5 -79.5 -206.5s-131.167 -76.5 -234.5 -76.5zM431.001 726.001c-18.667 0 -35 4.66699 -49 14s-26.167 18.5 -36.5 27.5s-19.5 13.5 -27.5 13.5c-20 0 -30 -16.333 -30 -49h-78c0 89.333 37.667 134 113 134c18.667 0 35 -4.66699 49 -14
s26.167 -18.5 36.5 -27.5s19.5 -13.5 27.5 -13.5c20 0 30 16.333 30 49h78c0 -89.333 -37.667 -134 -113 -134z" />
    <glyph glyph-name="utilde" unicode="&#x169;" horiz-adv-x="592" 
d="M536 0h-154v58c-41.333 -46.667 -97 -70 -167 -70c-52.667 0 -92.334 13.667 -119.001 41s-40 64 -40 110v344h154v-280c0 -52.667 26.667 -79 80 -79c36.667 0 67.334 15.667 92.001 47v312h154v-483zM351 554c-18.667 0 -35 4.66699 -49 14s-26.167 18.5 -36.5 27.5
s-19.5 13.5 -27.5 13.5c-20 0 -30 -16.333 -30 -49h-78c0 89.333 37.667 134 113 134c18.667 0 35 -4.66699 49 -14s26.167 -18.5 36.5 -27.5s19.5 -13.5 27.5 -13.5c20 0 30 16.333 30 49h78c0 -89.333 -37.667 -134 -113 -134z" />
    <glyph glyph-name="Umacron" unicode="&#x16a;" horiz-adv-x="750" 
d="M376 -12c-103.333 0 -181.832 25.668 -235.499 77.001s-80.5 119.666 -80.5 204.999v397h175v-391c0 -40.667 12.167 -73.5 36.5 -98.5s59.166 -37.5 104.499 -37.5c44.667 0 79.167 12.5 103.5 37.5s36.5 57.833 36.5 98.5v391h174v-396
c0 -86.667 -26.5 -155.5 -79.5 -206.5s-131.167 -76.5 -234.5 -76.5zM559.001 746.001h-363v85h363v-85z" />
    <glyph glyph-name="umacron" unicode="&#x16b;" horiz-adv-x="592" 
d="M536 0h-154v58c-41.333 -46.667 -97 -70 -167 -70c-52.667 0 -92.334 13.667 -119.001 41s-40 64 -40 110v344h154v-280c0 -52.667 26.667 -79 80 -79c36.667 0 67.334 15.667 92.001 47v312h154v-483zM477 573h-363v85h363v-85z" />
    <glyph glyph-name="Ubreve" unicode="&#x16c;" horiz-adv-x="750" 
d="M376 -12c-103.333 0 -181.832 25.668 -235.499 77.001s-80.5 119.666 -80.5 204.999v397h175v-391c0 -40.667 12.167 -73.5 36.5 -98.5s59.166 -37.5 104.499 -37.5c44.667 0 79.167 12.5 103.5 37.5s36.5 57.833 36.5 98.5v391h174v-396
c0 -86.667 -26.5 -155.5 -79.5 -206.5s-131.167 -76.5 -234.5 -76.5zM553.001 800.001c-43.333 -58.667 -101.667 -88 -175 -88c-72.667 0 -131.334 29.333 -176.001 88l66 54c28.667 -38.667 65.334 -58 110.001 -58c46 0 82.667 19.333 110 58z" />
    <glyph glyph-name="ubreve" unicode="&#x16d;" horiz-adv-x="592" 
d="M536 0h-154v58c-41.333 -46.667 -97 -70 -167 -70c-52.667 0 -92.334 13.667 -119.001 41s-40 64 -40 110v344h154v-280c0 -52.667 26.667 -79 80 -79c36.667 0 67.334 15.667 92.001 47v312h154v-483zM474 641c-43.333 -58.667 -101.667 -88 -175 -88
c-72.667 0 -131.334 29.333 -176.001 88l66 54c28.667 -38.667 65.334 -58 110.001 -58c46 0 82.667 19.333 110 58z" />
    <glyph glyph-name="Uring" unicode="&#x16e;" horiz-adv-x="750" 
d="M376 -12c-103.333 0 -181.832 25.668 -235.499 77.001s-80.5 119.666 -80.5 204.999v397h175v-391c0 -40.667 12.167 -73.5 36.5 -98.5s59.166 -37.5 104.499 -37.5c44.667 0 79.167 12.5 103.5 37.5s36.5 57.833 36.5 98.5v391h174v-396
c0 -86.667 -26.5 -155.5 -79.5 -206.5s-131.167 -76.5 -234.5 -76.5zM378.001 693.001c-30 0 -55.667 10.833 -77 32.5s-32 47.167 -32 76.5s10.667 54.833 32 76.5s47 32.5 77 32.5c29.333 0 54.5 -10.833 75.5 -32.5s31.5 -47.167 31.5 -76.5s-10.5 -54.833 -31.5 -76.5
s-46.167 -32.5 -75.5 -32.5zM378.001 761.001c10.667 0 20 4 28 12s12 17.667 12 29s-4 21 -12 29s-17.333 12 -28 12c-11.333 0 -21 -4 -29 -12s-12 -17.667 -12 -29s4 -21 12 -29s17.667 -12 29 -12z" />
    <glyph glyph-name="uring" unicode="&#x16f;" horiz-adv-x="592" 
d="M536 0h-154v58c-41.333 -46.667 -97 -70 -167 -70c-52.667 0 -92.334 13.667 -119.001 41s-40 64 -40 110v344h154v-280c0 -52.667 26.667 -79 80 -79c36.667 0 67.334 15.667 92.001 47v312h154v-483zM297 538c-30 0 -55.667 10.833 -77 32.5s-32 47.167 -32 76.5
s10.667 54.833 32 76.5s47 32.5 77 32.5c29.333 0 54.5 -10.833 75.5 -32.5s31.5 -47.167 31.5 -76.5s-10.5 -54.833 -31.5 -76.5s-46.167 -32.5 -75.5 -32.5zM297 606c10.667 0 20 4 28 12s12 17.667 12 29s-4 21 -12 29s-17.333 12 -28 12c-11.333 0 -21 -4 -29 -12
s-12 -17.667 -12 -29s4 -21 12 -29s17.667 -12 29 -12z" />
    <glyph glyph-name="Uhungarumlaut" unicode="&#x170;" horiz-adv-x="750" 
d="M376 -12c-103.333 0 -181.832 25.668 -235.499 77.001s-80.5 119.666 -80.5 204.999v397h175v-391c0 -40.667 12.167 -73.5 36.5 -98.5s59.166 -37.5 104.499 -37.5c44.667 0 79.167 12.5 103.5 37.5s36.5 57.833 36.5 98.5v391h174v-396
c0 -86.667 -26.5 -155.5 -79.5 -206.5s-131.167 -76.5 -234.5 -76.5zM451.001 872.001l-115 -144h-87l84 144h118zM604.001 872.001l-115 -144h-87l83 144h119z" />
    <glyph glyph-name="uhungarumlaut" unicode="&#x171;" horiz-adv-x="592" 
d="M536 0h-154v58c-41.333 -46.667 -97 -70 -167 -70c-52.667 0 -92.334 13.667 -119.001 41s-40 64 -40 110v344h154v-280c0 -52.667 26.667 -79 80 -79c36.667 0 67.334 15.667 92.001 47v312h154v-483zM369 700l-115 -144h-87l84 144h118zM522 700l-115 -144h-87l83 144
h119z" />
    <glyph glyph-name="Uogonek" unicode="&#x172;" horiz-adv-x="750" 
d="M488 -94l59 -37c-22 -36.667 -54.667 -55 -98 -55c-30 0 -55 7.66699 -75 23s-30 38.333 -30 69c0 30 10.333 57.333 31 82c-103.333 0.666992 -181.666 26.5 -234.999 77.5s-80 119.167 -80 204.5v397h175v-391c0 -40.667 12.167 -73.5 36.5 -98.5
s59.166 -37.5 104.499 -37.5c44.667 0 79.167 12.5 103.5 37.5s36.5 57.833 36.5 98.5v391h174v-396c0 -69.333 -17.333 -127.833 -52 -175.5s-86 -79.5 -154 -95.5c-45.333 -23.333 -68 -52.333 -68 -87c0 -25.333 11 -38 33 -38c18 0 31 10.333 39 31z" />
    <glyph glyph-name="uogonek" unicode="&#x173;" horiz-adv-x="592" 
d="M540 -94l59 -37c-22 -36.667 -54.667 -55 -98 -55c-30 0 -55 7.66699 -75 23s-30 38.333 -30 69c0 36.667 14 68 42 94h-56v58c-41.333 -46.667 -97 -70 -167 -70c-52.667 0 -92.334 13.667 -119.001 41s-40 64 -40 110v344h154v-280c0 -52.667 26.667 -79 80 -79
c36.667 0 67.334 15.667 92.001 47v312h154v-483c-45.333 -23.333 -68 -52.333 -68 -87c0 -25.333 11 -38 33 -38c18 0 31 10.333 39 31z" />
    <glyph glyph-name="Wcircumflex" unicode="&#x174;" horiz-adv-x="936" 
d="M751 0h-182l-101 418l-101 -418h-182l-191 667h193l101 -445l114 445h132l114 -445l100 445h194zM628 728h-92l-69 81l-65 -81h-92l90 144h135z" />
    <glyph glyph-name="wcircumflex" unicode="&#x175;" horiz-adv-x="787" 
d="M650 0h-166l-91 299l-90 -299h-166l-143 483h158l78 -296l95 296h137l95 -296l77 296h159zM553 556h-92l-69 81l-65 -81h-92l90 144h135z" />
    <glyph glyph-name="Ycircumflex" unicode="&#x176;" horiz-adv-x="655" 
d="M489 728h-92l-69 81l-65 -81h-92l90 144h135zM414 0h-172v269l-253 398h194l145 -246l143 246h195l-252 -398v-269z" />
    <glyph glyph-name="ycircumflex" unicode="&#x177;" horiz-adv-x="524" 
d="M46 -188l22 136.999c10.667 -6 23.334 -9 38.001 -9c36 0 58 9 66 27l11 26l-193 490h162l110 -306l109 306h163l-218 -552c-18 -46.667 -43.833 -79.167 -77.5 -97.5s-75.834 -28.166 -126.501 -29.499c-26.667 0 -48.667 2.66699 -66 8zM421 555.999h-92l-69 81
l-65 -81h-92l90 144h135z" />
    <glyph glyph-name="Ydieresis" unicode="&#x178;" horiz-adv-x="655" 
d="M515 790c0 -22 -7.66699 -40.667 -23 -56s-34 -23 -56 -23c-21.333 0 -39.666 7.66699 -54.999 23s-23 34 -23 56c0 21.333 7.66699 39.666 23 54.999s33.666 23 54.999 23c22 0 40.667 -7.66699 56 -23s23 -33.666 23 -54.999zM301 790c0 -22 -7.66699 -40.667 -23 -56
s-34 -23 -56 -23c-21.333 0 -39.666 7.66699 -54.999 23s-23 34 -23 56c0 21.333 7.66699 39.666 23 54.999s33.666 23 54.999 23c22 0 40.667 -7.66699 56 -23s23 -33.666 23 -54.999zM414 0h-172v269l-253 398h194l145 -246l143 246h195l-252 -398v-269z" />
    <glyph glyph-name="Zacute" unicode="&#x179;" horiz-adv-x="596" 
d="M557 0h-518v137l284 380h-284v150h511v-136l-285 -381h292v-150zM471 872l-159 -144h-104l127 144h136z" />
    <glyph glyph-name="zacute" unicode="&#x17a;" horiz-adv-x="483" 
d="M445 0h-407v114l194 236h-194v133h403v-109l-198 -241h202v-133zM414 700l-159 -144h-104l127 144h136z" />
    <glyph glyph-name="Zdotaccent" unicode="&#x17b;" horiz-adv-x="596" 
d="M557 0h-518v137l284 380h-284v150h511v-136l-285 -381h292v-150zM291 712c-21.333 0 -39.666 7.66699 -54.999 23s-23 33.666 -23 54.999s7.66699 39.833 23 55.5s33.666 23.5 54.999 23.5s39.666 -7.83301 54.999 -23.5s23 -34.167 23 -55.5
s-7.66699 -39.666 -23 -54.999s-33.666 -23 -54.999 -23z" />
    <glyph glyph-name="zdotaccent" unicode="&#x17c;" horiz-adv-x="483" 
d="M445 0h-407v114l194 236h-194v133h403v-109l-198 -241h202v-133zM239 541c-21.333 0 -39.666 7.66699 -54.999 23s-23 33.666 -23 54.999s7.66699 39.833 23 55.5s33.666 23.5 54.999 23.5s39.666 -7.83301 54.999 -23.5s23 -34.167 23 -55.5
s-7.66699 -39.666 -23 -54.999s-33.666 -23 -54.999 -23z" />
    <glyph glyph-name="Zcaron" unicode="&#x17d;" horiz-adv-x="596" 
d="M368 728h-135l-93 144h92l68 -81l66 81h92zM557 0h-518v137l284 380h-284v150h511v-136l-285 -381h292v-150z" />
    <glyph glyph-name="zcaron" unicode="&#x17e;" horiz-adv-x="483" 
d="M445 0h-407v114l194 236h-194v133h403v-109l-198 -241h202v-133zM305 556h-135l-93 144h92l68 -81l66 81h92z" />
    <glyph glyph-name="longs" unicode="&#x17f;" horiz-adv-x="349" 
d="M243 0l-153.998 -0.000976562v350h-80v133h80v11c0 56.667 16 101.334 48 134.001s73.667 49 125 49c60 0 106 -15 138 -45l-56 -96c-12.667 11.333 -29.334 17 -50.001 17c-14.667 0 -26.834 -5 -36.501 -15s-14.5 -24.667 -14.5 -44v-494z" />
    <glyph glyph-name="florin" unicode="&#x192;" horiz-adv-x="466" 
d="M174 -161h-175l87 392h-47v134h76l32 146c11.333 49.333 36.5 89.333 75.5 120s83.833 46 134.5 46c58 0 101 -15.333 129 -46l-62 -125c-12 14 -27 21 -45 21c-34 0 -55.333 -18.333 -64 -55l-24 -107h100v-134h-129z" />
    <glyph glyph-name="AEacute" unicode="&#x1fc;" horiz-adv-x="979" 
d="M943 0h-489v96h-221l-54 -96h-196l400 667h560v-150h-317v-104h310v-150h-310v-113h317v-150zM454 246v251l-141 -251h141zM708 872l-159 -144h-104l127 144h136z" />
    <glyph glyph-name="aeacute" unicode="&#x1fd;" horiz-adv-x="860" 
d="M840 191l-343.999 0.00195312c6 -22.667 19.5 -40.834 40.5 -54.501s48.167 -20.5 81.5 -20.5c18 0 38.833 3.83301 62.5 11.5s41.834 17.167 54.501 28.5l68 -104c-23.333 -20.667 -53.333 -36.5 -90 -47.5s-74.334 -16.5 -113.001 -16.5
c-39.333 0 -76.666 7.16699 -111.999 21.5s-64.333 34.166 -87 59.499c-22 -24 -50.333 -43.5 -85 -58.5s-71.667 -22.5 -111 -22.5c-48.667 0 -90.834 13.5 -126.501 40.5s-53.5 65.833 -53.5 116.5s16 89.667 48 117s71.333 41 118 41c67.333 0 117.333 -18.333 150 -55
v47c0 20.667 -8.66699 37.5 -26 50.5s-41.333 19.5 -72 19.5c-50 0 -95 -17.333 -135 -52l-57 107c58.667 50 131.667 75 219 75c77.333 0 132.666 -21.667 165.999 -65c40 43.333 95.333 65 166 65c68.667 0 125.5 -24.667 170.5 -74s67.5 -114.333 67.5 -195v-35z
M495.001 296.002h198.001c-2.66699 20.667 -11.834 38.334 -27.501 53.001s-39.5 22 -71.5 22c-30.667 0 -54.167 -7.33301 -70.5 -22s-25.833 -32.334 -28.5 -53.001zM348.002 132.002c-4.66699 10.667 -7 22 -7 34c-16 23.333 -44.667 35 -86 35
c-21.333 0 -39.5 -5 -54.5 -15s-22.5 -23.667 -22.5 -41c0 -18 7.5 -31.833 22.5 -41.5s33.167 -14.5 54.5 -14.5c44.667 0 75.667 14.333 93 43zM594.002 700.002l-159 -144h-104l127 144h136z" />
    <glyph glyph-name="Oslashacute" unicode="&#x1fe;" horiz-adv-x="766" 
d="M558 872l-159 -144h-104l127 144h136zM383 -12c-70.667 0 -134.001 16 -190.001 48l-29 -36h-120l75 93c-62 63.333 -93 143.333 -93 240c0 100.667 33.833 183.334 101.5 248.001s152.834 97 255.501 97c64.667 0 123 -13.333 175 -40l24 29h120l-67 -83
c69.333 -65.333 104 -149 104 -251c0 -100.667 -33.667 -183.334 -101 -248.001s-152.333 -97 -255 -97zM382.999 140c54 0 97.667 18.333 131 55s50 82.667 50 138c0 45.333 -11.667 85 -35 119l-235 -290c27.333 -14.667 57 -22 89 -22zM200.999 333
c0 -40 8.66699 -75.333 26 -106l229 284c-22 10 -46.333 15 -73 15c-54 0 -97.833 -18.333 -131.5 -55s-50.5 -82.667 -50.5 -138z" />
    <glyph glyph-name="oslashacute" unicode="&#x1ff;" horiz-adv-x="576" 
d="M461 700l-159 -144h-104l127 144h136zM119 0l-90.001 -0.000976562l60 69c-42.667 46.667 -64 104.334 -64 173.001c0 70.667 23.833 130.5 71.5 179.5s111.167 73.5 190.5 73.5c54 0 102 -12.333 144 -37l22 25h92l-60 -68c44 -47.333 66 -105 66 -173
c0 -70.667 -24 -130.667 -72 -180s-112 -74 -192 -74c-55.333 0 -103.666 12.667 -144.999 38zM286.999 123.999c32.667 0 58.5 11.167 77.5 33.5s28.5 50.5 28.5 84.5c0 19.333 -3.66699 38 -11 56l-144 -163c14.667 -7.33301 31 -11 49 -11zM182.999 241.999
c0 -21.333 3.33301 -39.668 10 -55.001l142 161c-14.667 7.33301 -30.667 11 -48 11c-32 0 -57.333 -11.167 -76 -33.5s-28 -50.166 -28 -83.499z" />
    <glyph glyph-name="Scommaaccent" unicode="&#x218;" horiz-adv-x="625" 
d="M320 -12c-122 0 -220.667 35.335 -296 106.002l91 134c58.667 -58.667 130 -88 214 -88c29.333 0 52.333 4.66699 69 14s25 22.333 25 39c0 13.333 -9.33301 24.333 -28 33s-42 15.167 -70 19.5s-58.167 11.166 -90.5 20.499s-62.5 20.5 -90.5 33.5
s-51.333 33.833 -70 62.5s-28 63 -28 103c0 59.333 23.667 109.5 71 150.5s112 61.5 194 61.5c108.667 0 199 -31 271 -93l-94 -129c-55.333 46.667 -120.333 70 -195 70c-48 0 -72 -15.333 -72 -46c0 -14.667 13 -26.334 39 -35.001s57.5 -16.834 94.5 -24.501
s73.833 -17.667 110.5 -30s68 -33.666 94 -63.999s39 -68.5 39 -114.5c0 -68 -24.333 -122.167 -73 -162.5s-117 -60.5 -205 -60.5zM390 -138.998c0 -62.667 -29.3301 -115.002 -87.9971 -157.002l-49 39c13.333 7.33301 26.666 18.5 39.999 33.5s21.666 29.5 24.999 43.5
c-2 -2 -7.66699 -3 -17 -3c-16.667 0 -30.667 5.83301 -42 17.5s-17 26.834 -17 45.501c0 19.333 6.83301 36 20.5 50s30.167 21 49.5 21c21.333 0 39.666 -8.16699 54.999 -24.5s23 -38.166 23 -65.499z" />
    <glyph glyph-name="scommaaccent" unicode="&#x219;" horiz-adv-x="492" 
d="M242 -12c-43.333 0 -85.667 6.83301 -127 20.5s-74.666 31.834 -99.999 54.501l64 110c18.667 -16.667 44.834 -31.667 78.501 -45s64.167 -20 91.5 -20c43.333 0 65 11.333 65 34c0 10.667 -9.66699 18.667 -29 24s-42.666 10.166 -69.999 14.499
s-54.833 10.666 -82.5 18.999s-51.167 24 -70.5 47s-29 52.833 -29 89.5c0 44.667 18.5 82.334 55.5 113.001s87.5 46 151.5 46c76 0 143.333 -21.333 202 -64l-59 -109c-15.333 14.667 -36 27.167 -62 37.5s-52.667 15.5 -80 15.5c-18 0 -32.5 -3.16699 -43.5 -9.5
s-16.5 -14.166 -16.5 -23.499s9.66699 -16.333 29 -21s42.666 -9.5 69.999 -14.5s54.666 -12 81.999 -21s50.666 -25.333 69.999 -49s29 -53.834 29 -90.501c0 -46.667 -19.5 -84.667 -58.5 -114s-92.5 -44 -160.5 -44zM324.999 -139
c0 -62.667 -29.3301 -115.002 -87.9971 -157.002l-49 39c13.333 7.33301 26.666 18.5 39.999 33.5s21.666 29.5 24.999 43.5c-2 -2 -7.66699 -3 -17 -3c-16.667 0 -30.667 5.83301 -42 17.5s-17 26.834 -17 45.501c0 19.333 6.83301 36 20.5 50s30.167 21 49.5 21
c21.333 0 39.666 -8.16699 54.999 -24.5s23 -38.166 23 -65.499z" />
    <glyph glyph-name="hsuperior" unicode="&#x2b0;" horiz-adv-x="418" 
d="M372 326l-109 -0.000976562v181c0 32.667 -17.333 49 -52 49c-22 0 -41 -9.33301 -57 -28v-202h-109v434h109v-157c26 30 63 45 111 45c36 0 62.833 -9.16699 80.5 -27.5s26.5 -43.166 26.5 -74.499v-220z" />
    <glyph glyph-name="hsuperior" unicode="&#xf637;" horiz-adv-x="418" 
d="M372 326l-109 -0.000976562v181c0 32.667 -17.333 49 -52 49c-22 0 -41 -9.33301 -57 -28v-202h-109v434h109v-157c26 30 63 45 111 45c36 0 62.833 -9.16699 80.5 -27.5s26.5 -43.166 26.5 -74.499v-220z" />
    <glyph glyph-name="circumflex" unicode="&#x2c6;" horiz-adv-x="318" 
d="M318 556h-92l-69 81l-65 -81h-92l90 144h135z" />
    <glyph glyph-name="caron" unicode="&#x2c7;" horiz-adv-x="318" 
d="M228 556h-135l-93 144h92l68 -81l66 81h92z" />
    <glyph glyph-name="breve" unicode="&#x2d8;" horiz-adv-x="351" 
d="M351 641c-43.333 -58.667 -101.667 -88 -175 -88c-72.667 0 -131.334 29.333 -176.001 88l66 54c28.667 -38.667 65.334 -58 110.001 -58c46 0 82.667 19.333 110 58z" />
    <glyph glyph-name="dotaccent" unicode="&#x2d9;" horiz-adv-x="206" 
d="M103 541c-21.333 0 -39.666 7.66699 -54.999 23s-23 33.666 -23 54.999s7.66699 39.833 23 55.5s33.666 23.5 54.999 23.5s39.666 -7.83301 54.999 -23.5s23 -34.167 23 -55.5s-7.66699 -39.666 -23 -54.999s-33.666 -23 -54.999 -23z" />
    <glyph glyph-name="ring" unicode="&#x2da;" horiz-adv-x="216" 
d="M109 544c-30 0 -55.667 10.833 -77 32.5s-32 47.167 -32 76.5s10.667 54.833 32 76.5s47 32.5 77 32.5c29.333 0 54.5 -10.833 75.5 -32.5s31.5 -47.167 31.5 -76.5s-10.5 -54.833 -31.5 -76.5s-46.167 -32.5 -75.5 -32.5zM109 612c10.667 0 20 4 28 12s12 17.667 12 29
s-4 21 -12 29s-17.333 12 -28 12c-11.333 0 -21 -4 -29 -12s-12 -17.667 -12 -29s4 -21 12 -29s17.667 -12 29 -12z" />
    <glyph glyph-name="ogonek" unicode="&#x2db;" horiz-adv-x="203" 
d="M144 -94l59 -37c-22 -36.667 -54.667 -55 -98 -55c-30 0 -55 7.66699 -75 23s-30 38.333 -30 69c0 52 29.667 94.667 89 128l51 -34c-45.333 -23.333 -68 -52.333 -68 -87c0 -25.333 11 -38 33 -38c18 0 31 10.333 39 31z" />
    <glyph glyph-name="tilde" unicode="&#x2dc;" horiz-adv-x="334" 
d="M221 554c-18.667 0 -35 4.66699 -49 14s-26.167 18.5 -36.5 27.5s-19.5 13.5 -27.5 13.5c-20 0 -30 -16.333 -30 -49h-78c0 89.333 37.667 134 113 134c18.667 0 35 -4.66699 49 -14s26.167 -18.5 36.5 -27.5s19.5 -13.5 27.5 -13.5c20 0 30 16.333 30 49h78
c0 -89.333 -37.667 -134 -113 -134z" />
    <glyph glyph-name="hungarumlaut" unicode="&#x2dd;" horiz-adv-x="355" 
d="M202 700l-115 -144h-87l84 144h118zM355 700l-115 -144h-87l83 144h119z" />
    <glyph glyph-name="Delta" unicode="&#x394;" horiz-adv-x="697" 
d="M708 0h-719l251 667h217zM466 150l-117 347l-118 -347h235z" />
    <glyph glyph-name="Delta" unicode="&#x2206;" horiz-adv-x="697" 
d="M708 0h-719l251 667h217zM466 150l-117 347l-118 -347h235z" />
    <glyph glyph-name="Omega" unicode="&#x3a9;" horiz-adv-x="766" 
d="M44 0l0.000976562 150h112c-86.667 64.667 -130 139.334 -130 224.001c0 93.333 33.5 167.333 100.5 222s152.5 82 256.5 82s189.333 -27.333 256 -82s100 -128.667 100 -222c0 -84.667 -43.333 -159.334 -130 -224.001h113v-150h-283v150c39.333 11.333 70 34.333 92 69
s33 73.334 33 116.001c0 49.333 -15 93.333 -45 132s-75.333 58 -136 58c-42 0 -77.333 -10.333 -106 -31s-48.5 -44.667 -59.5 -72s-16.5 -56.333 -16.5 -87c0 -42.667 11.167 -81.334 33.5 -116.001s53.166 -57.667 92.499 -69v-150h-283z" />
    <glyph glyph-name="Omega" unicode="&#x2126;" horiz-adv-x="766" 
d="M44 0l0.000976562 150h112c-86.667 64.667 -130 139.334 -130 224.001c0 93.333 33.5 167.333 100.5 222s152.5 82 256.5 82s189.333 -27.333 256 -82s100 -128.667 100 -222c0 -84.667 -43.333 -159.334 -130 -224.001h113v-150h-283v150c39.333 11.333 70 34.333 92 69
s33 73.334 33 116.001c0 49.333 -15 93.333 -45 132s-75.333 58 -136 58c-42 0 -77.333 -10.333 -106 -31s-48.5 -44.667 -59.5 -72s-16.5 -56.333 -16.5 -87c0 -42.667 11.167 -81.334 33.5 -116.001s53.166 -57.667 92.499 -69v-150h-283z" />
    <glyph glyph-name="pi" unicode="&#x3c0;" horiz-adv-x="651" 
d="M563 0h-154v365h-166v-365h-154v365h-67v135h607v-135h-66v-365z" />
    <glyph glyph-name="endash" unicode="&#x2013;" horiz-adv-x="593" 
d="M563 178h-533v129h533v-129z" />
    <glyph glyph-name="emdash" unicode="&#x2014;" horiz-adv-x="833" 
d="M803 178h-773v129h773v-129z" />
    <glyph glyph-name="quoteleft" unicode="&#x2018;" horiz-adv-x="268" 
d="M34 475c0 81.333 38 148.999 114 202.999l64 -52c-16.667 -8 -33.5 -21.5 -50.5 -40.5s-28.167 -37.167 -33.5 -54.5c8 2 15.667 3 23 3c22 0 40.333 -7.66699 55 -23s22 -35 22 -59c0 -25.333 -9 -47.166 -27 -65.499s-39.333 -27.5 -64 -27.5
c-28 0 -52.167 10.5 -72.5 31.5s-30.5 49.167 -30.5 84.5z" />
    <glyph glyph-name="quoteright" unicode="&#x2019;" horiz-adv-x="268" 
d="M234 561c0 -81.333 -38 -148.668 -114 -202.001l-64 51c16.667 8.66699 33.667 22.334 51 41.001s28.666 37 33.999 55c-5.33301 -2.66699 -13 -4 -23 -4c-22 0 -40.5 7.66699 -55.5 23s-22.5 35.333 -22.5 60c0 25.333 9 47 27 65s39.667 27 65 27
c28.667 0 52.834 -10.5 72.501 -31.5s29.5 -49.167 29.5 -84.5z" />
    <glyph glyph-name="quotesinglbase" unicode="&#x201a;" horiz-adv-x="268" 
d="M234 61c0 -82 -37.999 -149.668 -113.999 -203.001l-64 52c16.667 8.66699 33.667 22.334 51 41.001s28.666 36.667 33.999 54c-8 -2 -15.667 -3 -23 -3c-22 0 -40.5 7.66699 -55.5 23s-22.5 35 -22.5 59c0 25.333 9 47 27 65s39.667 27 65 27c28 0 52 -10.333 72 -31
s30 -48.667 30 -84z" />
    <glyph glyph-name="quotedblleft" unicode="&#x201c;" horiz-adv-x="494" 
d="M33 475c0 81.333 38 149 114 203l64 -52c-16.667 -8.66699 -33.667 -22.334 -51 -41.001s-28.333 -36.667 -33 -54c8 2 15.667 3 23 3c21.333 0 39.5 -7.66699 54.5 -23s22.5 -35 22.5 -59c0 -25.333 -9 -47.166 -27 -65.499s-39.333 -27.5 -64 -27.5
c-28 0 -52.167 10.5 -72.5 31.5s-30.5 49.167 -30.5 84.5zM258 475c0 81.333 38 148.999 114 202.999l64 -52c-16.667 -8 -33.5 -21.5 -50.5 -40.5s-28.167 -37.167 -33.5 -54.5c8 2 15.667 3 23 3c22 0 40.333 -7.66699 55 -23s22 -35 22 -59
c0 -25.333 -9 -47.166 -27 -65.499s-39.333 -27.5 -64 -27.5c-28 0 -52.167 10.5 -72.5 31.5s-30.5 49.167 -30.5 84.5z" />
    <glyph glyph-name="quotedblright" unicode="&#x201d;" horiz-adv-x="494" 
d="M460 561c0 -81.333 -38 -148.668 -114 -202.001l-64 51c16.667 8.66699 33.5 22.334 50.5 41.001s28.167 37 33.5 55c-5.33301 -2.66699 -13 -4 -23 -4c-22 0 -40.333 7.66699 -55 23s-22 35.333 -22 60c0 25.333 9 47 27 65s39.333 27 64 27c28.667 0 53 -10.5 73 -31.5
s30 -49.167 30 -84.5zM234 560.998c0 -81.333 -38 -148.668 -114 -202.001l-64 51c16.667 8.66699 33.667 22.334 51 41.001s28.666 37 33.999 55c-5.33301 -2.66699 -13 -4 -23 -4c-22 0 -40.5 7.66699 -55.5 23s-22.5 35.333 -22.5 60c0 25.333 9 47 27 65
s39.667 27 65 27c28.667 0 52.834 -10.5 72.501 -31.5s29.5 -49.167 29.5 -84.5z" />
    <glyph glyph-name="quotedblbase" unicode="&#x201e;" horiz-adv-x="494" 
d="M234 61c0 -82 -37.999 -149.668 -113.999 -203.001l-64 52c16.667 8.66699 33.667 22.334 51 41.001s28.666 36.667 33.999 54c-8 -2 -15.667 -3 -23 -3c-22 0 -40.5 7.66699 -55.5 23s-22.5 35 -22.5 59c0 25.333 9 47 27 65s39.667 27 65 27c28 0 52 -10.333 72 -31
s30 -48.667 30 -84zM460.001 60.999c0 -82 -38 -149.667 -114 -203l-64 52c16.667 8 33.5 21.5 50.5 40.5s28.167 37.167 33.5 54.5c-8 -2 -15.667 -3 -23 -3c-22 0 -40.333 7.66699 -55 23s-22 35 -22 59c0 25.333 9 47 27 65s39.333 27 64 27c28.667 0 53 -10.333 73 -31
s30 -48.667 30 -84z" />
    <glyph glyph-name="dagger" unicode="&#x2020;" horiz-adv-x="284" 
d="M266 518l-89 4l4 -195h-78l4 195l-89 -4v71l89 -3l-4 91h78l-4 -91l89 3v-71z" />
    <glyph glyph-name="daggerdbl" unicode="&#x2021;" horiz-adv-x="284" 
d="M266 589v-71l-89 4v-185l89 4v-71l-89 3l4 -93h-78l4 93l-89 -3v71l89 -4v185l-89 -4v71l89 -3l-4 91h78l-4 -91z" />
    <glyph glyph-name="bullet" unicode="&#x2022;" horiz-adv-x="358" 
d="M304 242c0 -34 -12 -63 -36 -87s-53.333 -36 -88 -36s-64 12 -88 36s-36 53 -36 87c0 34.667 12 64 36 88s53.333 36 88 36s64 -12 88 -36s36 -53.333 36 -88z" />
    <glyph glyph-name="ellipsis" unicode="&#x2026;" horiz-adv-x="807" 
d="M228 83c0 -25.333 -9.16699 -47.333 -27.5 -66s-40.166 -28 -65.499 -28s-47.333 9.33301 -66 28s-28 40.667 -28 66s9.33301 47.166 28 65.499s40.667 27.5 66 27.5s47.166 -9.16699 65.499 -27.5s27.5 -40.166 27.5 -65.499zM497 83
c0 -25.333 -9.16699 -47.333 -27.5 -66s-40.166 -28 -65.499 -28s-47.333 9.33301 -66 28s-28 40.667 -28 66s9.33301 47.166 28 65.499s40.667 27.5 66 27.5s47.166 -9.16699 65.499 -27.5s27.5 -40.166 27.5 -65.499zM766 83c0 -25.333 -9.16699 -47.333 -27.5 -66
s-40.166 -28 -65.499 -28s-47.333 9.33301 -66 28s-28 40.667 -28 66s9.33301 47.166 28 65.499s40.667 27.5 66 27.5s47.166 -9.16699 65.499 -27.5s27.5 -40.166 27.5 -65.499z" />
    <glyph glyph-name="perthousand" unicode="&#x2030;" horiz-adv-x="1141" 
d="M372 509c0 -47.333 -16.167 -86.833 -48.5 -118.5s-74.833 -47.5 -127.5 -47.5c-51.333 0 -93 15.833 -125 47.5s-48 71.167 -48 118.5c0 48 16 88 48 120s73.667 48 125 48c52.667 0 95.167 -16 127.5 -48s48.5 -72 48.5 -120zM644 667l-427 -667h-87l426 667h88z
M748 154c0 -47.333 -16.167 -86.833 -48.5 -118.5s-74.166 -47.5 -125.499 -47.5c-52 0 -94 15.833 -126 47.5s-48 71.167 -48 118.5c0 48 16 88 48 120s74 48 126 48c51.333 0 93.166 -16 125.499 -48s48.5 -72 48.5 -120zM265 509c0 27.333 -6.33301 48.5 -19 63.5
s-29.334 22.5 -50.001 22.5c-20 0 -36.167 -7.5 -48.5 -22.5s-18.5 -36.167 -18.5 -63.5s6.16699 -48.166 18.5 -62.499s28.5 -21.5 48.5 -21.5c20.667 0 37.334 7.16699 50.001 21.5s19 35.166 19 62.499zM642 154c0 28 -6.16699 49.333 -18.5 64s-28.833 22 -49.5 22
s-37.167 -7.33301 -49.5 -22s-18.5 -36 -18.5 -64c0 -26.667 6.33301 -47.334 19 -62.001s29 -22 49 -22s36.333 7.33301 49 22s19 35.334 19 62.001zM1118 154c0 -47.333 -16.167 -86.833 -48.5 -118.5s-74.166 -47.5 -125.499 -47.5c-52 0 -94 15.833 -126 47.5
s-48 71.167 -48 118.5c0 48 16 88 48 120s74 48 126 48c51.333 0 93.166 -16 125.499 -48s48.5 -72 48.5 -120zM1013 154c0 28 -6.33203 49.333 -18.999 64s-29.334 22 -50.001 22s-37.167 -7.33301 -49.5 -22s-18.5 -36 -18.5 -64c0 -26.667 6.33301 -47.334 19 -62.001
s29 -22 49 -22s36.5 7.33301 49.5 22s19.5 35.334 19.5 62.001z" />
    <glyph glyph-name="guilsinglleft" unicode="&#x2039;" horiz-adv-x="359" 
d="M329 63h-139l-160 180l160 177h139l-160 -177z" />
    <glyph glyph-name="guilsinglright" unicode="&#x203a;" horiz-adv-x="359" 
d="M329 243l-160 -180h-139l160 180l-160 177h139z" />
    <glyph glyph-name="fraction" unicode="&#x2044;" horiz-adv-x="170" 
d="M342 667l-428 -667h-86l426 667h88z" />
    <glyph glyph-name="fraction" unicode="&#x2215;" horiz-adv-x="170" 
d="M342 667l-428 -667h-86l426 667h88z" />
    <glyph glyph-name="zerosuperior" unicode="&#x2070;" 
d="M379 621c0 -58 -15.333 -107 -46 -147s-74.334 -60 -131.001 -60c-58 0 -102.333 20 -133 60s-46 89 -46 147s15.333 106.833 46 146.5s75 59.5 133 59.5c56.667 0 100.334 -20 131.001 -60s46 -88.667 46 -146zM265 621c0 77.333 -21 116 -63 116
c-43.333 0 -65 -38.667 -65 -116c0 -78 21.667 -117 65 -117c42 0 63 39 63 117z" />
    <glyph glyph-name="foursuperior" unicode="&#x2074;" 
d="M384 499h-50v-78h-113v78h-197v77l150 245h160v-233h50v-89zM221 588v138l-85 -138h85z" />
    <glyph glyph-name="fivesuperior" unicode="&#x2075;" 
d="M373 556c0 -42 -15.666 -76.167 -46.999 -102.5s-74.333 -39.5 -129 -39.5c-73.333 0 -129 21 -167 63l60 75c28 -32 63.667 -48 107 -48c20.667 0 36.5 4.83301 47.5 14.5s16.5 21.167 16.5 34.5c0 14 -5.33301 25.5 -16 34.5s-25.667 13.5 -45 13.5
c-32.667 0 -59.334 -12.333 -80.001 -37l-78 24v233h304v-90h-190v-80c21.333 21.333 50.333 32 87 32s67.5 -11 92.5 -33s37.5 -53.333 37.5 -94z" />
    <glyph glyph-name="sixsuperior" unicode="&#x2076;" 
d="M379 557c0 -42 -15.499 -76.332 -46.499 -102.999s-70.5 -40 -118.5 -40c-63.333 0 -110.833 19 -142.5 57s-47.5 87.667 -47.5 149c0 65.333 18.667 116.166 56 152.499s88 54.5 152 54.5c49.333 0 91.333 -12 126 -36l-47 -81c-22.667 18 -49 27 -79 27
c-27.333 0 -49.833 -8 -67.5 -24s-26.5 -36.333 -26.5 -61v-6c24.667 30 57 45 97 45c39.333 0 73.166 -12.167 101.499 -36.5s42.5 -56.833 42.5 -97.5zM265.001 552.001c0 16.667 -6.5 29.332 -19.5 37.999s-27.5 13 -43.5 13c-26 0 -47.333 -8.66699 -64 -26
c1.33301 -20.667 7.66602 -38 18.999 -52s28.333 -21 51 -21c16.667 0 30.334 4.83301 41.001 14.5s16 20.834 16 33.501z" />
    <glyph glyph-name="sevensuperior" unicode="&#x2077;" horiz-adv-x="375" 
d="M350 742l-139 -321h-126l142 310h-204v90h327v-79z" />
    <glyph glyph-name="eightsuperior" unicode="&#x2078;" 
d="M379 527c0 -39.333 -17.002 -68 -51.002 -86s-76.333 -27 -127 -27c-50 0 -92.167 8.83301 -126.5 26.5s-51.5 46.5 -51.5 86.5c0 22 8.66699 42.5 26 61.5s39.333 31.833 66 38.5c-25.333 6 -45.833 17.333 -61.5 34s-23.5 36.334 -23.5 59.001
c0 36 16.833 62.833 50.5 80.5s73.834 26.5 120.501 26.5s86.834 -8.83301 120.501 -26.5s50.5 -44.5 50.5 -80.5c0 -22.667 -7.83301 -42.334 -23.5 -59.001s-36.167 -28 -61.5 -34c26.667 -6.66699 48.667 -19.5 66 -38.5s26 -39.5 26 -61.5zM257.998 703
c0 25.333 -19 38 -57 38c-38.667 0 -58 -12.667 -58 -38c0 -19.333 19.333 -33 58 -41c38 7.33301 57 21 57 41zM265.998 539c0 14.667 -7.66699 26.167 -23 34.5s-29.333 12.833 -42 13.5c-12 -0.666992 -25.833 -5.16699 -41.5 -13.5s-23.5 -19.833 -23.5 -34.5
c0 -26 21.667 -39 65 -39s65 13 65 39z" />
    <glyph glyph-name="ninesuperior" unicode="&#x2079;" 
d="M24 685c0 42 15.499 76.167 46.499 102.5s70.833 39.5 119.5 39.5c62.667 0 109.834 -19 141.501 -57s47.5 -87.667 47.5 -149c0 -65.333 -18.667 -116.166 -56 -152.499s-88 -54.5 -152 -54.5c-49.333 0 -91 12 -125 36l47 81c21.333 -18 47.666 -27 78.999 -27
c26 0 48 7.83301 66 23.5s27 36.5 27 62.5v5c-24.667 -30 -57 -45 -97 -45c-39.333 0 -73.166 12.167 -101.499 36.5s-42.5 57.166 -42.5 98.499zM138.999 689c0 -16.667 6.33301 -29.334 19 -38.001s27 -13 43 -13c26.667 0 48 9 64 27c-1.33301 20 -7.5 37 -18.5 51
s-27.5 21 -49.5 21c-17.333 0 -31.333 -4.66699 -42 -14s-16 -20.666 -16 -33.999z" />
    <glyph glyph-name="parenleftsuperior" unicode="&#x207d;" horiz-adv-x="208" 
d="M198 383l-69 -27c-31.333 27.333 -57 66 -77 116s-30 99.667 -30 149c0 48.667 10 98 30 148s45.667 89 77 117l69 -27c-40 -70.667 -60 -150 -60 -238s20 -167.333 60 -238z" />
    <glyph glyph-name="parenrightsuperior" unicode="&#x207e;" horiz-adv-x="208" 
d="M189 621c0 -48.667 -10 -97.999 -30 -147.999s-46 -89 -78 -117l-68 27c40 74 60 153.333 60 238c0 85.333 -20 164.666 -60 237.999l68 27c32 -28 58 -67 78 -117s30 -99.333 30 -148z" />
    <glyph glyph-name="nsuperior" unicode="&#x207f;" horiz-adv-x="418" 
d="M373 326h-109v179c0 34 -17 51 -51 51c-22.667 0 -42 -9.33301 -58 -28v-202h-110v314h110v-37c27.333 30 64.333 45 111 45c36 0 62.833 -9.5 80.5 -28.5s26.5 -43.5 26.5 -73.5v-220z" />
    <glyph glyph-name="zeroinferior" unicode="&#x2080;" 
d="M379 54c0 -58 -15.333 -107 -46 -147s-74.334 -60 -131.001 -60c-58 0 -102.333 20 -133 60s-46 89 -46 147s15.333 106.833 46 146.5s75 59.5 133 59.5c56.667 0 100.334 -20 131.001 -60s46 -88.667 46 -146zM265 54c0 77.333 -21 116 -63 116
c-43.333 0 -65 -38.667 -65 -116c0 -78 21.667 -117 65 -117c42 0 63 39 63 117z" />
    <glyph glyph-name="oneinferior" unicode="&#x2081;" horiz-adv-x="311" 
d="M251 -146h-114v255l-69 -69l-64 68l149 146h98v-400z" />
    <glyph glyph-name="twoinferior" unicode="&#x2082;" 
d="M370 -146h-325.999v83c89.333 62.667 146.5 105.167 171.5 127.5s37.5 41.833 37.5 58.5c0 14.667 -5.33301 26.167 -16 34.5s-25 12.5 -43 12.5c-21.333 0 -41.833 -5 -61.5 -15s-34.834 -21.333 -45.501 -34l-58 72c41.333 44.667 97.333 67 168 67
c51.333 0 92.5 -11.333 123.5 -34s46.5 -54 46.5 -94c0 -28.667 -11.833 -57 -35.5 -85s-64.5 -62.333 -122.5 -103h161v-90z" />
    <glyph glyph-name="threeinferior" unicode="&#x2083;" 
d="M373 -34c0 -35.333 -15.8359 -63.998 -47.5029 -85.998s-73.5 -33 -125.5 -33c-77.333 0 -134.666 21 -171.999 63l54 74c30.667 -31.333 68.334 -47 113.001 -47c20.667 0 36.667 3.5 48 10.5s17 15.833 17 26.5c0 15.333 -6.83301 25.666 -20.5 30.999
s-33.834 8 -60.501 8c-27.333 0 -43 -0.333008 -47 -1v88c6 -0.666992 21.333 -1 46 -1c26.667 0 45.834 2.66699 57.501 8s17.5 14.666 17.5 27.999c0 23.333 -21.667 35 -65 35c-41.333 0 -76 -14 -104 -42l-51 67c40 43.333 95.667 65 167 65
c53.333 0 94.333 -10 123 -30s43 -46.667 43 -80c0 -22 -8.5 -41.5 -25.5 -58.5s-38.167 -27.5 -63.5 -31.5c24.667 -2 46.834 -11.5 66.501 -28.5s29.5 -38.833 29.5 -65.5z" />
    <glyph glyph-name="fourinferior" unicode="&#x2084;" 
d="M384 -68h-50v-78h-113v78h-197v77l150 245h160v-233h50v-89zM221 21v138l-85 -138h85z" />
    <glyph glyph-name="fiveinferior" unicode="&#x2085;" 
d="M373 -11c0 -42 -15.666 -76.167 -46.999 -102.5s-74.333 -39.5 -129 -39.5c-73.333 0 -129 21 -167 63l60 75c28 -32 63.667 -48 107 -48c20.667 0 36.5 4.83301 47.5 14.5s16.5 21.167 16.5 34.5c0 14 -5.33301 25.5 -16 34.5s-25.667 13.5 -45 13.5
c-32.667 0 -59.334 -12.333 -80.001 -37l-78 24v233h304v-90h-190v-80c21.333 21.333 50.333 32 87 32s67.5 -11 92.5 -33s37.5 -53.333 37.5 -94z" />
    <glyph glyph-name="sixinferior" unicode="&#x2086;" 
d="M379 -10c0 -42 -15.499 -76.332 -46.499 -102.999s-70.5 -40 -118.5 -40c-63.333 0 -110.833 19 -142.5 57s-47.5 87.667 -47.5 149c0 65.333 18.667 116.166 56 152.499s88 54.5 152 54.5c49.333 0 91.333 -12 126 -36l-47 -81c-22.667 18 -49 27 -79 27
c-27.333 0 -49.833 -8 -67.5 -24s-26.5 -36.333 -26.5 -61v-6c24.667 30 57 45 97 45c39.333 0 73.166 -12.167 101.499 -36.5s42.5 -56.833 42.5 -97.5zM265.001 -14.999c0 16.667 -6.5 29.332 -19.5 37.999s-27.5 13 -43.5 13c-26 0 -47.333 -8.66699 -64 -26
c1.33301 -20.667 7.66602 -38 18.999 -52s28.333 -21 51 -21c16.667 0 30.334 4.83301 41.001 14.5s16 20.834 16 33.501z" />
    <glyph glyph-name="seveninferior" unicode="&#x2087;" horiz-adv-x="375" 
d="M350 175l-139 -321h-126l142 310h-204v90h327v-79z" />
    <glyph glyph-name="eightinferior" unicode="&#x2088;" 
d="M379 -40c0 -39.333 -17.002 -68 -51.002 -86s-76.333 -27 -127 -27c-50 0 -92.167 8.83301 -126.5 26.5s-51.5 46.5 -51.5 86.5c0 22 8.66699 42.5 26 61.5s39.333 31.833 66 38.5c-25.333 6 -45.833 17.333 -61.5 34s-23.5 36.334 -23.5 59.001
c0 36 16.833 62.833 50.5 80.5s73.834 26.5 120.501 26.5s86.834 -8.83301 120.501 -26.5s50.5 -44.5 50.5 -80.5c0 -22.667 -7.83301 -42.334 -23.5 -59.001s-36.167 -28 -61.5 -34c26.667 -6.66699 48.667 -19.5 66 -38.5s26 -39.5 26 -61.5zM257.998 136
c0 25.333 -19 38 -57 38c-38.667 0 -58 -12.667 -58 -38c0 -19.333 19.333 -33 58 -41c38 7.33301 57 21 57 41zM265.998 -28c0 14.667 -7.66699 26.167 -23 34.5s-29.333 12.833 -42 13.5c-12 -0.666992 -25.833 -5.16699 -41.5 -13.5s-23.5 -19.833 -23.5 -34.5
c0 -26 21.667 -39 65 -39s65 13 65 39z" />
    <glyph glyph-name="nineinferior" unicode="&#x2089;" 
d="M24 118c0 42 15.499 76.167 46.499 102.5s70.833 39.5 119.5 39.5c62.667 0 109.834 -19 141.501 -57s47.5 -87.667 47.5 -149c0 -65.333 -18.667 -116.166 -56 -152.499s-88 -54.5 -152 -54.5c-49.333 0 -91 12 -125 36l47 81c21.333 -18 47.666 -27 78.999 -27
c26 0 48 7.83301 66 23.5s27 36.5 27 62.5v5c-24.667 -30 -57 -45 -97 -45c-39.333 0 -73.166 12.167 -101.499 36.5s-42.5 57.166 -42.5 98.499zM138.999 122c0 -16.667 6.33301 -29.334 19 -38.001s27 -13 43 -13c26.667 0 48 9 64 27c-1.33301 20 -7.5 37 -18.5 51
s-27.5 21 -49.5 21c-17.333 0 -31.333 -4.66699 -42 -14s-16 -20.666 -16 -33.999z" />
    <glyph glyph-name="parenleftinferior" unicode="&#x208d;" horiz-adv-x="208" 
d="M198 -184l-69 -27c-31.333 27.333 -57 66 -77 116s-30 99.667 -30 149c0 48.667 10 98 30 148s45.667 89 77 117l69 -27c-40 -70.667 -60 -150 -60 -238s20 -167.333 60 -238z" />
    <glyph glyph-name="parenrightinferior" unicode="&#x208e;" horiz-adv-x="208" 
d="M189 54c0 -48.667 -10 -97.999 -30 -147.999s-46 -89 -78 -117l-68 27c40 74 60 153.333 60 238c0 85.333 -20 164.666 -60 237.999l68 27c32 -28 58 -67 78 -117s30 -99.333 30 -148z" />
    <glyph glyph-name="colonmonetary" unicode="&#x20a1;" horiz-adv-x="704" 
d="M397 -12l-13.001 0.999023l-29 -89h-84l32 99c-20.667 4.66699 -38.667 10 -54 16l-38 -115h-83l50 152c-44.667 30.667 -79.5 70.167 -104.5 118.5s-37.5 102.5 -37.5 162.5c0 99.333 32.833 180.833 98.5 244.5s148.834 96.834 249.501 99.501l30 91h84l-32 -97
c17.333 -2.66699 35.333 -7.33398 54 -14.001l37 111h84l-50 -150c40 -29.333 72.333 -68.666 97 -117.999l-148 -71c-4 7.33301 -6.33301 11.666 -7 12.999l-98 -297c23.333 6.66699 44.333 18.334 63 35.001s32.667 35.667 42 57l148 -70
c-25.333 -50.667 -61.833 -93.167 -109.5 -127.5s-108.167 -51.5 -181.5 -51.5zM298.999 165.999c18.667 -10.667 36.333 -17.667 53 -21l119 361c-16.667 9.33301 -34.667 15.333 -54 18zM210.998 332.999c0 -38.667 8.66699 -72.668 26 -102.001l93 283
c-36 -13.333 -64.833 -36.166 -86.5 -68.499s-32.5 -69.833 -32.5 -112.5z" />
    <glyph glyph-name="frenchfranc" unicode="&#x20a3;" horiz-adv-x="590" 
d="M240 0h-172v95h-60v85h60v487h489v-150h-317v-104h310v-150h-310v-83h131v-85h-131v-95z" />
    <glyph glyph-name="lira" unicode="&#x20a4;" horiz-adv-x="565" 
d="M24 336l-0.00195312 74.999h30c-6.66699 18.667 -10 36.667 -10 54c0 64 26 115.333 78 154s109.667 58 173 58c122 0 204.667 -41.667 248 -125l-137 -79c-7.33301 20.667 -19 36.667 -35 48s-34 17 -54 17c-24.667 0 -45 -7.16699 -61 -21.5s-24 -32.5 -24 -54.5
c0 -18 3.66699 -35 11 -51h163v-75h-125c6 -16 10.333 -30.667 13 -44h112v-74h-120c-12 -26 -28.667 -45 -50 -57c14 5.33301 30 8 48 8c19.333 0 40.833 -4.83301 64.5 -14.5s42.834 -14.5 57.501 -14.5c37.333 0 64.333 11.667 81 35l67 -136
c-31.333 -34 -82.666 -51 -153.999 -51c-31.333 0 -65.833 7.16699 -103.5 21.5s-63.834 21.5 -78.501 21.5c-32 0 -70.333 -12.667 -115 -38l-57 115c64.667 32.667 97 69.334 97 110.001h-119v74h98c-3.33301 6 -8.16602 14.167 -14.499 24.5s-10.5 16.833 -12.5 19.5h-71
z" />
    <glyph glyph-name="uni20A6" unicode="&#x20a6;" horiz-adv-x="755" 
d="M688 0h-166l-165 225h-117v-225h-172v225h-60v85h60v52h-60v85h60v220h177l162 -220h108v220h173v-220h59v-85h-59v-52h59v-85h-59v-225zM240 386v-76h55zM469 362l46 -62v62h-46z" />
    <glyph glyph-name="peseta" unicode="&#x20a7;" horiz-adv-x="696" 
d="M693 382l-62 0.000976562c-8 -60.667 -31.833 -108.834 -71.5 -144.501s-92.167 -53.5 -157.5 -53.5h-162v-184h-172v382h-60v87h60v198h334c65.333 0 117.833 -18 157.5 -54s63.5 -84 71.5 -144h62v-87zM376 334.001c38.667 0 64 16 76 48h-212v-48h136zM240 517.001
v-48h212c-12 32 -37.333 48 -76 48h-136z" />
    <glyph glyph-name="rupee" unicode="&#x20a8;" horiz-adv-x="1098" 
d="M629 0l-197 0.000976562l-112 224h-88v-224h-172v667h334c72 0 128.667 -21 170 -63s62 -95 62 -159c0 -53.333 -13 -96.833 -39 -130.5s-57.333 -56.834 -94 -69.501zM368 374.001c24 0 43.833 6.33203 59.5 18.999s23.5 30.334 23.5 53.001
c0 22 -7.83301 39.333 -23.5 52s-35.5 19 -59.5 19h-136v-143h136zM857 -12c-43.333 0 -85.666 6.83594 -126.999 20.5029s-74.666 31.834 -99.999 54.501l64 110c18.667 -16.667 44.834 -31.667 78.501 -45s64.167 -20 91.5 -20c43.333 0 65 11.333 65 34
c0 9.33301 -7 16.666 -21 21.999s-31.333 9.16602 -52 11.499s-43.167 6.66602 -67.5 12.999s-46.833 14.166 -67.5 23.499s-38 24.666 -52 45.999s-21 47.333 -21 78c0 44.667 18.5 82.334 55.5 113.001s87.5 46 151.5 46c76 0 143.333 -21.333 202 -64l-59 -109
c-15.333 14.667 -36 27.167 -62 37.5s-52.667 15.5 -80 15.5c-18 0 -32.5 -3.16699 -43.5 -9.5s-16.5 -14.166 -16.5 -23.499s9.66699 -16.333 29 -21s42.666 -9.5 69.999 -14.5s54.666 -12 81.999 -21s50.666 -25.333 69.999 -49s29 -53.834 29 -90.501
c0 -46.667 -19.5 -84.667 -58.5 -114s-92.5 -44 -160.5 -44z" />
    <glyph glyph-name="uni20A9" unicode="&#x20a9;" horiz-adv-x="936" 
d="M751 0h-182l-55 225h-93l-54 -225h-182l-65 225h-111v85h87l-15 52h-72v85h48l-63 220h193l50 -220h108l57 220h132l56 -220h108l50 220h194l-63 -220h48v-85h-72l-15 -52h87v-85h-112zM612 362l36 -140l31 140h-67zM256 362l32 -140l36 140h-68zM468 418l-26 -108h52z
" />
    <glyph glyph-name="afii57636" unicode="&#x20aa;" horiz-adv-x="857" 
d="M362 550c88 0 149.833 -18.6689 185.5 -56.002s53.5 -92.666 53.5 -165.999v-145h-144v131c0 36.667 -6.83301 63.334 -20.5 80.001s-38.5 25 -74.5 25h-161v-419h-145v550h306zM562 -0.00195312l-306 -0.00195312v366h144v-235h162c36 0 60.667 8.33301 74 25
s20 43.334 20 80.001v314h145v-328c0 -73.333 -18 -128.666 -54 -165.999s-97.667 -56 -185 -56z" />
    <glyph glyph-name="Euro" unicode="&#x20ac;" horiz-adv-x="715" 
d="M411 -12c-82 0 -153.832 20.832 -215.499 62.499s-104.167 97.834 -127.5 168.501h-51v92h33v22c0 11.333 0.333008 19.666 1 24.999h-34v92h51c23.333 70 66 125.5 128 166.5s133.667 61.5 215 61.5c74 0 134.667 -17 182 -51s83.666 -76.333 108.999 -127l-148 -71
c-11.333 27.333 -30.166 50.333 -56.499 69s-55.166 28 -86.499 28c-66 0 -116.333 -25.333 -151 -76h211v-92h-245c-0.666992 -5.33301 -1 -13.666 -1 -24.999c0 -10 0.333008 -17.333 1 -22h245v-92h-213c35.333 -52.667 86.333 -79 153 -79
c31.333 0 60.166 9.33301 86.499 28s45.166 41.667 56.499 69l148 -70c-25.333 -50.667 -61.833 -93.167 -109.5 -127.5s-108.167 -51.5 -181.5 -51.5z" />
    <glyph glyph-name="afii61289" unicode="&#x2113;" horiz-adv-x="551" 
d="M57 478l-0.000976562 -348c0 -48.667 13.5 -84.5 40.5 -107.5s63.833 -34.5 110.5 -34.5c52.667 0 90.667 10.667 114 32l-29 101c-10.667 -8 -24 -12 -40 -12c-13.333 0 -23.666 4.66699 -30.999 14s-11 21 -11 35v68l153 100c52 34 92.833 66.5 122.5 97.5
s44.5 64.167 44.5 99.5c0 45.333 -22.333 82.333 -67 111s-97.667 43 -159 43c-72.667 0 -132.167 -18.667 -178.5 -56s-69.5 -85 -69.5 -143zM312.999 433l-101.999 -66.999v112c0 28.667 8.16699 51.5 24.5 68.5s38.5 25.5 66.5 25.5c22.667 0 42.167 -5.33301 58.5 -16
s24.5 -24.334 24.5 -41.001c0 -14 -5.33301 -26.667 -16 -38s-29.334 -26 -56.001 -44z" />
    <glyph glyph-name="afii61352" unicode="&#x2116;" horiz-adv-x="1145" 
d="M680 0h-166l-282 386v-386h-172v667h177l270 -367v367h173v-667zM942 350c-53.333 0 -96.166 16 -128.499 48s-48.5 71 -48.5 117s16.167 85 48.5 117s75.166 48 128.499 48c54 0 97.167 -16 129.5 -48s48.5 -71 48.5 -117s-16.167 -85 -48.5 -117s-75.5 -48 -129.5 -48z
M942 437c20.667 0 36.834 6.83301 48.501 20.5s17.5 32.834 17.5 57.501s-5.83301 43.5 -17.5 56.5s-27.834 19.5 -48.501 19.5c-42.667 0 -64 -25.333 -64 -76c0 -24.667 5.66699 -43.834 17 -57.501s27 -20.5 47 -20.5z" />
    <glyph glyph-name="published" unicode="&#x2117;" horiz-adv-x="778" 
d="M734 334c0 -94.667 -33.667 -175.834 -101 -243.501s-148.666 -101.5 -243.999 -101.5s-176.666 33.833 -243.999 101.5s-101 148.834 -101 243.501s33.667 175.834 101 243.501s148.666 101.5 243.999 101.5s176.666 -33.833 243.999 -101.5s101 -148.834 101 -243.501z
M695 334c0 84 -30 156 -90 216s-132 90 -216 90s-156 -30 -216 -90s-90 -132 -90 -216s30 -156 90 -216s132 -90 216 -90s156 30 216 90s90 132 90 216zM557 415c0 -34.667 -12.5 -63.333 -37.5 -86s-54.833 -34 -89.5 -34h-112v-164h-50v405h162
c34.667 0 64.5 -11.167 89.5 -33.5s37.5 -51.5 37.5 -87.5zM505 415.001c0 22 -7.5 40.168 -22.5 54.501s-32.5 21.5 -52.5 21.5h-112v-151h112c20 0 37.5 7.16699 52.5 21.5s22.5 32.166 22.5 53.499z" />
    <glyph glyph-name="servicemark" unicode="&#x2120;" horiz-adv-x="476" 
d="M439 447h-28v182l-75 -182h-8l-75 182v-182h-28v220h43l64 -160l64 160h43v-220zM188 506c0 -20.667 -7.49902 -36.999 -22.499 -48.999s-36.5 -18 -64.5 -18c-36.667 0 -65.334 12 -86.001 36l18 21c18 -20.667 40.667 -31 68 -31c36 0 54 12.667 54 38
c0 12.667 -7.16699 22.667 -21.5 30s-29.833 12.333 -46.5 15s-32.167 9.16699 -46.5 19.5s-21.5 24.833 -21.5 43.5c0 18 7.5 32.833 22.5 44.5s34.167 17.5 57.5 17.5c36.667 0 64 -10.667 82 -32l-18 -19c-15.333 18 -36.333 27 -63 27c-14 0 -25.5 -3.33301 -34.5 -10
s-13.5 -15.334 -13.5 -26.001c0 -11.333 7 -20.333 21 -27s29.667 -11.5 47 -14.5s33 -9.83301 47 -20.5s21 -25.667 21 -45z" />
    <glyph glyph-name="trademark" unicode="&#x2122;" horiz-adv-x="454" 
d="M419 447h-28v182l-75 -182h-8l-75 182v-182h-28v220h43l64 -160l64 160h43v-220zM169 641h-62v-194h-28v194h-62v26h152v-26z" />
    <glyph glyph-name="estimated" unicode="&#x212e;" horiz-adv-x="842" 
d="M811 324l-631.999 -0.000976562c-3.33301 0 -5 -1.66699 -5 -5v-190c0 -9.33301 3 -17 9 -23c65.333 -68.667 145.333 -103 240 -103c100.667 0 184 38.333 250 115h57c-36 -42 -81 -75.167 -135 -99.5s-112 -36.5 -174 -36.5c-107.333 0 -199.166 34.333 -275.499 103
s-114.5 151.334 -114.5 248.001s38.167 179.334 114.5 248.001s168.166 103 275.499 103s199.166 -34.333 275.499 -103s114.5 -151.334 114.5 -248.001v-9zM668.001 348.999v191c0 9.33301 -3.33301 17.333 -10 24c-64.667 66 -143 99 -235 99
c-93.333 0 -173 -34 -239 -102c-6.66699 -6.66699 -10 -14.667 -10 -24v-188c0 -4 1.66699 -6 5 -6h485c2.66699 0 4 2 4 6z" />
    <glyph glyph-name="onethird" unicode="&#x2153;" horiz-adv-x="897" 
d="M667 667l-428 -667h-86l426 667h88zM868 112c0 -35.333 -15.8359 -63.998 -47.5029 -85.998s-73.5 -33 -125.5 -33c-77.333 0 -134.666 21 -171.999 63l54 74c30.667 -31.333 68.334 -47 113.001 -47c20.667 0 36.667 3.5 48 10.5s17 15.833 17 26.5
c0 15.333 -6.83301 25.666 -20.5 30.999s-33.834 8 -60.501 8c-27.333 0 -43 -0.333008 -47 -1v88c6 -0.666992 21.333 -1 46 -1c26.667 0 45.834 2.66699 57.501 8s17.5 14.666 17.5 27.999c0 23.333 -21.667 35 -65 35c-41.333 0 -76 -14 -104 -42l-51 67
c40 43.333 95.667 65 167 65c53.333 0 94.333 -10 123 -30s43 -46.667 43 -80c0 -22 -8.5 -41.5 -25.5 -58.5s-38.167 -27.5 -63.5 -31.5c24.667 -2 46.834 -11.5 66.501 -28.5s29.5 -38.833 29.5 -65.5zM250.997 267.002h-114v255l-69 -69l-64 68l149 146h98v-400z" />
    <glyph glyph-name="twothirds" unicode="&#x2154;" horiz-adv-x="974" 
d="M744 667l-428 -667h-86l426 667h88zM945 112c0 -35.333 -15.8359 -63.998 -47.5029 -85.998s-73.5 -33 -125.5 -33c-77.333 0 -134.666 21 -171.999 63l54 74c30.667 -31.333 68.334 -47 113.001 -47c20.667 0 36.667 3.5 48 10.5s17 15.833 17 26.5
c0 15.333 -6.83301 25.666 -20.5 30.999s-33.834 8 -60.501 8c-27.333 0 -43 -0.333008 -47 -1v88c6 -0.666992 21.333 -1 46 -1c26.667 0 45.834 2.66699 57.501 8s17.5 14.666 17.5 27.999c0 23.333 -21.667 35 -65 35c-41.333 0 -76 -14 -104 -42l-51 67
c40 43.333 95.667 65 167 65c53.333 0 94.333 -10 123 -30s43 -46.667 43 -80c0 -22 -8.5 -41.5 -25.5 -58.5s-38.167 -27.5 -63.5 -31.5c24.667 -2 46.834 -11.5 66.501 -28.5s29.5 -38.833 29.5 -65.5zM369.997 267.002h-325.999v83
c89.333 62.667 146.5 105.167 171.5 127.5s37.5 41.833 37.5 58.5c0 14.667 -5.33301 26.167 -16 34.5s-25 12.5 -43 12.5c-21.333 0 -41.833 -5 -61.5 -15s-34.834 -21.333 -45.501 -34l-58 72c41.333 44.667 97.333 67 168 67c51.333 0 92.5 -11.333 123.5 -34
s46.5 -54 46.5 -94c0 -28.667 -11.833 -57 -35.5 -85s-64.5 -62.333 -122.5 -103h161v-90z" />
    <glyph glyph-name="oneeighth" unicode="&#x215b;" horiz-adv-x="897" 
d="M667 667l-428 -667h-86l426 667h88zM874 106c0 -39.333 -17.002 -68 -51.002 -86s-76.333 -27 -127 -27c-50 0 -92.167 8.83301 -126.5 26.5s-51.5 46.5 -51.5 86.5c0 22 8.66699 42.5 26 61.5s39.333 31.833 66 38.5c-25.333 6 -45.833 17.333 -61.5 34
s-23.5 36.334 -23.5 59.001c0 36 16.833 62.833 50.5 80.5s73.834 26.5 120.501 26.5s86.834 -8.83301 120.501 -26.5s50.5 -44.5 50.5 -80.5c0 -22.667 -7.83301 -42.334 -23.5 -59.001s-36.167 -28 -61.5 -34c26.667 -6.66699 48.667 -19.5 66 -38.5s26 -39.5 26 -61.5z
M752.998 282c0 25.333 -19 38 -57 38c-38.667 0 -58 -12.667 -58 -38c0 -19.333 19.333 -33 58 -41c38 7.33301 57 21 57 41zM760.998 118c0 14.667 -7.66699 26.167 -23 34.5s-29.333 12.833 -42 13.5c-12 -0.666992 -25.833 -5.16699 -41.5 -13.5
s-23.5 -19.833 -23.5 -34.5c0 -26 21.667 -39 65 -39s65 13 65 39zM250.998 267h-114v255l-69 -69l-64 68l149 146h98v-400z" />
    <glyph glyph-name="threeeighths" unicode="&#x215c;" horiz-adv-x="974" 
d="M744 667l-428 -667h-86l426 667h88zM951 106c0 -39.333 -17.002 -68 -51.002 -86s-76.333 -27 -127 -27c-50 0 -92.167 8.83301 -126.5 26.5s-51.5 46.5 -51.5 86.5c0 22 8.66699 42.5 26 61.5s39.333 31.833 66 38.5c-25.333 6 -45.833 17.333 -61.5 34
s-23.5 36.334 -23.5 59.001c0 36 16.833 62.833 50.5 80.5s73.834 26.5 120.501 26.5s86.834 -8.83301 120.501 -26.5s50.5 -44.5 50.5 -80.5c0 -22.667 -7.83301 -42.334 -23.5 -59.001s-36.167 -28 -61.5 -34c26.667 -6.66699 48.667 -19.5 66 -38.5s26 -39.5 26 -61.5z
M829.998 282c0 25.333 -19 38 -57 38c-38.667 0 -58 -12.667 -58 -38c0 -19.333 19.333 -33 58 -41c38 7.33301 57 21 57 41zM837.998 118c0 14.667 -7.66699 26.167 -23 34.5s-29.333 12.833 -42 13.5c-12 -0.666992 -25.833 -5.16699 -41.5 -13.5
s-23.5 -19.833 -23.5 -34.5c0 -26 21.667 -39 65 -39s65 13 65 39zM372.998 379c0 -35.333 -15.8359 -63.998 -47.5029 -85.998s-73.5 -33 -125.5 -33c-77.333 0 -134.666 21 -171.999 63l54 74c30.667 -31.333 68.334 -47 113.001 -47c20.667 0 36.667 3.5 48 10.5
s17 15.833 17 26.5c0 15.333 -6.83301 25.666 -20.5 30.999s-33.834 8 -60.501 8c-27.333 0 -43 -0.333008 -47 -1v88c6 -0.666992 21.333 -1 46 -1c26.667 0 45.834 2.66699 57.501 8s17.5 14.666 17.5 27.999c0 23.333 -21.667 35 -65 35c-41.333 0 -76 -14 -104 -42
l-51 67c40 43.333 95.667 65 167 65c53.333 0 94.333 -10 123 -30s43 -46.667 43 -80c0 -22 -8.5 -41.5 -25.5 -58.5s-38.167 -27.5 -63.5 -31.5c24.667 -2 46.834 -11.5 66.501 -28.5s29.5 -38.833 29.5 -65.5z" />
    <glyph glyph-name="fiveeighths" unicode="&#x215d;" horiz-adv-x="966" 
d="M736 667l-428 -667h-86l426 667h88zM943 106c0 -39.333 -17.002 -68 -51.002 -86s-76.333 -27 -127 -27c-50 0 -92.167 8.83301 -126.5 26.5s-51.5 46.5 -51.5 86.5c0 22 8.66699 42.5 26 61.5s39.333 31.833 66 38.5c-25.333 6 -45.833 17.333 -61.5 34
s-23.5 36.334 -23.5 59.001c0 36 16.833 62.833 50.5 80.5s73.834 26.5 120.501 26.5s86.834 -8.83301 120.501 -26.5s50.5 -44.5 50.5 -80.5c0 -22.667 -7.83301 -42.334 -23.5 -59.001s-36.167 -28 -61.5 -34c26.667 -6.66699 48.667 -19.5 66 -38.5s26 -39.5 26 -61.5z
M821.998 282c0 25.333 -19 38 -57 38c-38.667 0 -58 -12.667 -58 -38c0 -19.333 19.333 -33 58 -41c38 7.33301 57 21 57 41zM829.998 118c0 14.667 -7.66699 26.167 -23 34.5s-29.333 12.833 -42 13.5c-12 -0.666992 -25.833 -5.16699 -41.5 -13.5
s-23.5 -19.833 -23.5 -34.5c0 -26 21.667 -39 65 -39s65 13 65 39zM372.998 402c0 -42 -15.666 -76.167 -46.999 -102.5s-74.333 -39.5 -129 -39.5c-73.333 0 -129 21 -167 63l60 75c28 -32 63.667 -48 107 -48c20.667 0 36.5 4.83301 47.5 14.5s16.5 21.167 16.5 34.5
c0 14 -5.33301 25.5 -16 34.5s-25.667 13.5 -45 13.5c-32.667 0 -59.334 -12.333 -80.001 -37l-78 24v233h304v-90h-190v-80c21.333 21.333 50.333 32 87 32s67.5 -11 92.5 -33s37.5 -53.333 37.5 -94z" />
    <glyph glyph-name="seveneighths" unicode="&#x215e;" horiz-adv-x="894" 
d="M665 667l-428 -667h-86l426 667h88zM871 106c0 -39.333 -17.002 -68 -51.002 -86s-76.333 -27 -127 -27c-50 0 -92.167 8.83301 -126.5 26.5s-51.5 46.5 -51.5 86.5c0 22 8.66699 42.5 26 61.5s39.333 31.833 66 38.5c-25.333 6 -45.833 17.333 -61.5 34
s-23.5 36.334 -23.5 59.001c0 36 16.833 62.833 50.5 80.5s73.834 26.5 120.501 26.5s86.834 -8.83301 120.501 -26.5s50.5 -44.5 50.5 -80.5c0 -22.667 -7.83301 -42.334 -23.5 -59.001s-36.167 -28 -61.5 -34c26.667 -6.66699 48.667 -19.5 66 -38.5s26 -39.5 26 -61.5z
M749.998 282c0 25.333 -19 38 -57 38c-38.667 0 -58 -12.667 -58 -38c0 -19.333 19.333 -33 58 -41c38 7.33301 57 21 57 41zM757.998 118c0 14.667 -7.66699 26.167 -23 34.5s-29.333 12.833 -42 13.5c-12 -0.666992 -25.833 -5.16699 -41.5 -13.5
s-23.5 -19.833 -23.5 -34.5c0 -26 21.667 -39 65 -39s65 13 65 39zM349.998 588l-139 -321h-126l142 310h-204v90h327v-79z" />
    <glyph glyph-name="arrowleft" unicode="&#x2190;" horiz-adv-x="582" 
d="M538 211h-269l12 -130l-281 205l281 204l-12 -129h269v-150z" />
    <glyph glyph-name="arrowup" unicode="&#x2191;" horiz-adv-x="582" 
d="M216 17v269l-130 -12l205 281l204 -281l-129 12v-269h-150z" />
    <glyph glyph-name="arrowright" unicode="&#x2192;" horiz-adv-x="582" 
d="M584 286l-281 -205l12 130h-268v150h268l-12 129z" />
    <glyph glyph-name="arrowdown" unicode="&#x2193;" horiz-adv-x="582" 
d="M366 555v-269l130 12l-205 -281l-204 281l129 -12v269h150z" />
    <glyph glyph-name="partialdiff" unicode="&#x2202;" horiz-adv-x="576" 
d="M287 -12c-79.333 0 -142.835 22.501 -190.502 67.501s-71.5 99.833 -71.5 164.5c0 62.667 20.333 116.667 61 162s90.667 68 150 68c72 0 123 -25.333 153 -76c-37.333 99.333 -105.666 175.666 -204.999 228.999l124 82c64.667 -40.667 121.334 -99.667 170.001 -177
s73 -160 73 -248c0 -83.333 -23.5 -149.5 -70.5 -198.5s-111.5 -73.5 -193.5 -73.5zM286.998 124.001c33.333 0 59.333 8.83301 78 26.5s28 40.834 28 69.501s-9.33301 51.667 -28 69s-44.667 26 -78 26c-32.667 0 -58.167 -8.66699 -76.5 -26s-27.5 -40.333 -27.5 -69
s9.16699 -51.834 27.5 -69.501s43.833 -26.5 76.5 -26.5z" />
    <glyph glyph-name="product" unicode="&#x220f;" horiz-adv-x="828" 
d="M705 -90h-172v607h-237v-607h-172v607h-102v150h784v-150h-101v-607z" />
    <glyph glyph-name="summation" unicode="&#x2211;" horiz-adv-x="591" 
d="M442 296l-185 221h293v150h-508v-150l188 -222l-189 -235v-150h509v150h-301z" />
    <glyph glyph-name="minus" unicode="&#x2212;" horiz-adv-x="507" 
d="M478 288h-449v92h449v-92z" />
    <glyph glyph-name="radical" unicode="&#x221a;" horiz-adv-x="661" 
d="M393 0h-97l-104 290l-118 -40l-28 88l213 69l88 -255l180 515h112z" />
    <glyph glyph-name="infinity" unicode="&#x221e;" horiz-adv-x="707" 
d="M202 153c-57.333 0 -100.501 18.1689 -129.501 54.502s-43.5 79.166 -43.5 128.499s14.5 92.166 43.5 128.499s72.167 54.5 129.5 54.5c32.667 0 62.334 -8.83301 89.001 -26.5s47.334 -40.834 62.001 -69.501c15.333 28.667 36.333 51.834 63 69.501
s56.334 26.5 89.001 26.5c58 0 101.333 -18.167 130 -54.5s43 -79.5 43 -129.5s-14.167 -92.833 -42.5 -128.5s-71.833 -53.5 -130.5 -53.5c-32.667 0 -62.5 8.66699 -89.5 26s-47.833 40.333 -62.5 69c-14.667 -28.667 -35.334 -51.667 -62.001 -69
s-56.334 -26 -89.001 -26zM491.999 244.002c25.333 0 46.165 8.16699 62.498 24.5s24.5 38.5 24.5 66.5s-8.16699 50.5 -24.5 67.5s-37.166 25.5 -62.499 25.5c-22 0 -41.167 -8.5 -57.5 -25.5s-29.166 -39.5 -38.499 -67.5c20 -60.667 52 -91 96 -91zM215.998 243.002
c21.333 0 40.5 8.66797 57.5 26.001s29.833 39.666 38.5 66.999c-8.66699 27.333 -21.5 49.5 -38.5 66.5s-36.167 25.5 -57.5 25.5c-25.333 0 -46.333 -8.33301 -63 -25s-25 -39 -25 -67s8.33301 -50.5 25 -67.5s37.667 -25.5 63 -25.5z" />
    <glyph glyph-name="integral" unicode="&#x222b;" horiz-adv-x="386" 
d="M77 -100h-60v99h60c17.333 0 32 6.83301 44 20.5s18 31.167 18 52.5v524c0 51.333 16.667 92.833 50 124.5s73.333 47.5 120 47.5h60v-99h-60c-17.333 0 -32 -6.66699 -44 -20s-18 -31 -18 -53v-524c0 -52 -16.667 -93.667 -50 -125s-73.333 -47 -120 -47z" />
    <glyph glyph-name="approxequal" unicode="&#x2248;" horiz-adv-x="507" 
d="M29 195v99c35.333 -18.667 72.666 -28 111.999 -28c30 0 65.167 8.16699 105.5 24.5s79.833 24.5 118.5 24.5s76.334 -7.33301 113.001 -22v-99c-35.333 19.333 -73 29 -113 29c-30 0 -65 -8.16699 -105 -24.5s-79.667 -24.5 -119 -24.5c-40 0 -77.333 7 -112 21zM29 375
v99c35.333 -18.667 72.666 -28 111.999 -28c30 0 65.167 8.16699 105.5 24.5s79.833 24.5 118.5 24.5s76.334 -7.33301 113.001 -22v-99c-35.333 19.333 -73 29 -113 29c-30 0 -65 -8.16699 -105 -24.5s-79.667 -24.5 -119 -24.5c-40 0 -77.333 7 -112 21z" />
    <glyph glyph-name="notequal" unicode="&#x2260;" horiz-adv-x="507" 
d="M143 93h-86l65 102h-93v92h151l60 94h-211v92h270l64 101h87l-65 -101h93v-92h-152l-60 -94h212v-92h-270z" />
    <glyph glyph-name="lessequal" unicode="&#x2264;" horiz-adv-x="507" 
d="M478 115l-449 189v111l449 190v-110l-344 -136l344 -135v-109zM478 0h-449v92h449v-92z" />
    <glyph glyph-name="greaterequal" unicode="&#x2265;" horiz-adv-x="507" 
d="M477 304l-449 -189v109l345 135l-345 136v110l449 -190v-111zM478 0h-449v92h449v-92z" />
    <glyph glyph-name="triangleright" unicode="&#x22b2;" horiz-adv-x="587" 
d="M589 286l-535 -309v618z" />
    <glyph glyph-name="triangleleft" unicode="&#x22b3;" horiz-adv-x="587" 
d="M535 595v-618l-535 309z" />
    <glyph glyph-name="uni2318" unicode="&#x2318;" horiz-adv-x="667" 
d="M215 154v62h-62c-16.667 0 -31.167 -6.16699 -43.5 -18.5s-18.5 -26.833 -18.5 -43.5c0 -17.333 6 -32.166 18 -44.499s26.667 -18.5 44 -18.5s32 6.16699 44 18.5s18 27.166 18 44.499zM215 451v62.999c0 16.667 -6 31.167 -18 43.5s-26.333 18.5 -43 18.5
c-17.333 0 -32.166 -6 -44.499 -18s-18.5 -26.667 -18.5 -44s6.16699 -32.166 18.5 -44.499s27.166 -18.5 44.499 -18.5h61zM265 264.999h137v137h-137v-137zM576 153.999c0 16.667 -6.16699 31.167 -18.5 43.5s-26.833 18.5 -43.5 18.5h-62v-62
c0 -17.333 6 -32.166 18 -44.499s26.667 -18.5 44 -18.5s32 6.16699 44 18.5s18 27.166 18 44.499zM576 513.999c0 16.667 -6.16699 31.168 -18.5 43.501s-26.833 18.5 -43.5 18.5c-17.333 0 -32 -6 -44 -18s-18 -26.667 -18 -44v-63h62c16.667 0 31.167 6.16699 43.5 18.5
s18.5 27.166 18.5 44.499zM625 154c0 -30.667 -10.834 -57 -32.501 -79s-47.834 -33 -78.501 -33s-57 11 -79 33s-33 48.333 -33 79v62h-137v-62c0 -30.667 -11 -57 -33 -79s-48.333 -33 -79 -33s-56.834 11 -78.501 33s-32.5 48.333 -32.5 79s10.833 56.834 32.5 78.501
s47.834 32.5 78.501 32.5h62v137h-61c-30.667 0 -57 11 -79 33s-33 48.333 -33 79s11 56.834 33 78.501s48.333 32.5 79 32.5s56.834 -10.833 78.501 -32.5s32.5 -47.834 32.5 -78.501v-63h137v63c0 30.667 11 56.834 33 78.501s48.333 32.5 79 32.5
s56.834 -10.833 78.501 -32.5s32.5 -47.834 32.5 -78.501s-10.833 -57 -32.5 -79s-47.834 -33 -78.501 -33h-62v-137h62c30.667 0 56.834 -10.833 78.501 -32.5s32.5 -47.834 32.5 -78.501z" />
    <glyph glyph-name="uni2318" unicode="&#xf8ff;" horiz-adv-x="667" 
d="M215 154v62h-62c-16.667 0 -31.167 -6.16699 -43.5 -18.5s-18.5 -26.833 -18.5 -43.5c0 -17.333 6 -32.166 18 -44.499s26.667 -18.5 44 -18.5s32 6.16699 44 18.5s18 27.166 18 44.499zM215 451v62.999c0 16.667 -6 31.167 -18 43.5s-26.333 18.5 -43 18.5
c-17.333 0 -32.166 -6 -44.499 -18s-18.5 -26.667 -18.5 -44s6.16699 -32.166 18.5 -44.499s27.166 -18.5 44.499 -18.5h61zM265 264.999h137v137h-137v-137zM576 153.999c0 16.667 -6.16699 31.167 -18.5 43.5s-26.833 18.5 -43.5 18.5h-62v-62
c0 -17.333 6 -32.166 18 -44.499s26.667 -18.5 44 -18.5s32 6.16699 44 18.5s18 27.166 18 44.499zM576 513.999c0 16.667 -6.16699 31.168 -18.5 43.501s-26.833 18.5 -43.5 18.5c-17.333 0 -32 -6 -44 -18s-18 -26.667 -18 -44v-63h62c16.667 0 31.167 6.16699 43.5 18.5
s18.5 27.166 18.5 44.499zM625 154c0 -30.667 -10.834 -57 -32.501 -79s-47.834 -33 -78.501 -33s-57 11 -79 33s-33 48.333 -33 79v62h-137v-62c0 -30.667 -11 -57 -33 -79s-48.333 -33 -79 -33s-56.834 11 -78.501 33s-32.5 48.333 -32.5 79s10.833 56.834 32.5 78.501
s47.834 32.5 78.501 32.5h62v137h-61c-30.667 0 -57 11 -79 33s-33 48.333 -33 79s11 56.834 33 78.501s48.333 32.5 79 32.5s56.834 -10.833 78.501 -32.5s32.5 -47.834 32.5 -78.501v-63h137v63c0 30.667 11 56.834 33 78.501s48.333 32.5 79 32.5
s56.834 -10.833 78.501 -32.5s32.5 -47.834 32.5 -78.501s-10.833 -57 -32.5 -79s-47.834 -33 -78.501 -33h-62v-137h62c30.667 0 56.834 -10.833 78.501 -32.5s32.5 -47.834 32.5 -78.501z" />
    <glyph glyph-name="blacksquare" unicode="&#x25a0;" horiz-adv-x="661" 
d="M618 0h-571v572h571v-572z" />
    <glyph glyph-name="triagup" unicode="&#x25b2;" horiz-adv-x="616" 
d="M617 29l-619 1l309 535z" />
    <glyph glyph-name="triagdn" unicode="&#x25bc;" horiz-adv-x="616" 
d="M617 510l-310 -535l-309 535h619z" />
    <glyph glyph-name="lozenge" unicode="&#x25ca;" horiz-adv-x="375" 
d="M198 0h-21l-158 334l158 333h21l158 -333zM188 41l132 293l-133 292l-132 -292z" />
    <glyph glyph-name="circlesolid" unicode="&#x25cf;" horiz-adv-x="695" 
d="M644 285c0 -82 -29 -152 -87 -210s-128 -87 -210 -87s-152 29 -210 87s-87 128 -87 210s29 152 87 210s128 87 210 87s152 -29 210 -87s87 -128 87 -210z" />
    <glyph glyph-name="blackstar" unicode="&#x2605;" horiz-adv-x="759" 
d="M759 421l-235 -171l90 -275l-235 170l-234 -170l89 275l-234 171h290l89 276l90 -276h290z" />
    <glyph glyph-name="ballotbox" unicode="&#x2610;" horiz-adv-x="661" 
d="M616 0h-571v572h571v-572zM516 92v388h-370v-388h370z" />
    <glyph glyph-name="boxchecked" unicode="&#x2611;" horiz-adv-x="661" 
d="M616 0h-571v572h479l95 174l79 -48l-82 -151v-547zM146 480v-388h222l-201 245l71 67l117 -140l118 216h-327zM516 92v270l-147 -270h147z" />
    <glyph glyph-name="diamond" unicode="&#x2666;" horiz-adv-x="501" 
d="M501 285l-251 -250l-250 250l250 251z" />
    <glyph glyph-name="checkmark" unicode="&#x2713;" horiz-adv-x="531" 
d="M531 698l-329 -607l-202 246l71 67l117 -140l264 482z" />
    <glyph glyph-name="perthousand.onum" unicode="&#xf628;" horiz-adv-x="919" 
d="M299 423c0 -39.333 -12.667 -72.333 -38 -99s-58.666 -40 -99.999 -40c-40.667 0 -73.667 13.333 -99 40s-38 59.667 -38 99s12.667 72.333 38 99s58.333 40 99 40c41.333 0 74.666 -13.333 99.999 -40s38 -59.667 38 -99zM600 129c0 -39.333 -12.667 -72.333 -38 -99
s-58.333 -40 -99 -40s-73.667 13.333 -99 40s-38 59.667 -38 99s12.667 72.333 38 99s58.333 40 99 40s73.667 -13.333 99 -40s38 -59.667 38 -99zM544 550l-383 -550h-81l382 550h82zM211 423c0 18.667 -4.83301 33.667 -14.5 45s-21.5 17 -35.5 17
s-25.5 -5.66699 -34.5 -17s-13.5 -26.333 -13.5 -45s4.5 -33.5 13.5 -44.5s20.5 -16.5 34.5 -16.5c14.667 0 26.667 5.5 36 16.5s14 25.833 14 44.5zM512 129c0 19.333 -4.5 34.333 -13.5 45s-20.833 16 -35.5 16s-26.5 -5.33301 -35.5 -16s-13.5 -25.667 -13.5 -45
s4.5 -34.333 13.5 -45s20.833 -16 35.5 -16s26.5 5.33301 35.5 16s13.5 25.667 13.5 45zM895 129c0 -39.333 -12.833 -72.333 -38.5 -99s-58.834 -40 -99.501 -40s-73.667 13.5 -99 40.5s-38 59.833 -38 98.5c0 39.333 12.667 72.333 38 99s58.333 40 99 40
s73.834 -13.333 99.501 -40s38.5 -59.667 38.5 -99zM806 129c0 19.333 -4.5 34.333 -13.5 45s-20.833 16 -35.5 16s-26.5 -5.33301 -35.5 -16s-13.5 -25.667 -13.5 -45s4.5 -34.333 13.5 -45s20.833 -16 35.5 -16s26.5 5.33301 35.5 16s13.5 25.667 13.5 45z" />
    <glyph glyph-name="zero.tzero" unicode="&#xf638;" horiz-adv-x="642" 
d="M322 -12c-55.333 0 -104.332 13.332 -146.999 39.999l-19 -28h-116l64 96c-45.333 63.333 -68 142.333 -68 237c0 61.333 10 117.333 30 168s52.167 92.667 96.5 126s97.5 50 159.5 50c55.333 0 103.666 -13.333 144.999 -40l20 30h116l-65 -97
c46.667 -63.333 70 -142.333 70 -237c0 -45.333 -5.83301 -88.166 -17.5 -128.499s-29 -76.833 -52 -109.5s-53 -58.667 -90 -78s-79.167 -29 -126.5 -29zM322.001 139.999c74.667 0 111.999 64.332 111.999 192.999c0 24.667 -1.66699 49.334 -5 74.001l-166 -248
c14.667 -12.667 34.334 -19 59.001 -19zM210 332.998c0 -30.667 1.66699 -54.667 5 -72l165 246c-16 12 -35.333 18 -58 18c-74.667 0 -112 -64 -112 -192z" />
    <glyph glyph-name="zero.tnum" unicode="&#xf639;" horiz-adv-x="636" 
d="M318 -12c-47.333 0 -89.5 9.66699 -126.5 29s-67 45.333 -90 78s-40.333 69.167 -52 109.5s-17.5 83.166 -17.5 128.499c0 61.333 10 117.333 30 168s52.167 92.667 96.5 126s97.5 50 159.5 50s115.167 -16.667 159.5 -50s76.5 -75.333 96.5 -126s30 -106.667 30 -168
c0 -45.333 -5.83301 -88.166 -17.5 -128.499s-29 -76.833 -52 -109.5s-53 -58.667 -90 -78s-79.167 -29 -126.5 -29zM318 140c74.667 0 112 64.333 112 193c0 128 -37.333 192 -112 192s-112 -64 -112 -192c0 -128.667 37.333 -193 112 -193z" />
    <glyph glyph-name="two.tnum" unicode="&#xf63a;" horiz-adv-x="636" 
d="M590 0h-522.999v134c148 106.667 242.167 178.834 282.5 216.501s60.5 72.834 60.5 105.501c0 21.333 -8.83301 38.166 -26.5 50.499s-39.5 18.5 -65.5 18.5c-66.667 0 -126 -24.333 -178 -73l-95 114c34 37.333 75 65.166 123 83.499s97 27.5 147 27.5
c79.333 0 144.166 -20.333 194.499 -61s75.5 -94 75.5 -160c0 -50.667 -18.667 -99.5 -56 -146.5s-98.333 -100.167 -183 -159.5h244v-150z" />
    </font>
</defs>
</svg>
